<?xml version="1.0" encoding="UTF-8"?>
<svg xmlns="http://www.w3.org/2000/svg" xmlns:xlink="http://www.w3.org/1999/xlink" version="1.2" >
<font id="Adelle Sans Geor beta Th">
<font-face  font-family="Adelle Sans Geor beta" units-per-em="1000" ascent="1000" descent="-370" font-style="normal" font-weight="300" font-stretch="normal" cap-height="724" x-height="508" underline-position="-75" underline-thickness="50" />
<missing-glyph  horiz-adv-x="500" d="" />
<glyph glyph-name="space" unicode="&#x20;" horiz-adv-x="242" d="" />
<glyph glyph-name="exclam" unicode="&#x21;" horiz-adv-x="249" d="M141 179 L153 724 L94 724 L109 179 L141 179 Z M177 39 C177 73 158 89 125 89 C93 89 74 73 74 39 C74 5 93 -12 125 -12 C158 -12 177 4 177 39 L177 39 Z " />
<glyph glyph-name="quotedbl" unicode="&#x22;" horiz-adv-x="371" d="M301 465 L301 724 L242 724 L242 465 L301 465 Z M129 465 L129 724 L70 724 L70 465 L129 465 Z " />
<glyph glyph-name="numbersign" unicode="&#x23;" horiz-adv-x="607" d="M381 0 L403 148 L529 148 L538 186 L410 186 L438 376 L566 376 L575 415 L445 415 L463 543 L419 543 L400 415 L257 415 L277 543 L234 543 L213 415 L86 415 L76 376 L206 376 L176 186 L49 186 L37 148 L168 148 L147 0 L191 0 L214 148 L359 148 L337 0 L381 0 Z M365 186 L220 186 L251 376 L394 376 L365 186 Z " />
<glyph glyph-name="dollar" unicode="&#x24;" horiz-adv-x="515" d="M407 530 L456 540 C439 648 384 699 287 710 L287 792 L246 792 L246 710 C154 701 67 645 67 527 C67 391 157 362 245 336 L245 52 C147 57 108 107 90 205 L42 193 C60 59 139 13 248 9 L248 -79 L288 -79 L288 11 C398 21 461 91 461 192 C461 314 373 345 287 372 L287 665 C367 656 393 599 407 530 L407 530 Z M118 528 C118 591 147 658 245 665 L245 385 C176 408 118 439 118 528 L118 528 Z M408 184 C408 104 357 62 287 53 L287 323 C353 301 408 271 408 184 L408 184 Z " />
<glyph glyph-name="percent" unicode="&#x25;" horiz-adv-x="780" d="M205 374 C309 374 365 453 365 563 C365 666 320 737 213 737 C109 737 51 658 51 550 C51 460 90 374 205 374 L205 374 Z M207 417 C125 417 105 484 105 554 C105 613 127 693 211 693 C292 693 310 627 310 559 C310 483 289 417 207 417 L207 417 Z M567 -12 C671 -12 727 67 727 177 C727 280 682 351 575 351 C471 351 413 272 413 164 C413 74 452 -12 567 -12 L567 -12 Z M569 31 C487 31 467 98 467 168 C467 227 489 307 573 307 C654 307 672 241 672 173 C672 97 651 31 569 31 L569 31 Z M189 -18 L628 724 L577 724 L138 -18 L189 -18 Z " />
<glyph glyph-name="ampersand" unicode="&#x26;" horiz-adv-x="668" d="M449 564 C449 678 368 696 315 696 C214 696 154 616 154 528 C154 470 171 430 195 383 C112 336 64 277 64 179 C64 64 159 -12 277 -12 C351 -12 408 9 453 44 C493 10 528 -13 583 -13 C603 -13 631 -8 648 6 L633 37 C615 28 599 23 582 23 C546 23 513 44 481 74 C535 140 556 233 559 330 L515 330 C511 236 493 155 449 100 C371 185 305 275 253 367 L306 391 C414 436 449 504 449 564 L449 564 Z M280 28 C168 28 110 107 110 187 C110 269 155 314 215 348 C277 245 346 149 424 71 C387 44 341 28 280 28 L280 28 Z M311 656 C371 656 401 622 401 563 C401 503 363 458 282 421 L235 400 C215 445 201 479 201 530 C201 607 246 656 311 656 L311 656 Z " />
<glyph glyph-name="quotesingle" unicode="&#x27;" horiz-adv-x="199" d="M129 465 L129 724 L70 724 L70 465 L129 465 Z " />
<glyph glyph-name="parenleft" unicode="&#x28;" horiz-adv-x="285" d="M251 -153 C169 -18 111 106 111 280 C111 421 164 563 262 724 L212 724 C141 619 63 459 63 280 C63 100 133 -39 204 -152 L251 -153 Z " />
<glyph glyph-name="parenright" unicode="&#x29;" horiz-adv-x="285" d="M105 -152 C176 -39 246 100 246 280 C246 459 168 619 97 724 L47 724 C145 563 198 421 198 280 C198 106 140 -18 58 -153 L105 -152 Z " />
<glyph glyph-name="asterisk" unicode="&#x2a;" horiz-adv-x="467" d="M247 755 L226 755 L206 604 L68 639 L59 620 L189 556 L106 425 L123 412 L234 521 L347 414 L365 426 L281 557 L408 621 L401 640 L264 604 L247 755 Z " />
<glyph glyph-name="plus" unicode="&#x2b;" horiz-adv-x="570" d="M309 134 L309 299 L470 299 L470 346 L309 346 L309 504 L261 504 L261 346 L100 346 L100 299 L261 299 L261 134 L309 134 Z " />
<glyph glyph-name="comma" unicode="&#x2c;" horiz-adv-x="200" d="M28 -115 L66 -122 L141 82 L79 82 L28 -115 Z " />
<glyph glyph-name="hyphen" unicode="&#x2d;" horiz-adv-x="318" d="M291 271 L291 322 L20 322 L20 271 L291 271 Z " />
<glyph glyph-name="period" unicode="&#x2e;" horiz-adv-x="209" d="M155 37 C155 69 136 85 104 85 C73 85 54 69 54 37 C54 4 73 -12 104 -12 C136 -12 155 4 155 37 L155 37 Z " />
<glyph glyph-name="slash" unicode="&#x2f;" horiz-adv-x="334" d="M50 -92 L330 755 L286 755 L5 -92 L50 -92 Z " />
<glyph glyph-name="zero" unicode="0" horiz-adv-x="546" d="M271 -12 C465 -12 498 169 498 373 C498 551 475 737 281 737 C85 737 48 551 48 358 C48 166 75 -12 271 -12 L271 -12 Z M274 32 C120 32 97 189 97 354 C97 541 125 693 279 693 C431 693 449 542 449 366 C449 186 426 32 274 32 L274 32 Z " />
<glyph glyph-name="one" unicode="1" horiz-adv-x="392" d="M256 0 L256 724 L240 724 C196 671 142 648 46 640 L53 602 C86 602 174 617 209 639 L209 0 L256 0 Z " />
<glyph glyph-name="two" unicode="2" horiz-adv-x="509" d="M260 737 C150 737 76 687 56 565 L102 556 C115 626 140 694 255 694 C336 694 393 659 393 559 C393 452 351 395 243 259 L63 35 L63 0 L454 0 L454 41 L121 41 L288 246 C383 362 445 447 445 563 C445 689 363 737 260 737 L260 737 Z " />
<glyph glyph-name="three" unicode="3" horiz-adv-x="531" d="M49 146 C62 44 131 -12 244 -12 C383 -12 460 77 460 202 C460 320 397 377 304 390 L304 392 C366 404 448 449 448 570 C448 666 388 737 269 737 C167 737 89 692 67 584 L111 573 C129 642 161 694 262 694 C365 694 398 635 398 564 C398 473 329 407 217 407 L171 407 L171 365 L231 365 C333 365 408 326 408 200 C408 78 327 33 246 33 C135 33 108 97 97 156 L49 146 Z " />
<glyph glyph-name="four" unicode="4" horiz-adv-x="522" d="M407 0 L407 189 L496 189 L496 232 L408 232 L408 724 L343 724 L19 226 L19 189 L360 189 L360 0 L407 0 Z M77 232 L361 677 L361 232 L77 232 Z " />
<glyph glyph-name="five" unicode="5" horiz-adv-x="528" d="M76 367 L112 350 C154 390 203 415 269 415 C352 415 417 365 417 238 C417 85 324 33 242 33 C131 33 99 99 85 159 L37 147 C55 41 132 -12 241 -12 C392 -12 470 97 470 237 C470 416 362 459 274 459 C205 459 156 432 122 402 L147 681 L426 681 L426 724 L104 724 L76 367 Z " />
<glyph glyph-name="six" unicode="6" horiz-adv-x="556" d="M490 594 C471 696 406 737 325 737 C114 737 71 490 71 334 C71 155 109 -12 290 -12 C423 -12 502 84 502 231 C502 342 448 439 313 439 C231 439 153 381 119 336 C121 466 154 695 318 695 C377 695 423 675 446 583 L490 594 Z M122 286 C170 348 236 394 312 394 C405 394 453 338 453 226 C453 85 378 30 292 30 C153 30 129 171 122 286 L122 286 Z " />
<glyph glyph-name="seven" unicode="7" horiz-adv-x="499" d="M173 0 L481 687 L481 724 L38 724 L38 681 L427 681 L120 0 L173 0 Z " />
<glyph glyph-name="eight" unicode="8" horiz-adv-x="519" d="M310 372 C400 414 469 482 469 573 C469 678 392 737 275 737 C161 737 68 677 68 554 C68 459 136 397 210 368 C128 336 44 282 44 171 C44 66 109 -12 259 -12 C392 -12 479 63 479 174 C479 298 388 339 310 372 L310 372 Z M255 348 C326 322 430 288 430 177 C430 108 385 30 262 30 C146 30 96 91 96 171 C96 271 164 312 255 348 L255 348 Z M264 388 C185 422 117 460 117 560 C117 645 174 696 269 696 C368 696 420 651 420 574 C420 492 360 433 264 388 L264 388 Z " />
<glyph glyph-name="nine" unicode="9" horiz-adv-x="556" d="M58 135 C78 34 151 -12 245 -12 C449 -12 489 186 489 391 C489 570 452 737 270 737 C137 737 57 641 57 493 C57 377 112 275 248 275 C330 275 407 331 441 376 C438 187 400 31 248 31 C179 31 122 64 104 146 L58 135 Z M438 429 C395 371 326 320 250 320 C158 320 107 381 107 497 C107 639 181 696 268 696 C412 696 432 543 438 429 L438 429 Z " />
<glyph glyph-name="colon" unicode="&#x3a;" horiz-adv-x="209" d="M155 37 C155 69 136 85 104 85 C73 85 54 69 54 37 C54 4 73 -12 104 -12 C136 -12 155 4 155 37 L155 37 Z M155 442 C155 474 136 490 104 490 C73 490 54 474 54 442 C54 409 73 393 104 393 C136 393 155 409 155 442 L155 442 Z " />
<glyph glyph-name="semicolon" unicode="&#x3b;" horiz-adv-x="200" d="M15 -115 L53 -122 L128 82 L66 82 L15 -115 Z M164 442 C164 474 145 490 113 490 C82 490 63 474 63 442 C63 409 82 393 113 393 C145 393 164 409 164 442 L164 442 Z " />
<glyph glyph-name="less" unicode="&#x3c;" horiz-adv-x="570" d="M460 104 L460 153 L140 285 L460 426 L460 476 L89 312 L89 255 L460 104 Z " />
<glyph glyph-name="equal" unicode="&#x3d;" horiz-adv-x="570" d="M468 193 L468 238 L103 238 L103 193 L468 193 Z M468 335 L468 380 L103 380 L103 335 L468 335 Z " />
<glyph glyph-name="greater" unicode="&#x3e;" horiz-adv-x="570" d="M460 255 L460 312 L89 476 L89 426 L409 285 L89 153 L89 104 L460 255 Z " />
<glyph glyph-name="question" unicode="&#x3f;" horiz-adv-x="481" d="M187 178 L187 319 C305 338 410 391 410 540 C410 678 322 721 217 721 C73 721 28 631 13 566 L56 557 C82 659 142 681 215 681 C295 681 362 654 362 532 C362 399 259 364 143 353 L143 178 L187 178 Z M215 39 C215 73 196 89 164 89 C132 89 112 73 112 39 C112 5 132 -12 164 -12 C196 -12 215 4 215 39 L215 39 Z " />
<glyph glyph-name="at" unicode="&#x40;" horiz-adv-x="833" d="M647 -46 C603 -94 524 -124 431 -124 C251 -124 95 -34 95 194 C95 393 220 528 427 528 C609 528 739 452 739 233 C739 72 672 31 620 31 C560 31 560 76 560 134 L560 391 L521 391 L518 361 C491 384 450 397 412 397 C306 397 238 304 238 178 C238 85 269 -8 386 -8 C444 -8 498 23 522 56 C538 23 565 0 618 0 C716 0 781 76 781 245 C781 466 627 564 433 564 C206 564 52 419 52 193 C52 -42 214 -161 424 -161 C524 -161 618 -133 675 -73 L647 -46 Z M516 111 C495 63 441 29 389 29 C310 29 287 97 287 177 C287 299 340 360 414 360 C456 360 492 343 516 322 L516 111 Z " />
<glyph glyph-name="A" unicode="A" horiz-adv-x="637" d="M283 724 L35 0 L85 0 L169 248 L464 248 L548 0 L602 0 L353 724 L283 724 Z M450 290 L183 290 L316 693 L316 693 L450 290 Z " />
<glyph glyph-name="B" unicode="B" horiz-adv-x="638" d="M314 0 C471 0 578 46 578 194 C578 293 523 358 402 375 L402 377 C486 392 556 441 556 547 C556 646 510 724 339 724 L112 724 L112 0 L314 0 Z M159 44 L159 349 L338 349 C446 349 528 302 528 193 C528 62 434 44 314 44 L159 44 Z M159 393 L159 681 L331 681 C452 681 503 646 503 549 C503 421 381 393 297 393 L159 393 Z " />
<glyph glyph-name="C" unicode="C" horiz-adv-x="716" d="M379 -12 C510 -12 620 40 649 189 L607 199 C577 76 507 29 382 29 C221 29 120 123 120 356 C120 578 230 696 397 696 C534 696 592 626 610 503 L656 507 C642 663 543 737 398 737 C206 737 70 604 70 348 C70 138 158 -12 379 -12 L379 -12 Z " />
<glyph glyph-name="D" unicode="D" horiz-adv-x="741" d="M295 0 C554 0 671 151 671 373 C671 589 563 724 312 724 L112 724 L112 0 L295 0 Z M160 41 L160 683 L308 683 C499 683 620 611 620 368 C620 155 506 41 303 41 L160 41 Z " />
<glyph glyph-name="E" unicode="E" horiz-adv-x="570" d="M160 347 L487 347 L487 390 L160 390 L160 682 L510 682 L510 724 L112 724 L112 0 L518 0 L518 42 L160 42 L160 347 Z " />
<glyph glyph-name="F" unicode="F" horiz-adv-x="543" d="M160 333 L485 333 L485 377 L160 377 L160 682 L511 682 L511 724 L112 724 L112 0 L160 0 L160 333 Z " />
<glyph glyph-name="G" unicode="G" horiz-adv-x="756" d="M615 0 L652 0 L652 374 L375 374 L375 329 L610 329 L610 242 C610 144 534 29 386 29 C251 29 119 89 119 359 C119 575 226 696 397 696 C518 696 594 649 610 500 L656 505 C642 668 547 737 400 737 C203 737 70 611 70 355 C70 138 162 -12 380 -12 C500 -12 580 48 607 115 L615 0 Z " />
<glyph glyph-name="H" unicode="H" horiz-adv-x="725" d="M613 724 L565 724 L565 394 L160 394 L160 724 L112 724 L112 0 L160 0 L160 350 L565 350 L565 0 L613 0 L613 724 Z " />
<glyph glyph-name="I" unicode="I" horiz-adv-x="272" d="M160 724 L112 724 L112 0 L160 0 L160 724 Z " />
<glyph glyph-name="J" unicode="J" horiz-adv-x="487" d="M338 176 C338 54 279 31 214 31 C117 31 96 85 87 152 L40 144 C45 57 90 -12 209 -12 C313 -12 386 29 386 173 L386 724 L338 724 L338 176 Z " />
<glyph glyph-name="K" unicode="K" horiz-adv-x="623" d="M160 724 L112 724 L112 0 L160 0 L160 283 L245 373 L546 0 L604 0 L278 405 L577 724 L517 724 L160 342 L160 724 Z " />
<glyph glyph-name="L" unicode="L" horiz-adv-x="552" d="M160 724 L112 724 L112 0 L497 0 L497 41 L160 41 L160 724 Z " />
<glyph glyph-name="M" unicode="M" horiz-adv-x="885" d="M773 724 L695 724 L443 37 L442 37 L193 724 L112 724 L112 0 L158 0 L158 676 L160 676 L408 0 L474 0 L724 675 L726 675 L726 0 L773 0 L773 724 Z " />
<glyph glyph-name="N" unicode="N" horiz-adv-x="745" d="M633 0 L633 724 L587 724 L587 53 L189 724 L112 724 L112 0 L159 0 L159 683 L568 0 L633 0 Z " />
<glyph glyph-name="O" unicode="O" horiz-adv-x="781" d="M386 -12 C597 -12 711 143 711 379 C711 580 608 737 400 737 C189 737 70 580 70 364 C70 147 173 -12 386 -12 L386 -12 Z M390 29 C232 29 121 151 121 363 C121 576 241 696 398 696 C554 696 661 577 661 369 C661 145 547 29 390 29 L390 29 Z " />
<glyph glyph-name="P" unicode="P" horiz-adv-x="612" d="M159 286 L290 286 C455 286 562 344 562 514 C562 629 506 724 321 724 L112 724 L112 0 L159 0 L159 286 Z M159 329 L159 683 L307 683 C453 683 511 628 511 515 C511 354 414 329 291 329 L159 329 Z " />
<glyph glyph-name="Q" unicode="Q" horiz-adv-x="781" d="M386 -12 C461 -12 522 7 574 41 L669 -60 L701 -33 L607 70 C675 138 711 246 711 379 C711 580 608 737 400 737 C189 737 70 580 70 364 C70 147 171 -12 386 -12 L386 -12 Z M390 31 C231 31 121 151 121 363 C121 576 241 696 398 696 C554 696 660 577 660 369 C660 247 628 158 577 104 L434 262 L399 233 L539 76 C497 46 447 31 390 31 L390 31 Z " />
<glyph glyph-name="R" unicode="R" horiz-adv-x="637" d="M415 332 C506 357 566 424 566 534 C566 638 515 724 335 724 L112 724 L112 0 L159 0 L159 321 L369 321 L549 0 L602 0 L415 332 Z M159 363 L159 683 L313 683 C433 683 515 659 515 535 C515 403 441 363 329 363 L159 363 Z " />
<glyph glyph-name="S" unicode="S" horiz-adv-x="578" d="M298 694 C433 694 459 605 474 533 L520 538 C502 679 420 737 295 737 C157 737 66 663 66 549 C66 415 165 379 269 351 C369 324 469 299 469 181 C469 61 369 33 282 33 C141 33 97 114 81 194 L32 184 C52 72 116 -12 283 -12 C410 -12 523 43 523 186 C523 336 394 364 283 396 C187 424 118 452 118 551 C118 629 162 694 298 694 L298 694 Z " />
<glyph glyph-name="T" unicode="T" horiz-adv-x="532" d="M290 0 L290 682 L512 682 L512 724 L20 724 L20 682 L242 682 L242 0 L290 0 Z " />
<glyph glyph-name="U" unicode="U" horiz-adv-x="718" d="M360 32 C238 32 156 81 156 232 L156 724 L108 724 L108 228 C108 76 178 -12 354 -12 C521 -12 610 69 610 228 L610 724 L562 724 L562 230 C562 79 486 32 360 32 L360 32 Z " />
<glyph glyph-name="V" unicode="V" horiz-adv-x="614" d="M348 0 L584 724 L534 724 L314 41 L313 41 L83 724 L30 724 L279 0 L348 0 Z " />
<glyph glyph-name="W" unicode="W" horiz-adv-x="870" d="M680 0 L830 724 L783 724 L648 51 L646 51 L471 724 L408 724 L230 63 L228 63 L91 724 L40 724 L197 0 L254 0 L438 673 L441 673 L615 0 L680 0 Z " />
<glyph glyph-name="X" unicode="X" horiz-adv-x="607" d="M556 724 L503 724 L296 403 L91 724 L37 724 L266 369 L25 0 L79 0 L298 338 L529 0 L582 0 L328 373 L556 724 Z " />
<glyph glyph-name="Y" unicode="Y" horiz-adv-x="538" d="M297 291 L534 724 L485 724 L275 340 L274 340 L58 724 L4 724 L249 287 L249 0 L297 0 L297 291 Z " />
<glyph glyph-name="Z" unicode="Z" horiz-adv-x="585" d="M519 689 L519 724 L52 724 L52 682 L456 682 L39 34 L39 0 L536 0 L536 42 L100 42 L519 689 Z " />
<glyph glyph-name="bracketleft" unicode="&#x5b;" horiz-adv-x="239" d="M198 -143 L198 -105 L115 -105 L115 686 L198 686 L198 724 L71 724 L71 -143 L198 -143 Z " />
<glyph glyph-name="backslash" unicode="&#x5c;" horiz-adv-x="333" d="M328 -92 L47 755 L3 755 L283 -92 L328 -92 Z " />
<glyph glyph-name="bracketright" unicode="&#x5d;" horiz-adv-x="239" d="M168 -143 L168 724 L41 724 L41 686 L124 686 L124 -105 L41 -105 L41 -143 L168 -143 Z " />
<glyph glyph-name="asciicircum" unicode="&#x5e;" horiz-adv-x="492" d="M470 299 L270 664 L219 664 L22 299 L70 299 L243 620 L418 299 L470 299 Z " />
<glyph glyph-name="underscore" unicode="&#x5f;" horiz-adv-x="500" d="M500 -181 L500 -145 L0 -145 L0 -181 L500 -181 Z " />
<glyph glyph-name="grave" unicode="&#x60;" horiz-adv-x="500" d="M288 572 L329 586 L216 751 L144 751 L288 572 Z " />
<glyph glyph-name="a" unicode="a" horiz-adv-x="536" d="M440 348 C440 474 392 518 273 518 C171 518 109 484 93 390 L140 382 C151 445 184 477 269 477 C365 477 390 439 390 339 L390 294 C368 295 345 296 321 296 C203 296 72 271 72 126 C72 78 92 -12 222 -12 C294 -12 355 17 394 56 C392 25 408 -8 452 -8 C473 -8 486 -6 506 4 L502 36 C489 32 480 30 471 30 C445 30 440 44 440 72 L440 348 Z M391 102 C356 60 293 30 229 30 C145 30 124 76 124 131 C124 234 211 255 313 255 C344 255 368 254 391 252 L391 102 Z " />
<glyph glyph-name="b" unicode="b" horiz-adv-x="580" d="M139 0 L143 43 C180 14 238 -12 297 -12 C418 -12 515 69 515 267 C515 453 441 518 329 518 C247 518 190 483 143 444 L143 755 L95 755 L95 0 L139 0 Z M144 395 C176 428 249 475 321 475 C411 475 464 427 464 272 C464 132 419 33 301 33 C227 33 170 73 144 93 L144 395 Z " />
<glyph glyph-name="c" unicode="c" horiz-adv-x="530" d="M285 -12 C374 -12 461 31 480 140 L430 150 C416 70 362 34 284 34 C199 34 111 78 111 259 C111 427 205 475 290 475 C372 475 414 434 423 347 L476 353 C471 463 392 518 296 518 C148 518 60 431 60 252 C60 98 118 -12 285 -12 L285 -12 Z " />
<glyph glyph-name="d" unicode="d" horiz-adv-x="581" d="M486 755 L436 755 L436 468 C397 495 343 518 283 518 C165 518 65 445 65 249 C65 62 145 -12 258 -12 C336 -12 390 19 439 58 L444 0 L486 0 L486 755 Z M437 108 C399 67 337 31 268 31 C165 31 117 103 117 248 C117 384 159 474 282 474 C350 474 411 439 437 419 L437 108 Z " />
<glyph glyph-name="e" unicode="e" horiz-adv-x="543" d="M284 -12 C372 -12 450 28 475 131 L428 140 C410 71 368 35 288 35 C191 35 116 76 112 244 L478 244 C482 267 483 288 483 310 C483 426 428 518 293 518 C171 518 60 441 60 254 C60 113 109 -12 284 -12 L284 -12 Z M112 287 C121 422 202 473 287 473 C392 473 435 408 432 287 L112 287 Z " />
<glyph glyph-name="f" unicode="f" horiz-adv-x="299" d="M308 748 C291 756 263 763 229 763 C143 763 103 710 103 610 L103 508 L23 508 L23 465 L103 465 L103 0 L152 0 L152 465 L298 465 L298 508 L152 508 L152 626 C152 698 185 721 232 721 C256 721 285 715 305 708 L308 748 Z " />
<glyph glyph-name="g" unicode="g" horiz-adv-x="547" d="M266 518 C143 518 58 447 58 329 C58 267 87 212 134 189 C103 165 76 136 76 97 C76 66 99 42 126 35 C83 4 41 -28 41 -95 C41 -147 66 -226 263 -226 C371 -226 514 -199 514 -67 C514 23 456 50 354 56 L214 64 C147 68 127 84 127 109 C127 136 146 153 169 170 C192 161 233 155 271 155 C378 155 466 221 466 337 C466 378 455 420 434 444 C458 452 495 459 527 458 L527 508 C514 512 506 514 491 514 C456 514 436 484 425 458 C390 501 332 518 266 518 L266 518 Z M414 336 C414 252 355 200 265 200 C156 200 112 259 112 338 C112 436 182 476 268 476 C360 476 414 431 414 336 L414 336 Z M462 -65 C462 -140 401 -178 269 -178 C120 -178 94 -134 94 -89 C94 -42 126 -9 168 21 L359 11 C440 7 462 -26 462 -65 L462 -65 Z " />
<glyph glyph-name="h" unicode="h" horiz-adv-x="578" d="M490 342 C490 456 444 518 336 518 C266 518 201 486 142 443 L142 755 L93 755 L93 0 L142 0 L142 394 C175 425 254 472 327 472 C413 472 441 424 441 340 L441 0 L490 0 L490 342 Z " />
<glyph glyph-name="i" unicode="i" horiz-adv-x="236" d="M145 508 L96 508 L96 0 L145 0 L145 508 Z M169 677 C169 705 152 720 123 720 C94 720 77 705 77 677 C77 650 94 635 123 635 C152 635 169 650 169 677 L169 677 Z " />
<glyph glyph-name="j" unicode="j" horiz-adv-x="233" d="M26 -223 C108 -223 145 -180 145 -89 L145 508 L96 508 L96 -93 C96 -153 72 -177 28 -177 C7 -177 -20 -173 -43 -165 L-52 -208 C-35 -217 9 -223 26 -223 L26 -223 Z M170 689 C170 717 153 732 124 732 C95 732 78 717 78 689 C78 662 95 647 124 647 C153 647 170 662 170 689 L170 689 Z " />
<glyph glyph-name="k" unicode="k" horiz-adv-x="504" d="M142 755 L93 755 L93 0 L142 0 L142 187 L240 286 L415 0 L468 0 L275 321 L455 508 L396 508 L142 245 L142 755 Z " />
<glyph glyph-name="l" unicode="l" horiz-adv-x="236" d="M145 755 L96 755 L96 0 L145 0 L145 755 Z " />
<glyph glyph-name="m" unicode="m" horiz-adv-x="870" d="M142 393 C175 424 255 474 322 474 C404 474 418 425 418 339 L418 0 L467 0 L467 341 C467 361 466 381 463 399 C501 430 574 474 638 474 C720 474 733 425 733 339 L733 0 L782 0 L782 341 C782 456 754 518 643 518 C572 518 512 483 454 441 C437 490 400 518 328 518 C256 518 199 484 141 441 L137 508 L93 508 L93 0 L142 0 L142 393 Z " />
<glyph glyph-name="n" unicode="n" horiz-adv-x="578" d="M490 342 C490 456 444 518 337 518 C266 518 198 484 139 442 L136 508 L93 508 L93 0 L142 0 L142 394 C175 425 255 473 328 473 C414 473 441 424 441 340 L441 0 L490 0 L490 342 Z " />
<glyph glyph-name="o" unicode="o" horiz-adv-x="572" d="M284 -12 C447 -12 512 98 512 265 C512 417 448 518 297 518 C145 518 60 417 60 252 C60 103 115 -12 284 -12 L284 -12 Z M288 33 C169 33 109 107 109 256 C109 406 185 473 293 473 C398 473 460 419 460 259 C460 96 393 33 288 33 L288 33 Z " />
<glyph glyph-name="p" unicode="p" horiz-adv-x="580" d="M95 -212 L142 -212 L142 44 C181 17 237 -12 301 -12 C417 -12 515 70 515 267 C515 453 436 518 330 518 C247 518 183 478 142 443 L138 508 L95 508 L95 -212 Z M144 395 C179 433 250 477 321 477 C419 477 464 421 464 272 C464 130 418 32 301 32 C226 32 171 72 144 93 L144 395 Z " />
<glyph glyph-name="q" unicode="q" horiz-adv-x="580" d="M485 508 L436 508 L433 466 C394 491 342 518 282 518 C164 518 65 445 65 248 C65 62 144 -12 258 -12 C336 -12 392 19 438 59 L438 -212 L485 -212 L485 508 Z M436 108 C398 68 339 30 270 30 C167 30 116 95 116 243 C116 387 162 476 278 476 C354 476 410 431 436 411 L436 108 Z " />
<glyph glyph-name="r" unicode="r" horiz-adv-x="339" d="M327 518 C244 523 185 492 137 440 L132 508 L93 508 L93 0 L142 0 L142 407 C184 450 265 477 327 469 L327 518 Z " />
<glyph glyph-name="s" unicode="s" horiz-adv-x="477" d="M241 518 C150 518 68 472 68 379 C68 268 162 250 246 234 C318 220 372 203 372 133 C372 59 316 32 245 32 C137 32 112 90 99 153 L52 144 C68 29 136 -12 243 -12 C365 -12 423 50 423 135 C423 243 335 262 254 279 C178 295 118 310 118 383 C118 429 144 476 238 476 C329 476 354 432 362 360 L409 366 C401 457 364 518 241 518 L241 518 Z " />
<glyph glyph-name="t" unicode="t" horiz-adv-x="364" d="M330 56 C307 42 269 29 238 29 C169 29 155 65 155 126 L155 465 L299 465 L299 508 L155 508 L155 661 L106 653 L106 508 L25 508 L25 465 L106 465 L106 116 C106 27 141 -12 235 -12 C271 -12 320 1 344 18 L330 56 Z " />
<glyph glyph-name="u" unicode="u" horiz-adv-x="581" d="M90 167 C90 52 131 -10 241 -10 C320 -10 379 22 438 65 L441 0 L484 0 L484 508 L435 508 L435 114 C402 83 323 35 250 35 C165 35 139 84 139 168 L139 508 L90 508 L90 167 Z " />
<glyph glyph-name="v" unicode="v" horiz-adv-x="483" d="M272 0 L470 508 L421 508 L246 56 L244 56 L67 508 L13 508 L215 0 L272 0 Z " />
<glyph glyph-name="w" unicode="w" horiz-adv-x="721" d="M238 0 L363 458 L365 458 L484 0 L545 0 L708 508 L662 508 L519 51 L517 51 L395 508 L333 508 L210 49 L208 49 L64 508 L13 508 L179 0 L238 0 Z " />
<glyph glyph-name="x" unicode="x" horiz-adv-x="464" d="M425 508 L372 508 L225 301 L80 508 L25 508 L196 265 L22 0 L77 0 L228 229 L386 0 L441 0 L255 269 L425 508 Z " />
<glyph glyph-name="y" unicode="y" horiz-adv-x="457" d="M201 0 L172 -77 C141 -160 106 -180 64 -180 C33 -180 -1 -171 -16 -164 L-26 -205 C-8 -212 25 -223 61 -223 C126 -223 173 -193 212 -95 C284 89 373 323 444 508 L392 508 L229 67 L228 67 L69 508 L17 508 L201 0 Z " />
<glyph glyph-name="z" unicode="z" horiz-adv-x="454" d="M416 474 L416 508 L39 508 L39 466 L356 466 L33 33 L33 0 L426 0 L426 40 L92 40 L416 474 Z " />
<glyph glyph-name="braceleft" unicode="&#x7b;" horiz-adv-x="284" d="M254 -105 L219 -105 C155 -105 138 -75 138 -30 C138 23 148 101 148 171 C148 256 112 275 81 288 C112 300 148 322 148 407 C148 477 137 575 137 634 C137 674 155 693 204 694 L254 694 L254 737 L215 737 C133 737 86 701 86 634 C86 579 99 464 99 407 C99 337 66 310 14 310 L1 310 L1 264 L17 264 C63 264 99 245 99 167 C99 110 86 26 86 -42 C86 -100 116 -145 216 -145 L254 -145 L254 -105 Z " />
<glyph glyph-name="bar" unicode="&#x7c;" horiz-adv-x="280" d="M162 -143 L162 755 L118 755 L118 -143 L162 -143 Z " />
<glyph glyph-name="braceright" unicode="&#x7d;" horiz-adv-x="284" d="M30 697 L65 697 C129 697 146 667 146 622 C146 569 136 491 136 421 C136 336 172 317 203 304 C172 292 136 270 136 185 C136 115 147 17 147 -42 C147 -82 129 -101 80 -102 L30 -102 L30 -145 L69 -145 C151 -145 198 -109 198 -42 C198 13 185 128 185 185 C185 255 218 282 270 282 L283 282 L283 328 L267 328 C221 328 185 347 185 425 C185 482 198 566 198 634 C198 692 168 737 68 737 L30 737 L30 697 Z " />
<glyph glyph-name="asciitilde" unicode="&#x7e;" horiz-adv-x="459" d="M110 394 C74 394 26 370 36 290 L73 288 C71 337 91 348 112 348 C160 348 286 300 344 300 C385 300 433 321 423 403 L383 404 C383 352 367 346 340 346 C295 346 172 394 110 394 L110 394 Z " />
<glyph glyph-name="uni00A0" unicode="&#xa0;" horiz-adv-x="242" d="" />
<glyph glyph-name="exclamdown" unicode="&#xa1;" horiz-adv-x="249" d="M119 328 L107 -217 L166 -217 L151 328 L119 328 Z M83 468 C83 434 102 418 135 418 C167 418 186 434 186 468 C186 502 167 519 135 519 C102 519 83 503 83 468 L83 468 Z " />
<glyph glyph-name="cent" unicode="&#xa2;" horiz-adv-x="501" d="M257 691 L257 591 C146 579 70 497 70 346 C70 208 128 108 259 99 L259 0 L298 0 L298 99 C377 108 442 151 458 245 L414 255 C398 186 366 150 298 144 L298 546 C365 542 398 510 407 433 L453 439 C449 537 384 587 297 592 L297 691 L257 691 Z M121 352 C121 490 188 537 259 545 L259 144 C152 155 121 250 121 352 L121 352 Z " />
<glyph glyph-name="sterling" unicode="&#xa3;" horiz-adv-x="538" d="M27 42 L27 0 L347 0 C441 0 498 42 514 151 L465 162 C451 78 424 42 351 42 L136 42 C187 93 215 156 215 221 C215 257 207 293 191 331 L415 331 L415 372 L168 372 C150 411 119 473 119 541 C119 644 192 693 285 693 C387 693 423 644 434 552 L480 557 C467 684 402 737 283 737 C163 737 71 653 71 533 C71 463 101 407 119 372 L34 372 L34 331 L143 331 C161 296 171 260 171 225 C171 164 141 100 80 42 L27 42 Z " />
<glyph glyph-name="yen" unicode="&#xa5;" horiz-adv-x="499" d="M416 248 L416 290 L280 290 L280 389 L416 389 L416 431 L307 431 L471 724 L419 724 L257 425 L256 425 L87 724 L30 724 L200 431 L94 431 L94 389 L231 389 L231 290 L94 290 L94 248 L231 248 L231 0 L280 0 L280 248 L416 248 Z " />
<glyph glyph-name="brokenbar" unicode="&#xa6;" horiz-adv-x="280" d="M162 -143 L162 245 L118 245 L118 -143 L162 -143 Z M162 408 L162 755 L118 755 L118 408 L162 408 Z " />
<glyph glyph-name="section" unicode="&#xa7;" horiz-adv-x="534" d="M52 259 C52 33 405 151 405 -40 C405 -114 358 -167 262 -167 C165 -167 124 -117 116 -28 L63 -36 C67 -143 136 -214 259 -214 C369 -214 458 -157 458 -40 C458 23 430 63 393 88 C452 125 493 180 493 236 C493 461 140 346 140 545 C140 609 185 663 281 663 C379 663 422 611 432 523 L482 531 C478 638 409 709 286 709 C176 709 87 655 87 538 C87 474 112 437 154 407 C86 359 52 313 52 259 L52 259 Z M104 256 C104 308 140 349 197 387 C301 345 441 348 441 238 C441 186 404 145 349 109 C244 152 104 147 104 256 L104 256 Z " />
<glyph glyph-name="dieresis" unicode="&#xa8;" horiz-adv-x="500" d="M198 665 C198 691 180 707 154 707 C126 707 109 691 109 665 C109 638 126 623 154 623 C180 623 198 638 198 665 L198 665 Z M389 665 C389 691 371 707 345 707 C318 707 300 691 300 665 C300 638 318 623 345 623 C371 623 389 638 389 665 L389 665 Z " />
<glyph glyph-name="copyright" unicode="&#xa9;" horiz-adv-x="750" d="M701 313 C701 502 578 624 376 624 C195 624 49 503 49 299 C49 124 158 -12 374 -12 C568 -12 701 119 701 313 L701 313 Z M376 21 C200 21 92 127 92 300 C92 484 214 590 376 590 C541 590 659 492 659 307 C659 131 551 21 376 21 L376 21 Z M484 248 C470 186 448 155 376 155 C286 155 247 222 247 308 C247 422 308 465 379 465 C443 465 470 433 475 372 L520 378 C515 471 454 504 380 504 C262 504 198 423 198 310 C198 198 250 115 379 115 C438 115 511 137 525 241 L484 248 Z " />
<glyph glyph-name="ordfeminine" unicode="&#xaa;" horiz-adv-x="364" d="M298 504 C298 585 264 614 184 614 C112 614 71 590 62 528 L103 521 C110 559 129 578 180 578 C239 578 253 551 253 509 L253 471 C240 471 228 472 210 472 C132 472 47 453 47 362 C47 331 62 274 146 274 C193 274 231 293 256 318 C256 295 270 276 302 276 C316 276 329 278 342 286 L339 314 C331 312 325 311 319 311 C303 311 298 318 298 336 L298 504 Z M254 354 C233 332 196 311 158 311 C106 311 95 338 95 370 C95 434 167 437 213 437 C232 437 243 436 254 435 L254 354 Z " />
<glyph glyph-name="guillemotleft" unicode="&#xab;" horiz-adv-x="415" d="M214 103 L130 262 L214 408 L160 408 L71 261 L159 103 L214 103 Z M356 103 L272 262 L356 408 L302 408 L213 261 L301 103 L356 103 Z " />
<glyph glyph-name="logicalnot" unicode="&#xac;" horiz-adv-x="570" d="M471 207 L471 352 L101 352 L101 301 L411 301 L411 207 L471 207 Z " />
<glyph glyph-name="uni00AD" unicode="&#xad;" horiz-adv-x="311" d="M291 271 L291 322 L20 322 L20 271 L291 271 Z " />
<glyph glyph-name="registered" unicode="&#xae;" horiz-adv-x="443" d="M403 482 C403 587 334 656 222 656 C121 656 40 587 40 475 C40 376 101 301 221 301 C329 301 403 374 403 482 L403 482 Z M367 479 C367 389 312 334 222 334 C133 334 78 387 78 476 C78 569 141 623 222 623 C306 623 367 573 367 479 L367 479 Z M257 472 C278 482 290 497 290 522 C290 550 279 576 228 576 L163 576 L163 385 L197 385 L197 462 L227 462 L273 385 L308 385 L257 472 Z M197 488 L197 550 L217 550 C242 550 256 545 256 522 C256 493 236 488 210 488 L197 488 Z " />
<glyph glyph-name="macron" unicode="&#xaf;" horiz-adv-x="500" d="M388 645 L388 690 L111 690 L111 645 L388 645 Z " />
<glyph glyph-name="degree" unicode="&#xb0;" horiz-adv-x="299" d="M152 576 C112 576 92 598 92 638 C92 685 115 706 152 706 C190 706 210 685 210 642 C210 601 191 576 152 576 L152 576 Z M259 642 C259 713 215 748 152 748 C91 748 43 711 43 638 C43 573 85 534 152 534 C219 534 259 574 259 642 L259 642 Z " />
<glyph glyph-name="plusminus" unicode="&#xb1;" horiz-adv-x="570" d="M309 134 L309 299 L470 299 L470 346 L309 346 L309 504 L261 504 L261 346 L100 346 L100 299 L261 299 L261 134 L309 134 Z M470 0 L470 43 L100 43 L100 0 L470 0 Z " />
<glyph glyph-name="twosuperior" unicode="&#xb2;" horiz-adv-x="372" d="M191 797 C120 797 69 764 57 687 L101 678 C108 721 122 755 184 755 C232 755 261 736 261 687 C261 627 229 589 167 515 L60 389 L60 349 L317 349 L317 393 L115 393 C115 393 115 393 115 393 L212 499 C271 573 310 619 310 688 C310 764 261 797 191 797 L191 797 Z " />
<glyph glyph-name="threesuperior" unicode="&#xb3;" horiz-adv-x="390" d="M49 447 C57 378 107 342 178 342 C264 342 319 394 319 471 C319 541 281 575 223 585 L223 586 C262 596 311 627 311 693 C311 754 271 797 193 797 C127 797 74 770 60 699 L104 690 C115 730 131 754 188 754 C246 754 263 725 263 687 C263 637 224 600 159 600 L130 600 L130 559 L169 559 C228 559 269 539 269 473 C269 408 227 384 178 384 C116 384 104 417 95 456 L49 447 Z " />
<glyph glyph-name="acute" unicode="&#xb4;" horiz-adv-x="500" d="M361 751 L289 751 L176 586 L218 572 L361 751 Z " />
<glyph glyph-name="mu" unicode="&#xb5;" horiz-adv-x="629" d="M114 -176 L162 -176 L155 29 L158 32 C175 5 211 -15 267 -15 C344 -15 413 33 459 78 L459 0 L510 0 L510 508 L461 508 L461 134 C423 92 353 28 264 28 C186 28 163 73 163 171 L163 508 L114 508 L114 -176 Z " />
<glyph glyph-name="paragraph" unicode="&#xb6;" horiz-adv-x="535" d="M432 724 L290 724 C144 724 16 658 16 480 C16 349 99 266 230 253 L230 -133 L279 -133 L279 678 L383 678 L383 -133 L432 -133 L432 724 Z " />
<glyph glyph-name="periodcentered" unicode="&#xb7;" horiz-adv-x="163" d="M133 300 C133 334 114 351 81 351 C49 351 29 334 29 300 C29 266 49 249 81 249 C114 249 133 266 133 300 L133 300 Z " />
<glyph glyph-name="cedilla" unicode="&#xb8;" horiz-adv-x="500" d="M138 -193 C149 -203 175 -217 213 -217 C267 -217 308 -179 308 -126 C308 -70 267 -48 224 -43 L233 23 L195 30 L181 -73 C242 -74 262 -94 262 -128 C262 -154 246 -178 210 -178 C186 -178 163 -167 153 -159 L138 -193 Z " />
<glyph glyph-name="onesuperior" unicode="&#xb9;" horiz-adv-x="283" d="M193 347 L193 787 L167 787 C139 755 102 740 44 736 L47 699 C68 699 124 707 145 719 L145 347 L193 347 Z " />
<glyph glyph-name="ordmasculine" unicode="&#xba;" horiz-adv-x="387" d="M192 274 C302 274 346 345 346 452 C346 548 303 614 201 614 C97 614 41 549 41 444 C41 348 78 274 192 274 L192 274 Z M196 314 C124 314 88 355 88 445 C88 537 133 575 198 575 C261 575 298 543 298 448 C298 351 259 314 196 314 L196 314 Z " />
<glyph glyph-name="guillemotright" unicode="&#xbb;" horiz-adv-x="415" d="M61 408 L147 251 L59 103 L114 103 L203 252 L115 408 L61 408 Z M203 408 L289 251 L201 103 L256 103 L345 252 L257 408 L203 408 Z " />
<glyph glyph-name="onequarter" unicode="&#xbc;" horiz-adv-x="829" d="M233 -12 L588 724 L541 724 L185 -12 L233 -12 Z M211 279 L211 719 L185 719 C157 687 120 672 62 668 L65 631 C86 631 142 639 163 651 L163 279 L211 279 Z M696 0 L696 108 L749 108 L749 151 L696 151 L696 440 L635 440 L438 146 L438 108 L648 108 L648 0 L696 0 Z M490 151 L649 390 L649 151 L490 151 Z " />
<glyph glyph-name="onehalf" unicode="&#xbd;" horiz-adv-x="829" d="M204 -12 L559 724 L512 724 L156 -12 L204 -12 Z M213 279 L213 719 L187 719 C159 687 122 672 64 668 L67 631 C88 631 144 639 165 651 L165 279 L213 279 Z M622 448 C551 448 500 415 488 338 L532 329 C539 372 553 406 615 406 C663 406 692 387 692 338 C692 278 660 240 598 166 L491 40 L491 0 L748 0 L748 44 L546 44 C546 44 546 44 546 44 L643 150 C702 224 741 270 741 339 C741 415 692 448 622 448 L622 448 Z " />
<glyph glyph-name="threequarters" unicode="&#xbe;" horiz-adv-x="829" d="M265 -12 L620 724 L573 724 L217 -12 L265 -12 Z M718 0 L718 108 L771 108 L771 151 L718 151 L718 440 L657 440 L460 146 L460 108 L670 108 L670 0 L718 0 Z M512 151 L671 390 L671 151 L512 151 Z M44 379 C52 310 102 274 173 274 C259 274 314 326 314 403 C314 473 276 507 218 517 L218 518 C257 528 306 559 306 625 C306 686 266 729 188 729 C122 729 69 702 55 631 L99 622 C110 662 126 686 183 686 C241 686 258 657 258 619 C258 569 219 532 154 532 L125 532 L125 491 L164 491 C223 491 264 471 264 405 C264 340 222 316 173 316 C111 316 99 349 90 388 L44 379 Z " />
<glyph glyph-name="questiondown" unicode="&#xbf;" horiz-adv-x="440" d="M268 329 L268 188 C150 169 45 116 45 -33 C45 -171 133 -214 238 -214 C382 -214 427 -124 442 -59 L399 -50 C373 -152 313 -174 240 -174 C160 -174 93 -147 93 -25 C93 108 196 143 312 154 L312 329 L268 329 Z M240 468 C240 434 259 418 291 418 C323 418 343 434 343 468 C343 502 323 519 291 519 C259 519 240 503 240 468 L240 468 Z " />
<glyph glyph-name="Agrave" unicode="&#xc0;" horiz-adv-x="637" d="M283 724 L35 0 L85 0 L169 248 L464 248 L548 0 L602 0 L353 724 L283 724 Z M450 290 L183 290 L316 693 L316 693 L450 290 Z M349 767 L392 781 L287 911 L214 911 L349 767 Z " />
<glyph glyph-name="Aacute" unicode="&#xc1;" horiz-adv-x="637" d="M283 724 L35 0 L85 0 L169 248 L464 248 L548 0 L602 0 L353 724 L283 724 Z M450 290 L183 290 L316 693 L316 693 L450 290 Z M426 911 L353 911 L249 781 L291 767 L426 911 Z " />
<glyph glyph-name="Acircumflex" unicode="&#xc2;" horiz-adv-x="637" d="M283 724 L35 0 L85 0 L169 248 L464 248 L548 0 L602 0 L353 724 L283 724 Z M450 290 L183 290 L316 693 L316 693 L450 290 Z M411 769 L461 778 L338 894 L302 894 L179 778 L227 767 L317 852 L411 769 Z " />
<glyph glyph-name="Atilde" unicode="&#xc3;" horiz-adv-x="637" d="M283 724 L35 0 L85 0 L169 248 L464 248 L548 0 L602 0 L353 724 L283 724 Z M450 290 L183 290 L316 693 L316 693 L450 290 Z M240 877 C201 877 156 854 166 774 L202 772 C201 821 220 832 241 832 C289 832 339 786 397 786 C439 786 484 806 474 888 L436 890 C436 838 419 832 393 832 C348 832 301 877 240 877 L240 877 Z " />
<glyph glyph-name="Adieresis" unicode="&#xc4;" horiz-adv-x="637" d="M283 724 L35 0 L85 0 L169 248 L464 248 L548 0 L602 0 L353 724 L283 724 Z M450 290 L183 290 L316 693 L316 693 L450 290 Z M267 826 C267 852 249 868 223 868 C195 868 178 852 178 826 C178 799 195 784 223 784 C249 784 267 799 267 826 L267 826 Z M458 826 C458 852 440 868 414 868 C387 868 369 852 369 826 C369 799 387 784 414 784 C440 784 458 799 458 826 L458 826 Z " />
<glyph glyph-name="Aring" unicode="&#xc5;" horiz-adv-x="637" d="M420 810 C420 876 374 903 318 903 C264 903 217 871 217 804 C217 759 241 728 280 717 L35 0 L85 0 L169 248 L464 248 L548 0 L602 0 L355 717 C396 729 420 762 420 810 L420 810 Z M450 290 L183 290 L316 693 L450 290 Z M318 750 C280 750 261 772 261 806 C261 845 285 865 318 865 C354 865 373 846 373 810 C373 775 356 750 318 750 L318 750 Z " />
<glyph glyph-name="AE" unicode="&#xc6;" horiz-adv-x="998" d="M577 339 L904 339 L904 382 L577 382 L577 682 L927 682 L927 724 L464 724 L42 0 L95 0 L292 339 L528 339 L528 0 L935 0 L935 42 L577 42 L577 339 Z M528 381 L318 381 L488 682 L528 682 L528 381 Z " />
<glyph glyph-name="Ccedilla" unicode="&#xc7;" horiz-adv-x="716" d="M296 -199 C307 -209 333 -223 371 -223 C425 -223 466 -185 466 -132 C466 -76 425 -54 382 -49 L387 -12 C514 -10 620 43 649 189 L607 199 C577 76 507 29 382 29 C221 29 120 123 120 356 C120 578 230 696 397 696 C534 696 592 626 610 503 L656 507 C642 663 543 737 398 737 C206 737 70 604 70 348 C70 148 150 2 348 -11 L339 -79 C400 -80 420 -100 420 -134 C420 -160 404 -184 368 -184 C344 -184 321 -173 311 -165 L296 -199 Z " />
<glyph glyph-name="Egrave" unicode="&#xc8;" horiz-adv-x="570" d="M160 347 L487 347 L487 390 L160 390 L160 682 L510 682 L510 724 L112 724 L112 0 L518 0 L518 42 L160 42 L160 347 Z M344 767 L387 781 L282 911 L209 911 L344 767 Z " />
<glyph glyph-name="Eacute" unicode="&#xc9;" horiz-adv-x="570" d="M160 347 L487 347 L487 390 L160 390 L160 682 L510 682 L510 724 L112 724 L112 0 L518 0 L518 42 L160 42 L160 347 Z M421 911 L348 911 L244 781 L286 767 L421 911 Z " />
<glyph glyph-name="Ecircumflex" unicode="&#xca;" horiz-adv-x="570" d="M160 347 L487 347 L487 390 L160 390 L160 682 L510 682 L510 724 L112 724 L112 0 L518 0 L518 42 L160 42 L160 347 Z M406 769 L456 778 L333 894 L297 894 L174 778 L222 767 L312 852 L406 769 Z " />
<glyph glyph-name="Edieresis" unicode="&#xcb;" horiz-adv-x="570" d="M160 347 L487 347 L487 390 L160 390 L160 682 L510 682 L510 724 L112 724 L112 0 L518 0 L518 42 L160 42 L160 347 Z M262 826 C262 852 244 868 218 868 C190 868 173 852 173 826 C173 799 190 784 218 784 C244 784 262 799 262 826 L262 826 Z M453 826 C453 852 435 868 409 868 C382 868 364 852 364 826 C364 799 382 784 409 784 C435 784 453 799 453 826 L453 826 Z " />
<glyph glyph-name="Igrave" unicode="&#xcc;" horiz-adv-x="272" d="M160 724 L112 724 L112 0 L160 0 L160 724 Z M167 767 L210 781 L105 911 L32 911 L167 767 Z " />
<glyph glyph-name="Iacute" unicode="&#xcd;" horiz-adv-x="272" d="M160 724 L112 724 L112 0 L160 0 L160 724 Z M244 911 L171 911 L67 781 L109 767 L244 911 Z " />
<glyph glyph-name="Icircumflex" unicode="&#xce;" horiz-adv-x="272" d="M160 724 L112 724 L112 0 L160 0 L160 724 Z M229 769 L279 778 L156 894 L120 894 L-3 778 L45 767 L135 852 L229 769 Z " />
<glyph glyph-name="Idieresis" unicode="&#xcf;" horiz-adv-x="272" d="M160 724 L112 724 L112 0 L160 0 L160 724 Z M85 826 C85 852 67 868 41 868 C13 868 -4 852 -4 826 C-4 799 13 784 41 784 C67 784 85 799 85 826 L85 826 Z M276 826 C276 852 258 868 232 868 C205 868 187 852 187 826 C187 799 205 784 232 784 C258 784 276 799 276 826 L276 826 Z " />
<glyph glyph-name="Eth" unicode="&#xd0;" horiz-adv-x="741" d="M17 349 L112 349 L112 0 L295 0 C554 0 671 151 671 373 C671 589 563 724 312 724 L112 724 L112 391 L17 391 L17 349 Z M160 41 L160 349 L421 349 L421 391 L160 391 L160 683 L308 683 C499 683 620 611 620 368 C620 155 506 41 303 41 L160 41 Z " />
<glyph glyph-name="Ntilde" unicode="&#xd1;" horiz-adv-x="745" d="M633 0 L633 724 L587 724 L587 53 L189 724 L112 724 L112 0 L159 0 L159 683 L568 0 L633 0 Z M301 877 C262 877 217 854 227 774 L263 772 C262 821 281 832 302 832 C350 832 400 786 458 786 C500 786 545 806 535 888 L497 890 C497 838 480 832 454 832 C409 832 362 877 301 877 L301 877 Z " />
<glyph glyph-name="Ograve" unicode="&#xd2;" horiz-adv-x="781" d="M386 -12 C597 -12 711 143 711 379 C711 580 608 737 400 737 C189 737 70 580 70 364 C70 147 173 -12 386 -12 L386 -12 Z M390 29 C232 29 121 151 121 363 C121 576 241 696 398 696 C554 696 661 577 661 369 C661 145 547 29 390 29 L390 29 Z M427 767 L470 781 L365 911 L292 911 L427 767 Z " />
<glyph glyph-name="Oacute" unicode="&#xd3;" horiz-adv-x="781" d="M386 -12 C597 -12 711 143 711 379 C711 580 608 737 400 737 C189 737 70 580 70 364 C70 147 173 -12 386 -12 L386 -12 Z M390 29 C232 29 121 151 121 363 C121 576 241 696 398 696 C554 696 661 577 661 369 C661 145 547 29 390 29 L390 29 Z M504 911 L431 911 L327 781 L369 767 L504 911 Z " />
<glyph glyph-name="Ocircumflex" unicode="&#xd4;" horiz-adv-x="781" d="M386 -12 C597 -12 711 143 711 379 C711 580 608 737 400 737 C189 737 70 580 70 364 C70 147 173 -12 386 -12 L386 -12 Z M390 29 C232 29 121 151 121 363 C121 576 241 696 398 696 C554 696 661 577 661 369 C661 145 547 29 390 29 L390 29 Z M489 769 L539 778 L416 894 L380 894 L257 778 L305 767 L395 852 L489 769 Z " />
<glyph glyph-name="Otilde" unicode="&#xd5;" horiz-adv-x="781" d="M386 -12 C597 -12 711 143 711 379 C711 580 608 737 400 737 C189 737 70 580 70 364 C70 147 173 -12 386 -12 L386 -12 Z M390 29 C232 29 121 151 121 363 C121 576 241 696 398 696 C554 696 661 577 661 369 C661 145 547 29 390 29 L390 29 Z M318 877 C279 877 234 854 244 774 L280 772 C279 821 298 832 319 832 C367 832 417 786 475 786 C517 786 562 806 552 888 L514 890 C514 838 497 832 471 832 C426 832 379 877 318 877 L318 877 Z " />
<glyph glyph-name="Odieresis" unicode="&#xd6;" horiz-adv-x="781" d="M386 -12 C597 -12 711 143 711 379 C711 580 608 737 400 737 C189 737 70 580 70 364 C70 147 173 -12 386 -12 L386 -12 Z M390 29 C232 29 121 151 121 363 C121 576 241 696 398 696 C554 696 661 577 661 369 C661 145 547 29 390 29 L390 29 Z M345 826 C345 852 327 868 301 868 C273 868 256 852 256 826 C256 799 273 784 301 784 C327 784 345 799 345 826 L345 826 Z M536 826 C536 852 518 868 492 868 C465 868 447 852 447 826 C447 799 465 784 492 784 C518 784 536 799 536 826 L536 826 Z " />
<glyph glyph-name="multiply" unicode="&#xd7;" horiz-adv-x="570" d="M433 205 L316 322 L430 436 L397 469 L283 355 L171 467 L137 433 L249 321 L135 207 L168 174 L282 288 L399 171 L433 205 Z " />
<glyph glyph-name="Oslash" unicode="&#xd8;" horiz-adv-x="781" d="M386 -12 C597 -12 711 143 711 379 C711 521 660 640 556 699 L596 794 L545 794 L513 718 C480 730 442 737 400 737 C189 737 70 580 70 364 C70 212 120 88 224 28 L183 -70 L236 -70 L268 7 C303 -5 342 -12 386 -12 L386 -12 Z M390 29 C352 29 317 36 286 49 L538 655 C614 604 661 506 661 369 C661 145 547 29 390 29 L390 29 Z M121 363 C121 576 241 696 398 696 C433 696 466 690 496 678 L243 73 C167 126 121 226 121 363 L121 363 Z " />
<glyph glyph-name="Ugrave" unicode="&#xd9;" horiz-adv-x="718" d="M360 32 C238 32 156 81 156 232 L156 724 L108 724 L108 228 C108 76 178 -12 354 -12 C521 -12 610 69 610 228 L610 724 L562 724 L562 230 C562 79 486 32 360 32 L360 32 Z M390 767 L433 781 L328 911 L255 911 L390 767 Z " />
<glyph glyph-name="Uacute" unicode="&#xda;" horiz-adv-x="718" d="M360 32 C238 32 156 81 156 232 L156 724 L108 724 L108 228 C108 76 178 -12 354 -12 C521 -12 610 69 610 228 L610 724 L562 724 L562 230 C562 79 486 32 360 32 L360 32 Z M467 911 L394 911 L290 781 L332 767 L467 911 Z " />
<glyph glyph-name="Ucircumflex" unicode="&#xdb;" horiz-adv-x="718" d="M360 32 C238 32 156 81 156 232 L156 724 L108 724 L108 228 C108 76 178 -12 354 -12 C521 -12 610 69 610 228 L610 724 L562 724 L562 230 C562 79 486 32 360 32 L360 32 Z M452 769 L502 778 L379 894 L343 894 L220 778 L268 767 L358 852 L452 769 Z " />
<glyph glyph-name="Udieresis" unicode="&#xdc;" horiz-adv-x="718" d="M360 32 C238 32 156 81 156 232 L156 724 L108 724 L108 228 C108 76 178 -12 354 -12 C521 -12 610 69 610 228 L610 724 L562 724 L562 230 C562 79 486 32 360 32 L360 32 Z M308 826 C308 852 290 868 264 868 C236 868 219 852 219 826 C219 799 236 784 264 784 C290 784 308 799 308 826 L308 826 Z M499 826 C499 852 481 868 455 868 C428 868 410 852 410 826 C410 799 428 784 455 784 C481 784 499 799 499 826 L499 826 Z " />
<glyph glyph-name="Yacute" unicode="&#xdd;" horiz-adv-x="538" d="M297 291 L534 724 L485 724 L275 340 L274 340 L58 724 L4 724 L249 287 L249 0 L297 0 L297 291 Z M381 911 L308 911 L204 781 L246 767 L381 911 Z " />
<glyph glyph-name="Thorn" unicode="&#xde;" horiz-adv-x="612" d="M159 165 L290 165 C455 165 562 223 562 388 C562 494 506 593 321 593 L158 593 L158 724 L112 724 L112 0 L159 0 L159 165 Z M159 208 L159 552 L307 552 C453 552 511 491 511 389 C511 233 414 208 291 208 L159 208 Z " />
<glyph glyph-name="germandbls" unicode="&#xdf;" horiz-adv-x="660" d="M142 0 L142 524 C142 683 209 721 314 721 C412 721 472 681 472 584 C472 514 429 435 300 435 L286 435 L286 389 L329 389 C449 389 548 345 548 199 C548 95 496 34 405 34 C315 34 281 87 269 154 L220 144 C238 35 297 -11 407 -11 C526 -11 600 71 600 210 C600 346 521 402 404 421 L404 424 C472 448 523 504 523 593 C523 703 456 767 314 767 C184 767 93 706 93 537 L93 0 L142 0 Z " />
<glyph glyph-name="agrave" unicode="&#xe0;" horiz-adv-x="536" d="M440 348 C440 474 392 518 273 518 C171 518 109 484 93 390 L140 382 C151 445 184 477 269 477 C365 477 390 439 390 339 L390 294 C368 295 345 296 321 296 C203 296 72 271 72 126 C72 78 92 -12 222 -12 C294 -12 355 17 394 56 C392 25 408 -8 452 -8 C473 -8 486 -6 506 4 L502 36 C489 32 480 30 471 30 C445 30 440 44 440 72 L440 348 Z M391 102 C356 60 293 30 229 30 C145 30 124 76 124 131 C124 234 211 255 313 255 C344 255 368 254 391 252 L391 102 Z M310 572 L351 586 L238 751 L166 751 L310 572 Z " />
<glyph glyph-name="aacute" unicode="&#xe1;" horiz-adv-x="536" d="M440 348 C440 474 392 518 273 518 C171 518 109 484 93 390 L140 382 C151 445 184 477 269 477 C365 477 390 439 390 339 L390 294 C368 295 345 296 321 296 C203 296 72 271 72 126 C72 78 92 -12 222 -12 C294 -12 355 17 394 56 C392 25 408 -8 452 -8 C473 -8 486 -6 506 4 L502 36 C489 32 480 30 471 30 C445 30 440 44 440 72 L440 348 Z M391 102 C356 60 293 30 229 30 C145 30 124 76 124 131 C124 234 211 255 313 255 C344 255 368 254 391 252 L391 102 Z M383 751 L311 751 L198 586 L240 572 L383 751 Z " />
<glyph glyph-name="acircumflex" unicode="&#xe2;" horiz-adv-x="536" d="M440 348 C440 474 392 518 273 518 C171 518 109 484 93 390 L140 382 C151 445 184 477 269 477 C365 477 390 439 390 339 L390 294 C368 295 345 296 321 296 C203 296 72 271 72 126 C72 78 92 -12 222 -12 C294 -12 355 17 394 56 C392 25 408 -8 452 -8 C473 -8 486 -6 506 4 L502 36 C489 32 480 30 471 30 C445 30 440 44 440 72 L440 348 Z M391 102 C356 60 293 30 229 30 C145 30 124 76 124 131 C124 234 211 255 313 255 C344 255 368 254 391 252 L391 102 Z M419 585 L297 750 L247 750 L131 585 L176 576 L271 708 L372 579 L419 585 Z " />
<glyph glyph-name="atilde" unicode="&#xe3;" horiz-adv-x="536" d="M440 348 C440 474 392 518 273 518 C171 518 109 484 93 390 L140 382 C151 445 184 477 269 477 C365 477 390 439 390 339 L390 294 C368 295 345 296 321 296 C203 296 72 271 72 126 C72 78 92 -12 222 -12 C294 -12 355 17 394 56 C392 25 408 -8 452 -8 C473 -8 486 -6 506 4 L502 36 C489 32 480 30 471 30 C445 30 440 44 440 72 L440 348 Z M391 102 C356 60 293 30 229 30 C145 30 124 76 124 131 C124 234 211 255 313 255 C344 255 368 254 391 252 L391 102 Z M191 699 C152 699 107 676 117 596 L153 594 C152 643 171 654 192 654 C240 654 290 608 348 608 C390 608 435 628 425 710 L387 712 C387 660 370 654 344 654 C299 654 252 699 191 699 L191 699 Z " />
<glyph glyph-name="adieresis" unicode="&#xe4;" horiz-adv-x="536" d="M440 348 C440 474 392 518 273 518 C171 518 109 484 93 390 L140 382 C151 445 184 477 269 477 C365 477 390 439 390 339 L390 294 C368 295 345 296 321 296 C203 296 72 271 72 126 C72 78 92 -12 222 -12 C294 -12 355 17 394 56 C392 25 408 -8 452 -8 C473 -8 486 -6 506 4 L502 36 C489 32 480 30 471 30 C445 30 440 44 440 72 L440 348 Z M391 102 C356 60 293 30 229 30 C145 30 124 76 124 131 C124 234 211 255 313 255 C344 255 368 254 391 252 L391 102 Z M220 665 C220 691 202 707 176 707 C148 707 131 691 131 665 C131 638 148 623 176 623 C202 623 220 638 220 665 L220 665 Z M411 665 C411 691 393 707 367 707 C340 707 322 691 322 665 C322 638 340 623 367 623 C393 623 411 638 411 665 L411 665 Z " />
<glyph glyph-name="aring" unicode="&#xe5;" horiz-adv-x="536" d="M440 348 C440 474 392 518 273 518 C171 518 109 484 93 390 L140 382 C151 445 184 477 269 477 C365 477 390 439 390 339 L390 294 C368 295 345 296 321 296 C203 296 72 271 72 126 C72 78 92 -12 222 -12 C294 -12 355 17 394 56 C392 25 408 -8 452 -8 C473 -8 486 -6 506 4 L502 36 C489 32 480 30 471 30 C445 30 440 44 440 72 L440 348 Z M391 102 C356 60 293 30 229 30 C145 30 124 76 124 131 C124 234 211 255 313 255 C344 255 368 254 391 252 L391 102 Z M374 674 C374 740 328 767 272 767 C218 767 171 735 171 668 C171 611 211 576 272 576 C335 576 374 613 374 674 L374 674 Z M272 614 C234 614 215 636 215 670 C215 709 239 729 272 729 C308 729 327 710 327 674 C327 639 310 614 272 614 L272 614 Z " />
<glyph glyph-name="ae" unicode="&#xe6;" horiz-adv-x="873" d="M612 -12 C699 -12 781 27 803 130 L756 140 C739 71 701 35 616 35 C520 35 444 76 439 244 L806 244 C809 266 811 288 811 309 C811 425 756 518 617 518 C541 518 476 490 430 419 C412 483 366 518 275 518 C170 518 109 484 93 391 L140 382 C152 444 185 477 268 477 C361 477 390 434 390 366 L390 295 C367 296 343 297 318 297 C201 297 72 271 72 126 C72 78 91 -12 221 -12 C295 -12 373 14 434 70 C467 19 523 -12 612 -12 L612 -12 Z M230 31 C143 31 124 79 124 133 C124 241 227 254 317 254 C343 254 369 253 390 252 C391 203 398 151 412 111 C365 61 298 31 230 31 L230 31 Z M440 290 C446 419 529 473 615 473 C717 473 760 405 760 297 C760 295 760 292 760 290 L440 290 Z " />
<glyph glyph-name="ccedilla" unicode="&#xe7;" horiz-adv-x="530" d="M200 -193 C211 -203 237 -217 275 -217 C329 -217 370 -179 370 -126 C370 -70 329 -48 286 -43 L290 -12 C377 -10 461 33 480 140 L430 150 C416 70 362 34 284 34 C199 34 111 78 111 259 C111 427 205 475 290 475 C372 475 414 434 423 347 L476 353 C471 463 392 518 296 518 C148 518 60 431 60 252 C60 108 110 4 251 -10 L243 -73 C304 -74 324 -94 324 -128 C324 -154 308 -178 272 -178 C248 -178 225 -167 215 -159 L200 -193 Z " />
<glyph glyph-name="egrave" unicode="&#xe8;" horiz-adv-x="543" d="M284 -12 C372 -12 450 28 475 131 L428 140 C410 71 368 35 288 35 C191 35 116 76 112 244 L478 244 C482 267 483 288 483 310 C483 426 428 518 293 518 C171 518 60 441 60 254 C60 113 109 -12 284 -12 L284 -12 Z M112 287 C121 422 202 473 287 473 C392 473 435 408 432 287 L112 287 Z M324 572 L365 586 L252 751 L180 751 L324 572 Z " />
<glyph glyph-name="eacute" unicode="&#xe9;" horiz-adv-x="543" d="M284 -12 C372 -12 450 28 475 131 L428 140 C410 71 368 35 288 35 C191 35 116 76 112 244 L478 244 C482 267 483 288 483 310 C483 426 428 518 293 518 C171 518 60 441 60 254 C60 113 109 -12 284 -12 L284 -12 Z M112 287 C121 422 202 473 287 473 C392 473 435 408 432 287 L112 287 Z M397 751 L325 751 L212 586 L254 572 L397 751 Z " />
<glyph glyph-name="ecircumflex" unicode="&#xea;" horiz-adv-x="543" d="M284 -12 C372 -12 450 28 475 131 L428 140 C410 71 368 35 288 35 C191 35 116 76 112 244 L478 244 C482 267 483 288 483 310 C483 426 428 518 293 518 C171 518 60 441 60 254 C60 113 109 -12 284 -12 L284 -12 Z M112 287 C121 422 202 473 287 473 C392 473 435 408 432 287 L112 287 Z M433 585 L311 750 L261 750 L145 585 L190 576 L285 708 L386 579 L433 585 Z " />
<glyph glyph-name="edieresis" unicode="&#xeb;" horiz-adv-x="543" d="M284 -12 C372 -12 450 28 475 131 L428 140 C410 71 368 35 288 35 C191 35 116 76 112 244 L478 244 C482 267 483 288 483 310 C483 426 428 518 293 518 C171 518 60 441 60 254 C60 113 109 -12 284 -12 L284 -12 Z M112 287 C121 422 202 473 287 473 C392 473 435 408 432 287 L112 287 Z M234 665 C234 691 216 707 190 707 C162 707 145 691 145 665 C145 638 162 623 190 623 C216 623 234 638 234 665 L234 665 Z M425 665 C425 691 407 707 381 707 C354 707 336 691 336 665 C336 638 354 623 381 623 C407 623 425 638 425 665 L425 665 Z " />
<glyph glyph-name="igrave" unicode="&#xec;" horiz-adv-x="236" d="M145 508 L96 508 L96 0 L145 0 L145 508 Z M158 572 L199 586 L86 751 L14 751 L158 572 Z " />
<glyph glyph-name="iacute" unicode="&#xed;" horiz-adv-x="236" d="M145 508 L96 508 L96 0 L145 0 L145 508 Z M231 751 L159 751 L46 586 L88 572 L231 751 Z " />
<glyph glyph-name="icircumflex" unicode="&#xee;" horiz-adv-x="236" d="M145 508 L96 508 L96 0 L145 0 L145 508 Z M267 585 L145 750 L95 750 L-21 585 L24 576 L119 708 L220 579 L267 585 Z " />
<glyph glyph-name="idieresis" unicode="&#xef;" horiz-adv-x="236" d="M145 508 L96 508 L96 0 L145 0 L145 508 Z M68 665 C68 691 50 707 24 707 C-4 707 -21 691 -21 665 C-21 638 -4 623 24 623 C50 623 68 638 68 665 L68 665 Z M259 665 C259 691 241 707 215 707 C188 707 170 691 170 665 C170 638 188 623 215 623 C241 623 259 638 259 665 L259 665 Z " />
<glyph glyph-name="eth" unicode="&#xf0;" horiz-adv-x="568" d="M227 586 L340 648 C391 598 425 530 444 445 C394 484 335 501 281 501 C129 501 50 388 50 253 C50 89 118 -12 278 -12 C472 -12 508 177 508 316 C508 454 469 581 385 671 L475 720 L453 755 L352 700 C301 737 239 760 166 769 C162 759 155 747 149 733 C205 725 262 707 307 677 L207 621 L227 586 Z M105 252 C105 374 164 454 286 454 C354 454 424 418 452 380 C454 357 455 336 455 311 C455 176 421 34 277 34 C140 34 105 142 105 252 L105 252 Z " />
<glyph glyph-name="ntilde" unicode="&#xf1;" horiz-adv-x="578" d="M490 342 C490 456 444 518 337 518 C266 518 198 484 139 442 L136 508 L93 508 L93 0 L142 0 L142 394 C175 425 255 473 328 473 C414 473 441 424 441 340 L441 0 L490 0 L490 342 Z M212 699 C173 699 128 676 138 596 L174 594 C173 643 192 654 213 654 C261 654 311 608 369 608 C411 608 456 628 446 710 L408 712 C408 660 391 654 365 654 C320 654 273 699 212 699 L212 699 Z " />
<glyph glyph-name="ograve" unicode="&#xf2;" horiz-adv-x="572" d="M284 -12 C447 -12 512 98 512 265 C512 417 448 518 297 518 C145 518 60 417 60 252 C60 103 115 -12 284 -12 L284 -12 Z M288 33 C169 33 109 107 109 256 C109 406 185 473 293 473 C398 473 460 419 460 259 C460 96 393 33 288 33 L288 33 Z M332 572 L373 586 L260 751 L188 751 L332 572 Z " />
<glyph glyph-name="oacute" unicode="&#xf3;" horiz-adv-x="572" d="M284 -12 C447 -12 512 98 512 265 C512 417 448 518 297 518 C145 518 60 417 60 252 C60 103 115 -12 284 -12 L284 -12 Z M288 33 C169 33 109 107 109 256 C109 406 185 473 293 473 C398 473 460 419 460 259 C460 96 393 33 288 33 L288 33 Z M405 751 L333 751 L220 586 L262 572 L405 751 Z " />
<glyph glyph-name="ocircumflex" unicode="&#xf4;" horiz-adv-x="572" d="M284 -12 C447 -12 512 98 512 265 C512 417 448 518 297 518 C145 518 60 417 60 252 C60 103 115 -12 284 -12 L284 -12 Z M288 33 C169 33 109 107 109 256 C109 406 185 473 293 473 C398 473 460 419 460 259 C460 96 393 33 288 33 L288 33 Z M441 585 L319 750 L269 750 L153 585 L198 576 L293 708 L394 579 L441 585 Z " />
<glyph glyph-name="otilde" unicode="&#xf5;" horiz-adv-x="572" d="M284 -12 C447 -12 512 98 512 265 C512 417 448 518 297 518 C145 518 60 417 60 252 C60 103 115 -12 284 -12 L284 -12 Z M288 33 C169 33 109 107 109 256 C109 406 185 473 293 473 C398 473 460 419 460 259 C460 96 393 33 288 33 L288 33 Z M213 699 C174 699 129 676 139 596 L175 594 C174 643 193 654 214 654 C262 654 312 608 370 608 C412 608 457 628 447 710 L409 712 C409 660 392 654 366 654 C321 654 274 699 213 699 L213 699 Z " />
<glyph glyph-name="odieresis" unicode="&#xf6;" horiz-adv-x="572" d="M284 -12 C447 -12 512 98 512 265 C512 417 448 518 297 518 C145 518 60 417 60 252 C60 103 115 -12 284 -12 L284 -12 Z M288 33 C169 33 109 107 109 256 C109 406 185 473 293 473 C398 473 460 419 460 259 C460 96 393 33 288 33 L288 33 Z M242 665 C242 691 224 707 198 707 C170 707 153 691 153 665 C153 638 170 623 198 623 C224 623 242 638 242 665 L242 665 Z M433 665 C433 691 415 707 389 707 C362 707 344 691 344 665 C344 638 362 623 389 623 C415 623 433 638 433 665 L433 665 Z " />
<glyph glyph-name="divide" unicode="&#xf7;" horiz-adv-x="570" d="M331 175 C331 212 311 228 277 228 C244 228 224 212 224 175 C224 140 244 123 277 123 C311 123 331 140 331 175 L331 175 Z M470 295 L470 347 L100 347 L100 295 L470 295 Z M331 469 C331 506 311 522 277 522 C244 522 224 506 224 469 C224 434 244 417 277 417 C311 417 331 433 331 469 L331 469 Z " />
<glyph glyph-name="oslash" unicode="&#xf8;" horiz-adv-x="572" d="M284 -12 C447 -12 512 98 512 265 C512 369 482 449 414 489 L457 585 L407 585 L373 508 C350 515 325 518 297 518 C145 518 60 417 60 252 C60 150 86 63 156 19 L116 -72 L166 -72 L198 0 C222 -7 251 -12 284 -12 L284 -12 Z M288 33 C261 33 238 36 217 44 L395 445 C437 415 460 356 460 259 C460 96 393 33 288 33 L288 33 Z M109 256 C109 406 185 473 293 473 C315 473 335 470 354 465 L177 66 C132 101 109 164 109 256 L109 256 Z " />
<glyph glyph-name="ugrave" unicode="&#xf9;" horiz-adv-x="581" d="M90 167 C90 52 131 -10 241 -10 C320 -10 379 22 438 65 L441 0 L484 0 L484 508 L435 508 L435 114 C402 83 323 35 250 35 C165 35 139 84 139 168 L139 508 L90 508 L90 167 Z M325 572 L366 586 L253 751 L181 751 L325 572 Z " />
<glyph glyph-name="uacute" unicode="&#xfa;" horiz-adv-x="581" d="M90 167 C90 52 131 -10 241 -10 C320 -10 379 22 438 65 L441 0 L484 0 L484 508 L435 508 L435 114 C402 83 323 35 250 35 C165 35 139 84 139 168 L139 508 L90 508 L90 167 Z M398 751 L326 751 L213 586 L255 572 L398 751 Z " />
<glyph glyph-name="ucircumflex" unicode="&#xfb;" horiz-adv-x="581" d="M90 167 C90 52 131 -10 241 -10 C320 -10 379 22 438 65 L441 0 L484 0 L484 508 L435 508 L435 114 C402 83 323 35 250 35 C165 35 139 84 139 168 L139 508 L90 508 L90 167 Z M434 585 L312 750 L262 750 L146 585 L191 576 L286 708 L387 579 L434 585 Z " />
<glyph glyph-name="udieresis" unicode="&#xfc;" horiz-adv-x="581" d="M90 167 C90 52 131 -10 241 -10 C320 -10 379 22 438 65 L441 0 L484 0 L484 508 L435 508 L435 114 C402 83 323 35 250 35 C165 35 139 84 139 168 L139 508 L90 508 L90 167 Z M235 665 C235 691 217 707 191 707 C163 707 146 691 146 665 C146 638 163 623 191 623 C217 623 235 638 235 665 L235 665 Z M426 665 C426 691 408 707 382 707 C355 707 337 691 337 665 C337 638 355 623 382 623 C408 623 426 638 426 665 L426 665 Z " />
<glyph glyph-name="yacute" unicode="&#xfd;" horiz-adv-x="457" d="M201 0 L172 -77 C141 -160 106 -180 64 -180 C33 -180 -1 -171 -16 -164 L-26 -205 C-8 -212 25 -223 61 -223 C126 -223 173 -193 212 -95 C284 89 373 323 444 508 L392 508 L229 67 L228 67 L69 508 L17 508 L201 0 Z M346 751 L274 751 L161 586 L203 572 L346 751 Z " />
<glyph glyph-name="thorn" unicode="&#xfe;" horiz-adv-x="580" d="M95 -212 L142 -212 L142 44 C181 17 237 -12 301 -12 C417 -12 515 70 515 267 C515 453 436 518 330 518 C247 518 184 479 143 443 L143 755 L95 755 L95 -212 Z M144 395 C179 432 250 475 321 475 C419 475 464 419 464 272 C464 130 418 32 301 32 C226 32 171 72 144 93 L144 395 Z " />
<glyph glyph-name="ydieresis" unicode="&#xff;" horiz-adv-x="457" d="M201 0 L172 -77 C141 -160 106 -180 64 -180 C33 -180 -1 -171 -16 -164 L-26 -205 C-8 -212 25 -223 61 -223 C126 -223 173 -193 212 -95 C284 89 373 323 444 508 L392 508 L229 67 L228 67 L69 508 L17 508 L201 0 Z M183 665 C183 691 165 707 139 707 C111 707 94 691 94 665 C94 638 111 623 139 623 C165 623 183 638 183 665 L183 665 Z M374 665 C374 691 356 707 330 707 C303 707 285 691 285 665 C285 638 303 623 330 623 C356 623 374 638 374 665 L374 665 Z " />
<glyph glyph-name="Amacron" unicode="&#x100;" horiz-adv-x="637" d="M283 724 L35 0 L85 0 L169 248 L464 248 L548 0 L602 0 L353 724 L283 724 Z M450 290 L183 290 L316 693 L316 693 L450 290 Z M468 800 L468 845 L168 845 L168 800 L468 800 Z " />
<glyph glyph-name="amacron" unicode="&#x101;" horiz-adv-x="536" d="M440 348 C440 474 392 518 273 518 C171 518 109 484 93 390 L140 382 C151 445 184 477 269 477 C365 477 390 439 390 339 L390 294 C368 295 345 296 321 296 C203 296 72 271 72 126 C72 78 92 -12 222 -12 C294 -12 355 17 394 56 C392 25 408 -8 452 -8 C473 -8 486 -6 506 4 L502 36 C489 32 480 30 471 30 C445 30 440 44 440 72 L440 348 Z M391 102 C356 60 293 30 229 30 C145 30 124 76 124 131 C124 234 211 255 313 255 C344 255 368 254 391 252 L391 102 Z M410 645 L410 690 L133 690 L133 645 L410 645 Z " />
<glyph glyph-name="Abreve" unicode="&#x102;" horiz-adv-x="637" d="M283 724 L35 0 L85 0 L169 248 L464 248 L548 0 L602 0 L353 724 L283 724 Z M450 290 L183 290 L316 693 L316 693 L450 290 Z M319 827 C271 827 245 845 235 903 L191 898 C199 826 236 785 318 785 C404 785 447 833 456 899 L411 903 C401 846 368 827 319 827 L319 827 Z " />
<glyph glyph-name="abreve" unicode="&#x103;" horiz-adv-x="536" d="M440 348 C440 474 392 518 273 518 C171 518 109 484 93 390 L140 382 C151 445 184 477 269 477 C365 477 390 439 390 339 L390 294 C368 295 345 296 321 296 C203 296 72 271 72 126 C72 78 92 -12 222 -12 C294 -12 355 17 394 56 C392 25 408 -8 452 -8 C473 -8 486 -6 506 4 L502 36 C489 32 480 30 471 30 C445 30 440 44 440 72 L440 348 Z M391 102 C356 60 293 30 229 30 C145 30 124 76 124 131 C124 234 211 255 313 255 C344 255 368 254 391 252 L391 102 Z M367 728 C365 641 332 616 272 616 C215 616 187 640 182 728 L138 722 C139 624 180 574 271 574 C368 574 412 636 410 724 L367 728 Z " />
<glyph glyph-name="Aogonek" unicode="&#x104;" horiz-adv-x="637" d="M605 -140 C589 -167 570 -179 546 -179 C519 -179 504 -161 504 -136 C504 -80 544 -45 602 0 L353 724 L283 724 L35 0 L85 0 L169 248 L464 248 L546 6 C506 -26 450 -74 450 -143 C450 -195 490 -223 538 -223 C574 -223 619 -205 641 -160 L605 -140 Z M450 290 L183 290 L316 693 L450 290 Z " />
<glyph glyph-name="aogonek" unicode="&#x105;" horiz-adv-x="536" d="M495 -140 C479 -167 460 -179 436 -179 C409 -179 394 -162 394 -136 C394 -78 451 -20 506 4 L502 36 C489 32 480 30 471 30 C445 30 440 44 440 72 L440 348 C440 474 392 518 273 518 C171 518 109 484 93 390 L140 382 C151 445 184 477 269 477 C365 477 390 439 390 339 L390 294 C368 295 345 296 321 296 C203 296 72 271 72 126 C72 78 92 -12 222 -12 C294 -12 355 17 394 56 C392 32 401 6 426 -3 C387 -35 340 -79 340 -143 C340 -195 380 -223 428 -223 C464 -223 509 -205 531 -160 L495 -140 Z M391 102 C356 60 293 30 229 30 C145 30 124 76 124 131 C124 234 211 255 313 255 C344 255 368 254 391 252 L391 102 Z " />
<glyph glyph-name="Cacute" unicode="&#x106;" horiz-adv-x="716" d="M379 -12 C510 -12 620 40 649 189 L607 199 C577 76 507 29 382 29 C221 29 120 123 120 356 C120 578 230 696 397 696 C534 696 592 626 610 503 L656 507 C642 663 543 737 398 737 C206 737 70 604 70 348 C70 138 158 -12 379 -12 L379 -12 Z M503 911 L430 911 L326 781 L368 767 L503 911 Z " />
<glyph glyph-name="cacute" unicode="&#x107;" horiz-adv-x="530" d="M285 -12 C374 -12 461 31 480 140 L430 150 C416 70 362 34 284 34 C199 34 111 78 111 259 C111 427 205 475 290 475 C372 475 414 434 423 347 L476 353 C471 463 392 518 296 518 C148 518 60 431 60 252 C60 98 118 -12 285 -12 L285 -12 Z M395 751 L323 751 L210 586 L252 572 L395 751 Z " />
<glyph glyph-name="Ccircumflex" unicode="&#x108;" horiz-adv-x="716" d="M379 -12 C510 -12 620 40 649 189 L607 199 C577 76 507 29 382 29 C221 29 120 123 120 356 C120 578 230 696 397 696 C534 696 592 626 610 503 L656 507 C642 663 543 737 398 737 C206 737 70 604 70 348 C70 138 158 -12 379 -12 L379 -12 Z M488 769 L538 778 L415 894 L379 894 L256 778 L304 767 L394 852 L488 769 Z " />
<glyph glyph-name="ccircumflex" unicode="&#x109;" horiz-adv-x="530" d="M285 -12 C374 -12 461 31 480 140 L430 150 C416 70 362 34 284 34 C199 34 111 78 111 259 C111 427 205 475 290 475 C372 475 414 434 423 347 L476 353 C471 463 392 518 296 518 C148 518 60 431 60 252 C60 98 118 -12 285 -12 L285 -12 Z M431 585 L309 750 L259 750 L143 585 L188 576 L283 708 L384 579 L431 585 Z " />
<glyph glyph-name="Cdotaccent" unicode="&#x10a;" horiz-adv-x="716" d="M379 -12 C510 -12 620 40 649 189 L607 199 C577 76 507 29 382 29 C221 29 120 123 120 356 C120 578 230 696 397 696 C534 696 592 626 610 503 L656 507 C642 663 543 737 398 737 C206 737 70 604 70 348 C70 138 158 -12 379 -12 L379 -12 Z M441 826 C441 854 424 869 395 869 C366 869 349 854 349 826 C349 799 366 784 395 784 C424 784 441 799 441 826 L441 826 Z " />
<glyph glyph-name="cdotaccent" unicode="&#x10b;" horiz-adv-x="530" d="M285 -12 C374 -12 461 31 480 140 L430 150 C416 70 362 34 284 34 C199 34 111 78 111 259 C111 427 205 475 290 475 C372 475 414 434 423 347 L476 353 C471 463 392 518 296 518 C148 518 60 431 60 252 C60 98 118 -12 285 -12 L285 -12 Z M330 677 C330 705 313 720 284 720 C255 720 238 705 238 677 C238 650 255 635 284 635 C313 635 330 650 330 677 L330 677 Z " />
<glyph glyph-name="Ccaron" unicode="&#x10c;" horiz-adv-x="716" d="M379 -12 C510 -12 620 40 649 189 L607 199 C577 76 507 29 382 29 C221 29 120 123 120 356 C120 578 230 696 397 696 C534 696 592 626 610 503 L656 507 C642 663 543 737 398 737 C206 737 70 604 70 348 C70 138 158 -12 379 -12 L379 -12 Z M304 897 L254 888 L377 772 L413 772 L536 888 L488 899 L398 814 L304 897 Z " />
<glyph glyph-name="ccaron" unicode="&#x10d;" horiz-adv-x="530" d="M285 -12 C374 -12 461 31 480 140 L430 150 C416 70 362 34 284 34 C199 34 111 78 111 259 C111 427 205 475 290 475 C372 475 414 434 423 347 L476 353 C471 463 392 518 296 518 C148 518 60 431 60 252 C60 98 118 -12 285 -12 L285 -12 Z M138 737 L259 572 L310 572 L426 737 L383 746 L285 614 L189 744 L138 737 Z " />
<glyph glyph-name="Dcaron" unicode="&#x10e;" horiz-adv-x="741" d="M295 0 C554 0 671 151 671 373 C671 589 563 724 312 724 L112 724 L112 0 L295 0 Z M160 41 L160 683 L308 683 C499 683 620 611 620 368 C620 155 506 41 303 41 L160 41 Z M238 897 L188 888 L311 772 L347 772 L470 888 L422 899 L332 814 L238 897 Z " />
<glyph glyph-name="dcaron" unicode="&#x10f;" horiz-adv-x="627" d="M486 755 L436 755 L436 468 C397 495 343 518 283 518 C165 518 65 445 65 249 C65 62 145 -12 258 -12 C336 -12 390 19 439 58 L444 0 L486 0 L486 755 Z M437 108 C399 67 337 31 268 31 C165 31 117 103 117 248 C117 384 159 474 282 474 C350 474 411 439 437 419 L437 108 Z M558 566 L596 558 L655 755 L591 755 L558 566 Z " />
<glyph glyph-name="Dcroat" unicode="&#x110;" horiz-adv-x="741" d="M17 349 L112 349 L112 0 L295 0 C554 0 671 151 671 373 C671 589 563 724 312 724 L112 724 L112 391 L17 391 L17 349 Z M160 41 L160 349 L421 349 L421 391 L160 391 L160 683 L308 683 C499 683 620 611 620 368 C620 155 506 41 303 41 L160 41 Z " />
<glyph glyph-name="dcroat" unicode="&#x111;" horiz-adv-x="581" d="M486 755 L436 755 L436 631 L225 631 L225 584 L436 584 L436 448 C397 475 343 498 283 498 C165 498 65 428 65 239 C65 59 145 -12 258 -12 C336 -12 390 19 439 58 L444 0 L486 0 L486 584 L551 584 L551 631 L486 631 L486 755 Z M437 108 C399 67 337 31 268 31 C165 31 117 100 117 238 C117 368 159 454 282 454 C350 454 411 419 437 399 L437 108 Z " />
<glyph glyph-name="Emacron" unicode="&#x112;" horiz-adv-x="570" d="M160 347 L487 347 L487 390 L160 390 L160 682 L510 682 L510 724 L112 724 L112 0 L518 0 L518 42 L160 42 L160 347 Z M463 800 L463 845 L163 845 L163 800 L463 800 Z " />
<glyph glyph-name="emacron" unicode="&#x113;" horiz-adv-x="543" d="M284 -12 C372 -12 450 28 475 131 L428 140 C410 71 368 35 288 35 C191 35 116 76 112 244 L478 244 C482 267 483 288 483 310 C483 426 428 518 293 518 C171 518 60 441 60 254 C60 113 109 -12 284 -12 L284 -12 Z M112 287 C121 422 202 473 287 473 C392 473 435 408 432 287 L112 287 Z M424 645 L424 690 L147 690 L147 645 L424 645 Z " />
<glyph glyph-name="Ebreve" unicode="&#x114;" horiz-adv-x="570" d="M160 347 L487 347 L487 390 L160 390 L160 682 L510 682 L510 724 L112 724 L112 0 L518 0 L518 42 L160 42 L160 347 Z M314 827 C266 827 240 845 230 903 L186 898 C194 826 231 785 313 785 C399 785 442 833 451 899 L406 903 C396 846 363 827 314 827 L314 827 Z " />
<glyph glyph-name="ebreve" unicode="&#x115;" horiz-adv-x="543" d="M284 -12 C372 -12 450 28 475 131 L428 140 C410 71 368 35 288 35 C191 35 116 76 112 244 L478 244 C482 267 483 288 483 310 C483 426 428 518 293 518 C171 518 60 441 60 254 C60 113 109 -12 284 -12 L284 -12 Z M112 287 C121 422 202 473 287 473 C392 473 435 408 432 287 L112 287 Z M381 728 C379 641 346 616 286 616 C229 616 201 640 196 728 L152 722 C153 624 194 574 285 574 C382 574 426 636 424 724 L381 728 Z " />
<glyph glyph-name="Edotaccent" unicode="&#x116;" horiz-adv-x="570" d="M160 347 L487 347 L487 390 L160 390 L160 682 L510 682 L510 724 L112 724 L112 0 L518 0 L518 42 L160 42 L160 347 Z M359 826 C359 854 342 869 313 869 C284 869 267 854 267 826 C267 799 284 784 313 784 C342 784 359 799 359 826 L359 826 Z " />
<glyph glyph-name="edotaccent" unicode="&#x117;" horiz-adv-x="543" d="M284 -12 C372 -12 450 28 475 131 L428 140 C410 71 368 35 288 35 C191 35 116 76 112 244 L478 244 C482 267 483 288 483 310 C483 426 428 518 293 518 C171 518 60 441 60 254 C60 113 109 -12 284 -12 L284 -12 Z M112 287 C121 422 202 473 287 473 C392 473 435 408 432 287 L112 287 Z M332 677 C332 705 315 720 286 720 C257 720 240 705 240 677 C240 650 257 635 286 635 C315 635 332 650 332 677 L332 677 Z " />
<glyph glyph-name="Eogonek" unicode="&#x118;" horiz-adv-x="570" d="M499 -140 C483 -167 464 -179 440 -179 C413 -179 398 -161 398 -136 C398 -83 431 -45 483 0 L518 0 L518 42 L160 42 L160 347 L487 347 L487 390 L160 390 L160 682 L510 682 L510 724 L112 724 L112 0 L424 0 C387 -33 344 -81 344 -143 C344 -195 384 -223 432 -223 C468 -223 513 -205 535 -160 L499 -140 Z " />
<glyph glyph-name="eogonek" unicode="&#x119;" horiz-adv-x="543" d="M387 -140 C371 -167 352 -179 328 -179 C301 -179 286 -161 286 -136 C286 -80 329 -32 384 7 C425 36 460 68 475 131 L428 140 C410 71 368 35 288 35 C191 35 116 76 112 244 L478 244 C482 267 483 288 483 310 C483 426 428 518 293 518 C171 518 60 441 60 254 C60 113 109 -12 284 -12 C291 -12 300 -12 307 -11 C264 -53 232 -88 232 -143 C232 -195 272 -223 320 -223 C356 -223 401 -205 423 -160 L387 -140 Z M112 287 C121 422 202 473 287 473 C392 473 435 408 432 287 L112 287 Z " />
<glyph glyph-name="Ecaron" unicode="&#x11a;" horiz-adv-x="570" d="M160 347 L487 347 L487 390 L160 390 L160 682 L510 682 L510 724 L112 724 L112 0 L518 0 L518 42 L160 42 L160 347 Z M222 897 L172 888 L295 772 L331 772 L454 888 L406 899 L316 814 L222 897 Z " />
<glyph glyph-name="ecaron" unicode="&#x11b;" horiz-adv-x="543" d="M284 -12 C372 -12 450 28 475 131 L428 140 C410 71 368 35 288 35 C191 35 116 76 112 244 L478 244 C482 267 483 288 483 310 C483 426 428 518 293 518 C171 518 60 441 60 254 C60 113 109 -12 284 -12 L284 -12 Z M112 287 C121 422 202 473 287 473 C392 473 435 408 432 287 L112 287 Z M140 737 L261 572 L312 572 L428 737 L385 746 L287 614 L191 744 L140 737 Z " />
<glyph glyph-name="Gcircumflex" unicode="&#x11c;" horiz-adv-x="756" d="M615 0 L652 0 L652 374 L375 374 L375 329 L610 329 L610 242 C610 144 534 29 386 29 C251 29 119 89 119 359 C119 575 226 696 397 696 C518 696 594 649 610 500 L656 505 C642 668 547 737 400 737 C203 737 70 611 70 355 C70 138 162 -12 380 -12 C500 -12 580 48 607 115 L615 0 Z M489 769 L539 778 L416 894 L380 894 L257 778 L305 767 L395 852 L489 769 Z " />
<glyph glyph-name="gcircumflex" unicode="&#x11d;" horiz-adv-x="547" d="M266 518 C143 518 58 447 58 329 C58 267 87 212 134 189 C103 165 76 136 76 97 C76 66 99 42 126 35 C83 4 41 -28 41 -95 C41 -147 66 -226 263 -226 C371 -226 514 -199 514 -67 C514 23 456 50 354 56 L214 64 C147 68 127 84 127 109 C127 136 146 153 169 170 C192 161 233 155 271 155 C378 155 466 221 466 337 C466 378 455 420 434 444 C458 452 495 459 527 458 L527 508 C514 512 506 514 491 514 C456 514 436 484 425 458 C390 501 332 518 266 518 L266 518 Z M414 336 C414 252 355 200 265 200 C156 200 112 259 112 338 C112 436 182 476 268 476 C360 476 414 431 414 336 L414 336 Z M462 -65 C462 -140 401 -178 269 -178 C120 -178 94 -134 94 -89 C94 -42 126 -9 168 21 L359 11 C440 7 462 -26 462 -65 L462 -65 Z M417 585 L295 750 L245 750 L129 585 L174 576 L269 708 L370 579 L417 585 Z " />
<glyph glyph-name="Gbreve" unicode="&#x11e;" horiz-adv-x="756" d="M615 0 L652 0 L652 374 L375 374 L375 329 L610 329 L610 242 C610 144 534 29 386 29 C251 29 119 89 119 359 C119 575 226 696 397 696 C518 696 594 649 610 500 L656 505 C642 668 547 737 400 737 C203 737 70 611 70 355 C70 138 162 -12 380 -12 C500 -12 580 48 607 115 L615 0 Z M397 827 C349 827 323 845 313 903 L269 898 C277 826 314 785 396 785 C482 785 525 833 534 899 L489 903 C479 846 446 827 397 827 L397 827 Z " />
<glyph glyph-name="gbreve" unicode="&#x11f;" horiz-adv-x="547" d="M266 518 C143 518 58 447 58 329 C58 267 87 212 134 189 C103 165 76 136 76 97 C76 66 99 42 126 35 C83 4 41 -28 41 -95 C41 -147 66 -226 263 -226 C371 -226 514 -199 514 -67 C514 23 456 50 354 56 L214 64 C147 68 127 84 127 109 C127 136 146 153 169 170 C192 161 233 155 271 155 C378 155 466 221 466 337 C466 378 455 420 434 444 C458 452 495 459 527 458 L527 508 C514 512 506 514 491 514 C456 514 436 484 425 458 C390 501 332 518 266 518 L266 518 Z M414 336 C414 252 355 200 265 200 C156 200 112 259 112 338 C112 436 182 476 268 476 C360 476 414 431 414 336 L414 336 Z M462 -65 C462 -140 401 -178 269 -178 C120 -178 94 -134 94 -89 C94 -42 126 -9 168 21 L359 11 C440 7 462 -26 462 -65 L462 -65 Z M365 728 C363 641 330 616 270 616 C213 616 185 640 180 728 L136 722 C137 624 178 574 269 574 C366 574 410 636 408 724 L365 728 Z " />
<glyph glyph-name="Gdotaccent" unicode="&#x120;" horiz-adv-x="756" d="M615 0 L652 0 L652 374 L375 374 L375 329 L610 329 L610 242 C610 144 534 29 386 29 C251 29 119 89 119 359 C119 575 226 696 397 696 C518 696 594 649 610 500 L656 505 C642 668 547 737 400 737 C203 737 70 611 70 355 C70 138 162 -12 380 -12 C500 -12 580 48 607 115 L615 0 Z M442 826 C442 854 425 869 396 869 C367 869 350 854 350 826 C350 799 367 784 396 784 C425 784 442 799 442 826 L442 826 Z " />
<glyph glyph-name="gdotaccent" unicode="&#x121;" horiz-adv-x="547" d="M266 518 C143 518 58 447 58 329 C58 267 87 212 134 189 C103 165 76 136 76 97 C76 66 99 42 126 35 C83 4 41 -28 41 -95 C41 -147 66 -226 263 -226 C371 -226 514 -199 514 -67 C514 23 456 50 354 56 L214 64 C147 68 127 84 127 109 C127 136 146 153 169 170 C192 161 233 155 271 155 C378 155 466 221 466 337 C466 378 455 420 434 444 C458 452 495 459 527 458 L527 508 C514 512 506 514 491 514 C456 514 436 484 425 458 C390 501 332 518 266 518 L266 518 Z M414 336 C414 252 355 200 265 200 C156 200 112 259 112 338 C112 436 182 476 268 476 C360 476 414 431 414 336 L414 336 Z M462 -65 C462 -140 401 -178 269 -178 C120 -178 94 -134 94 -89 C94 -42 126 -9 168 21 L359 11 C440 7 462 -26 462 -65 L462 -65 Z M316 677 C316 705 299 720 270 720 C241 720 224 705 224 677 C224 650 241 635 270 635 C299 635 316 650 316 677 L316 677 Z " />
<glyph glyph-name="Gcommaaccent" unicode="&#x122;" horiz-adv-x="756" d="M615 0 L652 0 L652 374 L375 374 L375 329 L610 329 L610 242 C610 144 534 29 386 29 C251 29 119 89 119 359 C119 575 226 696 397 696 C518 696 594 649 610 500 L656 505 C642 668 547 737 400 737 C203 737 70 611 70 355 C70 138 162 -12 380 -12 C500 -12 580 48 607 115 L615 0 Z M319 -209 L361 -216 L419 -69 L353 -69 L319 -209 Z " />
<glyph glyph-name="gcommaaccent" unicode="&#x123;" horiz-adv-x="547" d="M266 518 C143 518 58 447 58 329 C58 267 87 212 134 189 C103 165 76 136 76 97 C76 66 99 42 126 35 C83 4 41 -28 41 -95 C41 -147 66 -226 263 -226 C371 -226 514 -199 514 -67 C514 23 456 50 354 56 L214 64 C147 68 127 84 127 109 C127 136 146 153 169 170 C192 161 233 155 271 155 C378 155 466 221 466 337 C466 378 455 420 434 444 C458 452 495 459 527 458 L527 508 C514 512 506 514 491 514 C456 514 436 484 425 458 C390 501 332 518 266 518 L266 518 Z M414 336 C414 252 355 200 265 200 C156 200 112 259 112 338 C112 436 182 476 268 476 C360 476 414 431 414 336 L414 336 Z M462 -65 C462 -140 401 -178 269 -178 C120 -178 94 -134 94 -89 C94 -42 126 -9 168 21 L359 11 C440 7 462 -26 462 -65 L462 -65 Z M326 710 L283 716 L226 570 L292 570 L326 710 Z " />
<glyph glyph-name="Hcircumflex" unicode="&#x124;" horiz-adv-x="725" d="M613 724 L565 724 L565 394 L160 394 L160 724 L112 724 L112 0 L160 0 L160 350 L565 350 L565 0 L613 0 L613 724 Z M455 769 L505 778 L382 894 L346 894 L223 778 L271 767 L361 852 L455 769 Z " />
<glyph glyph-name="hcircumflex" unicode="&#x125;" horiz-adv-x="578" d="M490 342 C490 456 444 518 336 518 C266 518 201 486 142 443 L142 755 L93 755 L93 0 L142 0 L142 394 C175 425 254 472 327 472 C413 472 441 424 441 340 L441 0 L490 0 L490 342 Z M218 792 L268 801 L145 917 L109 917 L-14 801 L34 790 L124 875 L218 792 Z " />
<glyph glyph-name="Hbar" unicode="&#x126;" horiz-adv-x="725" d="M613 724 L565 724 L565 578 L160 578 L160 724 L112 724 L112 578 L32 578 L32 533 L112 533 L112 0 L160 0 L160 350 L565 350 L565 0 L613 0 L613 533 L693 533 L693 578 L613 578 L613 724 Z M160 394 L160 533 L565 533 L565 394 L160 394 Z " />
<glyph glyph-name="hbar" unicode="&#x127;" horiz-adv-x="578" d="M24 579 L93 579 L93 0 L142 0 L142 374 C175 405 254 452 327 452 C413 452 441 404 441 320 L441 0 L490 0 L490 322 C490 436 444 498 336 498 C266 498 201 466 142 423 L142 579 L344 579 L344 626 L142 626 L142 755 L93 755 L93 626 L24 626 L24 579 Z " />
<glyph glyph-name="Itilde" unicode="&#x128;" horiz-adv-x="272" d="M160 724 L112 724 L112 0 L160 0 L160 724 Z M58 877 C19 877 -26 854 -16 774 L20 772 C19 821 38 832 59 832 C107 832 157 786 215 786 C257 786 302 806 292 888 L254 890 C254 838 237 832 211 832 C166 832 119 877 58 877 L58 877 Z " />
<glyph glyph-name="itilde" unicode="&#x129;" horiz-adv-x="236" d="M145 508 L96 508 L96 0 L145 0 L145 508 Z M39 699 C0 699 -45 676 -35 596 L1 594 C0 643 19 654 40 654 C88 654 138 608 196 608 C238 608 283 628 273 710 L235 712 C235 660 218 654 192 654 C147 654 100 699 39 699 L39 699 Z " />
<glyph glyph-name="Imacron" unicode="&#x12a;" horiz-adv-x="272" d="M160 724 L112 724 L112 0 L160 0 L160 724 Z M286 800 L286 845 L-14 845 L-14 800 L286 800 Z " />
<glyph glyph-name="imacron" unicode="&#x12b;" horiz-adv-x="236" d="M145 508 L96 508 L96 0 L145 0 L145 508 Z M258 645 L258 690 L-19 690 L-19 645 L258 645 Z " />
<glyph glyph-name="Ibreve" unicode="&#x12c;" horiz-adv-x="272" d="M160 724 L112 724 L112 0 L160 0 L160 724 Z M137 827 C89 827 63 845 53 903 L9 898 C17 826 54 785 136 785 C222 785 265 833 274 899 L229 903 C219 846 186 827 137 827 L137 827 Z " />
<glyph glyph-name="ibreve" unicode="&#x12d;" horiz-adv-x="236" d="M145 508 L96 508 L96 0 L145 0 L145 508 Z M215 728 C213 641 180 616 120 616 C63 616 35 640 30 728 L-14 722 C-13 624 28 574 119 574 C216 574 260 636 258 724 L215 728 Z " />
<glyph glyph-name="Iogonek" unicode="&#x12e;" horiz-adv-x="272" d="M182 -140 C166 -167 147 -179 123 -179 C96 -179 81 -161 81 -136 C81 -80 112 -45 160 0 L160 724 L112 724 L112 7 C74 -25 27 -76 27 -143 C27 -195 67 -223 115 -223 C151 -223 196 -205 218 -160 L182 -140 Z " />
<glyph glyph-name="iogonek" unicode="&#x12f;" horiz-adv-x="236" d="M169 -140 C153 -167 134 -179 110 -179 C83 -179 68 -161 68 -136 C68 -80 100 -44 145 0 L145 508 L96 508 L96 5 C58 -28 14 -80 14 -143 C14 -195 54 -223 102 -223 C138 -223 183 -205 205 -160 L169 -140 Z M169 677 C169 705 152 720 123 720 C94 720 77 705 77 677 C77 650 94 635 123 635 C152 635 169 650 169 677 L169 677 Z " />
<glyph glyph-name="Idotaccent" unicode="&#x130;" horiz-adv-x="272" d="M160 724 L112 724 L112 0 L160 0 L160 724 Z M182 826 C182 854 165 869 136 869 C107 869 90 854 90 826 C90 799 107 784 136 784 C165 784 182 799 182 826 L182 826 Z " />
<glyph glyph-name="dotlessi" unicode="&#x131;" horiz-adv-x="236" d="M145 508 L96 508 L96 0 L145 0 L145 508 Z " />
<glyph glyph-name="IJ" unicode="&#x132;" horiz-adv-x="759" d="M160 724 L112 724 L112 0 L160 0 L160 724 Z M610 176 C610 54 551 31 486 31 C389 31 368 85 359 152 L312 144 C317 57 362 -12 481 -12 C585 -12 658 29 658 173 L658 724 L610 724 L610 176 Z " />
<glyph glyph-name="ij" unicode="&#x133;" horiz-adv-x="469" d="M145 508 L96 508 L96 0 L145 0 L145 508 Z M169 677 C169 705 152 720 123 720 C94 720 77 705 77 677 C77 650 94 635 123 635 C152 635 169 650 169 677 L169 677 Z M262 -223 C344 -223 381 -180 381 -89 L381 508 L332 508 L332 -93 C332 -153 308 -177 264 -177 C243 -177 216 -173 193 -165 L184 -208 C201 -217 245 -223 262 -223 L262 -223 Z M406 689 C406 717 389 732 360 732 C331 732 314 717 314 689 C314 662 331 647 360 647 C389 647 406 662 406 689 L406 689 Z " />
<glyph glyph-name="Jcircumflex" unicode="&#x134;" horiz-adv-x="487" d="M338 176 C338 54 279 31 214 31 C117 31 96 85 87 152 L40 144 C45 57 90 -12 209 -12 C313 -12 386 29 386 173 L386 724 L338 724 L338 176 Z M454 769 L504 778 L381 894 L345 894 L222 778 L270 767 L360 852 L454 769 Z " />
<glyph glyph-name="jcircumflex" unicode="&#x135;" horiz-adv-x="233" d="M26 -223 C108 -223 145 -180 145 -89 L145 508 L96 508 L96 -93 C96 -153 72 -177 28 -177 C7 -177 -20 -173 -43 -165 L-52 -208 C-35 -217 9 -223 26 -223 L26 -223 Z M267 585 L145 750 L95 750 L-21 585 L24 576 L119 708 L220 579 L267 585 Z " />
<glyph glyph-name="Kcommaaccent" unicode="&#x136;" horiz-adv-x="623" d="M160 724 L112 724 L112 0 L160 0 L160 283 L245 373 L546 0 L604 0 L278 405 L577 724 L517 724 L160 342 L160 724 Z M261 -209 L303 -216 L361 -69 L295 -69 L261 -209 Z " />
<glyph glyph-name="kcommaaccent" unicode="&#x137;" horiz-adv-x="504" d="M142 755 L93 755 L93 0 L142 0 L142 187 L240 286 L415 0 L468 0 L275 321 L455 508 L396 508 L142 245 L142 755 Z M202 -209 L244 -216 L302 -69 L236 -69 L202 -209 Z " />
<glyph glyph-name="kgreenlandic" unicode="&#x138;" horiz-adv-x="504" d="M142 508 L93 508 L93 0 L142 0 L142 187 L240 286 L415 0 L468 0 L275 321 L455 508 L396 508 L142 245 L142 508 Z " />
<glyph glyph-name="Lacute" unicode="&#x139;" horiz-adv-x="552" d="M160 724 L112 724 L112 0 L497 0 L497 41 L160 41 L160 724 Z M255 911 L182 911 L78 781 L120 767 L255 911 Z " />
<glyph glyph-name="lacute" unicode="&#x13a;" horiz-adv-x="236" d="M145 755 L96 755 L96 0 L145 0 L145 755 Z M233 932 L160 932 L56 802 L98 788 L233 932 Z " />
<glyph glyph-name="Lcommaaccent" unicode="&#x13b;" horiz-adv-x="552" d="M160 724 L112 724 L112 0 L497 0 L497 41 L160 41 L160 724 Z M247 -209 L289 -216 L347 -69 L281 -69 L247 -209 Z " />
<glyph glyph-name="lcommaaccent" unicode="&#x13c;" horiz-adv-x="236" d="M145 755 L96 755 L96 0 L145 0 L145 755 Z M64 -209 L106 -216 L164 -69 L98 -69 L64 -209 Z " />
<glyph glyph-name="Lcaron" unicode="&#x13d;" horiz-adv-x="552" d="M160 724 L112 724 L112 0 L497 0 L497 41 L160 41 L160 724 Z M368 536 L406 528 L465 725 L401 725 L368 536 Z " />
<glyph glyph-name="lcaron" unicode="&#x13e;" horiz-adv-x="282" d="M145 755 L96 755 L96 0 L145 0 L145 755 Z M215 566 L253 558 L312 755 L248 755 L215 566 Z " />
<glyph glyph-name="Ldot" unicode="&#x13f;" horiz-adv-x="552" d="M160 724 L112 724 L112 0 L497 0 L497 41 L160 41 L160 724 Z M465 399 C465 427 448 442 419 442 C390 442 373 427 373 399 C373 372 390 357 419 357 C448 357 465 372 465 399 L465 399 Z " />
<glyph glyph-name="ldot" unicode="&#x140;" horiz-adv-x="293" d="M145 755 L96 755 L96 0 L145 0 L145 755 Z M316 398 C316 426 299 441 270 441 C241 441 224 426 224 398 C224 371 241 356 270 356 C299 356 316 371 316 398 L316 398 Z " />
<glyph glyph-name="Lslash" unicode="&#x141;" horiz-adv-x="552" d="M160 724 L112 724 L112 346 L19 307 L19 259 L112 298 L112 0 L497 0 L497 41 L160 41 L160 319 L403 422 L403 471 L160 367 L160 724 Z " />
<glyph glyph-name="lslash" unicode="&#x142;" horiz-adv-x="261" d="M153 755 L104 755 L104 408 L15 367 L15 314 L104 355 L104 0 L153 0 L153 377 L246 420 L246 473 L153 429 L153 755 Z " />
<glyph glyph-name="Nacute" unicode="&#x143;" horiz-adv-x="745" d="M633 0 L633 724 L587 724 L587 53 L189 724 L112 724 L112 0 L159 0 L159 683 L568 0 L633 0 Z M511 911 L438 911 L334 781 L376 767 L511 911 Z " />
<glyph glyph-name="nacute" unicode="&#x144;" horiz-adv-x="578" d="M490 342 C490 456 444 518 337 518 C266 518 198 484 139 442 L136 508 L93 508 L93 0 L142 0 L142 394 C175 425 255 473 328 473 C414 473 441 424 441 340 L441 0 L490 0 L490 342 Z M430 751 L358 751 L245 586 L287 572 L430 751 Z " />
<glyph glyph-name="Ncommaaccent" unicode="&#x145;" horiz-adv-x="745" d="M633 0 L633 724 L587 724 L587 53 L189 724 L112 724 L112 0 L159 0 L159 683 L568 0 L633 0 Z M317 -209 L359 -216 L417 -69 L351 -69 L317 -209 Z " />
<glyph glyph-name="ncommaaccent" unicode="&#x146;" horiz-adv-x="578" d="M490 342 C490 456 444 518 337 518 C266 518 198 484 139 442 L136 508 L93 508 L93 0 L142 0 L142 394 C175 425 255 473 328 473 C414 473 441 424 441 340 L441 0 L490 0 L490 342 Z M227 -209 L269 -216 L327 -69 L261 -69 L227 -209 Z " />
<glyph glyph-name="Ncaron" unicode="&#x147;" horiz-adv-x="745" d="M633 0 L633 724 L587 724 L587 53 L189 724 L112 724 L112 0 L159 0 L159 683 L568 0 L633 0 Z M297 897 L247 888 L370 772 L406 772 L529 888 L481 899 L391 814 L297 897 Z " />
<glyph glyph-name="ncaron" unicode="&#x148;" horiz-adv-x="578" d="M490 342 C490 456 444 518 337 518 C266 518 198 484 139 442 L136 508 L93 508 L93 0 L142 0 L142 394 C175 425 255 473 328 473 C414 473 441 424 441 340 L441 0 L490 0 L490 342 Z M156 737 L277 572 L328 572 L444 737 L401 746 L303 614 L207 744 L156 737 Z " />
<glyph glyph-name="napostrophe" unicode="&#x149;" horiz-adv-x="578" d="M490 342 C490 456 444 518 337 518 C266 518 198 484 139 442 L136 508 L93 508 L93 0 L142 0 L142 394 C175 425 255 473 328 473 C414 473 441 424 441 340 L441 0 L490 0 L490 342 Z M-13 514 L29 508 L86 654 L20 654 L-13 514 Z " />
<glyph glyph-name="Eng" unicode="&#x14a;" horiz-adv-x="745" d="M494 -223 C590 -223 633 -177 633 -79 L633 724 L587 724 L587 73 L189 724 L112 724 L112 0 L159 0 L159 683 L585 -7 L585 -83 C585 -150 552 -177 496 -177 C469 -177 434 -168 405 -160 L396 -203 C417 -212 473 -223 494 -223 L494 -223 Z " />
<glyph glyph-name="eng" unicode="&#x14b;" horiz-adv-x="578" d="M490 342 C490 456 444 518 337 518 C266 518 198 484 139 442 L136 508 L93 508 L93 0 L142 0 L142 394 C175 425 255 473 328 473 C414 473 441 424 441 340 L441 -93 C441 -153 417 -177 373 -177 C352 -177 325 -173 302 -165 L293 -208 C310 -217 354 -223 371 -223 C453 -223 490 -180 490 -89 L490 342 Z " />
<glyph glyph-name="Omacron" unicode="&#x14c;" horiz-adv-x="781" d="M386 -12 C597 -12 711 143 711 379 C711 580 608 737 400 737 C189 737 70 580 70 364 C70 147 173 -12 386 -12 L386 -12 Z M390 29 C232 29 121 151 121 363 C121 576 241 696 398 696 C554 696 661 577 661 369 C661 145 547 29 390 29 L390 29 Z M546 800 L546 845 L246 845 L246 800 L546 800 Z " />
<glyph glyph-name="omacron" unicode="&#x14d;" horiz-adv-x="572" d="M284 -12 C447 -12 512 98 512 265 C512 417 448 518 297 518 C145 518 60 417 60 252 C60 103 115 -12 284 -12 L284 -12 Z M288 33 C169 33 109 107 109 256 C109 406 185 473 293 473 C398 473 460 419 460 259 C460 96 393 33 288 33 L288 33 Z M432 645 L432 690 L155 690 L155 645 L432 645 Z " />
<glyph glyph-name="Obreve" unicode="&#x14e;" horiz-adv-x="781" d="M386 -12 C597 -12 711 143 711 379 C711 580 608 737 400 737 C189 737 70 580 70 364 C70 147 173 -12 386 -12 L386 -12 Z M390 29 C232 29 121 151 121 363 C121 576 241 696 398 696 C554 696 661 577 661 369 C661 145 547 29 390 29 L390 29 Z M397 827 C349 827 323 845 313 903 L269 898 C277 826 314 785 396 785 C482 785 525 833 534 899 L489 903 C479 846 446 827 397 827 L397 827 Z " />
<glyph glyph-name="obreve" unicode="&#x14f;" horiz-adv-x="572" d="M284 -12 C447 -12 512 98 512 265 C512 417 448 518 297 518 C145 518 60 417 60 252 C60 103 115 -12 284 -12 L284 -12 Z M288 33 C169 33 109 107 109 256 C109 406 185 473 293 473 C398 473 460 419 460 259 C460 96 393 33 288 33 L288 33 Z M389 728 C387 641 354 616 294 616 C237 616 209 640 204 728 L160 722 C161 624 202 574 293 574 C390 574 434 636 432 724 L389 728 Z " />
<glyph glyph-name="Ohungarumlaut" unicode="&#x150;" horiz-adv-x="781" d="M386 -12 C597 -12 711 143 711 379 C711 580 608 737 400 737 C189 737 70 580 70 364 C70 147 173 -12 386 -12 L386 -12 Z M390 29 C232 29 121 151 121 363 C121 576 241 696 398 696 C554 696 661 577 661 369 C661 145 547 29 390 29 L390 29 Z M459 911 L389 911 L313 780 L352 767 L459 911 Z M595 915 L523 915 L419 781 L461 767 L595 915 Z " />
<glyph glyph-name="ohungarumlaut" unicode="&#x151;" horiz-adv-x="572" d="M284 -12 C447 -12 512 98 512 265 C512 417 448 518 297 518 C145 518 60 417 60 252 C60 103 115 -12 284 -12 L284 -12 Z M288 33 C169 33 109 107 109 256 C109 406 185 473 293 473 C398 473 460 419 460 259 C460 96 393 33 288 33 L288 33 Z M363 749 L294 749 L200 585 L238 572 L363 749 Z M493 750 L424 750 L314 586 L352 572 L493 750 Z " />
<glyph glyph-name="OE" unicode="&#x152;" horiz-adv-x="1114" d="M1062 0 L1062 42 L704 42 L704 347 L1031 347 L1031 390 L704 390 L704 682 L1054 682 L1054 724 L662 724 L662 594 C612 680 526 737 401 737 C189 737 70 580 70 364 C70 147 172 -12 386 -12 C519 -12 608 47 662 146 L662 0 L1062 0 Z M390 29 C232 29 121 152 121 363 C121 575 241 696 398 696 C553 696 661 577 661 371 C661 146 548 29 390 29 L390 29 Z " />
<glyph glyph-name="oe" unicode="&#x153;" horiz-adv-x="941" d="M680 -12 C770 -12 850 30 873 131 L826 140 C808 72 772 35 686 35 C590 35 514 76 510 244 L876 244 C880 265 881 287 881 308 C881 425 827 518 688 518 C603 518 529 482 488 402 C459 473 399 518 300 518 C146 518 60 416 60 252 C60 103 116 -12 287 -12 C390 -12 451 32 484 104 C514 35 573 -12 680 -12 L680 -12 Z M290 33 C171 33 110 107 110 256 C110 405 186 473 294 473 C399 473 461 418 461 259 C461 98 395 33 290 33 L290 33 Z M510 287 C517 418 599 473 685 473 C790 473 833 407 830 287 L510 287 Z " />
<glyph glyph-name="Racute" unicode="&#x154;" horiz-adv-x="637" d="M415 332 C506 357 566 424 566 534 C566 638 515 724 335 724 L112 724 L112 0 L159 0 L159 321 L369 321 L549 0 L602 0 L415 332 Z M159 363 L159 683 L313 683 C433 683 515 659 515 535 C515 403 441 363 329 363 L159 363 Z M425 911 L352 911 L248 781 L290 767 L425 911 Z " />
<glyph glyph-name="racute" unicode="&#x155;" horiz-adv-x="339" d="M327 518 C244 523 185 492 137 440 L132 508 L93 508 L93 0 L142 0 L142 407 C184 450 265 477 327 469 L327 518 Z M347 751 L275 751 L162 586 L204 572 L347 751 Z " />
<glyph glyph-name="Rcommaaccent" unicode="&#x156;" horiz-adv-x="637" d="M415 332 C506 357 566 424 566 534 C566 638 515 724 335 724 L112 724 L112 0 L159 0 L159 321 L369 321 L549 0 L602 0 L415 332 Z M159 363 L159 683 L313 683 C433 683 515 659 515 535 C515 403 441 363 329 363 L159 363 Z M280 -209 L322 -216 L380 -69 L314 -69 L280 -209 Z " />
<glyph glyph-name="rcommaaccent" unicode="&#x157;" horiz-adv-x="339" d="M327 518 C244 523 185 492 137 440 L132 508 L93 508 L93 0 L142 0 L142 407 C184 450 265 477 327 469 L327 518 Z M63 -209 L105 -216 L163 -69 L97 -69 L63 -209 Z " />
<glyph glyph-name="Rcaron" unicode="&#x158;" horiz-adv-x="637" d="M415 332 C506 357 566 424 566 534 C566 638 515 724 335 724 L112 724 L112 0 L159 0 L159 321 L369 321 L549 0 L602 0 L415 332 Z M159 363 L159 683 L313 683 C433 683 515 659 515 535 C515 403 441 363 329 363 L159 363 Z M226 897 L176 888 L299 772 L335 772 L458 888 L410 899 L320 814 L226 897 Z " />
<glyph glyph-name="rcaron" unicode="&#x159;" horiz-adv-x="339" d="M327 518 C244 523 185 492 137 440 L132 508 L93 508 L93 0 L142 0 L142 407 C184 450 265 477 327 469 L327 518 Z M61 737 L182 572 L233 572 L349 737 L306 746 L208 614 L112 744 L61 737 Z " />
<glyph glyph-name="Sacute" unicode="&#x15a;" horiz-adv-x="578" d="M298 694 C433 694 459 605 474 533 L520 538 C502 679 420 737 295 737 C157 737 66 663 66 549 C66 415 165 379 269 351 C369 324 469 299 469 181 C469 61 369 33 282 33 C141 33 97 114 81 194 L32 184 C52 72 116 -12 283 -12 C410 -12 523 43 523 186 C523 336 394 364 283 396 C187 424 118 452 118 551 C118 629 162 694 298 694 L298 694 Z M403 911 L330 911 L226 781 L268 767 L403 911 Z " />
<glyph glyph-name="sacute" unicode="&#x15b;" horiz-adv-x="477" d="M241 518 C150 518 68 472 68 379 C68 268 162 250 246 234 C318 220 372 203 372 133 C372 59 316 32 245 32 C137 32 112 90 99 153 L52 144 C68 29 136 -12 243 -12 C365 -12 423 50 423 135 C423 243 335 262 254 279 C178 295 118 310 118 383 C118 429 144 476 238 476 C329 476 354 432 362 360 L409 366 C401 457 364 518 241 518 L241 518 Z M351 751 L279 751 L166 586 L208 572 L351 751 Z " />
<glyph glyph-name="Scircumflex" unicode="&#x15c;" horiz-adv-x="578" d="M298 694 C433 694 459 605 474 533 L520 538 C502 679 420 737 295 737 C157 737 66 663 66 549 C66 415 165 379 269 351 C369 324 469 299 469 181 C469 61 369 33 282 33 C141 33 97 114 81 194 L32 184 C52 72 116 -12 283 -12 C410 -12 523 43 523 186 C523 336 394 364 283 396 C187 424 118 452 118 551 C118 629 162 694 298 694 L298 694 Z M388 769 L438 778 L315 894 L279 894 L156 778 L204 767 L294 852 L388 769 Z " />
<glyph glyph-name="scircumflex" unicode="&#x15d;" horiz-adv-x="477" d="M241 518 C150 518 68 472 68 379 C68 268 162 250 246 234 C318 220 372 203 372 133 C372 59 316 32 245 32 C137 32 112 90 99 153 L52 144 C68 29 136 -12 243 -12 C365 -12 423 50 423 135 C423 243 335 262 254 279 C178 295 118 310 118 383 C118 429 144 476 238 476 C329 476 354 432 362 360 L409 366 C401 457 364 518 241 518 L241 518 Z M387 585 L265 750 L215 750 L99 585 L144 576 L239 708 L340 579 L387 585 Z " />
<glyph glyph-name="Scedilla" unicode="&#x15e;" horiz-adv-x="578" d="M202 -193 C213 -203 239 -217 277 -217 C331 -217 372 -179 372 -126 C372 -70 331 -48 288 -43 L292 -12 C415 -9 523 46 523 186 C523 336 394 364 283 396 C187 424 118 452 118 551 C118 629 162 694 298 694 C433 694 459 605 474 533 L520 538 C502 679 420 737 295 737 C157 737 66 663 66 549 C66 415 165 379 269 351 C369 324 469 299 469 181 C469 61 369 33 282 33 C141 33 97 114 81 194 L32 184 C51 79 108 -1 253 -11 L245 -73 C306 -74 326 -94 326 -128 C326 -154 310 -178 274 -178 C250 -178 227 -167 217 -159 L202 -193 Z " />
<glyph glyph-name="scedilla" unicode="&#x15f;" horiz-adv-x="477" d="M166 -193 C177 -203 203 -217 241 -217 C295 -217 336 -179 336 -126 C336 -70 295 -48 252 -43 L256 -12 C369 -7 423 53 423 135 C423 243 335 262 254 279 C178 295 118 310 118 383 C118 429 144 476 238 476 C329 476 354 432 362 360 L409 366 C401 457 364 518 241 518 C150 518 68 472 68 379 C68 268 162 250 246 234 C318 220 372 203 372 133 C372 59 316 32 245 32 C137 32 112 90 99 153 L52 144 C66 38 125 -5 217 -11 L209 -73 C270 -74 290 -94 290 -128 C290 -154 274 -178 238 -178 C214 -178 191 -167 181 -159 L166 -193 Z " />
<glyph glyph-name="Scaron" unicode="&#x160;" horiz-adv-x="578" d="M298 694 C433 694 459 605 474 533 L520 538 C502 679 420 737 295 737 C157 737 66 663 66 549 C66 415 165 379 269 351 C369 324 469 299 469 181 C469 61 369 33 282 33 C141 33 97 114 81 194 L32 184 C52 72 116 -12 283 -12 C410 -12 523 43 523 186 C523 336 394 364 283 396 C187 424 118 452 118 551 C118 629 162 694 298 694 L298 694 Z M204 897 L154 888 L277 772 L313 772 L436 888 L388 899 L298 814 L204 897 Z " />
<glyph glyph-name="scaron" unicode="&#x161;" horiz-adv-x="477" d="M241 518 C150 518 68 472 68 379 C68 268 162 250 246 234 C318 220 372 203 372 133 C372 59 316 32 245 32 C137 32 112 90 99 153 L52 144 C68 29 136 -12 243 -12 C365 -12 423 50 423 135 C423 243 335 262 254 279 C178 295 118 310 118 383 C118 429 144 476 238 476 C329 476 354 432 362 360 L409 366 C401 457 364 518 241 518 L241 518 Z M94 737 L215 572 L266 572 L382 737 L339 746 L241 614 L145 744 L94 737 Z " />
<glyph glyph-name="uni0162" unicode="&#x162;" horiz-adv-x="532" d="M193 -193 C204 -203 230 -217 268 -217 C322 -217 363 -179 363 -126 C363 -70 322 -48 279 -43 L285 0 L290 0 L290 682 L512 682 L512 724 L20 724 L20 682 L242 682 L242 0 L246 0 L236 -73 C297 -74 317 -94 317 -128 C317 -154 301 -178 265 -178 C241 -178 218 -167 208 -159 L193 -193 Z " />
<glyph glyph-name="uni0163" unicode="&#x163;" horiz-adv-x="364" d="M133 -193 C144 -203 170 -217 208 -217 C262 -217 303 -179 303 -126 C303 -70 262 -48 219 -43 L223 -12 L235 -12 C271 -12 320 1 344 18 L330 56 C307 42 269 29 238 29 C169 29 155 65 155 126 L155 465 L299 465 L299 508 L155 508 L155 661 L106 653 L106 508 L25 508 L25 465 L106 465 L106 116 C106 45 128 6 185 -7 L176 -73 C237 -74 257 -94 257 -128 C257 -154 241 -178 205 -178 C181 -178 158 -167 148 -159 L133 -193 Z " />
<glyph glyph-name="Tcaron" unicode="&#x164;" horiz-adv-x="532" d="M290 0 L290 682 L512 682 L512 724 L20 724 L20 682 L242 682 L242 0 L290 0 Z M175 897 L125 888 L248 772 L284 772 L407 888 L359 899 L269 814 L175 897 Z " />
<glyph glyph-name="tcaron" unicode="&#x165;" horiz-adv-x="364" d="M330 56 C307 42 269 29 238 29 C169 29 155 65 155 126 L155 465 L299 465 L299 508 L155 508 L155 661 L106 653 L106 508 L25 508 L25 465 L106 465 L106 116 C106 27 141 -12 235 -12 C271 -12 320 1 344 18 L330 56 Z M226 566 L264 558 L323 755 L259 755 L226 566 Z " />
<glyph glyph-name="Tbar" unicode="&#x166;" horiz-adv-x="532" d="M290 0 L290 352 L436 352 L436 396 L290 396 L290 682 L512 682 L512 724 L20 724 L20 682 L242 682 L242 396 L96 396 L96 352 L242 352 L242 0 L290 0 Z " />
<glyph glyph-name="tbar" unicode="&#x167;" horiz-adv-x="364" d="M330 56 C307 42 269 29 238 29 C169 29 155 65 155 126 L155 262 L299 262 L299 305 L155 305 L155 465 L299 465 L299 508 L155 508 L155 661 L106 653 L106 508 L25 508 L25 465 L106 465 L106 305 L25 305 L25 262 L106 262 L106 116 C106 27 141 -12 235 -12 C271 -12 320 1 344 18 L330 56 Z " />
<glyph glyph-name="Utilde" unicode="&#x168;" horiz-adv-x="718" d="M360 32 C238 32 156 81 156 232 L156 724 L108 724 L108 228 C108 76 178 -12 354 -12 C521 -12 610 69 610 228 L610 724 L562 724 L562 230 C562 79 486 32 360 32 L360 32 Z M281 877 C242 877 197 854 207 774 L243 772 C242 821 261 832 282 832 C330 832 380 786 438 786 C480 786 525 806 515 888 L477 890 C477 838 460 832 434 832 C389 832 342 877 281 877 L281 877 Z " />
<glyph glyph-name="utilde" unicode="&#x169;" horiz-adv-x="581" d="M90 167 C90 52 131 -10 241 -10 C320 -10 379 22 438 65 L441 0 L484 0 L484 508 L435 508 L435 114 C402 83 323 35 250 35 C165 35 139 84 139 168 L139 508 L90 508 L90 167 Z M206 699 C167 699 122 676 132 596 L168 594 C167 643 186 654 207 654 C255 654 305 608 363 608 C405 608 450 628 440 710 L402 712 C402 660 385 654 359 654 C314 654 267 699 206 699 L206 699 Z " />
<glyph glyph-name="Umacron" unicode="&#x16a;" horiz-adv-x="718" d="M360 32 C238 32 156 81 156 232 L156 724 L108 724 L108 228 C108 76 178 -12 354 -12 C521 -12 610 69 610 228 L610 724 L562 724 L562 230 C562 79 486 32 360 32 L360 32 Z M509 800 L509 845 L209 845 L209 800 L509 800 Z " />
<glyph glyph-name="umacron" unicode="&#x16b;" horiz-adv-x="581" d="M90 167 C90 52 131 -10 241 -10 C320 -10 379 22 438 65 L441 0 L484 0 L484 508 L435 508 L435 114 C402 83 323 35 250 35 C165 35 139 84 139 168 L139 508 L90 508 L90 167 Z M425 645 L425 690 L148 690 L148 645 L425 645 Z " />
<glyph glyph-name="Ubreve" unicode="&#x16c;" horiz-adv-x="718" d="M360 32 C238 32 156 81 156 232 L156 724 L108 724 L108 228 C108 76 178 -12 354 -12 C521 -12 610 69 610 228 L610 724 L562 724 L562 230 C562 79 486 32 360 32 L360 32 Z M360 827 C312 827 286 845 276 903 L232 898 C240 826 277 785 359 785 C445 785 488 833 497 899 L452 903 C442 846 409 827 360 827 L360 827 Z " />
<glyph glyph-name="ubreve" unicode="&#x16d;" horiz-adv-x="581" d="M90 167 C90 52 131 -10 241 -10 C320 -10 379 22 438 65 L441 0 L484 0 L484 508 L435 508 L435 114 C402 83 323 35 250 35 C165 35 139 84 139 168 L139 508 L90 508 L90 167 Z M382 728 C380 641 347 616 287 616 C230 616 202 640 197 728 L153 722 C154 624 195 574 286 574 C383 574 427 636 425 724 L382 728 Z " />
<glyph glyph-name="Uring" unicode="&#x16e;" horiz-adv-x="718" d="M360 32 C238 32 156 81 156 232 L156 724 L108 724 L108 228 C108 76 178 -12 354 -12 C521 -12 610 69 610 228 L610 724 L562 724 L562 230 C562 79 486 32 360 32 L360 32 Z M461 833 C461 899 415 926 359 926 C305 926 258 894 258 827 C258 770 298 735 359 735 C422 735 461 772 461 833 L461 833 Z M359 773 C321 773 302 795 302 829 C302 868 326 888 359 888 C395 888 414 869 414 833 C414 798 397 773 359 773 L359 773 Z " />
<glyph glyph-name="uring" unicode="&#x16f;" horiz-adv-x="581" d="M90 167 C90 52 131 -10 241 -10 C320 -10 379 22 438 65 L441 0 L484 0 L484 508 L435 508 L435 114 C402 83 323 35 250 35 C165 35 139 84 139 168 L139 508 L90 508 L90 167 Z M389 674 C389 740 343 767 287 767 C233 767 186 735 186 668 C186 611 226 576 287 576 C350 576 389 613 389 674 L389 674 Z M287 614 C249 614 230 636 230 670 C230 709 254 729 287 729 C323 729 342 710 342 674 C342 639 325 614 287 614 L287 614 Z " />
<glyph glyph-name="Uhungarumlaut" unicode="&#x170;" horiz-adv-x="718" d="M360 32 C238 32 156 81 156 232 L156 724 L108 724 L108 228 C108 76 178 -12 354 -12 C521 -12 610 69 610 228 L610 724 L562 724 L562 230 C562 79 486 32 360 32 L360 32 Z M422 911 L352 911 L276 780 L315 767 L422 911 Z M558 915 L486 915 L382 781 L424 767 L558 915 Z " />
<glyph glyph-name="uhungarumlaut" unicode="&#x171;" horiz-adv-x="581" d="M90 167 C90 52 131 -10 241 -10 C320 -10 379 22 438 65 L441 0 L484 0 L484 508 L435 508 L435 114 C402 83 323 35 250 35 C165 35 139 84 139 168 L139 508 L90 508 L90 167 Z M356 749 L287 749 L193 585 L231 572 L356 749 Z M486 750 L417 750 L307 586 L345 572 L486 750 Z " />
<glyph glyph-name="Uogonek" unicode="&#x172;" horiz-adv-x="718" d="M493 -140 C477 -167 458 -179 434 -179 C407 -179 392 -161 392 -136 C392 -80 438 -26 498 12 C571 58 610 119 610 228 L610 724 L562 724 L562 230 C562 79 486 32 360 32 C238 32 156 81 156 232 L156 724 L108 724 L108 228 C108 76 178 -12 354 -12 C373 -12 391 -10 409 -8 C374 -41 338 -87 338 -143 C338 -195 378 -223 426 -223 C462 -223 507 -205 529 -160 L493 -140 Z " />
<glyph glyph-name="uogonek" unicode="&#x173;" horiz-adv-x="581" d="M507 -140 C491 -167 472 -179 448 -179 C421 -179 406 -161 406 -136 C406 -80 434 -45 484 0 L484 508 L435 508 L435 114 C402 83 323 35 250 35 C165 35 139 84 139 168 L139 508 L90 508 L90 167 C90 52 131 -10 241 -10 C320 -10 379 22 438 65 L440 7 C402 -26 352 -77 352 -143 C352 -195 392 -223 440 -223 C476 -223 521 -205 543 -160 L507 -140 Z " />
<glyph glyph-name="Wcircumflex" unicode="&#x174;" horiz-adv-x="870" d="M680 0 L830 724 L783 724 L648 51 L646 51 L471 724 L408 724 L230 63 L228 63 L91 724 L40 724 L197 0 L254 0 L438 673 L441 673 L615 0 L680 0 Z M533 769 L583 778 L460 894 L424 894 L301 778 L349 767 L439 852 L533 769 Z " />
<glyph glyph-name="wcircumflex" unicode="&#x175;" horiz-adv-x="721" d="M238 0 L363 458 L365 458 L484 0 L545 0 L708 508 L662 508 L519 51 L517 51 L395 508 L333 508 L210 49 L208 49 L64 508 L13 508 L179 0 L238 0 Z M511 585 L389 750 L339 750 L223 585 L268 576 L363 708 L464 579 L511 585 Z " />
<glyph glyph-name="Ycircumflex" unicode="&#x176;" horiz-adv-x="538" d="M297 291 L534 724 L485 724 L275 340 L274 340 L58 724 L4 724 L249 287 L249 0 L297 0 L297 291 Z M366 769 L416 778 L293 894 L257 894 L134 778 L182 767 L272 852 L366 769 Z " />
<glyph glyph-name="ycircumflex" unicode="&#x177;" horiz-adv-x="457" d="M201 0 L172 -77 C141 -160 106 -180 64 -180 C33 -180 -1 -171 -16 -164 L-26 -205 C-8 -212 25 -223 61 -223 C126 -223 173 -193 212 -95 C284 89 373 323 444 508 L392 508 L229 67 L228 67 L69 508 L17 508 L201 0 Z M382 585 L260 750 L210 750 L94 585 L139 576 L234 708 L335 579 L382 585 Z " />
<glyph glyph-name="Ydieresis" unicode="&#x178;" horiz-adv-x="538" d="M297 291 L534 724 L485 724 L275 340 L274 340 L58 724 L4 724 L249 287 L249 0 L297 0 L297 291 Z M222 826 C222 852 204 868 178 868 C150 868 133 852 133 826 C133 799 150 784 178 784 C204 784 222 799 222 826 L222 826 Z M413 826 C413 852 395 868 369 868 C342 868 324 852 324 826 C324 799 342 784 369 784 C395 784 413 799 413 826 L413 826 Z " />
<glyph glyph-name="Zacute" unicode="&#x179;" horiz-adv-x="585" d="M519 689 L519 724 L52 724 L52 682 L456 682 L39 34 L39 0 L536 0 L536 42 L100 42 L519 689 Z M389 911 L316 911 L212 781 L254 767 L389 911 Z " />
<glyph glyph-name="zacute" unicode="&#x17a;" horiz-adv-x="454" d="M416 474 L416 508 L39 508 L39 466 L356 466 L33 33 L33 0 L426 0 L426 40 L92 40 L416 474 Z M337 751 L265 751 L152 586 L194 572 L337 751 Z " />
<glyph glyph-name="Zdotaccent" unicode="&#x17b;" horiz-adv-x="585" d="M519 689 L519 724 L52 724 L52 682 L456 682 L39 34 L39 0 L536 0 L536 42 L100 42 L519 689 Z M327 826 C327 854 310 869 281 869 C252 869 235 854 235 826 C235 799 252 784 281 784 C310 784 327 799 327 826 L327 826 Z " />
<glyph glyph-name="zdotaccent" unicode="&#x17c;" horiz-adv-x="454" d="M416 474 L416 508 L39 508 L39 466 L356 466 L33 33 L33 0 L426 0 L426 40 L92 40 L416 474 Z M272 677 C272 705 255 720 226 720 C197 720 180 705 180 677 C180 650 197 635 226 635 C255 635 272 650 272 677 L272 677 Z " />
<glyph glyph-name="Zcaron" unicode="&#x17d;" horiz-adv-x="585" d="M519 689 L519 724 L52 724 L52 682 L456 682 L39 34 L39 0 L536 0 L536 42 L100 42 L519 689 Z M190 897 L140 888 L263 772 L299 772 L422 888 L374 899 L284 814 L190 897 Z " />
<glyph glyph-name="zcaron" unicode="&#x17e;" horiz-adv-x="454" d="M416 474 L416 508 L39 508 L39 466 L356 466 L33 33 L33 0 L426 0 L426 40 L92 40 L416 474 Z M80 737 L201 572 L252 572 L368 737 L325 746 L227 614 L131 744 L80 737 Z " />
<glyph glyph-name="longs" unicode="&#x17f;" horiz-adv-x="269" d="M298 748 C281 756 253 763 219 763 C133 763 93 710 93 610 L93 0 L142 0 L142 626 C142 698 175 721 222 721 C246 721 275 715 295 708 L298 748 Z " />
<glyph glyph-name="florin" unicode="&#x192;" horiz-adv-x="505" d="M528 650 C502 718 453 737 401 737 C325 737 272 700 252 597 L222 443 L147 443 L137 398 L212 398 L123 -36 C108 -117 72 -136 28 -136 C-18 -136 -35 -111 -52 -71 L-99 -90 C-76 -159 -24 -181 28 -181 C104 -181 151 -144 173 -41 L264 398 L412 398 L422 443 L274 443 L302 592 C317 671 354 693 400 693 C440 693 465 671 481 631 L528 650 Z " />
<glyph glyph-name="Scommaaccent" unicode="&#x218;" horiz-adv-x="578" d="M298 694 C433 694 459 605 474 533 L520 538 C502 679 420 737 295 737 C157 737 66 663 66 549 C66 415 165 379 269 351 C369 324 469 299 469 181 C469 61 369 33 282 33 C141 33 97 114 81 194 L32 184 C52 72 116 -12 283 -12 C410 -12 523 43 523 186 C523 336 394 364 283 396 C187 424 118 452 118 551 C118 629 162 694 298 694 L298 694 Z M234 -209 L276 -216 L334 -69 L268 -69 L234 -209 Z " />
<glyph glyph-name="scommaaccent" unicode="&#x219;" horiz-adv-x="477" d="M241 518 C150 518 68 472 68 379 C68 268 162 250 246 234 C318 220 372 203 372 133 C372 59 316 32 245 32 C137 32 112 90 99 153 L52 144 C68 29 136 -12 243 -12 C365 -12 423 50 423 135 C423 243 335 262 254 279 C178 295 118 310 118 383 C118 429 144 476 238 476 C329 476 354 432 362 360 L409 366 C401 457 364 518 241 518 L241 518 Z M186 -209 L228 -216 L286 -69 L220 -69 L186 -209 Z " />
<glyph glyph-name="uni021A" unicode="&#x21a;" horiz-adv-x="532" d="M290 0 L290 682 L512 682 L512 724 L20 724 L20 682 L242 682 L242 0 L290 0 Z M207 -209 L249 -216 L307 -69 L241 -69 L207 -209 Z " />
<glyph glyph-name="uni021B" unicode="&#x21b;" horiz-adv-x="364" d="M330 56 C307 42 269 29 238 29 C169 29 155 65 155 126 L155 465 L299 465 L299 508 L155 508 L155 661 L106 653 L106 508 L25 508 L25 465 L106 465 L106 116 C106 27 141 -12 235 -12 C271 -12 320 1 344 18 L330 56 Z M158 -209 L200 -216 L258 -69 L192 -69 L158 -209 Z " />
<glyph glyph-name="dotlessj" unicode="&#x237;" horiz-adv-x="233" d="M26 -223 C108 -223 145 -180 145 -89 L145 508 L96 508 L96 -93 C96 -153 72 -177 28 -177 C7 -177 -20 -173 -43 -165 L-52 -208 C-35 -217 9 -223 26 -223 L26 -223 Z " />
<glyph glyph-name="apostrophe" unicode="&#x2bc;" horiz-adv-x="500" d="M192 541 L234 535 L291 681 L225 681 L192 541 Z " />
<glyph glyph-name="circumflex" unicode="&#x2c6;" horiz-adv-x="500" d="M397 585 L275 750 L225 750 L109 585 L154 576 L249 708 L350 579 L397 585 Z " />
<glyph glyph-name="caron" unicode="&#x2c7;" horiz-adv-x="500" d="M104 737 L225 572 L276 572 L392 737 L349 746 L251 614 L155 744 L104 737 Z " />
<glyph glyph-name="uni02C9" unicode="&#x2c9;" horiz-adv-x="500" d="M388 633 L388 678 L111 678 L111 633 L388 633 Z " />
<glyph glyph-name="breve" unicode="&#x2d8;" horiz-adv-x="500" d="M345 728 C343 641 310 616 250 616 C193 616 165 640 160 728 L116 722 C117 624 158 574 249 574 C346 574 390 636 388 724 L345 728 Z " />
<glyph glyph-name="dotaccent" unicode="&#x2d9;" horiz-adv-x="500" d="M296 677 C296 705 279 720 250 720 C221 720 204 705 204 677 C204 650 221 635 250 635 C279 635 296 650 296 677 L296 677 Z " />
<glyph glyph-name="ring" unicode="&#x2da;" horiz-adv-x="500" d="M352 674 C352 740 306 767 250 767 C196 767 149 735 149 668 C149 611 189 576 250 576 C313 576 352 613 352 674 L352 674 Z M250 614 C212 614 193 636 193 670 C193 709 217 729 250 729 C286 729 305 710 305 674 C305 639 288 614 250 614 L250 614 Z " />
<glyph glyph-name="ogonek" unicode="&#x2db;" horiz-adv-x="500" d="M324 -140 C308 -167 289 -179 265 -179 C238 -179 223 -161 223 -136 C223 -80 261 -40 319 9 L273 20 C234 -12 169 -68 169 -143 C169 -195 209 -223 257 -223 C293 -223 338 -205 360 -160 L324 -140 Z " />
<glyph glyph-name="tilde" unicode="&#x2dc;" horiz-adv-x="500" d="M169 699 C130 699 85 676 95 596 L131 594 C130 643 149 654 170 654 C218 654 268 608 326 608 C368 608 413 628 403 710 L365 712 C365 660 348 654 322 654 C277 654 230 699 169 699 L169 699 Z " />
<glyph glyph-name="hungarumlaut" unicode="&#x2dd;" horiz-adv-x="500" d="M319 749 L250 749 L156 585 L194 572 L319 749 Z M449 750 L380 750 L270 586 L308 572 L449 750 Z " />
<glyph glyph-name="uni0394" unicode="&#x394;" horiz-adv-x="639" d="M604 0 L352 724 L281 724 L35 0 L604 0 Z M534 43 L101 43 L316 688 L534 43 Z " />
<glyph glyph-name="uni03A9" unicode="&#x3a9;" horiz-adv-x="829" d="M549 102 C667 162 751 281 751 421 C751 598 651 737 429 737 C215 737 84 599 84 396 C84 267 145 152 288 102 L288 42 L92 42 L92 0 L331 0 L331 126 C233 161 135 233 135 400 C135 596 256 696 427 696 C596 696 700 600 700 420 C700 248 582 156 507 126 L507 0 L734 0 L734 42 L549 42 L549 102 Z " />
<glyph glyph-name="uni03BC" unicode="&#x3bc;" horiz-adv-x="629" d="M114 -176 L162 -176 L155 29 L158 32 C175 5 211 -15 267 -15 C344 -15 413 33 459 78 L459 0 L510 0 L510 508 L461 508 L461 134 C423 92 353 28 264 28 C186 28 163 73 163 171 L163 508 L114 508 L114 -176 Z " />
<glyph glyph-name="pi" unicode="&#x3c0;" horiz-adv-x="663" d="M526 508 L133 508 L133 0 L183 0 L183 458 L475 458 L475 0 L524 0 L526 508 Z " />
<glyph glyph-name="uni10D0" unicode="&#x10d0;" horiz-adv-x="504" d="M247 33 C178 33 109 63 109 142 C109 167 117 204 124 214 L74 220 C64 195 58 166 58 139 C58 47 121 -12 241 -12 C375 -12 441 63 441 163 C441 368 221 349 221 454 C221 464 223 475 223 476 L178 476 C175 467 173 452 173 439 C173 305 391 331 391 165 C391 107 357 33 247 33 L247 33 Z " />
<glyph glyph-name="uni10D1" unicode="&#x10d1;" horiz-adv-x="623" d="M293 610 L293 478 C196 450 64 373 64 209 C64 89 143 -12 308 -12 C481 -12 559 91 559 212 C559 350 463 433 345 476 L345 628 C345 711 215 694 221 747 C224 751 226 753 225 755 L177 755 C178 754 176 740 175 729 C171 650 293 676 293 610 L293 610 Z M318 444 C442 402 509 329 509 215 C509 112 451 34 311 34 C215 34 114 70 114 212 C114 312 163 401 318 444 L318 444 Z " />
<glyph glyph-name="uni10D2" unicode="&#x10d2;" horiz-adv-x="551" d="M348 210 C355 239 361 269 365 300 C367 314 368 328 368 339 C371 456 296 479 238 479 C153 479 103 431 103 334 C103 320 104 299 110 274 L166 279 C160 304 159 322 159 335 C159 418 196 431 235 431 C270 431 314 422 314 341 C314 306 306 259 297 218 C193 189 41 111 41 -55 C41 -170 119 -272 288 -272 C458 -272 536 -169 536 -46 C536 82 447 167 348 210 L348 210 Z M321 182 C425 135 485 67 485 -43 C485 -151 424 -226 289 -226 C191 -226 91 -186 91 -54 C91 51 152 138 321 182 L321 182 Z " />
<glyph glyph-name="uni10D3" unicode="&#x10d3;" horiz-adv-x="899" d="M603 35 C495 35 430 101 430 227 C430 367 508 433 610 433 C709 433 776 374 776 235 C776 93 705 35 603 35 L603 35 Z M73 225 C73 96 106 -36 279 -94 C227 -92 164 -93 101 -103 L107 -148 C176 -140 220 -131 310 -131 C443 -131 548 -168 631 -282 L667 -259 C586 -144 494 -107 395 -91 C142 -52 123 150 123 227 C123 373 200 433 281 433 C333 433 382 408 417 378 C394 337 380 290 380 223 C380 96 437 -12 601 -12 C758 -12 826 87 826 235 C826 381 759 479 613 479 C543 479 486 457 446 415 C395 458 337 479 287 479 C150 479 73 365 73 225 L73 225 Z " />
<glyph glyph-name="uni10D4" unicode="&#x10d4;" horiz-adv-x="569" d="M418 -38 C418 -132 388 -226 251 -226 C138 -226 94 -163 94 -82 C94 -60 96 -25 111 5 L61 11 C47 -24 43 -64 43 -90 C43 -187 101 -272 251 -272 C372 -272 467 -216 467 -33 L467 277 C467 351 449 479 276 479 C159 479 86 416 86 326 C86 299 93 270 103 236 L153 249 C145 271 138 296 138 321 C138 401 202 432 274 432 C387 432 418 356 418 277 L418 -38 Z " />
<glyph glyph-name="uni10D5" unicode="&#x10d5;" horiz-adv-x="546" d="M473 -11 C473 89 428 154 364 165 L364 167 C442 185 456 257 456 308 C456 368 434 479 276 479 C160 479 87 418 87 334 C87 305 95 268 106 239 L155 246 C147 268 139 302 139 326 C139 407 204 434 274 434 C379 434 406 370 406 310 C406 238 372 186 307 186 L273 186 L273 139 L287 139 C372 139 423 104 423 -17 C423 -130 391 -226 252 -226 C148 -226 94 -159 94 -87 C94 -59 97 -26 112 5 L62 12 C48 -22 43 -62 43 -92 C43 -187 104 -272 245 -272 C374 -272 473 -219 473 -11 L473 -11 Z " />
<glyph glyph-name="uni10D6" unicode="&#x10d6;" horiz-adv-x="659" d="M268 405 C317 525 336 580 336 630 C336 701 283 764 183 764 C79 764 16 706 16 614 C16 540 56 476 158 476 C197 476 235 488 259 503 C209 397 168 297 168 204 C168 94 222 -12 377 -12 C526 -12 591 83 591 224 C591 364 527 450 399 450 C345 450 300 431 268 405 L268 405 Z M176 520 C108 520 67 553 67 618 C67 690 115 720 181 720 C242 720 284 691 284 622 C284 551 241 520 176 520 L176 520 Z M379 35 C276 35 218 97 218 216 C218 350 288 403 387 403 C480 403 540 357 540 224 C540 89 477 35 379 35 L379 35 Z " />
<glyph glyph-name="uni10D7" unicode="&#x10d7;" horiz-adv-x="900" d="M298 35 C187 35 123 100 123 230 C123 375 200 432 305 432 C403 432 471 382 471 237 C471 92 402 35 298 35 L298 35 Z M295 -12 C454 -12 522 88 522 238 C522 290 513 339 496 375 C547 411 590 433 645 433 C719 433 777 389 777 273 C777 174 736 81 684 0 L740 0 C789 73 827 171 827 275 C827 399 767 479 643 479 C590 479 539 465 472 411 C438 454 383 479 307 479 C157 479 73 387 73 226 C73 98 128 -12 295 -12 L295 -12 Z " />
<glyph glyph-name="uni10D8" unicode="&#x10d8;" horiz-adv-x="592" d="M469 248 C469 166 440 73 392 0 L448 0 C493 71 519 172 519 251 C519 405 427 479 297 479 C167 479 73 405 73 251 C73 169 100 70 143 0 L201 0 C152 76 123 170 123 247 C123 397 217 433 297 433 C377 433 469 397 469 248 L469 248 Z " />
<glyph glyph-name="uni10D9" unicode="&#x10d9;" horiz-adv-x="502" d="M350 293 C350 243 317 185 250 185 L218 185 L218 136 L244 136 C353 136 379 76 379 -19 C379 -139 340 -226 214 -226 C107 -226 59 -165 59 -79 C59 -64 61 -26 77 3 L26 10 C13 -23 8 -62 8 -91 C8 -187 62 -272 208 -272 C331 -272 429 -213 429 -19 C429 67 403 140 327 162 L327 164 C378 183 401 239 401 287 C401 334 374 416 349 467 L291 467 C319 419 350 329 350 293 L350 293 Z " />
<glyph glyph-name="uni10DA" unicode="&#x10da;" horiz-adv-x="1016" d="M788 433 C836 433 892 412 892 306 C892 241 870 163 835 106 L884 93 C910 141 929 197 938 251 C942 269 943 286 943 301 C945 420 875 479 785 479 C725 479 683 455 654 406 C625 455 582 479 525 479 C467 479 423 453 393 406 C365 456 325 479 264 479 C140 479 73 371 73 226 C73 98 106 -22 272 -91 C240 -92 164 -95 101 -105 L107 -147 C176 -139 215 -131 301 -131 C526 -131 654 -156 749 -282 L780 -260 C683 -137 585 -111 396 -89 C140 -60 123 148 123 226 C123 377 188 433 261 433 C332 433 367 402 367 248 L367 135 L418 135 L418 249 C418 401 453 433 524 433 C596 433 631 402 631 248 L631 135 L681 135 L681 249 C681 401 714 433 788 433 L788 433 Z " />
<glyph glyph-name="uni10DB" unicode="&#x10db;" horiz-adv-x="601" d="M449 222 C449 128 408 33 287 33 C180 33 123 104 123 230 C123 357 181 432 283 432 C364 432 423 384 449 311 L449 222 Z M169 624 C182 699 228 717 301 717 C421 717 449 647 449 563 L449 403 C424 437 367 479 285 479 C177 479 73 409 73 226 C73 79 142 -12 284 -12 C384 -12 498 30 498 247 L498 563 C498 636 487 764 303 764 C190 764 138 718 122 634 L169 624 Z " />
<glyph glyph-name="uni10DC" unicode="&#x10dc;" horiz-adv-x="601" d="M102 244 C102 23 207 -13 307 -13 C463 -13 527 84 527 245 C527 409 432 479 326 479 C247 479 191 440 152 401 L152 628 C152 698 189 718 231 718 C285 718 369 682 476 711 L468 757 C388 725 307 759 242 765 C143 769 102 702 102 624 L102 244 Z M152 329 C185 385 249 432 328 432 C430 432 476 358 476 249 C476 109 422 32 310 32 C183 32 152 126 152 229 L152 329 Z " />
<glyph glyph-name="uni10DD" unicode="&#x10dd;" horiz-adv-x="851" d="M400 135 L450 135 L450 283 C450 394 525 433 589 433 C654 433 728 394 728 250 C728 165 700 73 652 0 L707 0 C751 72 778 169 778 256 C778 412 689 479 592 479 C512 479 459 440 426 360 C392 445 340 479 263 479 C163 479 73 408 73 253 C73 168 100 71 144 0 L198 0 C149 76 123 169 123 248 C123 397 202 433 262 433 C326 433 400 388 400 282 L400 135 Z " />
<glyph glyph-name="uni10DE" unicode="&#x10de;" horiz-adv-x="556" d="M258 -12 C386 -12 484 51 484 227 C484 319 436 379 371 391 L371 392 C455 409 469 466 469 507 C469 681 195 614 186 765 L139 758 C147 563 419 634 419 505 C419 452 380 412 310 412 L262 412 L262 365 L299 365 C395 365 434 312 434 216 C434 126 403 34 265 34 C152 34 104 97 104 173 C104 200 107 233 122 265 L71 271 C57 238 52 199 52 168 C52 73 116 -12 258 -12 L258 -12 Z " />
<glyph glyph-name="uni10DF" unicode="&#x10df;" horiz-adv-x="643" d="M492 -43 C492 -132 461 -226 317 -226 C199 -226 150 -163 150 -80 C150 -62 152 -26 168 5 L118 12 C104 -22 99 -62 99 -92 C99 -187 156 -272 311 -272 C438 -272 541 -215 541 -32 L541 481 L514 481 L259 423 L231 373 C249 353 267 326 267 286 C267 228 229 207 187 207 C141 207 109 233 94 302 L45 289 C62 203 106 162 185 162 C283 162 323 220 322 285 C321 318 310 352 289 382 L492 426 L492 -43 L492 -43 Z " />
<glyph glyph-name="uni10E0" unicode="&#x10e0;" horiz-adv-x="851" d="M140 415 C162 517 372 585 381 756 L332 763 C327 667 252 619 196 564 C134 504 73 438 73 282 C73 172 101 68 144 0 L198 0 C149 76 123 168 123 249 C123 396 202 433 262 433 C326 433 400 388 400 282 L400 135 L450 135 L450 283 C450 394 525 433 589 433 C653 433 728 394 728 251 C728 165 701 74 652 0 L707 0 C751 72 778 168 778 256 C778 413 689 479 592 479 C515 479 460 440 426 360 C393 450 330 479 274 479 C228 479 173 460 142 415 L140 415 Z " />
<glyph glyph-name="uni10E1" unicode="&#x10e1;" horiz-adv-x="565" d="M473 139 C473 92 436 33 316 33 C207 33 140 84 140 176 L140 755 L90 755 L90 176 C90 65 160 -12 311 -12 C464 -12 523 60 523 146 C523 269 440 262 453 364 L405 364 C390 248 473 225 473 139 L473 139 Z " />
<glyph glyph-name="uni10E2" unicode="&#x10e2;" horiz-adv-x="705" d="M272 506 C272 563 312 591 367 591 C423 591 456 561 456 514 C456 456 411 420 373 393 C295 408 272 462 272 506 L272 506 Z M279 83 C275 238 332 312 390 359 C572 302 612 196 612 64 C612 -121 525 -226 356 -226 C200 -226 101 -134 101 68 C101 156 120 234 176 334 L128 339 C84 270 64 200 54 134 C51 112 49 90 49 70 C45 -140 154 -272 354 -272 C555 -272 664 -136 664 64 C664 210 610 325 424 381 C460 408 502 446 502 511 C502 576 463 634 372 634 C279 634 225 575 225 498 C225 448 249 388 343 367 C288 319 230 246 234 84 L279 83 Z " />
<glyph glyph-name="uni10E3" unicode="&#x10e3;" horiz-adv-x="706" d="M110 285 C75 285 67 317 59 384 L11 375 C17 275 47 239 107 239 C248 239 194 433 290 433 C323 433 349 413 349 345 L349 207 L403 207 L403 348 C403 416 443 433 481 433 C521 433 555 413 555 345 L555 -23 C555 -123 510 -223 365 -223 C242 -223 175 -155 175 -65 C175 -49 177 -26 184 0 L135 7 C126 -23 124 -53 124 -75 C124 -181 191 -272 360 -272 C494 -272 605 -213 605 -13 L605 347 C605 414 567 481 480 481 C430 481 396 459 373 423 C348 468 319 481 284 481 C149 481 188 285 110 285 L110 285 Z " />
<glyph glyph-name="uni10E4" unicode="&#x10e4;" horiz-adv-x="825" d="M256 163 C168 163 120 215 120 293 C120 373 179 428 255 428 C336 428 389 378 389 298 C389 218 335 163 256 163 L256 163 Z M300 -64 C300 -48 300 -22 309 5 L260 12 C251 -18 249 -50 249 -73 C249 -178 317 -272 495 -272 C638 -272 753 -216 753 -20 C753 64 707 130 637 141 L637 143 C721 162 734 236 734 293 C734 359 714 479 541 479 C482 479 434 453 400 425 C369 458 322 479 255 479 C140 479 67 398 67 289 C67 205 113 112 254 112 C390 112 443 199 443 299 C443 330 437 359 426 385 C459 414 499 432 545 432 C656 432 684 368 684 297 C684 216 646 162 577 162 L548 162 L548 116 L556 116 C647 116 702 65 702 -21 C702 -143 656 -223 501 -223 C369 -223 300 -154 300 -64 L300 -64 Z " />
<glyph glyph-name="uni10E5" unicode="&#x10e5;" horiz-adv-x="573" d="M267 479 C165 479 101 430 101 338 C101 314 104 306 109 278 L160 281 C154 302 153 311 153 332 C153 412 209 429 267 429 C365 429 406 346 416 311 L416 -38 C416 -128 388 -226 250 -226 C149 -226 94 -159 94 -87 C94 -59 97 -26 112 5 L61 11 C47 -23 43 -61 43 -91 C43 -186 105 -272 243 -272 C367 -272 466 -216 466 -33 L466 755 L416 755 L416 410 C387 446 338 479 267 479 L267 479 Z " />
<glyph glyph-name="uni10E6" unicode="&#x10e6;" horiz-adv-x="857" d="M708 106 L753 92 C771 146 784 200 784 252 C784 405 697 479 596 479 C518 479 462 441 429 360 C397 442 342 479 262 479 C160 479 73 404 73 230 C73 106 113 -32 259 -89 C228 -90 164 -93 101 -103 L107 -150 C176 -142 223 -134 310 -134 C442 -134 546 -168 629 -282 L667 -259 C585 -142 488 -106 395 -91 C143 -52 123 147 123 233 C123 409 203 433 259 433 C332 433 403 392 403 287 L403 135 L453 135 L453 230 C453 386 504 433 595 433 C663 433 734 390 734 250 C734 201 724 154 708 106 L708 106 Z " />
<glyph glyph-name="uni10E7" unicode="&#x10e7;" horiz-adv-x="574" d="M473 467 L423 467 L423 251 C383 207 331 176 265 176 C210 176 150 195 150 304 C150 356 163 416 187 467 L133 467 C110 410 99 348 99 301 C99 185 164 130 263 130 C338 130 389 161 423 191 L423 -38 C423 -128 394 -226 261 -226 C158 -226 102 -164 102 -82 C102 -61 104 -25 119 5 L70 12 C56 -23 51 -62 51 -89 C51 -188 110 -272 256 -272 C379 -272 473 -216 473 -33 L473 467 Z " />
<glyph glyph-name="uni10E8" unicode="&#x10e8;" horiz-adv-x="607" d="M240 585 L290 585 L290 631 C290 702 337 716 375 716 C415 716 455 701 455 629 L455 403 C430 436 371 479 288 479 C184 479 79 409 79 226 C79 78 148 -12 291 -12 C390 -12 504 29 504 247 L504 630 C504 704 460 764 375 764 C311 764 285 740 262 703 C240 743 211 764 153 764 C81 764 33 726 17 629 L64 616 C77 686 100 716 153 716 C191 716 240 702 240 629 L240 585 Z M455 225 C455 130 416 33 292 33 C186 33 129 106 129 231 C129 356 187 432 289 432 C370 432 430 385 455 316 L455 225 Z " />
<glyph glyph-name="uni10E9" unicode="&#x10e9;" horiz-adv-x="581" d="M101 0 L151 0 L151 321 C219 375 284 403 340 403 C406 403 458 360 458 254 C458 162 425 78 373 0 L429 0 C476 71 508 160 508 255 C508 374 452 448 340 448 C291 448 227 433 151 374 L151 507 C346 511 429 559 429 654 C429 712 384 764 296 764 C180 764 101 708 101 524 L101 0 Z M291 715 C347 715 376 688 376 645 C376 591 322 560 151 555 C154 677 211 715 291 715 L291 715 Z " />
<glyph glyph-name="uni10EA" unicode="&#x10ea;" horiz-adv-x="689" d="M576 -47 C576 -133 521 -226 362 -226 C177 -226 120 -95 120 70 C120 225 165 353 242 467 L187 467 C113 346 69 205 69 58 C69 -126 142 -272 359 -272 C505 -272 626 -204 626 -51 C626 46 578 92 514 109 L514 111 C593 126 609 175 609 231 C609 391 452 332 461 467 L415 467 C401 288 559 363 559 221 C559 164 530 132 439 132 L403 132 L403 85 L429 85 C532 85 576 28 576 -47 L576 -47 Z " />
<glyph glyph-name="uni10EB" unicode="&#x10eb;" horiz-adv-x="601" d="M449 403 C423 438 367 479 285 479 C178 479 73 409 73 226 C73 79 142 -12 285 -12 C383 -12 498 30 498 247 L498 755 L449 755 L449 403 Z M449 225 C449 130 409 33 288 33 C180 33 123 106 123 231 C123 357 181 432 283 432 C364 432 423 384 449 309 L449 225 Z " />
<glyph glyph-name="uni10EC" unicode="&#x10ec;" horiz-adv-x="607" d="M102 244 C102 23 201 -12 306 -12 C464 -12 527 89 527 237 C527 410 437 479 328 479 C247 479 191 442 152 401 L152 626 C152 697 187 716 231 716 C272 716 317 701 317 630 L317 585 L367 585 L367 628 C367 701 413 716 452 716 C503 716 533 688 543 616 L590 629 C578 721 528 764 453 764 C400 764 367 746 345 705 C322 742 300 764 238 764 C104 764 102 670 102 561 L102 244 Z M152 329 C185 385 248 432 329 432 C430 432 477 361 477 243 C477 111 424 33 309 33 C182 33 152 127 152 229 L152 329 Z " />
<glyph glyph-name="uni10ED" unicode="&#x10ed;" horiz-adv-x="638" d="M246 231 C197 231 153 268 153 331 C153 406 206 434 243 434 C299 434 358 395 418 324 L418 321 C365 268 305 231 246 231 L246 231 Z M418 -38 C418 -129 390 -226 252 -226 C151 -226 96 -159 96 -87 C96 -60 99 -28 114 3 L63 9 C50 -23 45 -62 45 -92 C45 -186 106 -272 246 -272 C369 -272 468 -216 468 -33 L468 273 L589 151 L597 213 L476 328 L596 436 L589 500 L468 376 L468 755 L418 755 L418 381 C357 450 306 478 242 478 C168 478 96 420 96 333 C96 253 152 186 240 186 C314 186 371 224 418 270 L418 -38 Z " />
<glyph glyph-name="uni10EE" unicode="&#x10ee;" horiz-adv-x="600" d="M151 315 C177 389 244 432 319 432 C422 432 477 362 477 236 C477 111 424 33 313 33 C192 33 151 128 151 220 L151 315 Z M102 755 L102 249 C102 29 209 -12 307 -12 C454 -12 527 79 527 229 C527 412 425 479 315 479 C232 479 176 436 151 404 L151 755 L102 755 Z " />
<glyph glyph-name="uni10EF" unicode="&#x10ef;" horiz-adv-x="716" d="M511 -81 C543 -124 565 -164 619 -164 C647 -164 662 -159 681 -149 L668 -110 C652 -117 634 -122 619 -122 C598 -122 590 -108 576 -90 L406 143 L580 260 C632 295 681 337 681 393 C681 438 653 479 590 479 C565 479 538 471 511 463 L524 422 C534 425 566 432 585 432 C615 432 630 412 630 389 C630 360 614 336 566 303 L379 178 L221 395 C186 444 155 479 100 479 C75 479 48 473 27 464 L41 424 C55 429 75 435 92 435 C128 435 145 412 177 370 L340 150 L151 17 L140 -36 C173 -57 208 -91 208 -142 C208 -192 173 -227 118 -227 C75 -227 55 -219 21 -201 L4 -243 C40 -265 80 -272 122 -272 C203 -272 264 -216 264 -136 C264 -86 240 -47 192 -11 L367 114 L511 -81 Z " />
<glyph glyph-name="uni10F0" unicode="&#x10f0;" horiz-adv-x="565" d="M495 159 C495 232 459 286 395 294 L395 296 C466 300 495 338 495 393 C495 433 464 478 394 481 L394 483 C458 488 483 526 483 577 C483 715 235 638 229 759 L180 756 C185 588 432 667 432 570 C432 530 408 505 322 505 L284 505 L284 456 L308 456 C416 456 442 431 442 386 C442 332 399 316 318 316 L282 316 L282 270 L319 270 C404 270 444 228 444 153 C444 114 429 34 279 34 C157 34 105 90 105 165 C105 186 108 221 123 252 L72 258 C57 225 53 186 53 159 C53 68 120 -12 269 -12 C404 -12 495 48 495 159 L495 159 Z " />
<glyph glyph-name="uni10F1" unicode="&#x10f1;" horiz-adv-x="689" d="M359 35 C181 35 123 190 123 426 C123 448 123 464 124 483 C258 514 328 588 328 669 C328 717 300 762 235 762 C104 762 71 587 71 426 C71 227 96 -12 358 -12 C472 -12 582 50 582 171 C582 226 561 263 502 274 L502 275 C567 275 612 312 612 375 C612 412 585 455 520 464 L519 466 C586 467 612 504 612 566 C612 682 446 636 439 757 L391 753 C397 590 558 641 558 556 C558 510 542 482 459 491 L455 491 L450 444 L459 443 C536 433 560 412 560 368 C560 333 528 289 431 304 L433 303 L428 256 L432 255 C512 244 528 219 528 171 C528 76 444 35 359 35 L359 35 Z M226 714 C257 714 270 692 270 667 C270 624 232 566 129 535 C142 648 176 714 226 714 L226 714 Z " />
<glyph glyph-name="uni10F2" unicode="&#x10f2;" horiz-adv-x="633" d="M240 35 C240 36 241 35 241 35 C186 28 127 21 70 43 L60 -2 C167 -31 256 5 310 5 C364 5 457 -31 564 -2 L554 42 C508 27 443 27 386 35 C386 35 386 36 386 36 C485 79 561 158 561 273 C561 386 488 479 320 479 C151 479 73 384 73 266 C73 163 131 85 240 35 L240 35 Z M311 45 C191 87 123 173 123 266 C123 361 178 433 318 433 C414 433 511 400 511 275 C511 191 461 90 311 45 L311 45 Z " />
<glyph glyph-name="uni10F3" unicode="&#x10f3;" horiz-adv-x="536" d="M472 -17 C472 90 440 189 317 202 L317 203 L446 453 L410 471 C303 408 234 394 132 477 L102 438 C178 367 279 354 364 393 L259 197 L274 155 L284 155 C402 155 423 69 423 -18 C423 -132 386 -226 251 -226 C148 -226 92 -164 92 -81 C92 -63 95 -27 111 5 L61 12 C48 -21 43 -62 43 -90 C43 -193 106 -272 250 -272 C369 -272 472 -209 472 -17 L472 -17 Z " />
<glyph glyph-name="uni10F4" unicode="&#x10f4;" horiz-adv-x="547" d="M424 -53 C424 -139 388 -226 256 -226 C146 -226 94 -166 94 -82 C94 -62 97 -25 112 5 L62 12 C48 -21 43 -63 43 -90 C43 -187 104 -272 250 -272 C372 -272 474 -211 474 -55 C474 49 429 108 361 122 L361 124 C446 140 460 197 460 236 C460 407 172 301 273 467 L224 467 C121 267 409 356 409 231 C409 186 370 143 300 143 L252 143 L252 97 L284 97 C372 97 424 51 424 -53 L424 -53 Z " />
<glyph glyph-name="uni10F5" unicode="&#x10f5;" horiz-adv-x="659" d="M588 469 C567 466 543 461 515 459 L515 578 C515 731 419 764 301 764 C140 764 85 685 85 582 C85 444 167 407 321 407 C380 407 426 408 463 411 L463 352 C426 355 385 358 339 358 C179 358 70 311 70 175 C70 57 138 -12 299 -12 C408 -12 515 34 515 186 L515 305 C543 303 567 298 588 295 L594 345 C571 348 545 350 515 352 L515 413 C543 416 570 419 594 421 L588 469 Z M334 313 C379 313 424 311 463 308 L463 188 C463 78 397 32 295 32 C180 32 122 74 122 173 C122 293 227 313 334 313 L334 313 Z M299 721 C391 721 463 689 463 576 L463 456 C424 453 383 452 338 452 C228 452 137 462 137 583 C137 674 183 721 299 721 L299 721 Z " />
<glyph glyph-name="uni10F6" unicode="&#x10f6;" horiz-adv-x="772" d="M124 237 C124 359 196 432 360 431 L360 36 C216 36 124 109 124 237 L124 237 Z M648 244 C648 120 589 36 412 36 L412 430 C551 432 648 384 648 244 L648 244 Z M360 -140 C360 -230 394 -272 469 -272 C541 -272 581 -232 584 -162 L529 -153 C527 -193 511 -222 470 -222 C431 -222 412 -194 412 -137 L412 -11 C569 -12 699 45 699 243 C699 432 553 479 412 479 L412 574 C412 701 402 761 302 761 C231 761 191 721 187 636 L242 626 C245 682 260 711 301 711 C340 711 360 683 360 628 L360 479 C215 479 73 421 73 234 C73 51 226 -11 360 -11 L360 -140 Z " />
<glyph glyph-name="uni10F7" unicode="&#x10f7;" horiz-adv-x="544" d="M98 -83 C98 141 447 107 447 323 C447 403 400 479 271 479 C159 479 92 418 92 325 C92 311 94 290 99 271 L148 278 C146 286 142 304 142 326 C142 404 202 432 267 432 C362 432 395 373 395 317 C395 137 48 168 48 -88 C48 -215 135 -272 253 -272 C396 -272 470 -187 470 -89 C470 -63 465 -24 452 9 L401 4 C416 -27 419 -68 419 -89 C419 -167 368 -225 258 -225 C134 -225 98 -154 98 -83 L98 -83 Z " />
<glyph glyph-name="uni10F8" unicode="&#x10f8;" horiz-adv-x="569" d="M424 304 C424 196 364 176 308 176 C242 176 190 207 151 251 L151 467 L101 467 L101 -35 C101 -220 197 -272 311 -272 C461 -272 523 -185 523 -91 C523 -62 518 -21 504 12 L454 5 C469 -26 472 -61 472 -82 C472 -162 418 -225 313 -225 C181 -225 151 -127 151 -38 L151 191 C183 161 235 130 312 130 C410 130 475 185 475 300 C475 350 463 410 440 467 L387 467 C410 416 424 356 424 304 L424 304 Z " />
<glyph glyph-name="uni10F9" unicode="&#x10f9;" horiz-adv-x="641" d="M260 -4 C253 -32 247 -62 244 -93 C241 -107 241 -121 240 -132 C237 -249 313 -272 371 -272 C456 -272 505 -224 505 -127 C505 -113 504 -92 498 -67 L443 -73 C448 -97 449 -115 449 -129 C449 -211 413 -224 374 -224 C339 -224 294 -216 294 -134 C294 -100 303 -52 311 -11 C415 18 568 96 568 262 C568 377 489 479 321 479 C151 479 73 376 73 253 C73 125 161 40 260 -4 L260 -4 Z M287 25 C183 72 123 139 123 250 C123 358 185 432 320 432 C417 432 518 393 518 261 C518 156 456 69 287 25 L287 25 Z " />
<glyph glyph-name="uni10FA" unicode="&#x10fa;" horiz-adv-x="592" d="M124 249 C124 399 217 433 297 433 C377 433 469 397 469 248 C469 216 463 166 442 106 L487 92 C506 139 519 197 519 251 C519 405 427 479 297 479 C167 479 73 405 73 251 C73 72 149 -40 235 -89 C202 -91 171 -93 102 -103 L109 -150 C152 -140 199 -134 237 -134 C329 -134 411 -161 471 -285 L509 -263 C457 -157 400 -130 325 -95 C208 -42 124 82 124 249 L124 249 Z " />
<glyph glyph-name="uni10FB" unicode="&#x10fb;" horiz-adv-x="527" d="M208 428 C208 460 189 476 157 476 C126 476 107 460 107 428 C107 395 126 379 157 379 C189 379 208 395 208 428 L208 428 Z M422 240 C422 272 403 288 371 288 C340 288 321 272 321 240 C321 207 340 191 371 191 C403 191 422 207 422 240 L422 240 Z M208 39 C208 71 189 87 157 87 C126 87 107 71 107 39 C107 6 126 -10 157 -10 C189 -10 208 6 208 39 L208 39 Z " />
<glyph glyph-name="uni10FC" unicode="&#x10fc;" horiz-adv-x="450" d="M102 510 C102 380 156 345 240 345 C351 345 390 411 390 512 C390 616 331 659 263 659 C217 659 174 639 148 615 L148 744 C148 782 168 793 202 793 C234 793 290 770 359 791 L351 834 C296 812 243 840 193 837 C129 833 102 791 102 740 L102 510 Z M148 562 C166 592 210 619 251 619 C320 619 342 577 342 508 C342 432 315 384 243 384 C162 384 148 440 148 507 L148 562 Z " />
<glyph glyph-name="Wgrave" unicode="&#x1e80;" horiz-adv-x="870" d="M680 0 L830 724 L783 724 L648 51 L646 51 L471 724 L408 724 L230 63 L228 63 L91 724 L40 724 L197 0 L254 0 L438 673 L441 673 L615 0 L680 0 Z M471 767 L514 781 L409 911 L336 911 L471 767 Z " />
<glyph glyph-name="wgrave" unicode="&#x1e81;" horiz-adv-x="721" d="M238 0 L363 458 L365 458 L484 0 L545 0 L708 508 L662 508 L519 51 L517 51 L395 508 L333 508 L210 49 L208 49 L64 508 L13 508 L179 0 L238 0 Z M402 572 L443 586 L330 751 L258 751 L402 572 Z " />
<glyph glyph-name="Wacute" unicode="&#x1e82;" horiz-adv-x="870" d="M680 0 L830 724 L783 724 L648 51 L646 51 L471 724 L408 724 L230 63 L228 63 L91 724 L40 724 L197 0 L254 0 L438 673 L441 673 L615 0 L680 0 Z M548 911 L475 911 L371 781 L413 767 L548 911 Z " />
<glyph glyph-name="wacute" unicode="&#x1e83;" horiz-adv-x="721" d="M238 0 L363 458 L365 458 L484 0 L545 0 L708 508 L662 508 L519 51 L517 51 L395 508 L333 508 L210 49 L208 49 L64 508 L13 508 L179 0 L238 0 Z M475 751 L403 751 L290 586 L332 572 L475 751 Z " />
<glyph glyph-name="Wdieresis" unicode="&#x1e84;" horiz-adv-x="870" d="M680 0 L830 724 L783 724 L648 51 L646 51 L471 724 L408 724 L230 63 L228 63 L91 724 L40 724 L197 0 L254 0 L438 673 L441 673 L615 0 L680 0 Z M389 826 C389 852 371 868 345 868 C317 868 300 852 300 826 C300 799 317 784 345 784 C371 784 389 799 389 826 L389 826 Z M580 826 C580 852 562 868 536 868 C509 868 491 852 491 826 C491 799 509 784 536 784 C562 784 580 799 580 826 L580 826 Z " />
<glyph glyph-name="wdieresis" unicode="&#x1e85;" horiz-adv-x="721" d="M238 0 L363 458 L365 458 L484 0 L545 0 L708 508 L662 508 L519 51 L517 51 L395 508 L333 508 L210 49 L208 49 L64 508 L13 508 L179 0 L238 0 Z M312 665 C312 691 294 707 268 707 C240 707 223 691 223 665 C223 638 240 623 268 623 C294 623 312 638 312 665 L312 665 Z M503 665 C503 691 485 707 459 707 C432 707 414 691 414 665 C414 638 432 623 459 623 C485 623 503 638 503 665 L503 665 Z " />
<glyph glyph-name="Ygrave" unicode="&#x1ef2;" horiz-adv-x="538" d="M297 291 L534 724 L485 724 L275 340 L274 340 L58 724 L4 724 L249 287 L249 0 L297 0 L297 291 Z M299 767 L342 781 L237 911 L164 911 L299 767 Z " />
<glyph glyph-name="ygrave" unicode="&#x1ef3;" horiz-adv-x="457" d="M201 0 L172 -77 C141 -160 106 -180 64 -180 C33 -180 -1 -171 -16 -164 L-26 -205 C-8 -212 25 -223 61 -223 C126 -223 173 -193 212 -95 C284 89 373 323 444 508 L392 508 L229 67 L228 67 L69 508 L17 508 L201 0 Z M259 572 L300 586 L187 751 L115 751 L259 572 Z " />
<glyph glyph-name="endash" unicode="&#x2013;" horiz-adv-x="500" d="M499 263 L499 302 L0 302 L0 263 L499 263 Z " />
<glyph glyph-name="emdash" unicode="&#x2014;" horiz-adv-x="1000" d="M999 263 L999 302 L0 302 L0 263 L999 263 Z " />
<glyph glyph-name="quoteleft" unicode="&#x2018;" horiz-adv-x="168" d="M159 764 L118 771 L41 560 L106 560 L159 764 Z " />
<glyph glyph-name="quoteright" unicode="&#x2019;" horiz-adv-x="168" d="M29 556 L70 549 L147 760 L82 760 L29 556 Z " />
<glyph glyph-name="quotesinglbase" unicode="&#x201a;" horiz-adv-x="156" d="M18 -123 L59 -130 L136 81 L71 81 L18 -123 Z " />
<glyph glyph-name="quotedblleft" unicode="&#x201c;" horiz-adv-x="303" d="M293 764 L252 771 L175 560 L240 560 L293 764 Z M159 764 L118 771 L41 560 L106 560 L159 764 Z " />
<glyph glyph-name="quotedblright" unicode="&#x201d;" horiz-adv-x="303" d="M163 556 L204 549 L281 760 L216 760 L163 556 Z M29 556 L70 549 L147 760 L82 760 L29 556 Z " />
<glyph glyph-name="quotedblbase" unicode="&#x201e;" horiz-adv-x="290" d="M18 -123 L59 -130 L136 81 L71 81 L18 -123 Z M151 -123 L192 -130 L269 81 L204 81 L151 -123 Z " />
<glyph glyph-name="dagger" unicode="&#x2020;" horiz-adv-x="381" d="M361 510 L361 557 L211 551 L218 724 L163 724 L169 550 L20 557 L20 510 L169 516 L160 -83 L221 -83 L211 515 L361 510 Z " />
<glyph glyph-name="daggerdbl" unicode="&#x2021;" horiz-adv-x="404" d="M372 510 L372 557 L222 551 L230 724 L174 724 L181 550 L32 557 L32 510 L181 516 L182 126 L32 131 L32 84 L182 90 L174 -83 L230 -83 L223 91 L372 84 L372 131 L223 125 L222 515 L372 510 Z " />
<glyph glyph-name="bullet" unicode="&#x2022;" horiz-adv-x="345" d="M300 280 C300 363 253 404 172 404 C92 404 45 363 45 280 C45 197 92 156 172 156 C253 156 300 197 300 280 L300 280 Z " />
<glyph glyph-name="ellipsis" unicode="&#x2026;" horiz-adv-x="590" d="M351 37 C351 69 332 85 300 85 C269 85 250 69 250 37 C250 4 269 -12 300 -12 C332 -12 351 4 351 37 L351 37 Z M155 37 C155 69 136 85 104 85 C73 85 54 69 54 37 C54 4 73 -12 104 -12 C136 -12 155 4 155 37 L155 37 Z M536 37 C536 69 517 85 485 85 C454 85 435 69 435 37 C435 4 454 -12 485 -12 C517 -12 536 4 536 37 L536 37 Z " />
<glyph glyph-name="perthousand" unicode="&#x2030;" horiz-adv-x="973" d="M187 412 C281 412 328 480 328 579 C328 671 291 737 194 737 C101 737 53 664 53 570 C53 489 85 412 187 412 L187 412 Z M128 -18 L567 724 L516 724 L77 -18 L128 -18 Z M190 455 C121 455 106 514 106 572 C106 622 123 693 193 693 C261 693 276 635 276 576 C276 513 259 455 190 455 L190 455 Z M459 -12 C552 -12 600 56 600 155 C600 247 562 313 466 313 C372 313 325 240 325 146 C325 65 356 -12 459 -12 L459 -12 Z M462 31 C393 31 378 90 378 148 C378 198 395 269 465 269 C533 269 548 211 548 152 C548 89 531 31 462 31 L462 31 Z M779 -12 C872 -12 920 56 920 155 C920 247 882 313 786 313 C692 313 645 240 645 146 C645 65 676 -12 779 -12 L779 -12 Z M782 31 C713 31 698 90 698 148 C698 198 715 269 785 269 C853 269 868 211 868 152 C868 89 851 31 782 31 L782 31 Z " />
<glyph glyph-name="guilsinglleft" unicode="&#x2039;" horiz-adv-x="278" d="M214 103 L130 262 L214 408 L160 408 L71 261 L159 103 L214 103 Z " />
<glyph glyph-name="guilsinglright" unicode="&#x203a;" horiz-adv-x="278" d="M61 408 L147 251 L59 103 L114 103 L203 252 L115 408 L61 408 Z " />
<glyph glyph-name="fraction" unicode="&#x2044;" horiz-adv-x="123" d="M-96 -12 L259 724 L212 724 L-144 -12 L-96 -12 Z " />
<glyph glyph-name="foursuperior" unicode="&#x2074;" horiz-adv-x="354" d="M276 349 L276 457 L329 457 L329 500 L276 500 L276 789 L215 789 L18 495 L18 457 L228 457 L228 349 L276 349 Z M70 500 L229 739 L229 500 L70 500 Z " />
<glyph glyph-name="Euro" unicode="&#x20ac;" horiz-adv-x="589" d="M342 -12 C443 -12 543 35 564 160 L520 173 C501 73 440 33 343 33 C213 33 152 112 136 256 L360 256 L368 298 L132 298 C131 314 131 331 131 349 C131 371 131 392 133 413 L387 413 L395 455 L137 455 C154 592 210 693 357 693 C465 693 509 643 523 532 L569 538 C561 675 478 737 360 737 C242 737 115 684 85 455 L22 455 L15 413 L81 413 C80 392 79 371 79 348 C79 330 79 314 80 298 L5 298 L-2 256 L84 256 C109 34 227 -12 342 -12 L342 -12 Z " />
<glyph glyph-name="trademark" unicode="&#x2122;" horiz-adv-x="816" d="M751 348 L751 724 L701 724 L573 417 L449 724 L393 724 L393 348 L437 348 L437 640 L554 348 L589 348 L709 639 L709 348 L751 348 Z M198 683 L335 683 L335 724 L16 724 L16 683 L152 683 L152 348 L198 348 L198 683 Z " />
<glyph glyph-name="Omega" unicode="&#x2126;" horiz-adv-x="829" d="M549 102 C667 162 751 281 751 421 C751 598 651 737 429 737 C215 737 84 599 84 396 C84 267 145 152 288 102 L288 42 L92 42 L92 0 L331 0 L331 126 C233 161 135 233 135 400 C135 596 256 696 427 696 C596 696 700 600 700 420 C700 248 582 156 507 126 L507 0 L734 0 L734 42 L549 42 L549 102 Z " />
<glyph glyph-name="partialdiff" unicode="&#x2202;" horiz-adv-x="539" d="M423 330 C389 368 330 410 251 410 C124 410 53 305 53 174 C53 67 106 -12 232 -12 C443 -12 475 254 475 397 C475 524 444 671 280 671 C220 671 153 644 103 612 L127 579 C165 603 225 628 282 628 C402 628 426 501 426 410 C426 380 426 353 423 330 L423 330 Z M420 276 C407 190 376 31 231 31 C148 31 104 92 104 181 C104 269 141 365 249 365 C330 365 393 310 420 276 L420 276 Z " />
<glyph glyph-name="Delta" unicode="&#x2206;" horiz-adv-x="639" d="M604 0 L352 724 L281 724 L35 0 L604 0 Z M534 43 L101 43 L316 688 L534 43 Z " />
<glyph glyph-name="product" unicode="&#x220f;" horiz-adv-x="761" d="M626 724 L136 724 L136 -161 L184 -161 L184 681 L577 681 L577 -161 L626 -161 L626 724 Z " />
<glyph glyph-name="summation" unicode="&#x2211;" horiz-adv-x="627" d="M326 278 L111 680 L566 680 L566 724 L54 724 L54 683 L272 280 L32 -134 L32 -176 L568 -176 L568 -132 L86 -132 L326 278 Z " />
<glyph glyph-name="minus" unicode="&#x2212;" horiz-adv-x="570" d="M471 295 L471 346 L101 346 L101 295 L471 295 Z " />
<glyph glyph-name="uni2215" unicode="&#x2215;" horiz-adv-x="123" d="M-96 -12 L259 724 L212 724 L-144 -12 L-96 -12 Z " />
<glyph glyph-name="uni2219" unicode="&#x2219;" horiz-adv-x="289" d="M201 307 C201 344 180 362 144 362 C109 362 88 344 88 307 C88 270 109 251 144 251 C180 251 201 269 201 307 L201 307 Z " />
<glyph glyph-name="radical" unicode="&#x221a;" horiz-adv-x="570" d="M329 0 L524 731 L479 742 L297 58 L157 313 L39 263 L54 229 L129 261 L274 0 L329 0 Z " />
<glyph glyph-name="infinity" unicode="&#x221e;" horiz-adv-x="671" d="M336 285 C370 246 411 191 490 191 C563 191 619 246 619 317 C619 410 561 450 496 450 C424 450 379 396 343 357 C302 401 258 450 187 450 C107 450 52 394 52 317 C52 231 117 190 177 190 C254 190 303 250 336 285 L336 285 Z M308 323 C283 296 238 235 181 235 C129 235 110 283 110 323 C110 364 139 404 184 404 C237 404 274 365 308 323 L308 323 Z M372 319 C410 361 443 405 492 405 C544 405 561 359 561 321 C561 279 533 237 489 237 C437 237 406 281 372 319 L372 319 Z " />
<glyph glyph-name="integral" unicode="&#x222b;" horiz-adv-x="411" d="M58 -172 C80 -182 104 -189 140 -189 C213 -189 271 -154 262 -57 L207 611 C204 661 236 683 277 683 C311 683 342 673 367 659 L362 709 C340 719 316 727 280 727 C207 727 149 690 157 595 L211 -75 C215 -127 182 -147 142 -147 C115 -147 78 -138 52 -125 L58 -172 Z " />
<glyph glyph-name="approxequal" unicode="&#x2248;" horiz-adv-x="570" d="M173 318 C137 318 89 294 99 214 L136 212 C134 261 154 272 175 272 C223 272 349 224 407 224 C448 224 496 245 486 327 L446 328 C446 276 430 270 403 270 C358 270 235 318 173 318 L173 318 Z M174 496 C138 496 90 472 100 392 L137 390 C135 439 155 450 176 450 C224 450 350 402 408 402 C449 402 497 423 487 505 L447 506 C447 454 431 448 404 448 C359 448 236 496 174 496 L174 496 Z " />
<glyph glyph-name="notequal" unicode="&#x2260;" horiz-adv-x="570" d="M468 193 L468 238 L285 238 L335 335 L468 335 L468 380 L358 380 L411 484 L361 484 L308 380 L103 380 L103 335 L285 335 L234 238 L103 238 L103 193 L212 193 L153 80 L206 80 L264 193 L468 193 Z " />
<glyph glyph-name="lessequal" unicode="&#x2264;" horiz-adv-x="570" d="M460 94 L460 143 L140 275 L460 416 L460 466 L89 302 L89 245 L460 94 Z M460 0 L460 43 L90 43 L90 0 L460 0 Z " />
<glyph glyph-name="greaterequal" unicode="&#x2265;" horiz-adv-x="570" d="M460 245 L460 302 L89 466 L89 416 L411 276 L89 143 L89 94 L460 245 Z M459 0 L459 43 L89 43 L89 0 L459 0 Z " />
<glyph glyph-name="lozenge" unicode="&#x25ca;" horiz-adv-x="570" d="M310 -17 L467 307 L310 631 L260 631 L103 307 L260 -17 L310 -17 Z M285 35 L159 307 L285 580 L411 307 L285 35 Z " />
<glyph glyph-name="ff" unicode="&#xfb00;" horiz-adv-x="596" d="M604 748 C587 756 559 763 525 763 C439 763 399 710 399 610 L399 508 L152 508 L152 626 C152 698 185 721 232 721 C256 721 285 715 305 708 L308 748 C291 756 263 763 229 763 C143 763 103 710 103 610 L103 508 L23 508 L23 465 L103 465 L103 0 L152 0 L152 465 L399 465 L399 0 L448 0 L448 465 L594 465 L594 508 L448 508 L448 626 C448 698 481 721 528 721 C552 721 581 715 601 708 L604 748 Z " />
<glyph glyph-name="fi" unicode="&#xfb01;" horiz-adv-x="539" d="M448 508 L152 508 L152 626 C152 698 185 721 232 721 C256 721 285 715 305 708 L308 748 C291 756 263 763 229 763 C143 763 103 710 103 610 L103 508 L23 508 L23 465 L103 465 L103 0 L152 0 L152 465 L399 465 L399 0 L448 0 L448 508 Z M472 677 C472 705 455 720 426 720 C397 720 380 705 380 677 C380 650 397 635 426 635 C455 635 472 650 472 677 L472 677 Z " />
<glyph glyph-name="fl" unicode="&#xfb02;" horiz-adv-x="539" d="M448 755 L399 755 L399 0 L448 0 L448 755 Z M308 748 C291 756 263 763 229 763 C143 763 103 710 103 610 L103 508 L23 508 L23 465 L103 465 L103 0 L152 0 L152 465 L298 465 L298 508 L152 508 L152 626 C152 698 185 721 232 721 C256 721 285 715 305 708 L308 748 Z " />
<glyph glyph-name="ffi" unicode="&#xfb03;" horiz-adv-x="836" d="M604 748 C587 756 559 763 525 763 C439 763 399 710 399 610 L399 508 L152 508 L152 625 C152 700 186 721 234 721 C259 721 289 715 309 708 L311 748 C294 756 266 763 232 763 C145 763 103 710 103 610 L103 508 L23 508 L23 465 L103 465 L103 0 L152 0 L152 465 L399 465 L399 0 L448 0 L448 465 L594 465 L594 508 L448 508 L448 626 C448 698 481 721 528 721 C552 721 581 715 601 708 L604 748 Z M745 508 L696 508 L696 0 L745 0 L745 508 Z M769 677 C769 705 752 720 723 720 C694 720 677 705 677 677 C677 650 694 635 723 635 C752 635 769 650 769 677 L769 677 Z " />
<glyph glyph-name="ffl" unicode="&#xfb04;" horiz-adv-x="835" d="M604 748 C587 756 559 763 525 763 C439 763 399 710 399 610 L399 508 L152 508 L152 626 C152 698 185 721 232 721 C256 721 285 715 305 708 L308 748 C291 756 263 763 229 763 C143 763 103 710 103 610 L103 508 L23 508 L23 465 L103 465 L103 0 L152 0 L152 465 L399 465 L399 0 L448 0 L448 465 L594 465 L594 508 L448 508 L448 626 C448 698 481 721 528 721 C552 721 581 715 601 708 L604 748 Z M744 755 L695 755 L695 0 L744 0 L744 755 Z " />
</font>
</svg>
