<?xml version="1.0" encoding="UTF-8"?>
<svg xmlns="http://www.w3.org/2000/svg" xmlns:xlink="http://www.w3.org/1999/xlink" version="1.2" >
<font id="AdelleSans-Bold">
<font-face  font-family="Adelle Sans" units-per-em="1000" ascent="755" descent="-245" font-style="normal" font-weight="700" font-stretch="normal" cap-height="724" x-height="521" underline-position="-75" underline-thickness="50" />
<missing-glyph  horiz-adv-x="500" d="" />
<glyph glyph-name=".null" d="" />
<glyph glyph-name="nonmarkingreturn" unicode="&#xd;" horiz-adv-x="500" d="" />
<glyph glyph-name="space" unicode="&#x20;" horiz-adv-x="174" d="" />
<glyph glyph-name="uni00A0" unicode="&#xa0;" horiz-adv-x="174" d="" />
<glyph glyph-name="quotesingle" unicode="&#x27;" horiz-adv-x="235" d="M50 465 L50 724 L185 724 L185 465 L50 465 Z " />
<glyph glyph-name="quotedbl" unicode="&#x22;" horiz-adv-x="429" d="M50 465 L50 724 L185 724 L185 465 L50 465 Z M244 465 L244 724 L379 724 L379 465 L244 465 Z " />
<glyph glyph-name="numbersign" unicode="&#x23;" horiz-adv-x="607" d="M299 0 L320 139 L233 139 L212 0 L108 0 L129 139 L30 139 L51 243 L145 243 L162 353 L62 353 L83 458 L177 458 L197 593 L301 593 L281 458 L367 458 L387 593 L491 593 L471 458 L572 458 L552 353 L456 353 L439 243 L540 243 L520 139 L424 139 L402 0 L299 0 Z M352 353 L266 353 L249 243 L336 243 L352 353 Z " />
<glyph glyph-name="ampersand" unicode="&#x26;" horiz-adv-x="743" d="M540 558 Q540 536 534 512.5 Q528 489 510.5 465.5 Q493 442 461.5 418.5 Q430 395 380 374 L366 368 Q395 327 427.5 288.5 Q460 250 498 208 Q515 240 521 278 Q527 316 527 358 L660 358 Q662 303 647.5 245.5 Q633 188 595 136 Q630 114 667 114 Q685 114 705 120 L721 6 Q701 -2 679.5 -5 Q658 -8 638 -9 Q596 -9 559 3.5 Q522 16 486 39 Q456 16 406.5 2 Q357 -12 290 -12 Q228 -12 180.5 4 Q133 20 101 48 Q69 76 53 113.5 Q37 151 37 194 Q37 266 72.5 314.5 Q108 363 183 395 Q164 427 156 455.5 Q148 484 148 516 Q148 559 164.5 593.5 Q181 628 210 652 Q239 676 278.5 688.5 Q318 701 364 701 Q397 701 429 693.5 Q461 686 485.5 669.5 Q510 653 525 625.5 Q540 598 540 558 Z M315 98 Q358 98 390 114 Q345 156 308 201.5 Q271 247 233 303 Q216 289 203.5 267.5 Q191 246 191 210 Q191 163 222 130.5 Q253 98 315 98 Z M295 541 Q295 518 302 496.5 Q309 475 322 451 Q337 458 353.5 466.5 Q370 475 383.5 486.5 Q397 498 405.5 513.5 Q414 529 414 550 Q414 573 400 588 Q386 603 358 603 Q332 603 313.5 587 Q295 571 295 541 Z " />
<glyph glyph-name="asterisk" unicode="&#x2a;" horiz-adv-x="477" d="M289 633 L402 660 L423 588 L316 534 L388 426 L331 381 L233 473 L138 378 L80 424 L151 534 L42 587 L64 659 L179 631 L199 755 L271 755 L289 633 Z " />
<glyph glyph-name="comma" unicode="&#x2c;" horiz-adv-x="244" d="M56 132 L214 132 L116 -137 L-7 -125 L56 132 Z " />
<glyph glyph-name="hyphen" unicode="&#x2d;" horiz-adv-x="313" d="M20 227 L20 356 L291 356 L291 227 L20 227 Z " />
<glyph glyph-name="period" unicode="&#x2e;" horiz-adv-x="251" d="M219 76 Q219 -12 126 -12 Q33 -12 33 76 Q33 165 126 165 Q219 165 219 76 Z " />
<glyph glyph-name="colon" unicode="&#x3a;" horiz-adv-x="266" d="M226 76 Q226 -12 133 -12 Q40 -12 40 76 Q40 165 133 165 Q226 165 226 76 Z M226 419 Q226 331 133 331 Q40 331 40 419 Q40 508 133 508 Q226 508 226 419 Z " />
<glyph glyph-name="semicolon" unicode="&#x3b;" horiz-adv-x="260" d="M58 132 L216 132 L118 -137 L-5 -125 L58 132 Z M240 419 Q240 331 147 331 Q54 331 54 419 Q54 508 147 508 Q240 508 240 419 Z " />
<glyph glyph-name="question" unicode="&#x3f;" horiz-adv-x="547" d="M155 197 L155 380 Q191 383 227 390.5 Q263 398 291 414 Q319 430 336.5 456 Q354 482 354 522 Q354 570 329.5 589.5 Q305 609 267 609 Q220 609 195 584 Q170 559 161 505 L14 528 Q26 624 92 679 Q158 734 275 734 Q321 734 364 723.5 Q407 713 440 688 Q473 663 493 622 Q513 581 513 520 Q513 425 458.5 368 Q404 311 305 288 L305 197 L155 197 Z M317 68 Q317 30 295 9 Q273 -12 228 -12 Q139 -12 139 68 Q139 107 161 128 Q183 149 228 149 Q273 149 295 128 Q317 107 317 68 Z " />
<glyph glyph-name="exclam" unicode="&#x21;" horiz-adv-x="290" d="M83 197 L64 724 L228 724 L209 197 L83 197 Z M235 68 Q235 30 213 9 Q191 -12 146 -12 Q56 -12 56 68 Q56 107 78.5 128 Q101 149 146 149 Q191 149 213 128 Q235 107 235 68 Z " />
<glyph glyph-name="exclamdown" unicode="&#xa1;" horiz-adv-x="290" d="M211.01 323.024 L230.008 -203.912 L66.0278 -203.912 L85.0255 323.024 L211.01 323.024 Z M59.0287 452.008 Q59.0287 490.004 81.026 511.001 Q103.023 531.999 148.018 531.999 Q238.007 531.999 238.007 452.008 Q238.007 413.013 215.51 392.016 Q193.012 371.018 148.018 371.018 Q103.023 371.018 81.026 392.016 Q59.0287 413.013 59.0287 452.008 Z " />
<glyph glyph-name="questiondown" unicode="&#xbf;" horiz-adv-x="536" d="M386.019 323.024 L386.019 140.046 Q350.023 137.047 314.028 129.548 Q278.032 122.049 250.036 106.051 Q222.039 90.0525 204.541 64.0557 Q187.043 38.0588 187.043 -1.93628 Q187.043 -49.9304 211.54 -69.428 Q236.037 -88.9257 274.033 -88.9257 Q321.027 -88.9257 346.024 -63.9287 Q371.021 -38.9318 380.02 15.0616 L527.002 -7.93555 Q515.003 -103.924 449.011 -158.917 Q383.019 -213.91 266.034 -213.91 Q220.039 -213.91 177.044 -203.412 Q134.05 -192.913 101.054 -167.916 Q68.0577 -142.919 48.0602 -101.924 Q28.0626 -60.9291 28.0626 0.0634766 Q28.0626 95.0519 82.556 152.045 Q137.049 209.038 236.037 232.035 L236.037 323.024 L386.019 323.024 Z M224.039 452.008 Q224.039 490.004 246.036 511.001 Q268.033 531.999 313.028 531.999 Q402.017 531.999 402.017 452.008 Q402.017 413.013 380.02 392.016 Q358.022 371.018 313.028 371.018 Q268.033 371.018 246.036 392.016 Q224.039 413.013 224.039 452.008 Z " />
<glyph glyph-name="at" unicode="&#x40;" horiz-adv-x="855" d="M651 -145 Q616 -168 560.5 -180.5 Q505 -193 431 -193 Q350 -193 278.5 -170 Q207 -147 154 -100.5 Q101 -54 70.5 17 Q40 88 40 184 Q40 272 69.5 345.5 Q99 419 153 471.5 Q207 524 283 553.5 Q359 583 452 583 Q532 583 598.5 560 Q665 537 713 494 Q761 451 787.5 389 Q814 327 814 249 Q814 182 800 133.5 Q786 85 760.5 53.5 Q735 22 700 6.5 Q665 -9 623 -9 Q578 -9 547.5 5 Q517 19 505 42 Q483 14 453.5 3 Q424 -8 391 -8 Q355 -8 328 5.5 Q301 19 282.5 44 Q264 69 254.5 103.5 Q245 138 245 179 Q245 225 256.5 265 Q268 305 289.5 334.5 Q311 364 342 380.5 Q373 397 412 397 Q440 397 462 387.5 Q484 378 498 362 L506 391 L587 391 L587 128 Q587 105 595 89.5 Q603 74 631 74 Q655 74 670.5 90.5 Q686 107 695 131.5 Q704 156 708 185.5 Q712 215 712 242 Q712 297 696.5 343 Q681 389 649 422 Q617 455 566 473 Q515 491 445 491 Q364 491 307.5 464.5 Q251 438 215 395 Q179 352 162.5 298 Q146 244 146 189 Q146 112 168 57 Q190 2 229 -33 Q268 -68 322.5 -84.5 Q377 -101 442 -101 Q494 -101 538 -90 Q582 -79 620 -60 L651 -145 Z M491 296 Q470 319 433 319 Q396 319 372.5 289 Q349 259 349 192 Q349 141 363.5 107 Q378 73 418 73 Q441 73 457.5 83 Q474 93 491 113 L491 296 Z " />
<glyph glyph-name="A" unicode="A" horiz-adv-x="709" d="M443 724 L699 0 L530 0 L470 176 L229 176 L173 0 L14 0 L251 724 L443 724 Z M348 579 L344 579 L255 299 L438 299 L348 579 Z " />
<glyph glyph-name="B" unicode="B" horiz-adv-x="637" d="M74 0 L74 724 L361 724 Q425 724 467.5 710.5 Q510 697 535 673 Q560 649 570 616.5 Q580 584 580 547 Q580 511 569 482.5 Q558 454 539 433.5 Q520 413 495 399 Q470 385 443 378 L443 376 Q530 365 570.5 319.5 Q611 274 611 199 Q611 143 590.5 105 Q570 67 533.5 44 Q497 21 447 10.5 Q397 0 338 0 L74 0 Z M307 119 Q338 119 364 122.5 Q390 126 408.5 136.5 Q427 147 437 165 Q447 183 447 213 Q447 243 437 262 Q427 281 410 291 Q393 301 370.5 304.5 Q348 308 322 308 L228 308 L228 119 L307 119 Z M285 425 Q312 425 338 428.5 Q364 432 384 442 Q404 452 416.5 471 Q429 490 429 522 Q429 551 420 567.5 Q411 584 394.5 592.5 Q378 601 356 603 Q334 605 308 605 L228 605 L228 425 L285 425 Z " />
<glyph glyph-name="C" unicode="C" horiz-adv-x="695" d="M372 -12 Q282 -12 218.5 13.5 Q155 39 115 87 Q75 135 56.5 202.5 Q38 270 38 354 Q38 440 60.5 510.5 Q83 581 127.5 631.5 Q172 682 237 709.5 Q302 737 387 737 Q448 737 499 722 Q550 707 587.5 675.5 Q625 644 647 594.5 Q669 545 672 477 L531 465 Q524 543 489.5 576.5 Q455 610 385 610 Q296 610 246.5 550.5 Q197 491 197 362 Q197 295 208.5 248 Q220 201 242.5 171.5 Q265 142 298 128.5 Q331 115 374 115 Q413 115 440 124.5 Q467 134 485 151.5 Q503 169 514 192.5 Q525 216 531 245 L670 221 Q661 156 632 111.5 Q603 67 561.5 39.5 Q520 12 470.5 0 Q421 -12 372 -12 Z " />
<glyph glyph-name="D" unicode="D" horiz-adv-x="724" d="M74 0 L74 724 L328 724 Q422 724 490 699.5 Q558 675 601.5 629.5 Q645 584 666 519 Q687 454 687 373 Q687 290 664.5 221 Q642 152 596 103 Q550 54 479 27 Q408 0 311 0 L74 0 Z M304 124 Q367 124 410 140.5 Q453 157 479.5 188 Q506 219 517.5 264 Q529 309 529 365 Q529 432 516 477.5 Q503 523 476 550 Q449 577 409 588.5 Q369 600 315 600 L228 600 L228 124 L304 124 Z " />
<glyph glyph-name="E" unicode="E" horiz-adv-x="583" d="M228 130 L551 130 L551 0 L74 0 L74 724 L533 724 L533 595 L228 595 L228 425 L515 425 L515 299 L228 299 L228 130 Z " />
<glyph glyph-name="F" unicode="F" horiz-adv-x="553" d="M228 0 L74 0 L74 724 L530 724 L530 595 L228 595 L228 411 L506 411 L506 284 L228 284 L228 0 Z " />
<glyph glyph-name="G" unicode="G" horiz-adv-x="739" d="M552 89 Q540 65 519 46 Q498 27 470.5 14 Q443 1 410.5 -5.5 Q378 -12 345 -12 Q263 -12 205 15 Q147 42 110 90 Q73 138 55.5 204.5 Q38 271 38 350 Q38 438 60.5 509.5 Q83 581 127 631.5 Q171 682 236.5 709.5 Q302 737 389 737 Q448 737 498.5 723 Q549 709 586.5 678.5 Q624 648 647 600 Q670 552 675 484 L531 470 Q528 499 519.5 524.5 Q511 550 494.5 569 Q478 588 451.5 599 Q425 610 386 610 Q290 610 244 545.5 Q198 481 198 364 Q198 234 241.5 173 Q285 112 381 112 Q417 112 445 122 Q473 132 491.5 149 Q510 166 519.5 189 Q529 212 529 238 L529 264 L397 264 L397 377 L681 377 L681 0 L569 0 L552 89 Z " />
<glyph glyph-name="H" unicode="H" horiz-adv-x="733" d="M660 0 L505 0 L505 297 L228 297 L228 0 L74 0 L74 724 L228 724 L228 430 L505 430 L505 724 L660 724 L660 0 Z " />
<glyph glyph-name="I" unicode="I" horiz-adv-x="302" d="M228 0 L74 0 L74 724 L228 724 L228 0 Z " />
<glyph glyph-name="J" unicode="J" horiz-adv-x="530" d="M308 724 L463 724 L463 203 Q463 95 405.5 41.5 Q348 -12 235 -12 Q188 -12 148.5 -2 Q109 8 80 32 Q51 56 34 95.5 Q17 135 15 193 L163 215 Q165 192 168.5 173.5 Q172 155 179.5 142 Q187 129 200.5 121.5 Q214 114 237 114 Q272 114 290 132.5 Q308 151 308 199 L308 724 Z " />
<glyph glyph-name="K" unicode="K" horiz-adv-x="673" d="M227 414 L508 724 L672 724 L407 423 L668 0 L488 0 L297 303 L227 227 L227 0 L74 0 L74 724 L227 724 L227 414 Z " />
<glyph glyph-name="L" unicode="L" horiz-adv-x="568" d="M228 130 L538 130 L538 0 L74 0 L74 724 L228 724 L228 130 Z " />
<glyph glyph-name="M" unicode="M" horiz-adv-x="915" d="M842 0 L698 0 L698 568 L694 568 L523 0 L384 0 L219 569 L215 569 L215 0 L74 0 L74 724 L304 724 L457 195 L461 195 L613 724 L842 724 L842 0 Z " />
<glyph glyph-name="N" unicode="N" horiz-adv-x="745" d="M494 0 L215 511 L215 0 L74 0 L74 724 L258 724 L532 211 L532 724 L672 724 L672 0 L494 0 Z " />
<glyph glyph-name="O" unicode="O" horiz-adv-x="760" d="M375 -12 Q285 -12 221.5 15.5 Q158 43 117 92.5 Q76 142 57 210 Q38 278 38 359 Q38 440 60 509 Q82 578 126.5 628.5 Q171 679 237 708 Q303 737 391 737 Q479 737 542 708.5 Q605 680 645 630.5 Q685 581 704 514.5 Q723 448 723 373 Q723 285 701.5 214 Q680 143 637 92.5 Q594 42 528.5 15 Q463 -12 375 -12 Z M381 118 Q421 118 455 131.5 Q489 145 513 174 Q537 203 550.5 250 Q564 297 564 364 Q564 490 518 548.5 Q472 607 388 607 Q300 607 248.5 547.5 Q197 488 197 362 Q197 297 209.5 251 Q222 205 246 175.5 Q270 146 304 132 Q338 118 381 118 Z " />
<glyph glyph-name="P" unicode="P" horiz-adv-x="621" d="M227 0 L74 0 L74 724 L348 724 Q417 724 463.5 705 Q510 686 538 654.5 Q566 623 577.5 582 Q589 541 589 498 Q589 367 518.5 300.5 Q448 234 306 234 L227 234 L227 0 Z M289 358 Q319 358 344.5 363 Q370 368 389.5 382.5 Q409 397 420 422 Q431 447 431 487 Q431 522 421 544 Q411 566 394 578.5 Q377 591 353 595.5 Q329 600 301 600 L227 600 L227 358 L289 358 Z " />
<glyph glyph-name="Q" unicode="Q" horiz-adv-x="760" d="M375 -12 Q285 -12 221.5 15.5 Q158 43 117 92.5 Q76 142 57 210 Q38 278 38 359 Q38 440 60 509 Q82 578 126.5 628.5 Q171 679 237 708 Q303 737 391 737 Q479 737 542 708.5 Q605 680 645 630.5 Q685 581 704 514.5 Q723 448 723 373 Q723 204 640 103 L722 15 L626 -66 L543 24 Q508 7 466.5 -2.5 Q425 -12 375 -12 Z M383 115 Q401 115 418.5 117.5 Q436 120 452 125 L339 245 L432 328 L539 207 Q553 235 559 275 Q565 315 565 364 Q565 490 518.5 548.5 Q472 607 388 607 Q300 607 248.5 547.5 Q197 488 197 362 Q197 297 210 250.5 Q223 204 247 174 Q271 144 305.5 129.5 Q340 115 383 115 Z " />
<glyph glyph-name="R" unicode="R" horiz-adv-x="642" d="M635 0 L469 0 L326 275 L227 275 L227 0 L74 0 L74 724 L356 724 Q423 724 469 707 Q515 690 543.5 662 Q572 634 584 597 Q596 560 596 520 Q596 439 561.5 389 Q527 339 471 313 L635 0 Z M306 396 Q333 396 357 401.5 Q381 407 398.5 419.5 Q416 432 426.5 453 Q437 474 437 505 Q437 557 405.5 578.5 Q374 600 312 600 L227 600 L227 396 L306 396 Z " />
<glyph glyph-name="S" unicode="S" horiz-adv-x="596" d="M300 618 Q244 618 218 597 Q192 576 192 541 Q192 513 208 495 Q224 477 250.5 464.5 Q277 452 311 442.5 Q345 433 380 422 Q415 411 449 396.5 Q483 382 509.5 358.5 Q536 335 552 301 Q568 267 568 217 Q568 155 545 112 Q522 69 483.5 41 Q445 13 395 0.5 Q345 -12 291 -12 Q242 -12 194 -2.5 Q146 7 107 32.5 Q68 58 42 102.5 Q16 147 11 218 L151 239 Q155 213 163.5 189.5 Q172 166 188 148.5 Q204 131 229.5 120.5 Q255 110 295 110 Q319 110 340.5 114.5 Q362 119 378.5 129.5 Q395 140 405 157 Q415 174 415 199 Q415 227 399 244.5 Q383 262 356.5 274 Q330 286 296 294.5 Q262 303 226.5 313 Q191 323 157 337 Q123 351 96.5 374.5 Q70 398 54 433 Q38 468 38 519 Q38 572 58.5 612.5 Q79 653 115 681 Q151 709 199 723 Q247 737 302 737 Q350 737 395 728 Q440 719 475 695.5 Q510 672 533 630.5 Q556 589 560 525 L419 509 Q417 534 410 554.5 Q403 575 389 589 Q375 603 353.5 610.5 Q332 618 300 618 Z " />
<glyph glyph-name="T" unicode="T" horiz-adv-x="595" d="M221 0 L221 594 L8 594 L8 724 L587 724 L587 594 L376 594 L376 0 L221 0 Z " />
<glyph glyph-name="U" unicode="U" horiz-adv-x="708" d="M356 117 Q394 117 419.5 126.5 Q445 136 460 156 Q475 176 481.5 207.5 Q488 239 488 283 L488 724 L642 724 L642 261 Q642 189 622 137.5 Q602 86 564 52.5 Q526 19 472 3.5 Q418 -12 350 -12 Q200 -12 132.5 55.5 Q65 123 65 265 L65 724 L220 724 L220 286 Q220 244 226 212 Q232 180 247.5 159 Q263 138 289.5 127.5 Q316 117 356 117 Z " />
<glyph glyph-name="V" unicode="V" horiz-adv-x="662" d="M232 0 L-3 724 L170 724 L335 152 L341 152 L506 724 L665 724 L440 0 L232 0 Z " />
<glyph glyph-name="W" unicode="W" horiz-adv-x="964" d="M604 0 L487 499 L483 499 L367 0 L164 0 L8 724 L169 724 L271 166 L275 166 L404 724 L569 724 L702 163 L707 163 L801 724 L956 724 L801 0 L604 0 Z " />
<glyph glyph-name="X" unicode="X" horiz-adv-x="651" d="M414 366 L652 0 L474 0 L316 241 L165 0 L-1 0 L233 365 L10 724 L182 724 L330 479 L480 724 L640 724 L414 366 Z " />
<glyph glyph-name="Y" unicode="Y" horiz-adv-x="606" d="M388 0 L233 0 L233 271 L-18 724 L151 724 L310 414 L315 414 L468 724 L624 724 L388 273 L388 0 Z " />
<glyph glyph-name="Z" unicode="Z" horiz-adv-x="592" d="M212 130 L563 130 L563 0 L27 0 L27 113 L370 595 L36 595 L36 724 L549 724 L549 609 L212 130 Z " />
<glyph glyph-name="AE" unicode="&#xc6;" horiz-adv-x="1003" d="M644 130 L968 130 L968 0 L490 0 L490 286 L312 286 L176 0 L13 0 L366 724 L949 724 L949 594 L644 594 L644 413 L931 413 L931 288 L644 288 L644 130 Z M490 594 L447 594 L357 408 L490 408 L490 594 Z " />
<glyph glyph-name="IJ" unicode="&#x132;" horiz-adv-x="832" d="M228 0 L74 0 L74 724 L228 724 L228 0 Z M610 724 L765 724 L765 203 Q765 95 707.5 41.5 Q650 -12 537 -12 Q490 -12 450.5 -2 Q411 8 382 32 Q353 56 336 95.5 Q319 135 317 193 L465 215 Q467 192 470.5 173.5 Q474 155 481.5 142 Q489 129 502.5 121.5 Q516 114 539 114 Q574 114 592 132.5 Q610 151 610 199 L610 724 Z " />
<glyph glyph-name="Eng" unicode="&#x14a;" horiz-adv-x="745" d="M478 -223 Q434 -223 397 -214 Q360 -205 344 -195 L360 -79 Q374 -85 397.5 -92 Q421 -99 448 -99 Q461 -99 473.5 -96 Q486 -93 496 -85 Q506 -77 511.5 -62.5 Q517 -48 517 -24 L517 5 L215 511 L215 0 L74 0 L74 724 L258 724 L532 261 L532 724 L672 724 L672 -41 Q672 -90 657 -124.5 Q642 -159 616 -181 Q590 -203 554.5 -213 Q519 -223 478 -223 Z " />
<glyph glyph-name="Eth" unicode="&#xd0;" horiz-adv-x="724" d="M74 0 L74 305 L7 305 L7 434 L74 434 L74 724 L328 724 Q422 724 490 699.5 Q558 675 601.5 629.5 Q645 584 666 519 Q687 454 687 373 Q687 290 664.5 221 Q642 152 596 103 Q550 54 479 27 Q408 0 311 0 L74 0 Z M304 124 Q367 124 410 140.5 Q453 157 479.5 188 Q506 219 517.5 264 Q529 309 529 365 Q529 432 516 477.5 Q503 523 476 550 Q449 577 409 588.5 Q369 600 315 600 L228 600 L228 434 L399 434 L399 305 L228 305 L228 124 L304 124 Z " />
<glyph glyph-name="OE" unicode="&#x152;" horiz-adv-x="1073" d="M579 0 L579 67 Q544 30 490 9 Q436 -12 375 -12 Q285 -12 221.5 15.5 Q158 43 117 92.5 Q76 142 57 210 Q38 278 38 359 Q38 440 60.5 509 Q83 578 127 628.5 Q171 679 235.5 708 Q300 737 384 737 Q452 737 498 717 Q544 697 579 660 L579 724 L1022 724 L1022 595 L717 595 L717 425 L1004 425 L1004 299 L717 299 L717 129 L1041 129 L1041 0 L579 0 Z M381 117 Q421 117 454 130 Q487 143 511.5 171.5 Q536 200 549.5 245.5 Q563 291 564 355 Q565 486 519 546.5 Q473 607 388 607 Q300 607 248.5 547.5 Q197 488 197 362 Q197 297 209.5 250.5 Q222 204 246 174.5 Q270 145 304 131 Q338 117 381 117 Z " />
<glyph glyph-name="Thorn" unicode="&#xde;" horiz-adv-x="621" d="M227 0 L74 0 L74 724 L227 724 L227 608 L348 608 Q417 608 463.5 589 Q510 570 538 539 Q566 508 577.5 468 Q589 428 589 387 Q589 128 306 128 L227 128 L227 0 Z M289 252 Q319 252 344.5 256.5 Q370 261 389.5 274.5 Q409 288 420 312 Q431 336 431 376 Q431 408 421 429 Q411 450 394 462 Q377 474 353 479 Q329 484 301 484 L227 484 L227 252 L289 252 Z " />
<glyph glyph-name="a" unicode="a" horiz-adv-x="558" d="M481 130 Q481 109 486.5 99.5 Q492 90 512 90 Q523 90 543 96 L547 9 Q532 1 503.5 -5 Q475 -11 451 -11 Q406 -11 379 3.5 Q352 18 344 55 Q319 23 281 5.5 Q243 -12 189 -12 Q140 -12 110 2.5 Q80 17 63 38 Q46 59 40 83 Q34 107 34 127 Q34 187 62 223 Q90 259 133.5 278 Q177 297 230 303 Q283 309 333 309 L333 328 Q333 350 330.5 367.5 Q328 385 320.5 397.5 Q313 410 298.5 416.5 Q284 423 259 423 Q221 423 204.5 406 Q188 389 180 351 L52 376 Q58 413 73 442 Q88 471 114.5 491 Q141 511 180 521.5 Q219 532 272 532 Q377 532 429 489 Q481 446 481 348 L481 130 Z M334 221 L310 221 Q283 220 260 216.5 Q237 213 220.5 205.5 Q204 198 195 185 Q186 172 186 152 Q186 129 198.5 112 Q211 95 247 95 Q274 95 298 106 Q322 117 334 129 L334 221 Z " />
<glyph glyph-name="b" unicode="b" horiz-adv-x="592" d="M59 0 L59 755 L207 755 L207 474 Q239 505 277.5 518.5 Q316 532 364 532 Q403 532 438 518.5 Q473 505 499.5 474 Q526 443 541 393.5 Q556 344 556 272 Q556 195 539.5 141.5 Q523 88 494 53.5 Q465 19 425.5 3.5 Q386 -12 339 -12 Q291 -12 255.5 4 Q220 20 196 44 L193 44 L186 0 L59 0 Z M209 143 Q223 132 247 120.5 Q271 109 300 109 Q351 109 374 148 Q397 187 397 268 Q397 299 392.5 325.5 Q388 352 377.5 371 Q367 390 349.5 400.5 Q332 411 305 411 Q278 411 252 398.5 Q226 386 209 371 L209 143 Z " />
<glyph glyph-name="c" unicode="c" horiz-adv-x="544" d="M285 -12 Q220 -12 172.5 7.5 Q125 27 94 62 Q63 97 48.5 145.5 Q34 194 34 252 Q34 387 103 459.5 Q172 532 300 532 Q394 532 451.5 481.5 Q509 431 517 335 L382 315 Q377 364 359.5 390 Q342 416 297 416 Q276 416 256.5 410 Q237 404 223 387.5 Q209 371 200.5 342 Q192 313 192 268 Q192 223 199 192 Q206 161 219.5 142 Q233 123 252 114.5 Q271 106 295 106 Q339 106 362 128.5 Q385 151 392 201 L519 177 Q512 128 492 92.5 Q472 57 441 33.5 Q410 10 370.5 -1 Q331 -12 285 -12 Z " />
<glyph glyph-name="d" unicode="d" horiz-adv-x="591" d="M534 0 L408 0 L399 51 L396 52 Q369 22 331.5 5 Q294 -12 242 -12 Q196 -12 158.5 2.5 Q121 17 94 48.5 Q67 80 52 130 Q37 180 37 250 Q37 328 56 382 Q75 436 106.5 469.5 Q138 503 177 517.5 Q216 532 257 532 Q301 532 332.5 521.5 Q364 511 389 488 L389 755 L534 755 L534 0 Z M384 383 Q369 394 347.5 403 Q326 412 300 412 Q271 412 251.5 400 Q232 388 219 367 Q206 346 200.5 317.5 Q195 289 195 255 Q195 185 218 146 Q241 107 295 107 Q319 107 342.5 117 Q366 127 384 144 L384 383 Z " />
<glyph glyph-name="e" unicode="e" horiz-adv-x="547" d="M289 -12 Q217 -12 168 10.5 Q119 33 89 70.5 Q59 108 46.5 157 Q34 206 34 259 Q34 329 54 380.5 Q74 432 109 466 Q144 500 190 516 Q236 532 289 532 Q348 532 390.5 514.5 Q433 497 460 465.5 Q487 434 500 389.5 Q513 345 513 291 Q513 278 512.5 257.5 Q512 237 510 223 L193 223 Q195 158 221.5 131.5 Q248 105 298 105 Q339 105 357 125.5 Q375 146 383 179 L510 148 Q496 75 439.5 31.5 Q383 -12 289 -12 Z M357 319 Q357 376 337.5 399.5 Q318 423 281 423 Q265 423 249.5 417.5 Q234 412 222 399.5 Q210 387 202.5 367 Q195 347 195 319 L357 319 Z " />
<glyph glyph-name="f" unicode="f" horiz-adv-x="366" d="M377 640 Q362 645 343.5 649 Q325 653 307 653 Q289 653 274.5 649.5 Q260 646 249.5 637 Q239 628 233 611 Q227 594 227 567 L227 521 L365 521 L365 411 L227 411 L227 0 L76 0 L76 411 L6 411 L6 521 L76 521 L76 581 Q76 629 90 664 Q104 699 129 721.5 Q154 744 189.5 755 Q225 766 268 766 Q309 766 339.5 759.5 Q370 753 383 747 L377 640 Z " />
<glyph glyph-name="g" unicode="g" horiz-adv-x="560" d="M274 532 Q317 532 351.5 524.5 Q386 517 412 500 Q419 515 428 529 Q437 543 448.5 554 Q460 565 475 572 Q490 579 508 579 Q527 579 550 570 L550 471 Q527 473 506.5 471.5 Q486 470 464 463 Q487 437 497 407.5 Q507 378 507 346 Q507 302 490 267.5 Q473 233 442.5 209 Q412 185 370 172 Q328 159 278 159 Q252 159 232.5 161.5 Q213 164 191 170 Q184 163 178 155.5 Q172 148 172 138 Q172 127 181 120 Q190 113 219 111 L367 102 Q409 99 441.5 90 Q474 81 496.5 63.5 Q519 46 530.5 18.5 Q542 -9 542 -48 Q542 -96 521 -129.5 Q500 -163 463.5 -184.5 Q427 -206 377 -215.5 Q327 -225 270 -225 Q198 -225 150 -216 Q102 -207 73 -191.5 Q44 -176 31.5 -153.5 Q19 -131 19 -104 Q19 -67 44.5 -42.5 Q70 -18 113 -10 L113 -6 Q37 16 37 82 Q37 121 59 146.5 Q81 172 118 198 Q83 218 62.5 253.5 Q42 289 42 339 Q42 381 57.5 416 Q73 451 102.5 477 Q132 503 175 517.5 Q218 532 274 532 Z M369 347 Q369 388 345.5 407 Q322 426 280 426 Q239 426 212 407.5 Q185 389 185 347 Q185 308 207.5 287.5 Q230 267 278 267 Q319 267 344 288 Q369 309 369 347 Z M395 -75 Q395 -60 383 -48 Q371 -36 331 -34 L186 -25 Q172 -36 163.5 -48.5 Q155 -61 155 -75 Q155 -90 165 -100.5 Q175 -111 192 -117 Q209 -123 232.5 -125.5 Q256 -128 282 -128 Q333 -128 364 -117.5 Q395 -107 395 -75 Z " />
<glyph glyph-name="h" unicode="h" horiz-adv-x="583" d="M530 0 L379 0 L379 329 Q379 371 362 390 Q345 409 310 409 Q279 409 251 395.5 Q223 382 208 368 L208 0 L57 0 L57 755 L207 755 L207 473 Q235 495 273.5 513.5 Q312 532 368 532 Q453 532 491.5 489 Q530 446 530 356 L530 0 Z " />
<glyph glyph-name="i" unicode="i" horiz-adv-x="268" d="M211 0 L60 0 L60 521 L211 521 L211 0 Z M227 681 Q227 637 203 613 Q179 589 136 589 Q92 589 68.5 613 Q45 637 45 681 Q45 725 68.5 748.5 Q92 772 136 772 Q179 772 203 748.5 Q227 725 227 681 Z " />
<glyph glyph-name="j" unicode="j" horiz-adv-x="266" d="M25 -223 Q-16 -223 -50 -214 Q-84 -205 -98 -195 L-87 -82 Q-74 -88 -51.5 -95 Q-29 -102 -5 -102 Q22 -102 41 -86.5 Q60 -71 60 -24 L60 521 L211 521 L211 -41 Q211 -90 197.5 -124.5 Q184 -159 159.5 -181 Q135 -203 100.5 -213 Q66 -223 25 -223 Z M227 684 Q227 639 203.5 615 Q180 591 136 591 Q93 591 69 615 Q45 639 45 684 Q45 728 69 751 Q93 774 136 774 Q180 774 203.5 751 Q227 728 227 684 Z " />
<glyph glyph-name="k" unicode="k" horiz-adv-x="564" d="M210 339 L382 521 L549 521 L376 334 L562 0 L395 0 L260 238 L210 189 L210 0 L59 0 L59 755 L210 755 L210 339 Z " />
<glyph glyph-name="l" unicode="l" horiz-adv-x="268" d="M211 0 L60 0 L60 755 L211 755 L211 0 Z " />
<glyph glyph-name="m" unicode="m" horiz-adv-x="854" d="M208 0 L57 0 L57 521 L185 521 L192 472 Q223 498 261 515 Q299 532 350 532 Q397 532 431 517 Q465 502 483 467 Q511 496 551.5 514 Q592 532 645 532 Q801 532 801 359 L801 0 L650 0 L650 335 Q650 372 637 391 Q624 410 591 410 Q570 410 544.5 399.5 Q519 389 505 374 Q505 371 505.5 368 Q506 365 506 361 L506 0 L355 0 L355 335 Q355 372 342 391 Q329 410 297 410 Q274 410 248.5 399 Q223 388 208 373 L208 0 Z " />
<glyph glyph-name="n" unicode="n" horiz-adv-x="583" d="M530 0 L379 0 L379 330 Q379 372 362 391 Q345 410 310 410 Q279 410 251 396.5 Q223 383 208 369 L208 0 L57 0 L57 521 L191 521 L199 469 Q228 495 269.5 513.5 Q311 532 365 532 Q452 532 491 489 Q530 446 530 356 L530 0 Z " />
<glyph glyph-name="o" unicode="o" horiz-adv-x="587" d="M288 -12 Q217 -12 168.5 8 Q120 28 90 64 Q60 100 47 149.5 Q34 199 34 258 Q34 321 50.5 371.5 Q67 422 100 457.5 Q133 493 183.5 512.5 Q234 532 302 532 Q370 532 417.5 512.5 Q465 493 495 458 Q525 423 539 375 Q553 327 553 269 Q553 205 538 153 Q523 101 490.5 64.5 Q458 28 408 8 Q358 -12 288 -12 Z M295 100 Q320 100 338.5 108.5 Q357 117 370 136.5 Q383 156 389.5 187 Q396 218 396 264 Q396 349 372 383.5 Q348 418 298 418 Q247 418 219.5 382.5 Q192 347 192 262 Q192 175 215.5 137.5 Q239 100 295 100 Z " />
<glyph glyph-name="p" unicode="p" horiz-adv-x="592" d="M59 521 L187 521 L196 468 Q230 502 272.5 517 Q315 532 359 532 Q401 532 436.5 518.5 Q472 505 498.5 474 Q525 443 540 393.5 Q555 344 555 272 Q555 194 538 140 Q521 86 492 52.5 Q463 19 424.5 3.5 Q386 -12 343 -12 Q295 -12 262.5 1.5 Q230 15 205 38 L205 -212 L59 -212 L59 521 Z M208 144 Q219 133 245 121 Q271 109 299 109 Q352 109 374.5 150.5 Q397 192 397 268 Q397 347 374 379.5 Q351 412 305 412 Q279 412 252 399 Q225 386 208 372 L208 144 Z " />
<glyph glyph-name="q" unicode="q" horiz-adv-x="590" d="M534 -212 L390 -212 L390 45 Q361 17 325 2.5 Q289 -12 240 -12 Q194 -12 156.5 2.5 Q119 17 92.5 49 Q66 81 51.5 131 Q37 181 37 252 Q37 330 56 383.5 Q75 437 106.5 470 Q138 503 177.5 517.5 Q217 532 258 532 Q347 532 396 473 L410 521 L534 521 L534 -212 Z M384 381 Q369 394 346 403 Q323 412 298 412 Q242 412 218.5 369 Q195 326 195 258 Q195 224 200 196.5 Q205 169 217 149.5 Q229 130 248 119 Q267 108 295 108 Q319 108 342.5 118 Q366 128 384 144 L384 381 Z " />
<glyph glyph-name="r" unicode="r" horiz-adv-x="393" d="M387 384 Q336 389 288.5 376 Q241 363 208 337 L208 0 L57 0 L57 521 L186 521 L197 439 Q223 477 262 504.5 Q301 532 361 532 Q367 532 373.5 531.5 Q380 531 387 531 L387 384 Z " />
<glyph glyph-name="s" unicode="s" horiz-adv-x="501" d="M257 532 Q346 532 396 496 Q446 460 465 394 L341 355 Q331 388 312 407 Q293 426 251 426 Q185 426 185 380 Q185 366 193 356.5 Q201 347 215 341 Q229 335 248.5 331 Q268 327 291 323 Q325 317 358 308.5 Q391 300 416.5 283.5 Q442 267 458 238.5 Q474 210 474 164 Q474 119 456 86 Q438 53 407.5 31.5 Q377 10 335 -1 Q293 -12 245 -12 Q144 -12 90.5 27 Q37 66 23 131 L146 171 Q150 156 157 142 Q164 128 176 116.5 Q188 105 205.5 98.5 Q223 92 250 92 Q325 92 325 141 Q325 170 299.5 179.5 Q274 189 228 197 Q194 203 160.5 212 Q127 221 100 238.5 Q73 256 56.5 285 Q40 314 40 362 Q40 405 57.5 437 Q75 469 105 490 Q135 511 174 521.5 Q213 532 257 532 Z " />
<glyph glyph-name="t" unicode="t" horiz-adv-x="412" d="M404 25 Q384 12 342.5 0 Q301 -12 251 -12 Q169 -12 127 27.5 Q85 67 85 157 L85 411 L7 411 L7 521 L85 521 L85 675 L236 695 L236 521 L374 521 L374 411 L236 411 L236 178 Q236 143 248.5 125.5 Q261 108 297 108 Q320 108 344 115.5 Q368 123 383 132 L404 25 Z " />
<glyph glyph-name="u" unicode="u" horiz-adv-x="578" d="M55 521 L206 521 L206 192 Q206 150 221 130.5 Q236 111 272 111 Q301 111 328.5 124.5 Q356 138 371 152 L371 521 L522 521 L522 0 L392 0 L381 56 Q353 24 311 6.5 Q269 -11 215 -11 Q55 -11 55 162 L55 521 Z " />
<glyph glyph-name="v" unicode="v" horiz-adv-x="536" d="M180 0 L-4 521 L159 521 L270 145 L274 145 L385 521 L540 521 L356 0 L180 0 Z " />
<glyph glyph-name="w" unicode="w" horiz-adv-x="813" d="M150 0 L-4 521 L147 521 L242 155 L244 155 L336 521 L484 521 L576 157 L579 157 L670 521 L817 521 L662 0 L492 0 L408 340 L406 340 L329 0 L150 0 Z " />
<glyph glyph-name="x" unicode="x" horiz-adv-x="531" d="M350 268 L525 0 L364 0 L258 161 L155 0 L10 0 L180 261 L7 521 L170 521 L271 362 L375 521 L520 521 L350 268 Z " />
<glyph glyph-name="y" unicode="y" horiz-adv-x="526" d="M-4 521 L159 521 L268 158 L271 158 L376 521 L531 521 Q479 375 425.5 227.5 Q372 80 324 -51 Q307 -97 289.5 -129.5 Q272 -162 249.5 -183 Q227 -204 197.5 -213.5 Q168 -223 128 -223 Q97 -223 64 -216 Q31 -209 14 -201 L25 -92 Q46 -99 66.5 -103.5 Q87 -108 104 -108 Q130 -108 148 -95 Q166 -82 178 -52 L194 -11 L-4 521 Z " />
<glyph glyph-name="z" unicode="z" horiz-adv-x="466" d="M199 121 L445 121 L445 0 L27 0 L27 107 L267 408 L29 408 L29 521 L431 521 L431 414 L199 121 Z " />
<glyph glyph-name="ae" unicode="&#xe6;" horiz-adv-x="838" d="M580 -12 Q509 -12 462 9 Q415 30 386 66 Q343 24 296 6 Q249 -12 195 -12 Q144 -12 112.5 2.5 Q81 17 63.5 38 Q46 59 40 83 Q34 107 34 127 Q34 188 61 223.5 Q88 259 130.5 278 Q173 297 226.5 302 Q280 307 333 307 L333 328 Q333 350 330.5 367.5 Q328 385 320.5 397.5 Q313 410 298.5 416.5 Q284 423 259 423 Q221 423 204.5 406 Q188 389 180 351 L52 376 Q58 413 73 442 Q88 471 114.5 491 Q141 511 180 521.5 Q219 532 272 532 Q325 532 361 515.5 Q397 499 420 461 Q446 494 491 513 Q536 532 589 532 Q645 532 685.5 514.5 Q726 497 752.5 465.5 Q779 434 791.5 389.5 Q804 345 804 291 Q804 278 803.5 260 Q803 242 801 228 L484 228 Q485 160 512 132.5 Q539 105 589 105 Q630 105 648 125.5 Q666 146 674 179 L801 148 Q787 75 730.5 31.5 Q674 -12 580 -12 Z M247 95 Q272 95 300.5 106.5 Q329 118 349 135 Q341 155 337 176.5 Q333 198 331 221 L310 221 Q283 220 260 216.5 Q237 213 220.5 205.5 Q204 198 195 185 Q186 172 186 152 Q186 129 198.5 112 Q211 95 247 95 Z M648 319 Q650 377 629.5 400 Q609 423 572 423 Q556 423 540.5 417.5 Q525 412 513 399.5 Q501 387 493.5 367 Q486 347 486 319 L648 319 Z " />
<glyph glyph-name="ij" unicode="&#x133;" horiz-adv-x="534" d="M211 0 L60 0 L60 521 L211 521 L211 0 Z M227 681 Q227 637 203 613 Q179 589 136 589 Q92 589 68.5 613 Q45 637 45 681 Q45 725 68.5 748.5 Q92 772 136 772 Q179 772 203 748.5 Q227 725 227 681 Z M293 -223 Q252 -223 218 -214 Q184 -205 170 -195 L181 -82 Q194 -88 216.5 -95 Q239 -102 263 -102 Q290 -102 309 -86.5 Q328 -71 328 -24 L328 521 L479 521 L479 -41 Q479 -90 465.5 -124.5 Q452 -159 427.5 -181 Q403 -203 368.5 -213 Q334 -223 293 -223 Z M495 684 Q495 639 471.5 615 Q448 591 404 591 Q361 591 337 615 Q313 639 313 684 Q313 728 337 751 Q361 774 404 774 Q448 774 471.5 751 Q495 728 495 684 Z " />
<glyph glyph-name="eng" unicode="&#x14b;" horiz-adv-x="583" d="M344 -223 Q303 -223 269 -214 Q235 -205 221 -195 L232 -82 Q245 -88 267.5 -95 Q290 -102 314 -102 Q341 -102 360 -86.5 Q379 -71 379 -24 L379 330 Q379 372 362 391 Q345 410 310 410 Q279 410 251 396.5 Q223 383 208 369 L208 0 L57 0 L57 521 L191 521 L199 469 Q228 495 269.5 513.5 Q311 532 365 532 Q452 532 491 489 Q530 446 530 356 L530 -41 Q530 -90 516.5 -124.5 Q503 -159 478.5 -181 Q454 -203 419.5 -213 Q385 -223 344 -223 Z " />
<glyph glyph-name="eth" unicode="&#xf0;" horiz-adv-x="588" d="M31 249 Q31 302 45 348.5 Q59 395 87 430 Q115 465 157.5 485.5 Q200 506 257 506 Q288 506 317 499.5 Q346 493 377 479 L381 484 Q366 524 336.5 554.5 Q307 585 272.5 606.5 Q238 628 202.5 640.5 Q167 653 138 658 L192 780 Q242 771 282.5 755.5 Q323 740 358 718 L466 788 L532 694 L449 641 Q506 574 529.5 490.5 Q553 407 553 319 Q553 246 538.5 185 Q524 124 491.5 80.5 Q459 37 407.5 12.5 Q356 -12 283 -12 Q218 -12 170.5 7 Q123 26 92 60.5 Q61 95 46 143 Q31 191 31 249 Z M189 252 Q189 171 214 132 Q239 93 290 93 Q348 93 374 146 Q400 199 400 305 Q400 321 398.5 337 Q397 353 395 370 Q376 384 350 393.5 Q324 403 295 403 Q271 403 251 395.5 Q231 388 217.5 370.5 Q204 353 196.5 324 Q189 295 189 252 Z " />
<glyph glyph-name="oe" unicode="&#x153;" horiz-adv-x="899" d="M643 -12 Q607 -12 579.5 -4.5 Q552 3 531 15.5 Q510 28 494.5 44 Q479 60 468 78 Q441 38 395 13 Q349 -12 280 -12 Q214 -12 167.5 8 Q121 28 91 64 Q61 100 47.5 149.5 Q34 199 34 258 Q34 321 51 371.5 Q68 422 101 457.5 Q134 493 182 512.5 Q230 532 292 532 Q360 532 402.5 509 Q445 486 474 445 Q501 484 546 508 Q591 532 649 532 Q704 532 744.5 514.5 Q785 497 812 465.5 Q839 434 852 390 Q865 346 865 292 Q865 279 864.5 258 Q864 237 862 223 L545 223 Q547 158 573.5 131.5 Q600 105 650 105 Q691 105 710 126.5 Q729 148 735 179 L862 148 Q848 75 791 31.5 Q734 -12 643 -12 Z M295 100 Q345 100 370.5 137 Q396 174 396 263 Q396 349 372 383.5 Q348 418 298 418 Q247 418 219.5 382.5 Q192 347 192 262 Q192 175 215.5 137.5 Q239 100 295 100 Z M709 319 Q710 376 690 399.5 Q670 423 633 423 Q617 423 601.5 417.5 Q586 412 574 400 Q562 388 554.5 368 Q547 348 547 319 L709 319 Z " />
<glyph glyph-name="thorn" unicode="&#xfe;" horiz-adv-x="592" d="M59 755 L207 755 L207 474 Q239 505 277.5 518.5 Q316 532 362 532 Q402 532 437.5 518.5 Q473 505 499.5 474 Q526 443 541 393.5 Q556 344 556 272 Q556 194 539 140 Q522 86 493 52.5 Q464 19 425.5 3.5 Q387 -12 344 -12 Q296 -12 263.5 1.5 Q231 15 206 38 L206 -212 L59 -212 L59 755 Z M209 144 Q220 133 246 121 Q272 109 300 109 Q353 109 375.5 150.5 Q398 192 398 268 Q398 347 375 379.5 Q352 412 306 412 Q280 412 253 399 Q226 386 209 372 L209 144 Z " />
<glyph glyph-name="germandbls" unicode="&#xdf;" horiz-adv-x="656" d="M57 0 L57 513 Q57 585 77 633.5 Q97 682 132.5 712 Q168 742 216.5 755 Q265 768 322 768 Q439 768 503.5 718 Q568 668 568 576 Q568 538 557.5 510 Q547 482 530.5 461.5 Q514 441 495 428 Q476 415 458 408 L458 405 Q489 398 518.5 385.5 Q548 373 570.5 350.5 Q593 328 606.5 292.5 Q620 257 620 205 Q620 162 607.5 123 Q595 84 568.5 54 Q542 24 501.5 6 Q461 -12 405 -12 Q357 -12 311 2.5 Q265 17 232 60 L289 152 Q303 135 328.5 117 Q354 99 386 99 Q423 99 445.5 125.5 Q468 152 468 215 Q468 251 457 274 Q446 297 427.5 310.5 Q409 324 384.5 329 Q360 334 332 334 L297 334 L297 442 L314 442 Q343 442 362.5 450.5 Q382 459 394 474 Q406 489 411.5 509 Q417 529 417 553 Q417 610 389.5 635 Q362 660 317 660 Q293 660 272.5 654 Q252 648 238 633 Q224 618 216 591.5 Q208 565 208 523 L208 0 L57 0 Z " />
<glyph glyph-name="dotlessi" unicode="&#x131;" horiz-adv-x="268" d="M211 0 L60 0 L60 521 L211 521 L211 0 Z " />
<glyph glyph-name="kgreenlandic" unicode="&#x138;" horiz-adv-x="564" d="M210 339 L382 521 L549 521 L376 334 L562 0 L395 0 L260 238 L210 189 L210 0 L59 0 L59 521 L210 521 L210 339 Z " />
<glyph glyph-name="longs" unicode="&#x17f;" horiz-adv-x="299" d="M358 640 Q343 645 324.5 649 Q306 653 288 653 Q270 653 255.5 649.5 Q241 646 230.5 637 Q220 628 214 611 Q208 594 208 567 L208 0 L57 0 L57 581 Q57 629 71 664 Q85 699 110 721.5 Q135 744 170.5 755 Q206 766 249 766 Q290 766 320.5 759.5 Q351 753 364 747 L358 640 Z " />
<glyph glyph-name="dotlessj" unicode="&#x237;" horiz-adv-x="266" d="M25 -223 Q-16 -223 -50 -214 Q-84 -205 -98 -195 L-87 -82 Q-74 -88 -51.5 -95 Q-29 -102 -5 -102 Q22 -102 41 -86.5 Q60 -71 60 -24 L60 521 L211 521 L211 -41 Q211 -90 197.5 -124.5 Q184 -159 159.5 -181 Q135 -203 100.5 -213 Q66 -223 25 -223 Z " />
<glyph glyph-name="bracketleft" unicode="&#x5b;" horiz-adv-x="318" d="M55 -143 L55 724 L282 724 L282 626 L201 626 L201 -45 L282 -45 L282 -143 L55 -143 Z " />
<glyph glyph-name="bracketright" unicode="&#x5d;" horiz-adv-x="318" d="M263.007 -143 L263.007 724 L36.0344 724 L36.0344 626 L117.025 626 L117.025 -45 L36.0344 -45 L36.0344 -143 L263.007 -143 Z " />
<glyph glyph-name="parenleft" unicode="&#x28;" horiz-adv-x="363" d="M189 -153 Q162 -114 135.5 -66.5 Q109 -19 88 35.5 Q67 90 54.5 151 Q42 212 42 280 Q42 347 54.5 407.5 Q67 468 88.5 523 Q110 578 139 628 Q168 678 201 724 L357 724 Q324 676 296 627 Q268 578 247.5 524 Q227 470 215 410.5 Q203 351 203 283 Q203 214 215 153.5 Q227 93 247 40 Q267 -13 293 -60.5 Q319 -108 347 -153 L189 -153 Z " />
<glyph glyph-name="parenright" unicode="&#x29;" horiz-adv-x="363" d="M158.023 723.981 Q185.02 684.986 211.517 637.492 Q238.013 589.998 259.011 535.504 Q280.008 481.011 292.507 420.018 Q305.005 359.026 305.005 291.034 Q305.005 224.042 292.507 163.55 Q280.008 103.057 258.511 48.0638 Q237.013 -6.92944 208.017 -56.9233 Q179.021 -106.917 146.025 -152.912 L-9.95642 -152.912 Q23.0396 -104.917 51.0361 -55.9235 Q79.0327 -6.92944 99.5302 47.064 Q120.028 101.057 132.026 160.55 Q144.025 220.043 144.025 288.035 Q144.025 357.026 132.026 417.519 Q120.028 478.011 100.03 531.005 Q80.0326 583.998 54.0358 631.493 Q28.0389 678.987 0.0423584 723.981 L158.023 723.981 Z " />
<glyph glyph-name="braceleft" unicode="&#x7b;" horiz-adv-x="337" d="M304 -145 L228 -145 Q73 -145 73 -15 Q73 30 80 76 Q87 122 87 176 Q87 211 72 229.5 Q57 248 23 248 L2 248 L2 340 L23 340 Q58 340 72.5 359 Q87 378 87 412 Q87 466 80 515 Q73 564 73 607 Q73 675 112 706 Q151 737 228 737 L304 737 L304 636 L282 636 Q253 636 244 623.5 Q235 611 235 588 Q235 543 242.5 495 Q250 447 250 402 Q250 352 228 330 Q206 308 166 293 Q186 286 201.5 277.5 Q217 269 228 257 Q239 245 244.5 228 Q250 211 250 187 Q250 141 242.5 95.5 Q235 50 235 6 Q235 -17 244.5 -30.5 Q254 -44 286 -44 L304 -44 L304 -145 Z " />
<glyph glyph-name="braceright" unicode="&#x7d;" horiz-adv-x="337" d="M33 737 L109 737 Q264 737 264 607 Q264 562 257 516 Q250 470 250 416 Q250 381 265 362.5 Q280 344 314 344 L335 344 L335 252 L314 252 Q279 252 264.5 233 Q250 214 250 180 Q250 126 257 77 Q264 28 264 -15 Q264 -83 225 -114 Q186 -145 109 -145 L33 -145 L33 -44 L55 -44 Q84 -44 93 -31.5 Q102 -19 102 4 Q102 49 94.5 97 Q87 145 87 190 Q87 240 109 262 Q131 284 171 299 Q151 306 135.5 314.5 Q120 323 109 335 Q98 347 92.5 364 Q87 381 87 405 Q87 451 94.5 496.5 Q102 542 102 586 Q102 609 92.5 622.5 Q83 636 51 636 L33 636 L33 737 Z " />
<glyph glyph-name="backslash" unicode="&#x5c;" horiz-adv-x="446" d="M299 -92 L19 755 L156 755 L437 -92 L299 -92 Z " />
<glyph glyph-name="slash" unicode="&#x2f;" horiz-adv-x="443" d="M9 -92 L290 755 L427 755 L147 -92 L9 -92 Z " />
<glyph glyph-name="brokenbar" unicode="&#xa6;" horiz-adv-x="280" d="M72 -143 L72 245 L209 245 L209 -143 L72 -143 Z M72 417 L72 755 L209 755 L209 417 L72 417 Z " />
<glyph glyph-name="bar" unicode="&#x7c;" horiz-adv-x="280" d="M72 -143 L72 755 L209 755 L209 -143 L72 -143 Z " />
<glyph glyph-name="section" unicode="&#xa7;" horiz-adv-x="569" d="M41 236 Q41 282 63.5 317 Q86 352 131 381 Q108 403 90.5 435 Q73 467 73 515 Q73 561 91.5 597 Q110 633 142.5 658 Q175 683 217.5 696 Q260 709 308 709 Q351 709 388.5 699 Q426 689 455 666.5 Q484 644 502.5 608.5 Q521 573 526 522 L396 507 Q392 553 371.5 577.5 Q351 602 303 602 Q264 602 241 585 Q218 568 218 535 Q218 501 241.5 482.5 Q265 464 300 451 Q335 438 375.5 426.5 Q416 415 451 396 Q486 377 509.5 346 Q533 315 533 263 Q533 217 509 179.5 Q485 142 443 112 Q466 91 483 59.5 Q500 28 500 -19 Q500 -65 483.5 -101.5 Q467 -138 436.5 -163 Q406 -188 362.5 -201 Q319 -214 266 -214 Q222 -214 184.5 -204 Q147 -194 117.5 -172 Q88 -150 69.5 -115 Q51 -80 46 -29 L177 -14 Q181 -60 201.5 -84.5 Q222 -109 270 -109 Q309 -109 332.5 -91 Q356 -73 356 -39 Q356 -5 332.5 12.5 Q309 30 274 42 Q239 54 198.5 64.5 Q158 75 123 94.5 Q88 114 64.5 147 Q41 180 41 236 Z M176 270 Q176 245 191.5 229.5 Q207 214 232.5 203.5 Q258 193 289.5 184.5 Q321 176 353 164 Q373 176 385.5 191.5 Q398 207 398 227 Q398 251 381.5 265.5 Q365 280 338.5 290.5 Q312 301 279.5 309.5 Q247 318 215 331 Q176 306 176 270 Z " />
<glyph glyph-name="copyright" unicode="&#xa9;" horiz-adv-x="802" d="M753 340 Q753 261 727 196 Q701 131 654.5 85 Q608 39 543.5 13.5 Q479 -12 401 -12 Q314 -12 248.5 14 Q183 40 138.5 85 Q94 130 72 192 Q50 254 50 326 Q50 408 77.5 473.5 Q105 539 153 584 Q201 629 265.5 653 Q330 677 403 677 Q484 677 549 653 Q614 629 659.5 585 Q705 541 729 479 Q753 417 753 340 Z M403 67 Q465 67 514.5 85.5 Q564 104 598.5 138.5 Q633 173 651 222.5 Q669 272 669 334 Q669 399 649 448.5 Q629 498 594 531.5 Q559 565 510 582 Q461 599 403 599 Q346 599 297 581 Q248 563 212 528 Q176 493 156 442.5 Q136 392 136 327 Q136 205 206 136 Q276 67 403 67 Z M565 268 Q560 229 542.5 204 Q525 179 502 164.5 Q479 150 453.5 144.5 Q428 139 406 139 Q358 139 324 153.5 Q290 168 268.5 194.5 Q247 221 237.5 256.5 Q228 292 228 334 Q228 376 240 412 Q252 448 275 473.5 Q298 499 332 513.5 Q366 528 410 528 Q439 528 465.5 520 Q492 512 512.5 495.5 Q533 479 546 454 Q559 429 561 394 L488 386 Q483 426 463.5 444 Q444 462 406 462 Q365 462 337.5 432.5 Q310 403 310 332 Q310 306 314.5 283 Q319 260 330.5 242.5 Q342 225 360.5 214.5 Q379 204 406 204 Q448 204 467.5 225 Q487 246 494 281 L565 268 Z " />
<glyph glyph-name="registered" unicode="&#xae;" horiz-adv-x="465" d="M425 474 Q425 431 411 395.5 Q397 360 371.5 334.5 Q346 309 310 295 Q274 281 231 281 Q184 281 148.5 295.5 Q113 310 89 334.5 Q65 359 52.5 393 Q40 427 40 466 Q40 511 55 547 Q70 583 96.5 608 Q123 633 158 646.5 Q193 660 233 660 Q277 660 312.5 646.5 Q348 633 373 609 Q398 585 411.5 550.5 Q425 516 425 474 Z M375 471 Q375 541 334.5 577 Q294 613 233 613 Q203 613 177.5 603 Q152 593 132.5 574.5 Q113 556 102 529 Q91 502 91 468 Q91 403 129 366 Q167 329 233 329 Q299 329 337 367 Q375 405 375 471 Z M327 382 L274 382 L232 453 L215 453 L215 382 L168 382 L168 572 L239 572 Q281 572 296 555 Q311 538 311 517 Q311 495 300.5 483.5 Q290 472 276 467 L327 382 Z M228 487 Q244 487 253.5 492.5 Q263 498 263 513 Q263 527 254 532 Q245 537 233 537 L215 537 L215 487 L228 487 Z " />
<glyph glyph-name="trademark" unicode="&#x2122;" horiz-adv-x="856" d="M717 348 L717 587 L628 348 L565 348 L478 588 L478 349 L406 349 L406 724 L498 724 L600 440 L703 724 L790 724 L790 348 L717 348 Z M239 348 L159 348 L159 656 L41 656 L41 724 L358 724 L358 656 L239 656 L239 348 Z " />
<glyph glyph-name="ordfeminine" unicode="&#xaa;" horiz-adv-x="397" d="M341 378 Q341 360 349 354.5 Q357 349 379 356 L382 290 Q371 285 353.5 281 Q336 277 318 277 Q286 277 265.5 287.5 Q245 298 238 324 Q221 303 196 289.5 Q171 276 133 276 Q100 276 79 285.5 Q58 295 46 309 Q34 323 30 339 Q26 355 26 368 Q26 408 46.5 431.5 Q67 455 97 466.5 Q127 478 162 481.5 Q197 485 226 485 L226 498 Q226 520 219.5 535.5 Q213 551 182 551 Q160 551 149.5 540 Q139 529 135 505 L35 523 Q39 547 49.5 567 Q60 587 79 602 Q98 617 125.5 625 Q153 633 191 633 Q266 633 303.5 604.5 Q341 576 341 512 L341 378 Z M227 422 Q217 422 203 421.5 Q189 421 176 417 Q163 413 153.5 405.5 Q144 398 144 383 Q144 370 151.5 361.5 Q159 353 180 353 Q196 353 208 359 Q220 365 227 371 L227 422 Z " />
<glyph glyph-name="ordmasculine" unicode="&#xba;" horiz-adv-x="416" d="M203 276 Q153 276 119 289 Q85 302 64 325.5 Q43 349 34 381.5 Q25 414 25 453 Q25 536 70.5 584.5 Q116 633 213 633 Q261 633 295 620 Q329 607 350.5 584.5 Q372 562 381.5 530 Q391 498 391 461 Q391 376 346.5 326 Q302 276 203 276 Z M208 358 Q239 358 253.5 379 Q268 400 268 457 Q268 510 254.5 530 Q241 550 210 550 Q179 550 163.5 529 Q148 508 148 456 Q148 403 161.5 380.5 Q175 358 208 358 Z " />
<glyph glyph-name="guillemotleft" unicode="&#xab;" horiz-adv-x="464" d="M123 103 L37 257 L126 408 L248 408 L160 261 L244 103 L123 103 Z M309 103 L223 257 L312 408 L434 408 L346 261 L430 103 L309 103 Z " />
<glyph glyph-name="guillemotright" unicode="&#xbb;" horiz-adv-x="464" d="M153 408 L242 255 L155 103 L35 103 L119 256 L31 408 L153 408 Z M339 408 L428 255 L341 103 L221 103 L305 256 L217 408 L339 408 Z " />
<glyph glyph-name="guilsinglleft" unicode="&#x2039;" horiz-adv-x="279" d="M123 103 L37 257 L126 408 L248 408 L160 261 L244 103 L123 103 Z " />
<glyph glyph-name="guilsinglright" unicode="&#x203a;" horiz-adv-x="279" d="M153 408 L242 255 L155 103 L35 103 L119 256 L31 408 L153 408 Z " />
<glyph glyph-name="quoteleft" unicode="&#x2018;" horiz-adv-x="218" d="M164 546 L19 546 L108 791 L217 779 L164 546 Z " />
<glyph glyph-name="quoteright" unicode="&#x2019;" horiz-adv-x="218" d="M71.02 774.067 L216.002 774.067 L127.013 529.097 L18.0265 541.095 L71.02 774.067 Z " />
<glyph glyph-name="quotesinglbase" unicode="&#x201a;" horiz-adv-x="214" d="M55.02 95.0667 L200.002 95.0667 L111.013 -149.903 L2.02649 -137.905 L55.02 95.0667 Z " />
<glyph glyph-name="quotedblleft" unicode="&#x201c;" horiz-adv-x="401" d="M348 546 L203 546 L292 791 L401 779 L348 546 Z M164 546 L19 546 L108 791 L217 779 L164 546 Z " />
<glyph glyph-name="quotedblright" unicode="&#x201d;" horiz-adv-x="401" d="M253.02 774.067 L398.002 774.067 L309.013 529.097 L200.026 541.095 L253.02 774.067 Z M71.02 774.067 L216.002 774.067 L127.013 529.097 L18.0265 541.095 L71.02 774.067 Z " />
<glyph glyph-name="quotedblbase" unicode="&#x201e;" horiz-adv-x="399" d="M55.02 95.0667 L200.002 95.0667 L111.013 -149.903 L2.02649 -137.905 L55.02 95.0667 Z M239.02 95.0667 L384.002 95.0667 L295.013 -149.903 L186.026 -137.905 L239.02 95.0667 Z " />
<glyph glyph-name="dagger" unicode="&#x2020;" horiz-adv-x="440" d="M270 459 L289 -83 L151 -83 L169 460 L20 444 L20 566 L169 550 L154 724 L286 724 L270 551 L420 566 L420 444 L270 459 Z " />
<glyph glyph-name="daggerdbl" unicode="&#x2021;" horiz-adv-x="446" d="M274 459 L274 181 L423 197 L423 75 L274 91 L289 -83 L157 -83 L173 90 L23 75 L23 197 L172 182 L172 460 L23 444 L23 566 L172 550 L157 724 L289 724 L273 551 L423 566 L423 444 L274 459 Z " />
<glyph glyph-name="bullet" unicode="&#x2022;" horiz-adv-x="460" d="M381 279 Q381 205 342.5 169 Q304 133 230 133 Q157 133 118 169 Q79 205 79 279 Q79 353 118 389.5 Q157 426 230 426 Q304 426 342.5 389.5 Q381 353 381 279 Z " />
<glyph glyph-name="periodcentered" unicode="&#xb7;" horiz-adv-x="238" d="M205 309 Q205 230 120 230 Q34 230 34 309 Q34 389 120 389 Q205 389 205 309 Z " />
<glyph glyph-name="ellipsis" unicode="&#x2026;" horiz-adv-x="722" d="M219 76 Q219 -12 126 -12 Q33 -12 33 76 Q33 165 126 165 Q219 165 219 76 Z M457 76 Q457 -12 364 -12 Q271 -12 271 76 Q271 165 364 165 Q457 165 457 76 Z M690 76 Q690 -12 597 -12 Q504 -12 504 76 Q504 165 597 165 Q690 165 690 76 Z " />
<glyph glyph-name="paragraph" unicode="&#xb6;" horiz-adv-x="601" d="M530 -133 L425 -133 L425 630 L359 630 L359 -133 L254 -133 L254 244 Q143 251 90.5 311.5 Q38 372 38 475 Q38 544 60 591.5 Q82 639 120 668.5 Q158 698 209.5 711 Q261 724 320 724 L529 724 L530 -133 Z " />
<glyph glyph-name="uni00AD" unicode="&#xad;" horiz-adv-x="311" d="M20 227 L20 356 L291 356 L291 227 L20 227 Z " />
<glyph glyph-name="endash" unicode="&#x2013;" horiz-adv-x="500" d="M0 225 L0 336 L500 336 L500 225 L0 225 Z " />
<glyph glyph-name="emdash" unicode="&#x2014;" horiz-adv-x="1000" d="M0 225 L0 336 L1000 336 L1000 225 L0 225 Z " />
<glyph glyph-name="zero" unicode="0" horiz-adv-x="585" d="M289 -12 Q214 -12 164.5 13 Q115 38 85.5 86 Q56 134 43.5 204 Q31 274 31 364 Q31 454 45 523.5 Q59 593 90.5 640.5 Q122 688 173 712.5 Q224 737 299 737 Q374 737 423.5 712.5 Q473 688 502 641 Q531 594 542.5 526 Q554 458 554 372 Q554 279 540.5 207 Q527 135 496.5 86.5 Q466 38 415 13 Q364 -12 289 -12 Z M293 106 Q323 106 343 120.5 Q363 135 374 166.5 Q385 198 389.5 247.5 Q394 297 394 366 Q394 433 390 481 Q386 529 375.5 559.5 Q365 590 346 604 Q327 618 297 618 Q266 618 246 604 Q226 590 214 559.5 Q202 529 197 480.5 Q192 432 192 363 Q192 295 196 246.5 Q200 198 211.5 167 Q223 136 242.5 121 Q262 106 293 106 Z " />
<glyph glyph-name="one" unicode="1" horiz-adv-x="442" d="M193 0 L193 544 Q180 537 159 531.5 Q138 526 115 522 Q92 518 71 515.5 Q50 513 38 513 L31 641 Q98 646 151 665.5 Q204 685 240 724 L343 724 L343 0 L193 0 Z " />
<glyph glyph-name="two" unicode="2" horiz-adv-x="542" d="M277 737 Q386 737 440.5 688.5 Q495 640 495 550 Q495 511 485.5 478 Q476 445 457 412 Q438 379 408.5 343 Q379 307 339 263 L221 133 L221 130 L506 130 L506 0 L44 0 L44 126 L199 307 Q233 346 260 377.5 Q287 409 305.5 436 Q324 463 333.5 488.5 Q343 514 343 542 Q343 578 323.5 598 Q304 618 262 618 Q214 618 192.5 590 Q171 562 163 511 L27 534 Q33 588 54 626 Q75 664 108 689 Q141 714 184 725.5 Q227 737 277 737 Z " />
<glyph glyph-name="three" unicode="3" horiz-adv-x="555" d="M155 200 Q161 154 183.5 129.5 Q206 105 257 105 Q300 105 329.5 130.5 Q359 156 359 213 Q359 271 329 294 Q299 317 242 317 L171 317 L171 431 L218 431 Q282 431 315.5 460.5 Q349 490 349 541 Q349 577 331.5 599 Q314 621 267 621 Q220 621 198.5 598 Q177 575 167 531 L37 557 Q47 608 70.5 642.5 Q94 677 126.5 698 Q159 719 199 728 Q239 737 281 737 Q386 737 442 691 Q498 645 498 561 Q498 525 486 497 Q474 469 454.5 448 Q435 427 411 412.5 Q387 398 362 390 L362 386 Q434 369 473.5 326.5 Q513 284 513 205 Q513 155 495 114.5 Q477 74 443.5 46 Q410 18 362.5 3 Q315 -12 257 -12 Q214 -12 174 -2.5 Q134 7 101.5 29 Q69 51 47.5 87 Q26 123 20 175 L155 200 Z " />
<glyph glyph-name="four" unicode="4" horiz-adv-x="597" d="M351 0 L351 162 L27 162 L27 269 L314 724 L498 724 L498 284 L579 284 L579 162 L497 162 L497 0 L351 0 Z M351 284 L351 586 L160 284 L351 284 Z " />
<glyph glyph-name="five" unicode="5" horiz-adv-x="560" d="M91 724 L472 724 L472 594 L201 594 L184 413 Q207 433 240.5 447 Q274 461 322 461 Q362 461 397 448.5 Q432 436 458 409.5 Q484 383 499 341 Q514 299 514 240 Q514 181 495.5 134 Q477 87 443.5 54.5 Q410 22 362 5 Q314 -12 255 -12 Q211 -12 171.5 -2.5 Q132 7 100.5 29 Q69 51 47.5 86.5 Q26 122 19 174 L150 201 Q156 158 180 132.5 Q204 107 255 107 Q277 107 296.5 114.5 Q316 122 331 137.5 Q346 153 355 177 Q364 201 364 234 Q364 267 356 288.5 Q348 310 334.5 322.5 Q321 335 303.5 340 Q286 345 268 345 Q236 345 209 331 Q182 317 162 297 L64 338 L91 724 Z " />
<glyph glyph-name="six" unicode="6" horiz-adv-x="578" d="M405 532 Q397 583 376 601.5 Q355 620 320 620 Q286 620 262 599.5 Q238 579 222.5 546 Q207 513 199.5 472 Q192 431 192 390 Q218 413 258 429 Q298 445 348 445 Q391 445 427 432 Q463 419 488.5 393 Q514 367 528.5 327.5 Q543 288 543 236 Q543 172 524 125.5 Q505 79 472 48.5 Q439 18 394 3 Q349 -12 297 -12 Q222 -12 173.5 15.5 Q125 43 97 91 Q69 139 58 204 Q47 269 47 344 Q47 386 52 431.5 Q57 477 69.5 521 Q82 565 103 604 Q124 643 155.5 672.5 Q187 702 230.5 719.5 Q274 737 332 737 Q369 737 402 729 Q435 721 462 701.5 Q489 682 509 650 Q529 618 539 569 L405 532 Z M200 287 Q201 251 205 217.5 Q209 184 220 158.5 Q231 133 250 118 Q269 103 301 103 Q346 103 368 136 Q390 169 390 225 Q390 279 371 305.5 Q352 332 305 332 Q278 332 249 318 Q220 304 200 287 Z " />
<glyph glyph-name="seven" unicode="7" horiz-adv-x="531" d="M70 -1 L349 594 L31 594 L31 724 L506 724 L506 608 L230 -1 L70 -1 Z " />
<glyph glyph-name="eight" unicode="8" horiz-adv-x="569" d="M409 394 Q482 361 515 317 Q548 273 548 198 Q548 155 529 116.5 Q510 78 475 49.5 Q440 21 389.5 4.5 Q339 -12 275 -12 Q209 -12 161 3.5 Q113 19 82 45 Q51 71 36 105 Q21 139 21 177 Q21 243 54 290.5 Q87 338 160 371 Q99 400 74 443.5 Q49 487 49 538 Q49 585 67 622 Q85 659 117.5 684.5 Q150 710 195.5 723.5 Q241 737 297 737 Q411 737 470 690.5 Q529 644 529 568 Q529 506 497 467 Q465 428 409 394 Z M254 315 Q219 295 194 267 Q169 239 169 193 Q169 152 194 127.5 Q219 103 278 103 Q333 103 360 129 Q387 155 387 192 Q387 218 376 236.5 Q365 255 346 269.5 Q327 284 303 294.5 Q279 305 254 315 Z M308 445 Q343 466 363.5 494.5 Q384 523 384 556 Q384 591 363 609.5 Q342 628 294 628 Q254 628 229.5 610 Q205 592 205 559 Q205 519 232 494 Q259 469 308 445 Z " />
<glyph glyph-name="nine" unicode="9" horiz-adv-x="577" d="M165 200 Q174 149 196 126 Q218 103 260 103 Q293 103 317 121.5 Q341 140 356.5 171.5 Q372 203 380 244.5 Q388 286 389 332 Q363 309 322.5 294.5 Q282 280 232 280 Q189 280 153 293 Q117 306 91.5 332 Q66 358 51.5 398 Q37 438 37 492 Q37 555 56.5 601 Q76 647 110 677 Q144 707 189.5 722 Q235 737 288 737 Q361 737 408 709.5 Q455 682 483 634 Q511 586 522 521 Q533 456 533 381 Q533 315 522.5 245 Q512 175 482 118 Q452 61 398 24.5 Q344 -12 256 -12 Q215 -12 178 -4 Q141 4 111.5 24 Q82 44 61 77 Q40 110 31 160 L165 200 Z M380 435 Q378 474 374 508 Q370 542 359.5 567 Q349 592 329.5 606.5 Q310 621 279 621 Q234 621 212 589.5 Q190 558 190 501 Q190 447 210 418.5 Q230 390 276 390 Q303 390 330.5 402.5 Q358 415 380 435 Z " />
<glyph glyph-name="dollar" unicode="&#x24;" horiz-adv-x="550" d="M276 594 Q229 594 208 574 Q187 554 187 523 Q187 478 220.5 455.5 Q254 433 316 417 Q353 407 390 394 Q427 381 456 358.5 Q485 336 503.5 300.5 Q522 265 522 211 Q522 164 507 127 Q492 90 465.5 64 Q439 38 403.5 21.5 Q368 5 327 -2 L327 -82 L199 -82 L199 -2 Q166 2 135 14 Q104 26 79 49 Q54 72 37 108.5 Q20 145 14 198 L146 223 Q150 195 157.5 174 Q165 153 178.5 138.5 Q192 124 214 116.5 Q236 109 269 109 Q316 109 345 128.5 Q374 148 374 190 Q374 215 362.5 231 Q351 247 332 258 Q313 269 288 276.5 Q263 284 236 292 Q200 302 164 315.5 Q128 329 99 352 Q70 375 52 411 Q34 447 34 501 Q34 543 47.5 576.5 Q61 610 84.5 635 Q108 660 139.5 677 Q171 694 207 702 L207 792 L334 792 L334 703 Q368 699 398 686.5 Q428 674 451 651.5 Q474 629 488.5 595.5 Q503 562 506 515 L372 499 Q365 546 345.5 570 Q326 594 276 594 Z " />
<glyph glyph-name="Euro" unicode="&#x20ac;" horiz-adv-x="645" d="M372 -12 Q255 -12 189 49 Q123 110 103 235 L10 235 L25 323 L95 323 L95 385 L33 385 L48 473 L104 473 Q127 601 198.5 669.5 Q270 738 387 738 Q436 738 478.5 725.5 Q521 713 552.5 685 Q584 657 603 611.5 Q622 566 625 500 L493 486 Q488 557 464 585.5 Q440 614 386 614 Q329 614 297.5 578 Q266 542 254 473 L448 473 L433 385 L246 385 L246 323 L425 323 L410 235 L256 235 Q269 172 298.5 142.5 Q328 113 379 113 Q408 113 427.5 120.5 Q447 128 460.5 143 Q474 158 482 179.5 Q490 201 496 228 L622 206 Q614 142 588.5 100 Q563 58 528 33 Q493 8 452 -2 Q411 -12 372 -12 Z " />
<glyph glyph-name="cent" unicode="&#xa2;" horiz-adv-x="537" d="M355 711 L355 607 Q421 595 462 548.5 Q503 502 509 428 L373 408 Q368 454 351.5 476 Q335 498 297 498 Q276 498 258.5 492.5 Q241 487 227.5 472 Q214 457 206.5 431.5 Q199 406 199 366 Q199 295 221 259 Q243 223 297 223 Q339 223 358 243.5 Q377 264 385 310 L511 287 Q500 212 456 168.5 Q412 125 347 112 L347 0 L220 0 L220 112 Q131 129 87.5 194 Q44 259 44 351 Q44 457 92.5 521.5 Q141 586 228 605 L228 711 L355 711 Z " />
<glyph glyph-name="sterling" unicode="&#xa3;" horiz-adv-x="593" d="M75 120 Q110 151 126.5 178 Q143 205 143 243 Q143 275 126 312 L30 312 L30 422 L95 422 Q83 443 69 473.5 Q55 504 55 543 Q55 586 72 622 Q89 658 121.5 683.5 Q154 709 200 723 Q246 737 304 737 Q404 737 463 693.5 Q522 650 538 546 L404 523 Q401 544 395 562.5 Q389 581 378 595 Q367 609 349 617 Q331 625 304 625 Q212 625 212 541 Q212 509 225 479 Q238 449 252 422 L445 422 L445 312 L280 312 Q291 284 291 252 Q291 214 277.5 183.5 Q264 153 230 120 L335 120 Q366 120 386 125 Q406 130 419 141 Q432 152 438.5 170.5 Q445 189 450 215 L577 193 Q569 92 515 46 Q461 0 349 0 L16 0 L16 120 L75 120 Z " />
<glyph glyph-name="yen" unicode="&#xa5;" horiz-adv-x="574" d="M407 417 L495 417 L495 323 L366 323 L366 254 L495 254 L495 160 L366 160 L366 0 L215 0 L215 160 L88 160 L88 254 L215 254 L215 323 L88 323 L88 417 L171 417 L12 724 L174 724 L293 471 L297 471 L412 724 L563 724 L407 417 Z " />
<glyph glyph-name="florin" unicode="&#x192;" horiz-adv-x="578" d="M475 565 Q468 593 457 613 Q446 633 418 633 Q391 633 377.5 617.5 Q364 602 358 569 L335 448 L466 448 L451 351 L319 351 L251 -4 Q243 -48 228 -81.5 Q213 -115 189 -137 Q165 -159 130.5 -170 Q96 -181 47 -181 Q8 -181 -20.5 -171 Q-49 -161 -69.5 -143 Q-90 -125 -103 -101.5 Q-116 -78 -123 -51 L-3 -9 Q4 -37 15.5 -56 Q27 -75 56 -75 Q83 -75 95 -60.5 Q107 -46 114 -12 L183 351 L91 351 L107 448 L200 448 L222 559 Q231 603 245.5 636.5 Q260 670 284 692.5 Q308 715 342.5 726 Q377 737 425 737 Q464 737 492.5 727 Q521 717 541.5 699.5 Q562 682 574.5 658.5 Q587 635 594 608 L475 565 Z " />
<glyph glyph-name="percent" unicode="&#x25;" horiz-adv-x="831" d="M188 375 Q140 375 108 389 Q76 403 56.5 427 Q37 451 28.5 483 Q20 515 20 551 Q20 636 62.5 687 Q105 738 196 738 Q241 738 272.5 725.5 Q304 713 324.5 690.5 Q345 668 354 636 Q363 604 363 564 Q363 478 319.5 426.5 Q276 375 188 375 Z M193 463 Q224 463 237 486 Q250 509 250 560 Q250 606 237.5 627.5 Q225 649 193 649 Q162 649 148.5 626 Q135 603 135 558 Q135 509 148 486 Q161 463 193 463 Z M630 -12 Q582 -12 550 2 Q518 16 498.5 40 Q479 64 470.5 96 Q462 128 462 164 Q462 249 504.5 300 Q547 351 638 351 Q683 351 714.5 338.5 Q746 326 766.5 303.5 Q787 281 796 249 Q805 217 805 177 Q805 91 761.5 39.5 Q718 -12 630 -12 Z M635 76 Q666 76 679 99 Q692 122 692 173 Q692 219 679.5 240.5 Q667 262 635 262 Q604 262 590.5 239 Q577 216 577 171 Q577 122 590 99 Q603 76 635 76 Z M120 -13 L558 724 L690 724 L253 -13 L120 -13 Z " />
<glyph glyph-name="perthousand" unicode="&#x2030;" horiz-adv-x="1065" d="M187 412 Q145 412 116.5 423.5 Q88 435 70 456 Q52 477 44 506 Q36 535 36 570 Q36 651 76.5 694 Q117 737 194 737 Q273 737 309 695.5 Q345 654 345 579 Q345 500 304.5 456 Q264 412 187 412 Z M73 -13 L511 724 L643 724 L206 -13 L73 -13 Z M191 491 Q217 491 228.5 510 Q240 529 240 577 Q240 620 229 638.5 Q218 657 192 657 Q166 657 153.5 637.5 Q141 618 141 576 Q141 530 153 510.5 Q165 491 191 491 Z M534 -12 Q492 -12 463.5 -0.5 Q435 11 417 32 Q399 53 391 82 Q383 111 383 146 Q383 227 423.5 270 Q464 313 541 313 Q620 313 656 271.5 Q692 230 692 155 Q692 76 651.5 32 Q611 -12 534 -12 Z M537 68 Q563 68 575 86.5 Q587 105 587 153 Q587 196 575.5 214 Q564 232 538 232 Q512 232 500 213 Q488 194 488 152 Q488 106 499.5 87 Q511 68 537 68 Z M871 -12 Q829 -12 800.5 -0.5 Q772 11 754 32 Q736 53 728 82 Q720 111 720 146 Q720 227 760.5 270 Q801 313 878 313 Q957 313 993 271.5 Q1029 230 1029 155 Q1029 76 988.5 32 Q948 -12 871 -12 Z M874 68 Q900 68 912 86.5 Q924 105 924 153 Q924 196 912.5 214 Q901 232 875 232 Q849 232 837 213 Q825 194 825 152 Q825 106 836.5 87 Q848 68 874 68 Z " />
<glyph glyph-name="afii61352" unicode="&#x2116;" horiz-adv-x="1067" d="M425 0 L218 503 L218 0 L77 0 L77 724 L262 724 L463 218 L463 724 L603 724 L603 0 L425 0 Z M682 335 L1012 335 L1012 242 L682 242 L682 335 Z M843 371 Q793 371 758.5 384 Q724 397 701.5 421 Q679 445 669 477.5 Q659 510 659 549 Q659 631 705.5 680 Q752 729 849 729 Q898 729 932.5 716 Q967 703 988.5 680 Q1010 657 1020 625.5 Q1030 594 1030 556 Q1030 472 985 421.5 Q940 371 843 371 Z M845 462 Q874 462 890.5 480 Q907 498 907 552 Q907 604 891.5 622 Q876 640 848 640 Q819 640 800.5 622.5 Q782 605 782 552 Q782 498 799 480 Q816 462 845 462 Z " />
<glyph glyph-name="currency" unicode="&#xa4;" horiz-adv-x="570" d="M475 -4 L388 82 Q364 68 334.5 60 Q305 52 269 52 Q233 52 202 61 Q171 70 148 84 Q141 76 128.5 63.5 Q116 51 102.5 37.5 Q89 24 77.5 12.5 Q66 1 61 -4 L-19 78 L72 169 Q60 194 54 222.5 Q48 251 48 280 Q48 335 74 384 L-16 473 L67 557 L152 473 Q205 506 276 506 Q350 506 398 476 L480 556 L558 474 L474 389 Q497 341 497 284 Q497 254 489.5 224 Q482 194 468 168 L558 79 L475 -4 Z M274 163 Q324 163 349 197 Q374 231 374 280 Q374 334 348.5 364 Q323 394 271 394 Q221 394 196 362 Q171 330 171 280 Q171 231 195.5 197 Q220 163 274 163 Z " />
<glyph glyph-name="Aacute" unicode="&#xc1;" horiz-adv-x="709" d="M443 724 L699 0 L530 0 L470 176 L229 176 L173 0 L14 0 L251 724 L443 724 Z M348 579 L344 579 L255 299 L438 299 L348 579 Z M365 768 L258 776 L349 916 L511 916 L365 768 Z " />
<glyph glyph-name="Abreve" unicode="&#x102;" horiz-adv-x="709" d="M443 724 L699 0 L530 0 L470 176 L229 176 L173 0 L14 0 L251 724 L443 724 Z M348 579 L344 579 L255 299 L438 299 L348 579 Z M351 861 Q383 861 401 875.5 Q419 890 427 928 L523 922 Q515 841 467.5 805 Q420 769 346 769 Q274 769 229.5 804.5 Q185 840 180 920 L280 930 Q286 892 302.5 876.5 Q319 861 351 861 Z " />
<glyph glyph-name="Acircumflex" unicode="&#xc2;" horiz-adv-x="709" d="M443 724 L699 0 L530 0 L470 176 L229 176 L173 0 L14 0 L251 724 L443 724 Z M348 579 L344 579 L255 299 L438 299 L348 579 Z M348 841 L273 768 L171 775 L278 917 L418 917 L520 775 L420 769 L348 841 Z " />
<glyph glyph-name="Adieresis" unicode="&#xc4;" horiz-adv-x="709" d="M443 724 L699 0 L530 0 L470 176 L229 176 L173 0 L14 0 L251 724 L443 724 Z M348 579 L344 579 L255 299 L438 299 L348 579 Z M317 858 Q317 820 292.5 797.5 Q268 775 229 775 Q188 775 163 797.5 Q138 820 138 858 Q138 896 163 919 Q188 942 229 942 Q268 942 292.5 919 Q317 896 317 858 Z M552 858 Q552 820 528 797.5 Q504 775 464 775 Q423 775 398.5 797.5 Q374 820 374 858 Q374 896 398.5 919 Q423 942 464 942 Q504 942 528 919 Q552 896 552 858 Z " />
<glyph glyph-name="AEacute" unicode="&#x1fc;" horiz-adv-x="1003" d="M644 130 L968 130 L968 0 L490 0 L490 286 L312 286 L176 0 L13 0 L366 724 L949 724 L949 594 L644 594 L644 413 L931 413 L931 288 L644 288 L644 130 Z M490 594 L447 594 L357 408 L490 408 L490 594 Z M682 768 L575 776 L666 916 L828 916 L682 768 Z " />
<glyph glyph-name="Agrave" unicode="&#xc0;" horiz-adv-x="709" d="M443 724 L699 0 L530 0 L470 176 L229 176 L173 0 L14 0 L251 724 L443 724 Z M348 579 L344 579 L255 299 L438 299 L348 579 Z M180 916 L342 916 L433 776 L326 768 L180 916 Z " />
<glyph glyph-name="Amacron" unicode="&#x100;" horiz-adv-x="709" d="M443 724 L699 0 L530 0 L470 176 L229 176 L173 0 L14 0 L251 724 L443 724 Z M348 579 L344 579 L255 299 L438 299 L348 579 Z M187 784 L187 887 L504 887 L504 784 L187 784 Z " />
<glyph glyph-name="Aogonek" unicode="&#x104;" horiz-adv-x="709" d="M730 -139 Q713 -188 675.5 -214 Q638 -240 590 -240 Q533 -240 503.5 -214.5 Q474 -189 474 -142 Q474 -97 501.5 -63 Q529 -29 575 0 L530 0 L470 176 L229 176 L173 0 L14 0 L251 724 L443 724 L699 0 Q642 -26 614 -57 Q586 -88 586 -117 Q586 -150 617 -150 Q631 -150 643 -140.5 Q655 -131 665 -109 L730 -139 Z M348 579 L344 579 L255 299 L438 299 L348 579 Z " />
<glyph glyph-name="Aring" unicode="&#xc5;" horiz-adv-x="709" d="M472 798 Q472 749 445 719 L699 0 L530 0 L470 176 L229 176 L173 0 L14 0 L248 717 Q221 747 221 793 Q221 823 231 846 Q241 869 258 884 Q275 899 297.5 906.5 Q320 914 346 914 Q372 914 395 906.5 Q418 899 435 884.5 Q452 870 462 848.5 Q472 827 472 798 Z M348 579 L344 579 L255 299 L438 299 L348 579 Z M346 747 Q369 747 383 760 Q397 773 397 800 Q397 826 383 838 Q369 850 346 850 Q323 850 307.5 837.5 Q292 825 292 799 Q292 773 306.5 760 Q321 747 346 747 Z " />
<glyph glyph-name="Aringacute" unicode="&#x1fa;" horiz-adv-x="709" d="M472 798 Q472 749 445 719 L699 0 L530 0 L470 176 L229 176 L173 0 L14 0 L248 717 Q221 747 221 793 Q221 823 231 846 Q241 869 258 884 Q275 899 297.5 906.5 Q320 914 346 914 Q372 914 395 906.5 Q418 899 435 884.5 Q452 870 462 848.5 Q472 827 472 798 Z M348 579 L344 579 L255 299 L438 299 L348 579 Z M346 747 Q369 747 383 760 Q397 773 397 800 Q397 826 383 838 Q369 850 346 850 Q323 850 307.5 837.5 Q292 825 292 799 Q292 773 306.5 760 Q321 747 346 747 Z M372 941 L265 949 L356 1089 L518 1089 L372 941 Z " />
<glyph glyph-name="Atilde" unicode="&#xc3;" horiz-adv-x="709" d="M443 724 L699 0 L530 0 L470 176 L229 176 L173 0 L14 0 L251 724 L443 724 Z M348 579 L344 579 L255 299 L438 299 L348 579 Z M271 930 Q295 930 315 923.5 Q335 917 352.5 908.5 Q370 900 386 893.5 Q402 887 419 887 Q436 887 442.5 896.5 Q449 906 449 931 L525 927 Q532 865 509.5 825.5 Q487 786 434 786 Q408 786 387 793 Q366 800 348 808 Q330 816 314 823 Q298 830 282 830 Q266 830 258 820.5 Q250 811 254 783 L172 786 Q164 852 192 891 Q220 930 271 930 Z " />
<glyph glyph-name="Cacute" unicode="&#x106;" horiz-adv-x="695" d="M372 -12 Q282 -12 218.5 13.5 Q155 39 115 87 Q75 135 56.5 202.5 Q38 270 38 354 Q38 440 60.5 510.5 Q83 581 127.5 631.5 Q172 682 237 709.5 Q302 737 387 737 Q448 737 499 722 Q550 707 587.5 675.5 Q625 644 647 594.5 Q669 545 672 477 L531 465 Q524 543 489.5 576.5 Q455 610 385 610 Q296 610 246.5 550.5 Q197 491 197 362 Q197 295 208.5 248 Q220 201 242.5 171.5 Q265 142 298 128.5 Q331 115 374 115 Q413 115 440 124.5 Q467 134 485 151.5 Q503 169 514 192.5 Q525 216 531 245 L670 221 Q661 156 632 111.5 Q603 67 561.5 39.5 Q520 12 470.5 0 Q421 -12 372 -12 Z M405 768 L298 776 L389 916 L551 916 L405 768 Z " />
<glyph glyph-name="Ccaron" unicode="&#x10c;" horiz-adv-x="695" d="M372 -12 Q282 -12 218.5 13.5 Q155 39 115 87 Q75 135 56.5 202.5 Q38 270 38 354 Q38 440 60.5 510.5 Q83 581 127.5 631.5 Q172 682 237 709.5 Q302 737 387 737 Q448 737 499 722 Q550 707 587.5 675.5 Q625 644 647 594.5 Q669 545 672 477 L531 465 Q524 543 489.5 576.5 Q455 610 385 610 Q296 610 246.5 550.5 Q197 491 197 362 Q197 295 208.5 248 Q220 201 242.5 171.5 Q265 142 298 128.5 Q331 115 374 115 Q413 115 440 124.5 Q467 134 485 151.5 Q503 169 514 192.5 Q525 216 531 245 L670 221 Q661 156 632 111.5 Q603 67 561.5 39.5 Q520 12 470.5 0 Q421 -12 372 -12 Z M385 846 L460 919 L562 912 L455 770 L315 770 L213 912 L313 918 L385 846 Z " />
<glyph glyph-name="Ccedilla" unicode="&#xc7;" horiz-adv-x="695" d="M282 -162 Q294 -165 305.5 -167 Q317 -169 330 -169 Q353 -169 366.5 -160.5 Q380 -152 380 -132 Q380 -109 363 -102.5 Q346 -96 316 -95 L327 -10 Q249 -4 194.5 24.5 Q140 53 105 100 Q70 147 54 211 Q38 275 38 354 Q38 440 60.5 510.5 Q83 581 127.5 631.5 Q172 682 237 709.5 Q302 737 387 737 Q448 737 499 722 Q550 707 587.5 675.5 Q625 644 647 594.5 Q669 545 672 477 L531 465 Q524 543 489.5 576.5 Q455 610 385 610 Q296 610 246.5 550.5 Q197 491 197 362 Q197 295 208.5 248 Q220 201 242.5 171.5 Q265 142 298 128.5 Q331 115 374 115 Q413 115 440 124.5 Q467 134 485 151.5 Q503 169 514 192.5 Q525 216 531 245 L670 221 Q662 161 635.5 118 Q609 75 572 47.5 Q535 20 490 6 Q445 -8 399 -11 L395 -45 Q411 -48 426.5 -54 Q442 -60 454 -71 Q466 -82 473 -98 Q480 -114 480 -137 Q480 -192 442.5 -219 Q405 -246 349 -246 Q303 -246 267 -232 L282 -162 Z " />
<glyph glyph-name="Ccircumflex" unicode="&#x108;" horiz-adv-x="695" d="M372 -12 Q282 -12 218.5 13.5 Q155 39 115 87 Q75 135 56.5 202.5 Q38 270 38 354 Q38 440 60.5 510.5 Q83 581 127.5 631.5 Q172 682 237 709.5 Q302 737 387 737 Q448 737 499 722 Q550 707 587.5 675.5 Q625 644 647 594.5 Q669 545 672 477 L531 465 Q524 543 489.5 576.5 Q455 610 385 610 Q296 610 246.5 550.5 Q197 491 197 362 Q197 295 208.5 248 Q220 201 242.5 171.5 Q265 142 298 128.5 Q331 115 374 115 Q413 115 440 124.5 Q467 134 485 151.5 Q503 169 514 192.5 Q525 216 531 245 L670 221 Q661 156 632 111.5 Q603 67 561.5 39.5 Q520 12 470.5 0 Q421 -12 372 -12 Z M388 841 L313 768 L211 775 L318 917 L458 917 L560 775 L460 769 L388 841 Z " />
<glyph glyph-name="Cdotaccent" unicode="&#x10a;" horiz-adv-x="695" d="M372 -12 Q282 -12 218.5 13.5 Q155 39 115 87 Q75 135 56.5 202.5 Q38 270 38 354 Q38 440 60.5 510.5 Q83 581 127.5 631.5 Q172 682 237 709.5 Q302 737 387 737 Q448 737 499 722 Q550 707 587.5 675.5 Q625 644 647 594.5 Q669 545 672 477 L531 465 Q524 543 489.5 576.5 Q455 610 385 610 Q296 610 246.5 550.5 Q197 491 197 362 Q197 295 208.5 248 Q220 201 242.5 171.5 Q265 142 298 128.5 Q331 115 374 115 Q413 115 440 124.5 Q467 134 485 151.5 Q503 169 514 192.5 Q525 216 531 245 L670 221 Q661 156 632 111.5 Q603 67 561.5 39.5 Q520 12 470.5 0 Q421 -12 372 -12 Z M476 868 Q476 823 452.5 799 Q429 775 385 775 Q342 775 318.5 799 Q295 823 295 868 Q295 912 318.5 935 Q342 958 385 958 Q429 958 452.5 935 Q476 912 476 868 Z " />
<glyph glyph-name="Dcaron" unicode="&#x10e;" horiz-adv-x="724" d="M74 0 L74 724 L328 724 Q422 724 490 699.5 Q558 675 601.5 629.5 Q645 584 666 519 Q687 454 687 373 Q687 290 664.5 221 Q642 152 596 103 Q550 54 479 27 Q408 0 311 0 L74 0 Z M304 124 Q367 124 410 140.5 Q453 157 479.5 188 Q506 219 517.5 264 Q529 309 529 365 Q529 432 516 477.5 Q503 523 476 550 Q449 577 409 588.5 Q369 600 315 600 L228 600 L228 124 L304 124 Z M330 846 L405 919 L507 912 L400 770 L260 770 L158 912 L258 918 L330 846 Z " />
<glyph glyph-name="Dcroat" unicode="&#x110;" horiz-adv-x="724" d="M74 0 L74 305 L7 305 L7 434 L74 434 L74 724 L328 724 Q422 724 490 699.5 Q558 675 601.5 629.5 Q645 584 666 519 Q687 454 687 373 Q687 290 664.5 221 Q642 152 596 103 Q550 54 479 27 Q408 0 311 0 L74 0 Z M304 124 Q367 124 410 140.5 Q453 157 479.5 188 Q506 219 517.5 264 Q529 309 529 365 Q529 432 516 477.5 Q503 523 476 550 Q449 577 409 588.5 Q369 600 315 600 L228 600 L228 434 L399 434 L399 305 L228 305 L228 124 L304 124 Z " />
<glyph glyph-name="Eacute" unicode="&#xc9;" horiz-adv-x="583" d="M228 130 L551 130 L551 0 L74 0 L74 724 L533 724 L533 595 L228 595 L228 425 L515 425 L515 299 L228 299 L228 130 Z M326 768 L219 776 L310 916 L472 916 L326 768 Z " />
<glyph glyph-name="Ebreve" unicode="&#x114;" horiz-adv-x="583" d="M228 130 L551 130 L551 0 L74 0 L74 724 L533 724 L533 595 L228 595 L228 425 L515 425 L515 299 L228 299 L228 130 Z M312 861 Q344 861 362 875.5 Q380 890 388 928 L484 922 Q476 841 428.5 805 Q381 769 307 769 Q235 769 190.5 804.5 Q146 840 141 920 L241 930 Q247 892 263.5 876.5 Q280 861 312 861 Z " />
<glyph glyph-name="Ecaron" unicode="&#x11a;" horiz-adv-x="583" d="M228 130 L551 130 L551 0 L74 0 L74 724 L533 724 L533 595 L228 595 L228 425 L515 425 L515 299 L228 299 L228 130 Z M306 846 L381 919 L483 912 L376 770 L236 770 L134 912 L234 918 L306 846 Z " />
<glyph glyph-name="Ecircumflex" unicode="&#xca;" horiz-adv-x="583" d="M228 130 L551 130 L551 0 L74 0 L74 724 L533 724 L533 595 L228 595 L228 425 L515 425 L515 299 L228 299 L228 130 Z M309 841 L234 768 L132 775 L239 917 L379 917 L481 775 L381 769 L309 841 Z " />
<glyph glyph-name="Edieresis" unicode="&#xcb;" horiz-adv-x="583" d="M228 130 L551 130 L551 0 L74 0 L74 724 L533 724 L533 595 L228 595 L228 425 L515 425 L515 299 L228 299 L228 130 Z M278 858 Q278 820 253.5 797.5 Q229 775 190 775 Q149 775 124 797.5 Q99 820 99 858 Q99 896 124 919 Q149 942 190 942 Q229 942 253.5 919 Q278 896 278 858 Z M513 858 Q513 820 489 797.5 Q465 775 425 775 Q384 775 359.5 797.5 Q335 820 335 858 Q335 896 359.5 919 Q384 942 425 942 Q465 942 489 919 Q513 896 513 858 Z " />
<glyph glyph-name="Edotaccent" unicode="&#x116;" horiz-adv-x="583" d="M228 130 L551 130 L551 0 L74 0 L74 724 L533 724 L533 595 L228 595 L228 425 L515 425 L515 299 L228 299 L228 130 Z M397 868 Q397 823 373.5 799 Q350 775 306 775 Q263 775 239.5 799 Q216 823 216 868 Q216 912 239.5 935 Q263 958 306 958 Q350 958 373.5 935 Q397 912 397 868 Z " />
<glyph glyph-name="Egrave" unicode="&#xc8;" horiz-adv-x="583" d="M228 130 L551 130 L551 0 L74 0 L74 724 L533 724 L533 595 L228 595 L228 425 L515 425 L515 299 L228 299 L228 130 Z M141 916 L303 916 L394 776 L287 768 L141 916 Z " />
<glyph glyph-name="Emacron" unicode="&#x112;" horiz-adv-x="583" d="M228 130 L551 130 L551 0 L74 0 L74 724 L533 724 L533 595 L228 595 L228 425 L515 425 L515 299 L228 299 L228 130 Z M148 784 L148 887 L465 887 L465 784 L148 784 Z " />
<glyph glyph-name="Eogonek" unicode="&#x118;" horiz-adv-x="583" d="M567 -139 Q550 -188 512.5 -214 Q475 -240 427 -240 Q370 -240 340.5 -214.5 Q311 -189 311 -142 Q311 -97 338 -62 Q365 -27 403 0 L74 0 L74 724 L533 724 L533 595 L228 595 L228 425 L515 425 L515 299 L228 299 L228 130 L551 130 L551 0 L501 0 Q466 -34 444.5 -61 Q423 -88 423 -117 Q423 -150 454 -150 Q468 -150 480 -140.5 Q492 -131 502 -109 L567 -139 Z " />
<glyph glyph-name="Gbreve" unicode="&#x11e;" horiz-adv-x="739" d="M552 89 Q540 65 519 46 Q498 27 470.5 14 Q443 1 410.5 -5.5 Q378 -12 345 -12 Q263 -12 205 15 Q147 42 110 90 Q73 138 55.5 204.5 Q38 271 38 350 Q38 438 60.5 509.5 Q83 581 127 631.5 Q171 682 236.5 709.5 Q302 737 389 737 Q448 737 498.5 723 Q549 709 586.5 678.5 Q624 648 647 600 Q670 552 675 484 L531 470 Q528 499 519.5 524.5 Q511 550 494.5 569 Q478 588 451.5 599 Q425 610 386 610 Q290 610 244 545.5 Q198 481 198 364 Q198 234 241.5 173 Q285 112 381 112 Q417 112 445 122 Q473 132 491.5 149 Q510 166 519.5 189 Q529 212 529 238 L529 264 L397 264 L397 377 L681 377 L681 0 L569 0 L552 89 Z M391 861 Q423 861 441 875.5 Q459 890 467 928 L563 922 Q555 841 507.5 805 Q460 769 386 769 Q314 769 269.5 804.5 Q225 840 220 920 L320 930 Q326 892 342.5 876.5 Q359 861 391 861 Z " />
<glyph glyph-name="Gcircumflex" unicode="&#x11c;" horiz-adv-x="739" d="M552 89 Q540 65 519 46 Q498 27 470.5 14 Q443 1 410.5 -5.5 Q378 -12 345 -12 Q263 -12 205 15 Q147 42 110 90 Q73 138 55.5 204.5 Q38 271 38 350 Q38 438 60.5 509.5 Q83 581 127 631.5 Q171 682 236.5 709.5 Q302 737 389 737 Q448 737 498.5 723 Q549 709 586.5 678.5 Q624 648 647 600 Q670 552 675 484 L531 470 Q528 499 519.5 524.5 Q511 550 494.5 569 Q478 588 451.5 599 Q425 610 386 610 Q290 610 244 545.5 Q198 481 198 364 Q198 234 241.5 173 Q285 112 381 112 Q417 112 445 122 Q473 132 491.5 149 Q510 166 519.5 189 Q529 212 529 238 L529 264 L397 264 L397 377 L681 377 L681 0 L569 0 L552 89 Z M388 841 L313 768 L211 775 L318 917 L458 917 L560 775 L460 769 L388 841 Z " />
<glyph glyph-name="Gcommaaccent" unicode="&#x122;" horiz-adv-x="739" d="M552 89 Q540 65 519 46 Q498 27 470.5 14 Q443 1 410.5 -5.5 Q378 -12 345 -12 Q263 -12 205 15 Q147 42 110 90 Q73 138 55.5 204.5 Q38 271 38 350 Q38 438 60.5 509.5 Q83 581 127 631.5 Q171 682 236.5 709.5 Q302 737 389 737 Q448 737 498.5 723 Q549 709 586.5 678.5 Q624 648 647 600 Q670 552 675 484 L531 470 Q528 499 519.5 524.5 Q511 550 494.5 569 Q478 588 451.5 599 Q425 610 386 610 Q290 610 244 545.5 Q198 481 198 364 Q198 234 241.5 173 Q285 112 381 112 Q417 112 445 122 Q473 132 491.5 149 Q510 166 519.5 189 Q529 212 529 238 L529 264 L397 264 L397 377 L681 377 L681 0 L569 0 L552 89 Z M308 -68 L448 -68 L365 -274 L262 -259 L308 -68 Z " />
<glyph glyph-name="Gdotaccent" unicode="&#x120;" horiz-adv-x="739" d="M552 89 Q540 65 519 46 Q498 27 470.5 14 Q443 1 410.5 -5.5 Q378 -12 345 -12 Q263 -12 205 15 Q147 42 110 90 Q73 138 55.5 204.5 Q38 271 38 350 Q38 438 60.5 509.5 Q83 581 127 631.5 Q171 682 236.5 709.5 Q302 737 389 737 Q448 737 498.5 723 Q549 709 586.5 678.5 Q624 648 647 600 Q670 552 675 484 L531 470 Q528 499 519.5 524.5 Q511 550 494.5 569 Q478 588 451.5 599 Q425 610 386 610 Q290 610 244 545.5 Q198 481 198 364 Q198 234 241.5 173 Q285 112 381 112 Q417 112 445 122 Q473 132 491.5 149 Q510 166 519.5 189 Q529 212 529 238 L529 264 L397 264 L397 377 L681 377 L681 0 L569 0 L552 89 Z M476 868 Q476 823 452.5 799 Q429 775 385 775 Q342 775 318.5 799 Q295 823 295 868 Q295 912 318.5 935 Q342 958 385 958 Q429 958 452.5 935 Q476 912 476 868 Z " />
<glyph glyph-name="Hbar" unicode="&#x126;" horiz-adv-x="733" d="M660 630 L726 630 L726 517 L660 517 L660 0 L505 0 L505 297 L228 297 L228 0 L74 0 L74 517 L7 517 L7 630 L74 630 L74 724 L228 724 L228 630 L505 630 L505 724 L660 724 L660 630 Z M505 430 L505 517 L228 517 L228 430 L505 430 Z " />
<glyph glyph-name="Hcircumflex" unicode="&#x124;" horiz-adv-x="733" d="M660 0 L505 0 L505 297 L228 297 L228 0 L74 0 L74 724 L228 724 L228 430 L505 430 L505 724 L660 724 L660 0 Z M369 841 L294 768 L192 775 L299 917 L439 917 L541 775 L441 769 L369 841 Z " />
<glyph glyph-name="Iacute" unicode="&#xcd;" horiz-adv-x="302" d="M228 0 L74 0 L74 724 L228 724 L228 0 Z M172 768 L65 776 L156 916 L318 916 L172 768 Z " />
<glyph glyph-name="Ibreve" unicode="&#x12c;" horiz-adv-x="302" d="M228 0 L74 0 L74 724 L228 724 L228 0 Z M158 861 Q190 861 208 875.5 Q226 890 234 928 L330 922 Q322 841 274.5 805 Q227 769 153 769 Q81 769 36.5 804.5 Q-8 840 -13 920 L87 930 Q93 892 109.5 876.5 Q126 861 158 861 Z " />
<glyph glyph-name="Icircumflex" unicode="&#xce;" horiz-adv-x="302" d="M228 0 L74 0 L74 724 L228 724 L228 0 Z M155 841 L80 768 L-22 775 L85 917 L225 917 L327 775 L227 769 L155 841 Z " />
<glyph glyph-name="Idieresis" unicode="&#xcf;" horiz-adv-x="302" d="M228 0 L74 0 L74 724 L228 724 L228 0 Z M124 858 Q124 820 99.5 797.5 Q75 775 36 775 Q-5 775 -30 797.5 Q-55 820 -55 858 Q-55 896 -30 919 Q-5 942 36 942 Q75 942 99.5 919 Q124 896 124 858 Z M359 858 Q359 820 335 797.5 Q311 775 271 775 Q230 775 205.5 797.5 Q181 820 181 858 Q181 896 205.5 919 Q230 942 271 942 Q311 942 335 919 Q359 896 359 858 Z " />
<glyph glyph-name="Idotaccent" unicode="&#x130;" horiz-adv-x="302" d="M228 0 L74 0 L74 724 L228 724 L228 0 Z M243 868 Q243 823 219.5 799 Q196 775 152 775 Q109 775 85.5 799 Q62 823 62 868 Q62 912 85.5 935 Q109 958 152 958 Q196 958 219.5 935 Q243 912 243 868 Z " />
<glyph glyph-name="Igrave" unicode="&#xcc;" horiz-adv-x="302" d="M228 0 L74 0 L74 724 L228 724 L228 0 Z M-13 916 L149 916 L240 776 L133 768 L-13 916 Z " />
<glyph glyph-name="Imacron" unicode="&#x12a;" horiz-adv-x="302" d="M228 0 L74 0 L74 724 L228 724 L228 0 Z M-6 784 L-6 887 L311 887 L311 784 L-6 784 Z " />
<glyph glyph-name="Iogonek" unicode="&#x12e;" horiz-adv-x="302" d="M271 -139 Q254 -188 216.5 -214 Q179 -240 131 -240 Q74 -240 44.5 -214.5 Q15 -189 15 -142 Q15 -120 23.5 -100 Q32 -80 46.5 -62.5 Q61 -45 79 -29.5 Q97 -14 116 0 L74 0 L74 724 L228 724 L228 0 Q175 -34 151 -61 Q127 -88 127 -117 Q127 -150 158 -150 Q172 -150 184 -140.5 Q196 -131 206 -109 L271 -139 Z " />
<glyph glyph-name="Itilde" unicode="&#x128;" horiz-adv-x="302" d="M228 0 L74 0 L74 724 L228 724 L228 0 Z M78 930 Q102 930 122 923.5 Q142 917 159.5 908.5 Q177 900 193 893.5 Q209 887 226 887 Q243 887 249.5 896.5 Q256 906 256 931 L332 927 Q339 865 316.5 825.5 Q294 786 241 786 Q215 786 194 793 Q173 800 155 808 Q137 816 121 823 Q105 830 89 830 Q73 830 65 820.5 Q57 811 61 783 L-21 786 Q-29 852 -1 891 Q27 930 78 930 Z " />
<glyph glyph-name="Jcircumflex" unicode="&#x134;" horiz-adv-x="530" d="M308 724 L463 724 L463 203 Q463 95 405.5 41.5 Q348 -12 235 -12 Q188 -12 148.5 -2 Q109 8 80 32 Q51 56 34 95.5 Q17 135 15 193 L163 215 Q165 192 168.5 173.5 Q172 155 179.5 142 Q187 129 200.5 121.5 Q214 114 237 114 Q272 114 290 132.5 Q308 151 308 199 L308 724 Z M386 841 L311 768 L209 775 L316 917 L456 917 L558 775 L458 769 L386 841 Z " />
<glyph glyph-name="Kcommaaccent" unicode="&#x136;" horiz-adv-x="673" d="M227 414 L508 724 L672 724 L407 423 L668 0 L488 0 L297 303 L227 227 L227 0 L74 0 L74 724 L227 724 L227 414 Z M287 -68 L427 -68 L344 -274 L241 -259 L287 -68 Z " />
<glyph glyph-name="Lacute" unicode="&#x139;" horiz-adv-x="568" d="M228 130 L538 130 L538 0 L74 0 L74 724 L228 724 L228 130 Z M170 768 L63 776 L154 916 L316 916 L170 768 Z " />
<glyph glyph-name="Lcaron" unicode="&#x13d;" horiz-adv-x="568" d="M228 130 L538 130 L538 0 L74 0 L74 724 L228 724 L228 130 Z M345 726 L483 726 L417 524 L312 533 L345 726 Z " />
<glyph glyph-name="Lcommaaccent" unicode="&#x13b;" horiz-adv-x="568" d="M228 130 L538 130 L538 0 L74 0 L74 724 L228 724 L228 130 Z M250 -68 L390 -68 L307 -274 L204 -259 L250 -68 Z " />
<glyph glyph-name="Ldot" unicode="&#x13f;" horiz-adv-x="568" d="M228 130 L538 130 L538 0 L74 0 L74 724 L228 724 L228 130 Z M523 411 Q523 366 499.5 342 Q476 318 432 318 Q389 318 365.5 342 Q342 366 342 411 Q342 455 365.5 478 Q389 501 432 501 Q476 501 499.5 478 Q523 455 523 411 Z " />
<glyph glyph-name="Lslash" unicode="&#x141;" horiz-adv-x="568" d="M228 441 L423 520 L423 393 L228 314 L228 130 L538 130 L538 0 L74 0 L74 252 L-4 221 L-4 347 L74 378 L74 724 L228 724 L228 441 Z " />
<glyph glyph-name="Nacute" unicode="&#x143;" horiz-adv-x="745" d="M494 0 L215 511 L215 0 L74 0 L74 724 L258 724 L532 211 L532 724 L672 724 L672 0 L494 0 Z M416 768 L309 776 L400 916 L562 916 L416 768 Z " />
<glyph glyph-name="Ncaron" unicode="&#x147;" horiz-adv-x="745" d="M494 0 L215 511 L215 0 L74 0 L74 724 L258 724 L532 211 L532 724 L672 724 L672 0 L494 0 Z M384 846 L459 919 L561 912 L454 770 L314 770 L212 912 L312 918 L384 846 Z " />
<glyph glyph-name="Ncommaaccent" unicode="&#x145;" horiz-adv-x="745" d="M494 0 L215 511 L215 0 L74 0 L74 724 L258 724 L532 211 L532 724 L672 724 L672 0 L494 0 Z M313 -68 L453 -68 L370 -274 L267 -259 L313 -68 Z " />
<glyph glyph-name="Ntilde" unicode="&#xd1;" horiz-adv-x="745" d="M494 0 L215 511 L215 0 L74 0 L74 724 L258 724 L532 211 L532 724 L672 724 L672 0 L494 0 Z M297 930 Q321 930 341 923.5 Q361 917 378.5 908.5 Q396 900 412 893.5 Q428 887 445 887 Q462 887 468.5 896.5 Q475 906 475 931 L551 927 Q558 865 535.5 825.5 Q513 786 460 786 Q434 786 413 793 Q392 800 374 808 Q356 816 340 823 Q324 830 308 830 Q292 830 284 820.5 Q276 811 280 783 L198 786 Q190 852 218 891 Q246 930 297 930 Z " />
<glyph glyph-name="Oacute" unicode="&#xd3;" horiz-adv-x="760" d="M375 -12 Q285 -12 221.5 15.5 Q158 43 117 92.5 Q76 142 57 210 Q38 278 38 359 Q38 440 60 509 Q82 578 126.5 628.5 Q171 679 237 708 Q303 737 391 737 Q479 737 542 708.5 Q605 680 645 630.5 Q685 581 704 514.5 Q723 448 723 373 Q723 285 701.5 214 Q680 143 637 92.5 Q594 42 528.5 15 Q463 -12 375 -12 Z M381 118 Q421 118 455 131.5 Q489 145 513 174 Q537 203 550.5 250 Q564 297 564 364 Q564 490 518 548.5 Q472 607 388 607 Q300 607 248.5 547.5 Q197 488 197 362 Q197 297 209.5 251 Q222 205 246 175.5 Q270 146 304 132 Q338 118 381 118 Z M409 768 L302 776 L393 916 L555 916 L409 768 Z " />
<glyph glyph-name="Obreve" unicode="&#x14e;" horiz-adv-x="760" d="M375 -12 Q285 -12 221.5 15.5 Q158 43 117 92.5 Q76 142 57 210 Q38 278 38 359 Q38 440 60 509 Q82 578 126.5 628.5 Q171 679 237 708 Q303 737 391 737 Q479 737 542 708.5 Q605 680 645 630.5 Q685 581 704 514.5 Q723 448 723 373 Q723 285 701.5 214 Q680 143 637 92.5 Q594 42 528.5 15 Q463 -12 375 -12 Z M381 118 Q421 118 455 131.5 Q489 145 513 174 Q537 203 550.5 250 Q564 297 564 364 Q564 490 518 548.5 Q472 607 388 607 Q300 607 248.5 547.5 Q197 488 197 362 Q197 297 209.5 251 Q222 205 246 175.5 Q270 146 304 132 Q338 118 381 118 Z M395 861 Q427 861 445 875.5 Q463 890 471 928 L567 922 Q559 841 511.5 805 Q464 769 390 769 Q318 769 273.5 804.5 Q229 840 224 920 L324 930 Q330 892 346.5 876.5 Q363 861 395 861 Z " />
<glyph glyph-name="Ocircumflex" unicode="&#xd4;" horiz-adv-x="760" d="M375 -12 Q285 -12 221.5 15.5 Q158 43 117 92.5 Q76 142 57 210 Q38 278 38 359 Q38 440 60 509 Q82 578 126.5 628.5 Q171 679 237 708 Q303 737 391 737 Q479 737 542 708.5 Q605 680 645 630.5 Q685 581 704 514.5 Q723 448 723 373 Q723 285 701.5 214 Q680 143 637 92.5 Q594 42 528.5 15 Q463 -12 375 -12 Z M381 118 Q421 118 455 131.5 Q489 145 513 174 Q537 203 550.5 250 Q564 297 564 364 Q564 490 518 548.5 Q472 607 388 607 Q300 607 248.5 547.5 Q197 488 197 362 Q197 297 209.5 251 Q222 205 246 175.5 Q270 146 304 132 Q338 118 381 118 Z M392 841 L317 768 L215 775 L322 917 L462 917 L564 775 L464 769 L392 841 Z " />
<glyph glyph-name="Odieresis" unicode="&#xd6;" horiz-adv-x="760" d="M375 -12 Q285 -12 221.5 15.5 Q158 43 117 92.5 Q76 142 57 210 Q38 278 38 359 Q38 440 60 509 Q82 578 126.5 628.5 Q171 679 237 708 Q303 737 391 737 Q479 737 542 708.5 Q605 680 645 630.5 Q685 581 704 514.5 Q723 448 723 373 Q723 285 701.5 214 Q680 143 637 92.5 Q594 42 528.5 15 Q463 -12 375 -12 Z M381 118 Q421 118 455 131.5 Q489 145 513 174 Q537 203 550.5 250 Q564 297 564 364 Q564 490 518 548.5 Q472 607 388 607 Q300 607 248.5 547.5 Q197 488 197 362 Q197 297 209.5 251 Q222 205 246 175.5 Q270 146 304 132 Q338 118 381 118 Z M361 858 Q361 820 336.5 797.5 Q312 775 273 775 Q232 775 207 797.5 Q182 820 182 858 Q182 896 207 919 Q232 942 273 942 Q312 942 336.5 919 Q361 896 361 858 Z M596 858 Q596 820 572 797.5 Q548 775 508 775 Q467 775 442.5 797.5 Q418 820 418 858 Q418 896 442.5 919 Q467 942 508 942 Q548 942 572 919 Q596 896 596 858 Z " />
<glyph glyph-name="Ograve" unicode="&#xd2;" horiz-adv-x="760" d="M375 -12 Q285 -12 221.5 15.5 Q158 43 117 92.5 Q76 142 57 210 Q38 278 38 359 Q38 440 60 509 Q82 578 126.5 628.5 Q171 679 237 708 Q303 737 391 737 Q479 737 542 708.5 Q605 680 645 630.5 Q685 581 704 514.5 Q723 448 723 373 Q723 285 701.5 214 Q680 143 637 92.5 Q594 42 528.5 15 Q463 -12 375 -12 Z M381 118 Q421 118 455 131.5 Q489 145 513 174 Q537 203 550.5 250 Q564 297 564 364 Q564 490 518 548.5 Q472 607 388 607 Q300 607 248.5 547.5 Q197 488 197 362 Q197 297 209.5 251 Q222 205 246 175.5 Q270 146 304 132 Q338 118 381 118 Z M224 916 L386 916 L477 776 L370 768 L224 916 Z " />
<glyph glyph-name="Ohungarumlaut" unicode="&#x150;" horiz-adv-x="760" d="M375 -12 Q285 -12 221.5 15.5 Q158 43 117 92.5 Q76 142 57 210 Q38 278 38 359 Q38 440 60 509 Q82 578 126.5 628.5 Q171 679 237 708 Q303 737 391 737 Q479 737 542 708.5 Q605 680 645 630.5 Q685 581 704 514.5 Q723 448 723 373 Q723 285 701.5 214 Q680 143 637 92.5 Q594 42 528.5 15 Q463 -12 375 -12 Z M381 118 Q421 118 455 131.5 Q489 145 513 174 Q537 203 550.5 250 Q564 297 564 364 Q564 490 518 548.5 Q472 607 388 607 Q300 607 248.5 547.5 Q197 488 197 362 Q197 297 209.5 251 Q222 205 246 175.5 Q270 146 304 132 Q338 118 381 118 Z M348 768 L251 780 L301 915 L455 915 L348 768 Z M504 768 L403 776 L495 920 L657 920 L504 768 Z " />
<glyph glyph-name="Omacron" unicode="&#x14c;" horiz-adv-x="760" d="M375 -12 Q285 -12 221.5 15.5 Q158 43 117 92.5 Q76 142 57 210 Q38 278 38 359 Q38 440 60 509 Q82 578 126.5 628.5 Q171 679 237 708 Q303 737 391 737 Q479 737 542 708.5 Q605 680 645 630.5 Q685 581 704 514.5 Q723 448 723 373 Q723 285 701.5 214 Q680 143 637 92.5 Q594 42 528.5 15 Q463 -12 375 -12 Z M381 118 Q421 118 455 131.5 Q489 145 513 174 Q537 203 550.5 250 Q564 297 564 364 Q564 490 518 548.5 Q472 607 388 607 Q300 607 248.5 547.5 Q197 488 197 362 Q197 297 209.5 251 Q222 205 246 175.5 Q270 146 304 132 Q338 118 381 118 Z M231 784 L231 887 L548 887 L548 784 L231 784 Z " />
<glyph glyph-name="Oslash" unicode="&#xd8;" horiz-adv-x="760" d="M375 -12 Q335 -12 299 -6 L272 -72 L129 -72 L175 40 Q103 88 70.5 170.5 Q38 253 38 359 Q38 440 60 509 Q82 578 126.5 628.5 Q171 679 237 708 Q303 737 391 737 Q430 737 463 731 L490 794 L632 794 L586 684 Q657 636 690 554 Q723 472 723 373 Q723 285 701.5 214 Q680 143 637 92.5 Q594 42 528.5 15 Q463 -12 375 -12 Z M197 362 Q197 303 207 260 Q217 217 237 187 L411 605 Q406 606 400 606.5 Q394 607 388 607 Q300 607 248.5 547.5 Q197 488 197 362 Z M381 118 Q421 118 455 131.5 Q489 145 513 174 Q537 203 550.5 250 Q564 297 564 364 Q564 421 554 464 Q544 507 525 537 L351 119 Q359 118 366 118 Q373 118 381 118 Z " />
<glyph glyph-name="Oslashacute" unicode="&#x1fe;" horiz-adv-x="760" d="M409 768 L302 776 L393 916 L555 916 L409 768 Z M375 -12 Q335 -12 299 -6 L272 -72 L129 -72 L175 40 Q103 88 70.5 170.5 Q38 253 38 359 Q38 440 60 509 Q82 578 126.5 628.5 Q171 679 237 708 Q303 737 391 737 Q430 737 463 731 L490 794 L632 794 L586 684 Q657 636 690 554 Q723 472 723 373 Q723 285 701.5 214 Q680 143 637 92.5 Q594 42 528.5 15 Q463 -12 375 -12 Z M197 362 Q197 303 207 260 Q217 217 237 187 L411 605 Q406 606 400 606.5 Q394 607 388 607 Q300 607 248.5 547.5 Q197 488 197 362 Z M381 118 Q421 118 455 131.5 Q489 145 513 174 Q537 203 550.5 250 Q564 297 564 364 Q564 421 554 464 Q544 507 525 537 L351 119 Q359 118 366 118 Q373 118 381 118 Z " />
<glyph glyph-name="Otilde" unicode="&#xd5;" horiz-adv-x="760" d="M375 -12 Q285 -12 221.5 15.5 Q158 43 117 92.5 Q76 142 57 210 Q38 278 38 359 Q38 440 60 509 Q82 578 126.5 628.5 Q171 679 237 708 Q303 737 391 737 Q479 737 542 708.5 Q605 680 645 630.5 Q685 581 704 514.5 Q723 448 723 373 Q723 285 701.5 214 Q680 143 637 92.5 Q594 42 528.5 15 Q463 -12 375 -12 Z M381 118 Q421 118 455 131.5 Q489 145 513 174 Q537 203 550.5 250 Q564 297 564 364 Q564 490 518 548.5 Q472 607 388 607 Q300 607 248.5 547.5 Q197 488 197 362 Q197 297 209.5 251 Q222 205 246 175.5 Q270 146 304 132 Q338 118 381 118 Z M315 930 Q339 930 359 923.5 Q379 917 396.5 908.5 Q414 900 430 893.5 Q446 887 463 887 Q480 887 486.5 896.5 Q493 906 493 931 L569 927 Q576 865 553.5 825.5 Q531 786 478 786 Q452 786 431 793 Q410 800 392 808 Q374 816 358 823 Q342 830 326 830 Q310 830 302 820.5 Q294 811 298 783 L216 786 Q208 852 236 891 Q264 930 315 930 Z " />
<glyph glyph-name="Racute" unicode="&#x154;" horiz-adv-x="642" d="M635 0 L469 0 L326 275 L227 275 L227 0 L74 0 L74 724 L356 724 Q423 724 469 707 Q515 690 543.5 662 Q572 634 584 597 Q596 560 596 520 Q596 439 561.5 389 Q527 339 471 313 L635 0 Z M306 396 Q333 396 357 401.5 Q381 407 398.5 419.5 Q416 432 426.5 453 Q437 474 437 505 Q437 557 405.5 578.5 Q374 600 312 600 L227 600 L227 396 L306 396 Z M322 768 L215 776 L306 916 L468 916 L322 768 Z " />
<glyph glyph-name="Rcaron" unicode="&#x158;" horiz-adv-x="642" d="M635 0 L469 0 L326 275 L227 275 L227 0 L74 0 L74 724 L356 724 Q423 724 469 707 Q515 690 543.5 662 Q572 634 584 597 Q596 560 596 520 Q596 439 561.5 389 Q527 339 471 313 L635 0 Z M306 396 Q333 396 357 401.5 Q381 407 398.5 419.5 Q416 432 426.5 453 Q437 474 437 505 Q437 557 405.5 578.5 Q374 600 312 600 L227 600 L227 396 L306 396 Z M302 846 L377 919 L479 912 L372 770 L232 770 L130 912 L230 918 L302 846 Z " />
<glyph glyph-name="Rcommaaccent" unicode="&#x156;" horiz-adv-x="642" d="M635 0 L469 0 L326 275 L227 275 L227 0 L74 0 L74 724 L356 724 Q423 724 469 707 Q515 690 543.5 662 Q572 634 584 597 Q596 560 596 520 Q596 439 561.5 389 Q527 339 471 313 L635 0 Z M306 396 Q333 396 357 401.5 Q381 407 398.5 419.5 Q416 432 426.5 453 Q437 474 437 505 Q437 557 405.5 578.5 Q374 600 312 600 L227 600 L227 396 L306 396 Z M274 -68 L414 -68 L331 -274 L228 -259 L274 -68 Z " />
<glyph glyph-name="Sacute" unicode="&#x15a;" horiz-adv-x="596" d="M300 618 Q244 618 218 597 Q192 576 192 541 Q192 513 208 495 Q224 477 250.5 464.5 Q277 452 311 442.5 Q345 433 380 422 Q415 411 449 396.5 Q483 382 509.5 358.5 Q536 335 552 301 Q568 267 568 217 Q568 155 545 112 Q522 69 483.5 41 Q445 13 395 0.5 Q345 -12 291 -12 Q242 -12 194 -2.5 Q146 7 107 32.5 Q68 58 42 102.5 Q16 147 11 218 L151 239 Q155 213 163.5 189.5 Q172 166 188 148.5 Q204 131 229.5 120.5 Q255 110 295 110 Q319 110 340.5 114.5 Q362 119 378.5 129.5 Q395 140 405 157 Q415 174 415 199 Q415 227 399 244.5 Q383 262 356.5 274 Q330 286 296 294.5 Q262 303 226.5 313 Q191 323 157 337 Q123 351 96.5 374.5 Q70 398 54 433 Q38 468 38 519 Q38 572 58.5 612.5 Q79 653 115 681 Q151 709 199 723 Q247 737 302 737 Q350 737 395 728 Q440 719 475 695.5 Q510 672 533 630.5 Q556 589 560 525 L419 509 Q417 534 410 554.5 Q403 575 389 589 Q375 603 353.5 610.5 Q332 618 300 618 Z M320 768 L213 776 L304 916 L466 916 L320 768 Z " />
<glyph glyph-name="Scaron" unicode="&#x160;" horiz-adv-x="596" d="M300 618 Q244 618 218 597 Q192 576 192 541 Q192 513 208 495 Q224 477 250.5 464.5 Q277 452 311 442.5 Q345 433 380 422 Q415 411 449 396.5 Q483 382 509.5 358.5 Q536 335 552 301 Q568 267 568 217 Q568 155 545 112 Q522 69 483.5 41 Q445 13 395 0.5 Q345 -12 291 -12 Q242 -12 194 -2.5 Q146 7 107 32.5 Q68 58 42 102.5 Q16 147 11 218 L151 239 Q155 213 163.5 189.5 Q172 166 188 148.5 Q204 131 229.5 120.5 Q255 110 295 110 Q319 110 340.5 114.5 Q362 119 378.5 129.5 Q395 140 405 157 Q415 174 415 199 Q415 227 399 244.5 Q383 262 356.5 274 Q330 286 296 294.5 Q262 303 226.5 313 Q191 323 157 337 Q123 351 96.5 374.5 Q70 398 54 433 Q38 468 38 519 Q38 572 58.5 612.5 Q79 653 115 681 Q151 709 199 723 Q247 737 302 737 Q350 737 395 728 Q440 719 475 695.5 Q510 672 533 630.5 Q556 589 560 525 L419 509 Q417 534 410 554.5 Q403 575 389 589 Q375 603 353.5 610.5 Q332 618 300 618 Z M300 846 L375 919 L477 912 L370 770 L230 770 L128 912 L228 918 L300 846 Z " />
<glyph glyph-name="Scedilla" unicode="&#x15e;" horiz-adv-x="596" d="M211 -162 Q223 -165 234.5 -167 Q246 -169 259 -169 Q282 -169 295.5 -160.5 Q309 -152 309 -132 Q309 -109 292 -102.5 Q275 -96 245 -95 L256 -10 Q211 -7 169 4.5 Q127 16 93.5 42.5 Q60 69 37.5 111.5 Q15 154 11 218 L151 239 Q155 213 163.5 189.5 Q172 166 188 148.5 Q204 131 229.5 120.5 Q255 110 295 110 Q319 110 340.5 114.5 Q362 119 378.5 129.5 Q395 140 405 157 Q415 174 415 199 Q415 227 399 244.5 Q383 262 356.5 274 Q330 286 296 294.5 Q262 303 226.5 313 Q191 323 157 337 Q123 351 96.5 374.5 Q70 398 54 433 Q38 468 38 519 Q38 572 58.5 612.5 Q79 653 115 681 Q151 709 199 723 Q247 737 302 737 Q350 737 395 728 Q440 719 475 695.5 Q510 672 533 630.5 Q556 589 560 525 L419 509 Q417 534 410 554.5 Q403 575 389 589 Q375 603 353.5 610.5 Q332 618 300 618 Q244 618 218 597 Q192 576 192 541 Q192 513 208 495 Q224 477 250.5 464.5 Q277 452 311 442.5 Q345 433 380 422 Q415 411 449 396.5 Q483 382 509.5 358.5 Q536 335 552 301 Q568 267 568 217 Q568 161 548.5 120 Q529 79 496 51 Q463 23 419.5 8.5 Q376 -6 328 -10 L324 -45 Q340 -48 355.5 -54 Q371 -60 383 -71 Q395 -82 402 -98 Q409 -114 409 -137 Q409 -192 371.5 -219 Q334 -246 278 -246 Q232 -246 196 -232 L211 -162 Z " />
<glyph glyph-name="Scircumflex" unicode="&#x15c;" horiz-adv-x="596" d="M300 618 Q244 618 218 597 Q192 576 192 541 Q192 513 208 495 Q224 477 250.5 464.5 Q277 452 311 442.5 Q345 433 380 422 Q415 411 449 396.5 Q483 382 509.5 358.5 Q536 335 552 301 Q568 267 568 217 Q568 155 545 112 Q522 69 483.5 41 Q445 13 395 0.5 Q345 -12 291 -12 Q242 -12 194 -2.5 Q146 7 107 32.5 Q68 58 42 102.5 Q16 147 11 218 L151 239 Q155 213 163.5 189.5 Q172 166 188 148.5 Q204 131 229.5 120.5 Q255 110 295 110 Q319 110 340.5 114.5 Q362 119 378.5 129.5 Q395 140 405 157 Q415 174 415 199 Q415 227 399 244.5 Q383 262 356.5 274 Q330 286 296 294.5 Q262 303 226.5 313 Q191 323 157 337 Q123 351 96.5 374.5 Q70 398 54 433 Q38 468 38 519 Q38 572 58.5 612.5 Q79 653 115 681 Q151 709 199 723 Q247 737 302 737 Q350 737 395 728 Q440 719 475 695.5 Q510 672 533 630.5 Q556 589 560 525 L419 509 Q417 534 410 554.5 Q403 575 389 589 Q375 603 353.5 610.5 Q332 618 300 618 Z M303 841 L228 768 L126 775 L233 917 L373 917 L475 775 L375 769 L303 841 Z " />
<glyph glyph-name="Scommaaccent" unicode="&#x218;" horiz-adv-x="596" d="M300 618 Q244 618 218 597 Q192 576 192 541 Q192 513 208 495 Q224 477 250.5 464.5 Q277 452 311 442.5 Q345 433 380 422 Q415 411 449 396.5 Q483 382 509.5 358.5 Q536 335 552 301 Q568 267 568 217 Q568 155 545 112 Q522 69 483.5 41 Q445 13 395 0.5 Q345 -12 291 -12 Q242 -12 194 -2.5 Q146 7 107 32.5 Q68 58 42 102.5 Q16 147 11 218 L151 239 Q155 213 163.5 189.5 Q172 166 188 148.5 Q204 131 229.5 120.5 Q255 110 295 110 Q319 110 340.5 114.5 Q362 119 378.5 129.5 Q395 140 405 157 Q415 174 415 199 Q415 227 399 244.5 Q383 262 356.5 274 Q330 286 296 294.5 Q262 303 226.5 313 Q191 323 157 337 Q123 351 96.5 374.5 Q70 398 54 433 Q38 468 38 519 Q38 572 58.5 612.5 Q79 653 115 681 Q151 709 199 723 Q247 737 302 737 Q350 737 395 728 Q440 719 475 695.5 Q510 672 533 630.5 Q556 589 560 525 L419 509 Q417 534 410 554.5 Q403 575 389 589 Q375 603 353.5 610.5 Q332 618 300 618 Z M241 -68 L381 -68 L298 -274 L195 -259 L241 -68 Z " />
<glyph glyph-name="Tbar" unicode="&#x166;" horiz-adv-x="595" d="M221 0 L221 295 L79 295 L79 419 L221 419 L221 594 L8 594 L8 724 L587 724 L587 594 L376 594 L376 419 L516 419 L516 295 L376 295 L376 0 L221 0 Z " />
<glyph glyph-name="Tcaron" unicode="&#x164;" horiz-adv-x="595" d="M221 0 L221 594 L8 594 L8 724 L587 724 L587 594 L376 594 L376 0 L221 0 Z M296 846 L371 919 L473 912 L366 770 L226 770 L124 912 L224 918 L296 846 Z " />
<glyph glyph-name="uni0162" unicode="&#x162;" horiz-adv-x="595" d="M215 -162 Q227 -165 238.5 -167 Q250 -169 263 -169 Q286 -169 299.5 -160.5 Q313 -152 313 -132 Q313 -109 296 -102.5 Q279 -96 249 -95 L261 0 L221 0 L221 594 L8 594 L8 724 L587 724 L587 594 L376 594 L376 0 L334 0 L328 -45 Q344 -48 359.5 -54 Q375 -60 387 -71 Q399 -82 406 -98 Q413 -114 413 -137 Q413 -192 375.5 -219 Q338 -246 282 -246 Q236 -246 200 -232 L215 -162 Z " />
<glyph glyph-name="uni021A" unicode="&#x21a;" horiz-adv-x="595" d="M221 0 L221 594 L8 594 L8 724 L587 724 L587 594 L376 594 L376 0 L221 0 Z M237 -68 L377 -68 L294 -274 L191 -259 L237 -68 Z " />
<glyph glyph-name="Uacute" unicode="&#xda;" horiz-adv-x="708" d="M356 117 Q394 117 419.5 126.5 Q445 136 460 156 Q475 176 481.5 207.5 Q488 239 488 283 L488 724 L642 724 L642 261 Q642 189 622 137.5 Q602 86 564 52.5 Q526 19 472 3.5 Q418 -12 350 -12 Q200 -12 132.5 55.5 Q65 123 65 265 L65 724 L220 724 L220 286 Q220 244 226 212 Q232 180 247.5 159 Q263 138 289.5 127.5 Q316 117 356 117 Z M380 768 L273 776 L364 916 L526 916 L380 768 Z " />
<glyph glyph-name="Ubreve" unicode="&#x16c;" horiz-adv-x="708" d="M356 117 Q394 117 419.5 126.5 Q445 136 460 156 Q475 176 481.5 207.5 Q488 239 488 283 L488 724 L642 724 L642 261 Q642 189 622 137.5 Q602 86 564 52.5 Q526 19 472 3.5 Q418 -12 350 -12 Q200 -12 132.5 55.5 Q65 123 65 265 L65 724 L220 724 L220 286 Q220 244 226 212 Q232 180 247.5 159 Q263 138 289.5 127.5 Q316 117 356 117 Z M358 861 Q390 861 408 875.5 Q426 890 434 928 L530 922 Q522 841 474.5 805 Q427 769 353 769 Q281 769 236.5 804.5 Q192 840 187 920 L287 930 Q293 892 309.5 876.5 Q326 861 358 861 Z " />
<glyph glyph-name="Ucircumflex" unicode="&#xdb;" horiz-adv-x="708" d="M356 117 Q394 117 419.5 126.5 Q445 136 460 156 Q475 176 481.5 207.5 Q488 239 488 283 L488 724 L642 724 L642 261 Q642 189 622 137.5 Q602 86 564 52.5 Q526 19 472 3.5 Q418 -12 350 -12 Q200 -12 132.5 55.5 Q65 123 65 265 L65 724 L220 724 L220 286 Q220 244 226 212 Q232 180 247.5 159 Q263 138 289.5 127.5 Q316 117 356 117 Z M355 841 L280 768 L178 775 L285 917 L425 917 L527 775 L427 769 L355 841 Z " />
<glyph glyph-name="Udieresis" unicode="&#xdc;" horiz-adv-x="708" d="M356 117 Q394 117 419.5 126.5 Q445 136 460 156 Q475 176 481.5 207.5 Q488 239 488 283 L488 724 L642 724 L642 261 Q642 189 622 137.5 Q602 86 564 52.5 Q526 19 472 3.5 Q418 -12 350 -12 Q200 -12 132.5 55.5 Q65 123 65 265 L65 724 L220 724 L220 286 Q220 244 226 212 Q232 180 247.5 159 Q263 138 289.5 127.5 Q316 117 356 117 Z M324 858 Q324 820 299.5 797.5 Q275 775 236 775 Q195 775 170 797.5 Q145 820 145 858 Q145 896 170 919 Q195 942 236 942 Q275 942 299.5 919 Q324 896 324 858 Z M559 858 Q559 820 535 797.5 Q511 775 471 775 Q430 775 405.5 797.5 Q381 820 381 858 Q381 896 405.5 919 Q430 942 471 942 Q511 942 535 919 Q559 896 559 858 Z " />
<glyph glyph-name="Ugrave" unicode="&#xd9;" horiz-adv-x="708" d="M356 117 Q394 117 419.5 126.5 Q445 136 460 156 Q475 176 481.5 207.5 Q488 239 488 283 L488 724 L642 724 L642 261 Q642 189 622 137.5 Q602 86 564 52.5 Q526 19 472 3.5 Q418 -12 350 -12 Q200 -12 132.5 55.5 Q65 123 65 265 L65 724 L220 724 L220 286 Q220 244 226 212 Q232 180 247.5 159 Q263 138 289.5 127.5 Q316 117 356 117 Z M187 916 L349 916 L440 776 L333 768 L187 916 Z " />
<glyph glyph-name="Uhungarumlaut" unicode="&#x170;" horiz-adv-x="708" d="M356 117 Q394 117 419.5 126.5 Q445 136 460 156 Q475 176 481.5 207.5 Q488 239 488 283 L488 724 L642 724 L642 261 Q642 189 622 137.5 Q602 86 564 52.5 Q526 19 472 3.5 Q418 -12 350 -12 Q200 -12 132.5 55.5 Q65 123 65 265 L65 724 L220 724 L220 286 Q220 244 226 212 Q232 180 247.5 159 Q263 138 289.5 127.5 Q316 117 356 117 Z M311 768 L214 780 L264 915 L418 915 L311 768 Z M467 768 L366 776 L458 920 L620 920 L467 768 Z " />
<glyph glyph-name="Umacron" unicode="&#x16a;" horiz-adv-x="708" d="M356 117 Q394 117 419.5 126.5 Q445 136 460 156 Q475 176 481.5 207.5 Q488 239 488 283 L488 724 L642 724 L642 261 Q642 189 622 137.5 Q602 86 564 52.5 Q526 19 472 3.5 Q418 -12 350 -12 Q200 -12 132.5 55.5 Q65 123 65 265 L65 724 L220 724 L220 286 Q220 244 226 212 Q232 180 247.5 159 Q263 138 289.5 127.5 Q316 117 356 117 Z M194 784 L194 887 L511 887 L511 784 L194 784 Z " />
<glyph glyph-name="Uogonek" unicode="&#x172;" horiz-adv-x="708" d="M556 -139 Q539 -188 501.5 -214 Q464 -240 416 -240 Q359 -240 329.5 -214.5 Q300 -189 300 -142 Q300 -102 322.5 -69.5 Q345 -37 377 -11 Q370 -12 363.5 -12 Q357 -12 350 -12 Q200 -12 132.5 55.5 Q65 123 65 265 L65 724 L220 724 L220 286 Q220 244 226 212 Q232 180 247.5 159 Q263 138 289.5 127.5 Q316 117 356 117 Q394 117 419.5 126.5 Q445 136 460 156 Q475 176 481.5 207.5 Q488 239 488 283 L488 724 L642 724 L642 261 Q642 212 633 174.5 Q624 137 607.5 107.5 Q591 78 567.5 54.5 Q544 31 514 12 Q469 -17 440.5 -52 Q412 -87 412 -117 Q412 -150 443 -150 Q457 -150 469 -140.5 Q481 -131 491 -109 L556 -139 Z " />
<glyph glyph-name="Uring" unicode="&#x16e;" horiz-adv-x="708" d="M356 117 Q394 117 419.5 126.5 Q445 136 460 156 Q475 176 481.5 207.5 Q488 239 488 283 L488 724 L642 724 L642 261 Q642 189 622 137.5 Q602 86 564 52.5 Q526 19 472 3.5 Q418 -12 350 -12 Q200 -12 132.5 55.5 Q65 123 65 265 L65 724 L220 724 L220 286 Q220 244 226 212 Q232 180 247.5 159 Q263 138 289.5 127.5 Q316 117 356 117 Z M469 835 Q469 782 436.5 754.5 Q404 727 353 727 Q302 727 270 753.5 Q238 780 238 831 Q238 859 247 879.5 Q256 900 272 914 Q288 928 309 935 Q330 942 353 942 Q401 942 435 915.5 Q469 889 469 835 Z M353 788 Q375 788 387.5 800 Q400 812 400 837 Q400 860 387.5 871.5 Q375 883 353 883 Q332 883 318 871.5 Q304 860 304 836 Q304 812 317 800 Q330 788 353 788 Z " />
<glyph glyph-name="Utilde" unicode="&#x168;" horiz-adv-x="708" d="M356 117 Q394 117 419.5 126.5 Q445 136 460 156 Q475 176 481.5 207.5 Q488 239 488 283 L488 724 L642 724 L642 261 Q642 189 622 137.5 Q602 86 564 52.5 Q526 19 472 3.5 Q418 -12 350 -12 Q200 -12 132.5 55.5 Q65 123 65 265 L65 724 L220 724 L220 286 Q220 244 226 212 Q232 180 247.5 159 Q263 138 289.5 127.5 Q316 117 356 117 Z M278 930 Q302 930 322 923.5 Q342 917 359.5 908.5 Q377 900 393 893.5 Q409 887 426 887 Q443 887 449.5 896.5 Q456 906 456 931 L532 927 Q539 865 516.5 825.5 Q494 786 441 786 Q415 786 394 793 Q373 800 355 808 Q337 816 321 823 Q305 830 289 830 Q273 830 265 820.5 Q257 811 261 783 L179 786 Q171 852 199 891 Q227 930 278 930 Z " />
<glyph glyph-name="Wacute" unicode="&#x1e82;" horiz-adv-x="964" d="M604 0 L487 499 L483 499 L367 0 L164 0 L8 724 L169 724 L271 166 L275 166 L404 724 L569 724 L702 163 L707 163 L801 724 L956 724 L801 0 L604 0 Z M502 768 L395 776 L486 916 L648 916 L502 768 Z " />
<glyph glyph-name="Wcircumflex" unicode="&#x174;" horiz-adv-x="964" d="M604 0 L487 499 L483 499 L367 0 L164 0 L8 724 L169 724 L271 166 L275 166 L404 724 L569 724 L702 163 L707 163 L801 724 L956 724 L801 0 L604 0 Z M485 841 L410 768 L308 775 L415 917 L555 917 L657 775 L557 769 L485 841 Z " />
<glyph glyph-name="Wdieresis" unicode="&#x1e84;" horiz-adv-x="964" d="M604 0 L487 499 L483 499 L367 0 L164 0 L8 724 L169 724 L271 166 L275 166 L404 724 L569 724 L702 163 L707 163 L801 724 L956 724 L801 0 L604 0 Z M454 858 Q454 820 429.5 797.5 Q405 775 366 775 Q325 775 300 797.5 Q275 820 275 858 Q275 896 300 919 Q325 942 366 942 Q405 942 429.5 919 Q454 896 454 858 Z M689 858 Q689 820 665 797.5 Q641 775 601 775 Q560 775 535.5 797.5 Q511 820 511 858 Q511 896 535.5 919 Q560 942 601 942 Q641 942 665 919 Q689 896 689 858 Z " />
<glyph glyph-name="Wgrave" unicode="&#x1e80;" horiz-adv-x="964" d="M604 0 L487 499 L483 499 L367 0 L164 0 L8 724 L169 724 L271 166 L275 166 L404 724 L569 724 L702 163 L707 163 L801 724 L956 724 L801 0 L604 0 Z M317 916 L479 916 L570 776 L463 768 L317 916 Z " />
<glyph glyph-name="Yacute" unicode="&#xdd;" horiz-adv-x="606" d="M388 0 L233 0 L233 271 L-18 724 L151 724 L310 414 L315 414 L468 724 L624 724 L388 273 L388 0 Z M327 768 L220 776 L311 916 L473 916 L327 768 Z " />
<glyph glyph-name="Ycircumflex" unicode="&#x176;" horiz-adv-x="606" d="M388 0 L233 0 L233 271 L-18 724 L151 724 L310 414 L315 414 L468 724 L624 724 L388 273 L388 0 Z M310 841 L235 768 L133 775 L240 917 L380 917 L482 775 L382 769 L310 841 Z " />
<glyph glyph-name="Ydieresis" unicode="&#x178;" horiz-adv-x="606" d="M388 0 L233 0 L233 271 L-18 724 L151 724 L310 414 L315 414 L468 724 L624 724 L388 273 L388 0 Z M279 858 Q279 820 254.5 797.5 Q230 775 191 775 Q150 775 125 797.5 Q100 820 100 858 Q100 896 125 919 Q150 942 191 942 Q230 942 254.5 919 Q279 896 279 858 Z M514 858 Q514 820 490 797.5 Q466 775 426 775 Q385 775 360.5 797.5 Q336 820 336 858 Q336 896 360.5 919 Q385 942 426 942 Q466 942 490 919 Q514 896 514 858 Z " />
<glyph glyph-name="Ygrave" unicode="&#x1ef2;" horiz-adv-x="606" d="M388 0 L233 0 L233 271 L-18 724 L151 724 L310 414 L315 414 L468 724 L624 724 L388 273 L388 0 Z M142 916 L304 916 L395 776 L288 768 L142 916 Z " />
<glyph glyph-name="Zacute" unicode="&#x179;" horiz-adv-x="592" d="M212 130 L563 130 L563 0 L27 0 L27 113 L370 595 L36 595 L36 724 L549 724 L549 609 L212 130 Z M301 768 L194 776 L285 916 L447 916 L301 768 Z " />
<glyph glyph-name="Zcaron" unicode="&#x17d;" horiz-adv-x="592" d="M212 130 L563 130 L563 0 L27 0 L27 113 L370 595 L36 595 L36 724 L549 724 L549 609 L212 130 Z M281 846 L356 919 L458 912 L351 770 L211 770 L109 912 L209 918 L281 846 Z " />
<glyph glyph-name="Zdotaccent" unicode="&#x17b;" horiz-adv-x="592" d="M212 130 L563 130 L563 0 L27 0 L27 113 L370 595 L36 595 L36 724 L549 724 L549 609 L212 130 Z M372 868 Q372 823 348.5 799 Q325 775 281 775 Q238 775 214.5 799 Q191 823 191 868 Q191 912 214.5 935 Q238 958 281 958 Q325 958 348.5 935 Q372 912 372 868 Z " />
<glyph glyph-name="aacute" unicode="&#xe1;" horiz-adv-x="558" d="M481 130 Q481 109 486.5 99.5 Q492 90 512 90 Q523 90 543 96 L547 9 Q532 1 503.5 -5 Q475 -11 451 -11 Q406 -11 379 3.5 Q352 18 344 55 Q319 23 281 5.5 Q243 -12 189 -12 Q140 -12 110 2.5 Q80 17 63 38 Q46 59 40 83 Q34 107 34 127 Q34 187 62 223 Q90 259 133.5 278 Q177 297 230 303 Q283 309 333 309 L333 328 Q333 350 330.5 367.5 Q328 385 320.5 397.5 Q313 410 298.5 416.5 Q284 423 259 423 Q221 423 204.5 406 Q188 389 180 351 L52 376 Q58 413 73 442 Q88 471 114.5 491 Q141 511 180 521.5 Q219 532 272 532 Q377 532 429 489 Q481 446 481 348 L481 130 Z M334 221 L310 221 Q283 220 260 216.5 Q237 213 220.5 205.5 Q204 198 195 185 Q186 172 186 152 Q186 129 198.5 112 Q211 95 247 95 Q274 95 298 106 Q322 117 334 129 L334 221 Z M292 572 L191 581 L266 743 L427 743 L292 572 Z " />
<glyph glyph-name="abreve" unicode="&#x103;" horiz-adv-x="558" d="M481 130 Q481 109 486.5 99.5 Q492 90 512 90 Q523 90 543 96 L547 9 Q532 1 503.5 -5 Q475 -11 451 -11 Q406 -11 379 3.5 Q352 18 344 55 Q319 23 281 5.5 Q243 -12 189 -12 Q140 -12 110 2.5 Q80 17 63 38 Q46 59 40 83 Q34 107 34 127 Q34 187 62 223 Q90 259 133.5 278 Q177 297 230 303 Q283 309 333 309 L333 328 Q333 350 330.5 367.5 Q328 385 320.5 397.5 Q313 410 298.5 416.5 Q284 423 259 423 Q221 423 204.5 406 Q188 389 180 351 L52 376 Q58 413 73 442 Q88 471 114.5 491 Q141 511 180 521.5 Q219 532 272 532 Q377 532 429 489 Q481 446 481 348 L481 130 Z M334 221 L310 221 Q283 220 260 216.5 Q237 213 220.5 205.5 Q204 198 195 185 Q186 172 186 152 Q186 129 198.5 112 Q211 95 247 95 Q274 95 298 106 Q322 117 334 129 L334 221 Z M446 730 Q440 645 392 607 Q344 569 268 569 Q194 569 149 606.5 Q104 644 101 727 L201 738 Q206 696 223 678.5 Q240 661 273 661 Q307 661 325.5 677 Q344 693 350 737 L446 730 Z " />
<glyph glyph-name="acircumflex" unicode="&#xe2;" horiz-adv-x="558" d="M481 130 Q481 109 486.5 99.5 Q492 90 512 90 Q523 90 543 96 L547 9 Q532 1 503.5 -5 Q475 -11 451 -11 Q406 -11 379 3.5 Q352 18 344 55 Q319 23 281 5.5 Q243 -12 189 -12 Q140 -12 110 2.5 Q80 17 63 38 Q46 59 40 83 Q34 107 34 127 Q34 187 62 223 Q90 259 133.5 278 Q177 297 230 303 Q283 309 333 309 L333 328 Q333 350 330.5 367.5 Q328 385 320.5 397.5 Q313 410 298.5 416.5 Q284 423 259 423 Q221 423 204.5 406 Q188 389 180 351 L52 376 Q58 413 73 442 Q88 471 114.5 491 Q141 511 180 521.5 Q219 532 272 532 Q377 532 429 489 Q481 446 481 348 L481 130 Z M334 221 L310 221 Q283 220 260 216.5 Q237 213 220.5 205.5 Q204 198 195 185 Q186 172 186 152 Q186 129 198.5 112 Q211 95 247 95 Q274 95 298 106 Q322 117 334 129 L334 221 Z M344 576 L271 670 L195 575 L94 581 L199 745 L343 745 L444 581 L344 576 Z " />
<glyph glyph-name="adieresis" unicode="&#xe4;" horiz-adv-x="558" d="M481 130 Q481 109 486.5 99.5 Q492 90 512 90 Q523 90 543 96 L547 9 Q532 1 503.5 -5 Q475 -11 451 -11 Q406 -11 379 3.5 Q352 18 344 55 Q319 23 281 5.5 Q243 -12 189 -12 Q140 -12 110 2.5 Q80 17 63 38 Q46 59 40 83 Q34 107 34 127 Q34 187 62 223 Q90 259 133.5 278 Q177 297 230 303 Q283 309 333 309 L333 328 Q333 350 330.5 367.5 Q328 385 320.5 397.5 Q313 410 298.5 416.5 Q284 423 259 423 Q221 423 204.5 406 Q188 389 180 351 L52 376 Q58 413 73 442 Q88 471 114.5 491 Q141 511 180 521.5 Q219 532 272 532 Q377 532 429 489 Q481 446 481 348 L481 130 Z M334 221 L310 221 Q283 220 260 216.5 Q237 213 220.5 205.5 Q204 198 195 185 Q186 172 186 152 Q186 129 198.5 112 Q211 95 247 95 Q274 95 298 106 Q322 117 334 129 L334 221 Z M241 679 Q241 641 216.5 618.5 Q192 596 153 596 Q112 596 87 618.5 Q62 641 62 679 Q62 717 87 740 Q112 763 153 763 Q192 763 216.5 740 Q241 717 241 679 Z M476 679 Q476 641 452 618.5 Q428 596 388 596 Q347 596 322.5 618.5 Q298 641 298 679 Q298 717 322.5 740 Q347 763 388 763 Q428 763 452 740 Q476 717 476 679 Z " />
<glyph glyph-name="aeacute" unicode="&#x1fd;" horiz-adv-x="838" d="M580 -12 Q509 -12 462 9 Q415 30 386 66 Q343 24 296 6 Q249 -12 195 -12 Q144 -12 112.5 2.5 Q81 17 63.5 38 Q46 59 40 83 Q34 107 34 127 Q34 188 61 223.5 Q88 259 130.5 278 Q173 297 226.5 302 Q280 307 333 307 L333 328 Q333 350 330.5 367.5 Q328 385 320.5 397.5 Q313 410 298.5 416.5 Q284 423 259 423 Q221 423 204.5 406 Q188 389 180 351 L52 376 Q58 413 73 442 Q88 471 114.5 491 Q141 511 180 521.5 Q219 532 272 532 Q325 532 361 515.5 Q397 499 420 461 Q446 494 491 513 Q536 532 589 532 Q645 532 685.5 514.5 Q726 497 752.5 465.5 Q779 434 791.5 389.5 Q804 345 804 291 Q804 278 803.5 260 Q803 242 801 228 L484 228 Q485 160 512 132.5 Q539 105 589 105 Q630 105 648 125.5 Q666 146 674 179 L801 148 Q787 75 730.5 31.5 Q674 -12 580 -12 Z M247 95 Q272 95 300.5 106.5 Q329 118 349 135 Q341 155 337 176.5 Q333 198 331 221 L310 221 Q283 220 260 216.5 Q237 213 220.5 205.5 Q204 198 195 185 Q186 172 186 152 Q186 129 198.5 112 Q211 95 247 95 Z M648 319 Q650 377 629.5 400 Q609 423 572 423 Q556 423 540.5 417.5 Q525 412 513 399.5 Q501 387 493.5 367 Q486 347 486 319 L648 319 Z M454 572 L353 581 L428 743 L589 743 L454 572 Z " />
<glyph glyph-name="agrave" unicode="&#xe0;" horiz-adv-x="558" d="M481 130 Q481 109 486.5 99.5 Q492 90 512 90 Q523 90 543 96 L547 9 Q532 1 503.5 -5 Q475 -11 451 -11 Q406 -11 379 3.5 Q352 18 344 55 Q319 23 281 5.5 Q243 -12 189 -12 Q140 -12 110 2.5 Q80 17 63 38 Q46 59 40 83 Q34 107 34 127 Q34 187 62 223 Q90 259 133.5 278 Q177 297 230 303 Q283 309 333 309 L333 328 Q333 350 330.5 367.5 Q328 385 320.5 397.5 Q313 410 298.5 416.5 Q284 423 259 423 Q221 423 204.5 406 Q188 389 180 351 L52 376 Q58 413 73 442 Q88 471 114.5 491 Q141 511 180 521.5 Q219 532 272 532 Q377 532 429 489 Q481 446 481 348 L481 130 Z M334 221 L310 221 Q283 220 260 216.5 Q237 213 220.5 205.5 Q204 198 195 185 Q186 172 186 152 Q186 129 198.5 112 Q211 95 247 95 Q274 95 298 106 Q322 117 334 129 L334 221 Z M115 743 L277 743 L351 581 L250 572 L115 743 Z " />
<glyph glyph-name="amacron" unicode="&#x101;" horiz-adv-x="558" d="M481 130 Q481 109 486.5 99.5 Q492 90 512 90 Q523 90 543 96 L547 9 Q532 1 503.5 -5 Q475 -11 451 -11 Q406 -11 379 3.5 Q352 18 344 55 Q319 23 281 5.5 Q243 -12 189 -12 Q140 -12 110 2.5 Q80 17 63 38 Q46 59 40 83 Q34 107 34 127 Q34 187 62 223 Q90 259 133.5 278 Q177 297 230 303 Q283 309 333 309 L333 328 Q333 350 330.5 367.5 Q328 385 320.5 397.5 Q313 410 298.5 416.5 Q284 423 259 423 Q221 423 204.5 406 Q188 389 180 351 L52 376 Q58 413 73 442 Q88 471 114.5 491 Q141 511 180 521.5 Q219 532 272 532 Q377 532 429 489 Q481 446 481 348 L481 130 Z M334 221 L310 221 Q283 220 260 216.5 Q237 213 220.5 205.5 Q204 198 195 185 Q186 172 186 152 Q186 129 198.5 112 Q211 95 247 95 Q274 95 298 106 Q322 117 334 129 L334 221 Z M114 601 L114 703 L425 703 L425 601 L114 601 Z " />
<glyph glyph-name="aogonek" unicode="&#x105;" horiz-adv-x="558" d="M571 -139 Q554 -188 516.5 -214 Q479 -240 431 -240 Q374 -240 344.5 -214.5 Q315 -189 315 -142 Q315 -100 340 -66 Q365 -32 400 -5 Q354 7 344 55 Q319 23 281 5.5 Q243 -12 189 -12 Q140 -12 110 2.5 Q80 17 63 38 Q46 59 40 83 Q34 107 34 127 Q34 187 62 223 Q90 259 133.5 278 Q177 297 230 303 Q283 309 333 309 L333 328 Q333 350 330.5 367.5 Q328 385 320.5 397.5 Q313 410 298.5 416.5 Q284 423 259 423 Q221 423 204.5 406 Q188 389 180 351 L52 376 Q58 413 73 442 Q88 471 114.5 491 Q141 511 180 521.5 Q219 532 272 532 Q377 532 429 489 Q481 446 481 348 L481 130 Q481 109 486.5 99.5 Q492 90 512 90 Q523 90 543 96 L547 9 Q523 3 501 -12 Q479 -27 462.5 -45 Q446 -63 436.5 -82.5 Q427 -102 427 -117 Q427 -150 458 -150 Q472 -150 484 -140.5 Q496 -131 506 -109 L571 -139 Z M334 221 L310 221 Q283 220 260 216.5 Q237 213 220.5 205.5 Q204 198 195 185 Q186 172 186 152 Q186 129 198.5 112 Q211 95 247 95 Q274 95 298 106 Q322 117 334 129 L334 221 Z " />
<glyph glyph-name="aring" unicode="&#xe5;" horiz-adv-x="558" d="M481 130 Q481 109 486.5 99.5 Q492 90 512 90 Q523 90 543 96 L547 9 Q532 1 503.5 -5 Q475 -11 451 -11 Q406 -11 379 3.5 Q352 18 344 55 Q319 23 281 5.5 Q243 -12 189 -12 Q140 -12 110 2.5 Q80 17 63 38 Q46 59 40 83 Q34 107 34 127 Q34 187 62 223 Q90 259 133.5 278 Q177 297 230 303 Q283 309 333 309 L333 328 Q333 350 330.5 367.5 Q328 385 320.5 397.5 Q313 410 298.5 416.5 Q284 423 259 423 Q221 423 204.5 406 Q188 389 180 351 L52 376 Q58 413 73 442 Q88 471 114.5 491 Q141 511 180 521.5 Q219 532 272 532 Q377 532 429 489 Q481 446 481 348 L481 130 Z M334 221 L310 221 Q283 220 260 216.5 Q237 213 220.5 205.5 Q204 198 195 185 Q186 172 186 152 Q186 129 198.5 112 Q211 95 247 95 Q274 95 298 106 Q322 117 334 129 L334 221 Z M383 675 Q383 624 352 597 Q321 570 270 570 Q220 570 189 596 Q158 622 158 671 Q158 725 191.5 752.5 Q225 780 270 780 Q317 780 350 753.5 Q383 727 383 675 Z M270 630 Q290 630 302 641 Q314 652 314 675 Q314 696 302 706.5 Q290 717 270 717 Q251 717 238 706 Q225 695 225 674 Q225 651 237.5 640.5 Q250 630 270 630 Z " />
<glyph glyph-name="aringacute" unicode="&#x1fb;" horiz-adv-x="558" d="M481 130 Q481 109 486.5 99.5 Q492 90 512 90 Q523 90 543 96 L547 9 Q532 1 503.5 -5 Q475 -11 451 -11 Q406 -11 379 3.5 Q352 18 344 55 Q319 23 281 5.5 Q243 -12 189 -12 Q140 -12 110 2.5 Q80 17 63 38 Q46 59 40 83 Q34 107 34 127 Q34 187 62 223 Q90 259 133.5 278 Q177 297 230 303 Q283 309 333 309 L333 328 Q333 350 330.5 367.5 Q328 385 320.5 397.5 Q313 410 298.5 416.5 Q284 423 259 423 Q221 423 204.5 406 Q188 389 180 351 L52 376 Q58 413 73 442 Q88 471 114.5 491 Q141 511 180 521.5 Q219 532 272 532 Q377 532 429 489 Q481 446 481 348 L481 130 Z M334 221 L310 221 Q283 220 260 216.5 Q237 213 220.5 205.5 Q204 198 195 185 Q186 172 186 152 Q186 129 198.5 112 Q211 95 247 95 Q274 95 298 106 Q322 117 334 129 L334 221 Z M383 674 Q383 623 352 596 Q321 569 270 569 Q220 569 189 595 Q158 621 158 670 Q158 724 191.5 751.5 Q225 779 270 779 Q317 779 350 752.5 Q383 726 383 674 Z M270 629 Q290 629 302 640 Q314 651 314 674 Q314 695 302 705.5 Q290 716 270 716 Q251 716 238 705 Q225 694 225 673 Q225 650 237.5 639.5 Q250 629 270 629 Z M285 804 L178 812 L269 952 L431 952 L285 804 Z " />
<glyph glyph-name="atilde" unicode="&#xe3;" horiz-adv-x="558" d="M481 130 Q481 109 486.5 99.5 Q492 90 512 90 Q523 90 543 96 L547 9 Q532 1 503.5 -5 Q475 -11 451 -11 Q406 -11 379 3.5 Q352 18 344 55 Q319 23 281 5.5 Q243 -12 189 -12 Q140 -12 110 2.5 Q80 17 63 38 Q46 59 40 83 Q34 107 34 127 Q34 187 62 223 Q90 259 133.5 278 Q177 297 230 303 Q283 309 333 309 L333 328 Q333 350 330.5 367.5 Q328 385 320.5 397.5 Q313 410 298.5 416.5 Q284 423 259 423 Q221 423 204.5 406 Q188 389 180 351 L52 376 Q58 413 73 442 Q88 471 114.5 491 Q141 511 180 521.5 Q219 532 272 532 Q377 532 429 489 Q481 446 481 348 L481 130 Z M334 221 L310 221 Q283 220 260 216.5 Q237 213 220.5 205.5 Q204 198 195 185 Q186 172 186 152 Q186 129 198.5 112 Q211 95 247 95 Q274 95 298 106 Q322 117 334 129 L334 221 Z M193 732 Q217 732 237 725 Q257 718 274.5 710 Q292 702 308 695 Q324 688 341 688 Q358 688 364.5 697.5 Q371 707 371 732 L447 728 Q454 666 431.5 626.5 Q409 587 356 587 Q330 587 309 594 Q288 601 270 609 Q252 617 236 624 Q220 631 204 631 Q188 631 180 621.5 Q172 612 176 584 L94 587 Q86 653 114 692.5 Q142 732 193 732 Z " />
<glyph glyph-name="cacute" unicode="&#x107;" horiz-adv-x="544" d="M285 -12 Q220 -12 172.5 7.5 Q125 27 94 62 Q63 97 48.5 145.5 Q34 194 34 252 Q34 387 103 459.5 Q172 532 300 532 Q394 532 451.5 481.5 Q509 431 517 335 L382 315 Q377 364 359.5 390 Q342 416 297 416 Q276 416 256.5 410 Q237 404 223 387.5 Q209 371 200.5 342 Q192 313 192 268 Q192 223 199 192 Q206 161 219.5 142 Q233 123 252 114.5 Q271 106 295 106 Q339 106 362 128.5 Q385 151 392 201 L519 177 Q512 128 492 92.5 Q472 57 441 33.5 Q410 10 370.5 -1 Q331 -12 285 -12 Z M321 572 L220 581 L295 743 L456 743 L321 572 Z " />
<glyph glyph-name="ccaron" unicode="&#x10d;" horiz-adv-x="544" d="M285 -12 Q220 -12 172.5 7.5 Q125 27 94 62 Q63 97 48.5 145.5 Q34 194 34 252 Q34 387 103 459.5 Q172 532 300 532 Q394 532 451.5 481.5 Q509 431 517 335 L382 315 Q377 364 359.5 390 Q342 416 297 416 Q276 416 256.5 410 Q237 404 223 387.5 Q209 371 200.5 342 Q192 313 192 268 Q192 223 199 192 Q206 161 219.5 142 Q233 123 252 114.5 Q271 106 295 106 Q339 106 362 128.5 Q385 151 392 201 L519 177 Q512 128 492 92.5 Q472 57 441 33.5 Q410 10 370.5 -1 Q331 -12 285 -12 Z M227 741 L300 648 L376 742 L475 736 L370 572 L226 572 L125 736 L227 741 Z " />
<glyph glyph-name="ccedilla" unicode="&#xe7;" horiz-adv-x="544" d="M196 -162 Q208 -165 219.5 -167 Q231 -169 244 -169 Q267 -169 280.5 -160.5 Q294 -152 294 -132 Q294 -109 277 -102.5 Q260 -96 230 -95 L241 -9 Q187 -3 148 19 Q109 41 83.5 75 Q58 109 46 154 Q34 199 34 252 Q34 387 103 459.5 Q172 532 300 532 Q394 532 451.5 481.5 Q509 431 517 335 L382 315 Q377 364 359.5 390 Q342 416 297 416 Q276 416 256.5 410 Q237 404 223 387.5 Q209 371 200.5 342 Q192 313 192 268 Q192 223 199 192 Q206 161 219.5 142 Q233 123 252 114.5 Q271 106 295 106 Q339 106 362 128.5 Q385 151 392 201 L519 177 Q506 86 450 41 Q394 -4 313 -11 L309 -45 Q325 -48 340.5 -54 Q356 -60 368 -71 Q380 -82 387 -98 Q394 -114 394 -137 Q394 -192 356.5 -219 Q319 -246 263 -246 Q217 -246 181 -232 L196 -162 Z " />
<glyph glyph-name="ccircumflex" unicode="&#x109;" horiz-adv-x="544" d="M285 -12 Q220 -12 172.5 7.5 Q125 27 94 62 Q63 97 48.5 145.5 Q34 194 34 252 Q34 387 103 459.5 Q172 532 300 532 Q394 532 451.5 481.5 Q509 431 517 335 L382 315 Q377 364 359.5 390 Q342 416 297 416 Q276 416 256.5 410 Q237 404 223 387.5 Q209 371 200.5 342 Q192 313 192 268 Q192 223 199 192 Q206 161 219.5 142 Q233 123 252 114.5 Q271 106 295 106 Q339 106 362 128.5 Q385 151 392 201 L519 177 Q512 128 492 92.5 Q472 57 441 33.5 Q410 10 370.5 -1 Q331 -12 285 -12 Z M373 576 L300 670 L224 575 L123 581 L228 745 L372 745 L473 581 L373 576 Z " />
<glyph glyph-name="cdotaccent" unicode="&#x10b;" horiz-adv-x="544" d="M285 -12 Q220 -12 172.5 7.5 Q125 27 94 62 Q63 97 48.5 145.5 Q34 194 34 252 Q34 387 103 459.5 Q172 532 300 532 Q394 532 451.5 481.5 Q509 431 517 335 L382 315 Q377 364 359.5 390 Q342 416 297 416 Q276 416 256.5 410 Q237 404 223 387.5 Q209 371 200.5 342 Q192 313 192 268 Q192 223 199 192 Q206 161 219.5 142 Q233 123 252 114.5 Q271 106 295 106 Q339 106 362 128.5 Q385 151 392 201 L519 177 Q512 128 492 92.5 Q472 57 441 33.5 Q410 10 370.5 -1 Q331 -12 285 -12 Z M390 681 Q390 637 366.5 613 Q343 589 299 589 Q256 589 232.5 613 Q209 637 209 681 Q209 725 232.5 748.5 Q256 772 299 772 Q343 772 366.5 748.5 Q390 725 390 681 Z " />
<glyph glyph-name="dcaron" unicode="&#x10f;" horiz-adv-x="719" d="M534 0 L408 0 L399 51 L396 52 Q369 22 331.5 5 Q294 -12 242 -12 Q196 -12 158.5 2.5 Q121 17 94 48.5 Q67 80 52 130 Q37 180 37 250 Q37 328 56 382 Q75 436 106.5 469.5 Q138 503 177 517.5 Q216 532 257 532 Q301 532 332.5 521.5 Q364 511 389 488 L389 755 L534 755 L534 0 Z M384 383 Q369 394 347.5 403 Q326 412 300 412 Q271 412 251.5 400 Q232 388 219 367 Q206 346 200.5 317.5 Q195 289 195 255 Q195 185 218 146 Q241 107 295 107 Q319 107 342.5 117 Q366 127 384 144 L384 383 Z M608 755 L746 755 L680 553 L575 562 L608 755 Z " />
<glyph glyph-name="dcroat" unicode="&#x111;" horiz-adv-x="591" d="M214 677 L389 677 L389 755 L534 755 L534 677 L598 677 L598 576 L534 576 L534 0 L408 0 L399 51 L396 52 Q369 22 331.5 5 Q294 -12 242 -12 Q196 -12 158.5 2.5 Q121 17 94 48.5 Q67 80 52 129 Q37 178 37 247 Q37 324 56 377 Q75 430 106.5 462.5 Q138 495 177 509.5 Q216 524 257 524 Q301 524 332 513.5 Q363 503 389 480 L389 576 L214 576 L214 677 Z M384 375 Q369 386 347.5 395 Q326 404 300 404 Q271 404 251.5 392.5 Q232 381 219 360.5 Q206 340 200.5 312.5 Q195 285 195 252 Q195 184 218 145.5 Q241 107 295 107 Q319 107 342.5 117 Q366 127 384 144 L384 375 Z " />
<glyph glyph-name="eacute" unicode="&#xe9;" horiz-adv-x="547" d="M289 -12 Q217 -12 168 10.5 Q119 33 89 70.5 Q59 108 46.5 157 Q34 206 34 259 Q34 329 54 380.5 Q74 432 109 466 Q144 500 190 516 Q236 532 289 532 Q348 532 390.5 514.5 Q433 497 460 465.5 Q487 434 500 389.5 Q513 345 513 291 Q513 278 512.5 257.5 Q512 237 510 223 L193 223 Q195 158 221.5 131.5 Q248 105 298 105 Q339 105 357 125.5 Q375 146 383 179 L510 148 Q496 75 439.5 31.5 Q383 -12 289 -12 Z M357 319 Q357 376 337.5 399.5 Q318 423 281 423 Q265 423 249.5 417.5 Q234 412 222 399.5 Q210 387 202.5 367 Q195 347 195 319 L357 319 Z M307 572 L206 581 L281 743 L442 743 L307 572 Z " />
<glyph glyph-name="ebreve" unicode="&#x115;" horiz-adv-x="547" d="M289 -12 Q217 -12 168 10.5 Q119 33 89 70.5 Q59 108 46.5 157 Q34 206 34 259 Q34 329 54 380.5 Q74 432 109 466 Q144 500 190 516 Q236 532 289 532 Q348 532 390.5 514.5 Q433 497 460 465.5 Q487 434 500 389.5 Q513 345 513 291 Q513 278 512.5 257.5 Q512 237 510 223 L193 223 Q195 158 221.5 131.5 Q248 105 298 105 Q339 105 357 125.5 Q375 146 383 179 L510 148 Q496 75 439.5 31.5 Q383 -12 289 -12 Z M357 319 Q357 376 337.5 399.5 Q318 423 281 423 Q265 423 249.5 417.5 Q234 412 222 399.5 Q210 387 202.5 367 Q195 347 195 319 L357 319 Z M461 730 Q455 645 407 607 Q359 569 283 569 Q209 569 164 606.5 Q119 644 116 727 L216 738 Q221 696 238 678.5 Q255 661 288 661 Q322 661 340.5 677 Q359 693 365 737 L461 730 Z " />
<glyph glyph-name="ecaron" unicode="&#x11b;" horiz-adv-x="547" d="M289 -12 Q217 -12 168 10.5 Q119 33 89 70.5 Q59 108 46.5 157 Q34 206 34 259 Q34 329 54 380.5 Q74 432 109 466 Q144 500 190 516 Q236 532 289 532 Q348 532 390.5 514.5 Q433 497 460 465.5 Q487 434 500 389.5 Q513 345 513 291 Q513 278 512.5 257.5 Q512 237 510 223 L193 223 Q195 158 221.5 131.5 Q248 105 298 105 Q339 105 357 125.5 Q375 146 383 179 L510 148 Q496 75 439.5 31.5 Q383 -12 289 -12 Z M357 319 Q357 376 337.5 399.5 Q318 423 281 423 Q265 423 249.5 417.5 Q234 412 222 399.5 Q210 387 202.5 367 Q195 347 195 319 L357 319 Z M213 741 L286 648 L362 742 L461 736 L356 572 L212 572 L111 736 L213 741 Z " />
<glyph glyph-name="ecircumflex" unicode="&#xea;" horiz-adv-x="547" d="M289 -12 Q217 -12 168 10.5 Q119 33 89 70.5 Q59 108 46.5 157 Q34 206 34 259 Q34 329 54 380.5 Q74 432 109 466 Q144 500 190 516 Q236 532 289 532 Q348 532 390.5 514.5 Q433 497 460 465.5 Q487 434 500 389.5 Q513 345 513 291 Q513 278 512.5 257.5 Q512 237 510 223 L193 223 Q195 158 221.5 131.5 Q248 105 298 105 Q339 105 357 125.5 Q375 146 383 179 L510 148 Q496 75 439.5 31.5 Q383 -12 289 -12 Z M357 319 Q357 376 337.5 399.5 Q318 423 281 423 Q265 423 249.5 417.5 Q234 412 222 399.5 Q210 387 202.5 367 Q195 347 195 319 L357 319 Z M359 576 L286 670 L210 575 L109 581 L214 745 L358 745 L459 581 L359 576 Z " />
<glyph glyph-name="edieresis" unicode="&#xeb;" horiz-adv-x="547" d="M289 -12 Q217 -12 168 10.5 Q119 33 89 70.5 Q59 108 46.5 157 Q34 206 34 259 Q34 329 54 380.5 Q74 432 109 466 Q144 500 190 516 Q236 532 289 532 Q348 532 390.5 514.5 Q433 497 460 465.5 Q487 434 500 389.5 Q513 345 513 291 Q513 278 512.5 257.5 Q512 237 510 223 L193 223 Q195 158 221.5 131.5 Q248 105 298 105 Q339 105 357 125.5 Q375 146 383 179 L510 148 Q496 75 439.5 31.5 Q383 -12 289 -12 Z M357 319 Q357 376 337.5 399.5 Q318 423 281 423 Q265 423 249.5 417.5 Q234 412 222 399.5 Q210 387 202.5 367 Q195 347 195 319 L357 319 Z M256 679 Q256 641 231.5 618.5 Q207 596 168 596 Q127 596 102 618.5 Q77 641 77 679 Q77 717 102 740 Q127 763 168 763 Q207 763 231.5 740 Q256 717 256 679 Z M491 679 Q491 641 467 618.5 Q443 596 403 596 Q362 596 337.5 618.5 Q313 641 313 679 Q313 717 337.5 740 Q362 763 403 763 Q443 763 467 740 Q491 717 491 679 Z " />
<glyph glyph-name="edotaccent" unicode="&#x117;" horiz-adv-x="547" d="M289 -12 Q217 -12 168 10.5 Q119 33 89 70.5 Q59 108 46.5 157 Q34 206 34 259 Q34 329 54 380.5 Q74 432 109 466 Q144 500 190 516 Q236 532 289 532 Q348 532 390.5 514.5 Q433 497 460 465.5 Q487 434 500 389.5 Q513 345 513 291 Q513 278 512.5 257.5 Q512 237 510 223 L193 223 Q195 158 221.5 131.5 Q248 105 298 105 Q339 105 357 125.5 Q375 146 383 179 L510 148 Q496 75 439.5 31.5 Q383 -12 289 -12 Z M357 319 Q357 376 337.5 399.5 Q318 423 281 423 Q265 423 249.5 417.5 Q234 412 222 399.5 Q210 387 202.5 367 Q195 347 195 319 L357 319 Z M376 681 Q376 637 352.5 613 Q329 589 285 589 Q242 589 218.5 613 Q195 637 195 681 Q195 725 218.5 748.5 Q242 772 285 772 Q329 772 352.5 748.5 Q376 725 376 681 Z " />
<glyph glyph-name="egrave" unicode="&#xe8;" horiz-adv-x="547" d="M289 -12 Q217 -12 168 10.5 Q119 33 89 70.5 Q59 108 46.5 157 Q34 206 34 259 Q34 329 54 380.5 Q74 432 109 466 Q144 500 190 516 Q236 532 289 532 Q348 532 390.5 514.5 Q433 497 460 465.5 Q487 434 500 389.5 Q513 345 513 291 Q513 278 512.5 257.5 Q512 237 510 223 L193 223 Q195 158 221.5 131.5 Q248 105 298 105 Q339 105 357 125.5 Q375 146 383 179 L510 148 Q496 75 439.5 31.5 Q383 -12 289 -12 Z M357 319 Q357 376 337.5 399.5 Q318 423 281 423 Q265 423 249.5 417.5 Q234 412 222 399.5 Q210 387 202.5 367 Q195 347 195 319 L357 319 Z M130 743 L292 743 L366 581 L265 572 L130 743 Z " />
<glyph glyph-name="emacron" unicode="&#x113;" horiz-adv-x="547" d="M289 -12 Q217 -12 168 10.5 Q119 33 89 70.5 Q59 108 46.5 157 Q34 206 34 259 Q34 329 54 380.5 Q74 432 109 466 Q144 500 190 516 Q236 532 289 532 Q348 532 390.5 514.5 Q433 497 460 465.5 Q487 434 500 389.5 Q513 345 513 291 Q513 278 512.5 257.5 Q512 237 510 223 L193 223 Q195 158 221.5 131.5 Q248 105 298 105 Q339 105 357 125.5 Q375 146 383 179 L510 148 Q496 75 439.5 31.5 Q383 -12 289 -12 Z M357 319 Q357 376 337.5 399.5 Q318 423 281 423 Q265 423 249.5 417.5 Q234 412 222 399.5 Q210 387 202.5 367 Q195 347 195 319 L357 319 Z M129 601 L129 703 L440 703 L440 601 L129 601 Z " />
<glyph glyph-name="eogonek" unicode="&#x119;" horiz-adv-x="547" d="M462 -139 Q445 -188 407.5 -214 Q370 -240 322 -240 Q265 -240 235.5 -214.5 Q206 -189 206 -142 Q206 -102 228.5 -70 Q251 -38 283 -12 Q212 -11 164.5 12 Q117 35 88 72.5 Q59 110 46.5 158 Q34 206 34 259 Q34 329 54 380.5 Q74 432 109 466 Q144 500 190 516 Q236 532 289 532 Q348 532 390.5 514.5 Q433 497 460 465.5 Q487 434 500 389.5 Q513 345 513 291 Q513 278 512.5 257.5 Q512 237 510 223 L193 223 Q195 158 221.5 131.5 Q248 105 298 105 Q339 105 357 125.5 Q375 146 383 179 L510 148 Q501 101 476 69 Q451 37 413 11 Q369 -20 343.5 -53.5 Q318 -87 318 -117 Q318 -150 349 -150 Q363 -150 375 -140.5 Q387 -131 397 -109 L462 -139 Z M357 319 Q357 376 337.5 399.5 Q318 423 281 423 Q265 423 249.5 417.5 Q234 412 222 399.5 Q210 387 202.5 367 Q195 347 195 319 L357 319 Z " />
<glyph glyph-name="gbreve" unicode="&#x11f;" horiz-adv-x="560" d="M274 532 Q317 532 351.5 524.5 Q386 517 412 500 Q419 515 428 529 Q437 543 448.5 554 Q460 565 475 572 Q490 579 508 579 Q527 579 550 570 L550 471 Q527 473 506.5 471.5 Q486 470 464 463 Q487 437 497 407.5 Q507 378 507 346 Q507 302 490 267.5 Q473 233 442.5 209 Q412 185 370 172 Q328 159 278 159 Q252 159 232.5 161.5 Q213 164 191 170 Q184 163 178 155.5 Q172 148 172 138 Q172 127 181 120 Q190 113 219 111 L367 102 Q409 99 441.5 90 Q474 81 496.5 63.5 Q519 46 530.5 18.5 Q542 -9 542 -48 Q542 -96 521 -129.5 Q500 -163 463.5 -184.5 Q427 -206 377 -215.5 Q327 -225 270 -225 Q198 -225 150 -216 Q102 -207 73 -191.5 Q44 -176 31.5 -153.5 Q19 -131 19 -104 Q19 -67 44.5 -42.5 Q70 -18 113 -10 L113 -6 Q37 16 37 82 Q37 121 59 146.5 Q81 172 118 198 Q83 218 62.5 253.5 Q42 289 42 339 Q42 381 57.5 416 Q73 451 102.5 477 Q132 503 175 517.5 Q218 532 274 532 Z M369 347 Q369 388 345.5 407 Q322 426 280 426 Q239 426 212 407.5 Q185 389 185 347 Q185 308 207.5 287.5 Q230 267 278 267 Q319 267 344 288 Q369 309 369 347 Z M395 -75 Q395 -60 383 -48 Q371 -36 331 -34 L186 -25 Q172 -36 163.5 -48.5 Q155 -61 155 -75 Q155 -90 165 -100.5 Q175 -111 192 -117 Q209 -123 232.5 -125.5 Q256 -128 282 -128 Q333 -128 364 -117.5 Q395 -107 395 -75 Z M455 730 Q449 645 401 607 Q353 569 277 569 Q203 569 158 606.5 Q113 644 110 727 L210 738 Q215 696 232 678.5 Q249 661 282 661 Q316 661 334.5 677 Q353 693 359 737 L455 730 Z " />
<glyph glyph-name="gcircumflex" unicode="&#x11d;" horiz-adv-x="560" d="M274 532 Q317 532 351.5 524.5 Q386 517 412 500 Q419 515 428 529 Q437 543 448.5 554 Q460 565 475 572 Q490 579 508 579 Q527 579 550 570 L550 471 Q527 473 506.5 471.5 Q486 470 464 463 Q487 437 497 407.5 Q507 378 507 346 Q507 302 490 267.5 Q473 233 442.5 209 Q412 185 370 172 Q328 159 278 159 Q252 159 232.5 161.5 Q213 164 191 170 Q184 163 178 155.5 Q172 148 172 138 Q172 127 181 120 Q190 113 219 111 L367 102 Q409 99 441.5 90 Q474 81 496.5 63.5 Q519 46 530.5 18.5 Q542 -9 542 -48 Q542 -96 521 -129.5 Q500 -163 463.5 -184.5 Q427 -206 377 -215.5 Q327 -225 270 -225 Q198 -225 150 -216 Q102 -207 73 -191.5 Q44 -176 31.5 -153.5 Q19 -131 19 -104 Q19 -67 44.5 -42.5 Q70 -18 113 -10 L113 -6 Q37 16 37 82 Q37 121 59 146.5 Q81 172 118 198 Q83 218 62.5 253.5 Q42 289 42 339 Q42 381 57.5 416 Q73 451 102.5 477 Q132 503 175 517.5 Q218 532 274 532 Z M369 347 Q369 388 345.5 407 Q322 426 280 426 Q239 426 212 407.5 Q185 389 185 347 Q185 308 207.5 287.5 Q230 267 278 267 Q319 267 344 288 Q369 309 369 347 Z M395 -75 Q395 -60 383 -48 Q371 -36 331 -34 L186 -25 Q172 -36 163.5 -48.5 Q155 -61 155 -75 Q155 -90 165 -100.5 Q175 -111 192 -117 Q209 -123 232.5 -125.5 Q256 -128 282 -128 Q333 -128 364 -117.5 Q395 -107 395 -75 Z M353 576 L280 670 L204 575 L103 581 L208 745 L352 745 L453 581 L353 576 Z " />
<glyph glyph-name="gcommaaccent" unicode="&#x123;" horiz-adv-x="560" d="M274 532 Q317 532 351.5 524.5 Q386 517 412 500 Q419 515 428 529 Q437 543 448.5 554 Q460 565 475 572 Q490 579 508 579 Q527 579 550 570 L550 471 Q527 473 506.5 471.5 Q486 470 464 463 Q487 437 497 407.5 Q507 378 507 346 Q507 302 490 267.5 Q473 233 442.5 209 Q412 185 370 172 Q328 159 278 159 Q252 159 232.5 161.5 Q213 164 191 170 Q184 163 178 155.5 Q172 148 172 138 Q172 127 181 120 Q190 113 219 111 L367 102 Q409 99 441.5 90 Q474 81 496.5 63.5 Q519 46 530.5 18.5 Q542 -9 542 -48 Q542 -96 521 -129.5 Q500 -163 463.5 -184.5 Q427 -206 377 -215.5 Q327 -225 270 -225 Q198 -225 150 -216 Q102 -207 73 -191.5 Q44 -176 31.5 -153.5 Q19 -131 19 -104 Q19 -67 44.5 -42.5 Q70 -18 113 -10 L113 -6 Q37 16 37 82 Q37 121 59 146.5 Q81 172 118 198 Q83 218 62.5 253.5 Q42 289 42 339 Q42 381 57.5 416 Q73 451 102.5 477 Q132 503 175 517.5 Q218 532 274 532 Z M369 347 Q369 388 345.5 407 Q322 426 280 426 Q239 426 212 407.5 Q185 389 185 347 Q185 308 207.5 287.5 Q230 267 278 267 Q319 267 344 288 Q369 309 369 347 Z M395 -75 Q395 -60 383 -48 Q371 -36 331 -34 L186 -25 Q172 -36 163.5 -48.5 Q155 -61 155 -75 Q155 -90 165 -100.5 Q175 -111 192 -117 Q209 -123 232.5 -125.5 Q256 -128 282 -128 Q333 -128 364 -117.5 Q395 -107 395 -75 Z M337 569 L197 569 L280 776 L383 761 L337 569 Z " />
<glyph glyph-name="gdotaccent" unicode="&#x121;" horiz-adv-x="560" d="M274 532 Q317 532 351.5 524.5 Q386 517 412 500 Q419 515 428 529 Q437 543 448.5 554 Q460 565 475 572 Q490 579 508 579 Q527 579 550 570 L550 471 Q527 473 506.5 471.5 Q486 470 464 463 Q487 437 497 407.5 Q507 378 507 346 Q507 302 490 267.5 Q473 233 442.5 209 Q412 185 370 172 Q328 159 278 159 Q252 159 232.5 161.5 Q213 164 191 170 Q184 163 178 155.5 Q172 148 172 138 Q172 127 181 120 Q190 113 219 111 L367 102 Q409 99 441.5 90 Q474 81 496.5 63.5 Q519 46 530.5 18.5 Q542 -9 542 -48 Q542 -96 521 -129.5 Q500 -163 463.5 -184.5 Q427 -206 377 -215.5 Q327 -225 270 -225 Q198 -225 150 -216 Q102 -207 73 -191.5 Q44 -176 31.5 -153.5 Q19 -131 19 -104 Q19 -67 44.5 -42.5 Q70 -18 113 -10 L113 -6 Q37 16 37 82 Q37 121 59 146.5 Q81 172 118 198 Q83 218 62.5 253.5 Q42 289 42 339 Q42 381 57.5 416 Q73 451 102.5 477 Q132 503 175 517.5 Q218 532 274 532 Z M369 347 Q369 388 345.5 407 Q322 426 280 426 Q239 426 212 407.5 Q185 389 185 347 Q185 308 207.5 287.5 Q230 267 278 267 Q319 267 344 288 Q369 309 369 347 Z M395 -75 Q395 -60 383 -48 Q371 -36 331 -34 L186 -25 Q172 -36 163.5 -48.5 Q155 -61 155 -75 Q155 -90 165 -100.5 Q175 -111 192 -117 Q209 -123 232.5 -125.5 Q256 -128 282 -128 Q333 -128 364 -117.5 Q395 -107 395 -75 Z M370 681 Q370 637 346.5 613 Q323 589 279 589 Q236 589 212.5 613 Q189 637 189 681 Q189 725 212.5 748.5 Q236 772 279 772 Q323 772 346.5 748.5 Q370 725 370 681 Z " />
<glyph glyph-name="hbar" unicode="&#x127;" horiz-adv-x="583" d="M-1 677 L57 677 L57 755 L207 755 L207 677 L382 677 L382 576 L207 576 L207 466 Q235 488 273.5 506.5 Q312 525 368 525 Q453 525 491.5 482 Q530 439 530 349 L530 0 L379 0 L379 322 Q379 364 362 383 Q345 402 310 402 Q279 402 251 388.5 Q223 375 208 361 L208 0 L57 0 L57 576 L-1 576 L-1 677 Z " />
<glyph glyph-name="hcircumflex" unicode="&#x125;" horiz-adv-x="583" d="M530 0 L379 0 L379 329 Q379 371 362 390 Q345 409 310 409 Q279 409 251 395.5 Q223 382 208 368 L208 0 L57 0 L57 755 L207 755 L207 473 Q235 495 273.5 513.5 Q312 532 368 532 Q453 532 491.5 489 Q530 446 530 356 L530 0 Z M136 863 L61 790 L-41 797 L66 939 L206 939 L308 797 L208 791 L136 863 Z " />
<glyph glyph-name="iacute" unicode="&#xed;" horiz-adv-x="268" d="M211 0 L60 0 L60 521 L211 521 L211 0 Z M159 572 L58 581 L133 743 L294 743 L159 572 Z " />
<glyph glyph-name="ibreve" unicode="&#x12d;" horiz-adv-x="268" d="M211 0 L60 0 L60 521 L211 521 L211 0 Z M313 730 Q307 645 259 607 Q211 569 135 569 Q61 569 16 606.5 Q-29 644 -32 727 L68 738 Q73 696 90 678.5 Q107 661 140 661 Q174 661 192.5 677 Q211 693 217 737 L313 730 Z " />
<glyph glyph-name="icircumflex" unicode="&#xee;" horiz-adv-x="268" d="M211 0 L60 0 L60 521 L211 521 L211 0 Z M211 576 L138 670 L62 575 L-39 581 L66 745 L210 745 L311 581 L211 576 Z " />
<glyph glyph-name="idieresis" unicode="&#xef;" horiz-adv-x="268" d="M211 0 L60 0 L60 521 L211 521 L211 0 Z M108 679 Q108 641 83.5 618.5 Q59 596 20 596 Q-21 596 -46 618.5 Q-71 641 -71 679 Q-71 717 -46 740 Q-21 763 20 763 Q59 763 83.5 740 Q108 717 108 679 Z M343 679 Q343 641 319 618.5 Q295 596 255 596 Q214 596 189.5 618.5 Q165 641 165 679 Q165 717 189.5 740 Q214 763 255 763 Q295 763 319 740 Q343 717 343 679 Z " />
<glyph glyph-name="igrave" unicode="&#xec;" horiz-adv-x="268" d="M211 0 L60 0 L60 521 L211 521 L211 0 Z M-18 743 L144 743 L218 581 L117 572 L-18 743 Z " />
<glyph glyph-name="imacron" unicode="&#x12b;" horiz-adv-x="268" d="M211 0 L60 0 L60 521 L211 521 L211 0 Z M-19 601 L-19 703 L292 703 L292 601 L-19 601 Z " />
<glyph glyph-name="iogonek" unicode="&#x12f;" horiz-adv-x="268" d="M253 -139 Q236 -188 198.5 -214 Q161 -240 113 -240 Q56 -240 26.5 -214.5 Q-3 -189 -3 -142 Q-3 -97 26.5 -63 Q56 -29 104 0 L60 0 L60 521 L211 521 L211 0 Q157 -34 133 -61 Q109 -88 109 -117 Q109 -150 140 -150 Q154 -150 166 -140.5 Q178 -131 188 -109 L253 -139 Z M227 681 Q227 637 203 613 Q179 589 136 589 Q92 589 68.5 613 Q45 637 45 681 Q45 725 68.5 748.5 Q92 772 136 772 Q179 772 203 748.5 Q227 725 227 681 Z " />
<glyph glyph-name="itilde" unicode="&#x129;" horiz-adv-x="268" d="M211 0 L60 0 L60 521 L211 521 L211 0 Z M60 732 Q84 732 104 725 Q124 718 141.5 710 Q159 702 175 695 Q191 688 208 688 Q225 688 231.5 697.5 Q238 707 238 732 L314 728 Q321 666 298.5 626.5 Q276 587 223 587 Q197 587 176 594 Q155 601 137 609 Q119 617 103 624 Q87 631 71 631 Q55 631 47 621.5 Q39 612 43 584 L-39 587 Q-47 653 -19 692.5 Q9 732 60 732 Z " />
<glyph glyph-name="jcircumflex" unicode="&#x135;" horiz-adv-x="266" d="M25 -223 Q-16 -223 -50 -214 Q-84 -205 -98 -195 L-87 -82 Q-74 -88 -51.5 -95 Q-29 -102 -5 -102 Q22 -102 41 -86.5 Q60 -71 60 -24 L60 521 L211 521 L211 -41 Q211 -90 197.5 -124.5 Q184 -159 159.5 -181 Q135 -203 100.5 -213 Q66 -223 25 -223 Z M211 576 L138 670 L62 575 L-39 581 L66 745 L210 745 L311 581 L211 576 Z " />
<glyph glyph-name="kcommaaccent" unicode="&#x137;" horiz-adv-x="564" d="M210 339 L382 521 L549 521 L376 334 L562 0 L395 0 L260 238 L210 189 L210 0 L59 0 L59 755 L210 755 L210 339 Z M230 -68 L370 -68 L287 -274 L184 -259 L230 -68 Z " />
<glyph glyph-name="lacute" unicode="&#x13a;" horiz-adv-x="268" d="M211 0 L60 0 L60 755 L211 755 L211 0 Z M150 789 L43 797 L134 937 L296 937 L150 789 Z " />
<glyph glyph-name="lcaron" unicode="&#x13e;" horiz-adv-x="396" d="M211 0 L60 0 L60 755 L211 755 L211 0 Z M285 755 L423 755 L357 553 L252 562 L285 755 Z " />
<glyph glyph-name="lcommaaccent" unicode="&#x13c;" horiz-adv-x="268" d="M211 0 L60 0 L60 755 L211 755 L211 0 Z M79 -68 L219 -68 L136 -274 L33 -259 L79 -68 Z " />
<glyph glyph-name="ldot" unicode="&#x140;" horiz-adv-x="398" d="M211 0 L60 0 L60 755 L211 755 L211 0 Z M422.466 403.12 Q422.466 360.081 399.485 336.606 Q376.504 313.13 333.476 313.13 Q291.426 313.13 268.446 336.606 Q245.465 360.081 245.465 403.12 Q245.465 446.158 268.446 469.145 Q291.426 492.131 333.476 492.131 Q376.504 492.131 399.485 469.145 Q422.466 446.158 422.466 403.12 Z " />
<glyph glyph-name="lslash" unicode="&#x142;" horiz-adv-x="279" d="M214 508 L279 540 L279 407 L214 375 L214 0 L63 0 L63 316 L0 286 L0 419 L63 449 L63 755 L214 755 L214 508 Z " />
<glyph glyph-name="nacute" unicode="&#x144;" horiz-adv-x="583" d="M530 0 L379 0 L379 330 Q379 372 362 391 Q345 410 310 410 Q279 410 251 396.5 Q223 383 208 369 L208 0 L57 0 L57 521 L191 521 L199 469 Q228 495 269.5 513.5 Q311 532 365 532 Q452 532 491 489 Q530 446 530 356 L530 0 Z M329 572 L228 581 L303 743 L464 743 L329 572 Z " />
<glyph glyph-name="napostrophe" unicode="&#x149;" horiz-adv-x="640" d="M587 0 L436 0 L436 330 Q436 372 419 391 Q402 410 367 410 Q336 410 308 396.5 Q280 383 265 369 L265 0 L114 0 L114 521 L248 521 L256 469 Q285 495 326.5 513.5 Q368 532 422 532 Q509 532 548 489 Q587 446 587 356 L587 0 Z M20.9471 688.083 L150.462 688.083 L73.6783 497.083 L-22.5331 510.063 L20.9471 688.083 Z " />
<glyph glyph-name="ncaron" unicode="&#x148;" horiz-adv-x="583" d="M530 0 L379 0 L379 330 Q379 372 362 391 Q345 410 310 410 Q279 410 251 396.5 Q223 383 208 369 L208 0 L57 0 L57 521 L191 521 L199 469 Q228 495 269.5 513.5 Q311 532 365 532 Q452 532 491 489 Q530 446 530 356 L530 0 Z M234 741 L307 648 L383 742 L482 736 L377 572 L233 572 L132 736 L234 741 Z " />
<glyph glyph-name="ncommaaccent" unicode="&#x146;" horiz-adv-x="583" d="M530 0 L379 0 L379 330 Q379 372 362 391 Q345 410 310 410 Q279 410 251 396.5 Q223 383 208 369 L208 0 L57 0 L57 521 L191 521 L199 469 Q228 495 269.5 513.5 Q311 532 365 532 Q452 532 491 489 Q530 446 530 356 L530 0 Z M231 -68 L371 -68 L288 -274 L185 -259 L231 -68 Z " />
<glyph glyph-name="ntilde" unicode="&#xf1;" horiz-adv-x="583" d="M530 0 L379 0 L379 330 Q379 372 362 391 Q345 410 310 410 Q279 410 251 396.5 Q223 383 208 369 L208 0 L57 0 L57 521 L191 521 L199 469 Q228 495 269.5 513.5 Q311 532 365 532 Q452 532 491 489 Q530 446 530 356 L530 0 Z M212 732 Q236 732 256 725 Q276 718 293.5 710 Q311 702 327 695 Q343 688 360 688 Q377 688 383.5 697.5 Q390 707 390 732 L466 728 Q473 666 450.5 626.5 Q428 587 375 587 Q349 587 328 594 Q307 601 289 609 Q271 617 255 624 Q239 631 223 631 Q207 631 199 621.5 Q191 612 195 584 L113 587 Q105 653 133 692.5 Q161 732 212 732 Z " />
<glyph glyph-name="oacute" unicode="&#xf3;" horiz-adv-x="587" d="M288 -12 Q217 -12 168.5 8 Q120 28 90 64 Q60 100 47 149.5 Q34 199 34 258 Q34 321 50.5 371.5 Q67 422 100 457.5 Q133 493 183.5 512.5 Q234 532 302 532 Q370 532 417.5 512.5 Q465 493 495 458 Q525 423 539 375 Q553 327 553 269 Q553 205 538 153 Q523 101 490.5 64.5 Q458 28 408 8 Q358 -12 288 -12 Z M295 100 Q320 100 338.5 108.5 Q357 117 370 136.5 Q383 156 389.5 187 Q396 218 396 264 Q396 349 372 383.5 Q348 418 298 418 Q247 418 219.5 382.5 Q192 347 192 262 Q192 175 215.5 137.5 Q239 100 295 100 Z M322 572 L221 581 L296 743 L457 743 L322 572 Z " />
<glyph glyph-name="obreve" unicode="&#x14f;" horiz-adv-x="587" d="M288 -12 Q217 -12 168.5 8 Q120 28 90 64 Q60 100 47 149.5 Q34 199 34 258 Q34 321 50.5 371.5 Q67 422 100 457.5 Q133 493 183.5 512.5 Q234 532 302 532 Q370 532 417.5 512.5 Q465 493 495 458 Q525 423 539 375 Q553 327 553 269 Q553 205 538 153 Q523 101 490.5 64.5 Q458 28 408 8 Q358 -12 288 -12 Z M295 100 Q320 100 338.5 108.5 Q357 117 370 136.5 Q383 156 389.5 187 Q396 218 396 264 Q396 349 372 383.5 Q348 418 298 418 Q247 418 219.5 382.5 Q192 347 192 262 Q192 175 215.5 137.5 Q239 100 295 100 Z M476 730 Q470 645 422 607 Q374 569 298 569 Q224 569 179 606.5 Q134 644 131 727 L231 738 Q236 696 253 678.5 Q270 661 303 661 Q337 661 355.5 677 Q374 693 380 737 L476 730 Z " />
<glyph glyph-name="ocircumflex" unicode="&#xf4;" horiz-adv-x="587" d="M288 -12 Q217 -12 168.5 8 Q120 28 90 64 Q60 100 47 149.5 Q34 199 34 258 Q34 321 50.5 371.5 Q67 422 100 457.5 Q133 493 183.5 512.5 Q234 532 302 532 Q370 532 417.5 512.5 Q465 493 495 458 Q525 423 539 375 Q553 327 553 269 Q553 205 538 153 Q523 101 490.5 64.5 Q458 28 408 8 Q358 -12 288 -12 Z M295 100 Q320 100 338.5 108.5 Q357 117 370 136.5 Q383 156 389.5 187 Q396 218 396 264 Q396 349 372 383.5 Q348 418 298 418 Q247 418 219.5 382.5 Q192 347 192 262 Q192 175 215.5 137.5 Q239 100 295 100 Z M374 576 L301 670 L225 575 L124 581 L229 745 L373 745 L474 581 L374 576 Z " />
<glyph glyph-name="odieresis" unicode="&#xf6;" horiz-adv-x="587" d="M288 -12 Q217 -12 168.5 8 Q120 28 90 64 Q60 100 47 149.5 Q34 199 34 258 Q34 321 50.5 371.5 Q67 422 100 457.5 Q133 493 183.5 512.5 Q234 532 302 532 Q370 532 417.5 512.5 Q465 493 495 458 Q525 423 539 375 Q553 327 553 269 Q553 205 538 153 Q523 101 490.5 64.5 Q458 28 408 8 Q358 -12 288 -12 Z M295 100 Q320 100 338.5 108.5 Q357 117 370 136.5 Q383 156 389.5 187 Q396 218 396 264 Q396 349 372 383.5 Q348 418 298 418 Q247 418 219.5 382.5 Q192 347 192 262 Q192 175 215.5 137.5 Q239 100 295 100 Z M271 679 Q271 641 246.5 618.5 Q222 596 183 596 Q142 596 117 618.5 Q92 641 92 679 Q92 717 117 740 Q142 763 183 763 Q222 763 246.5 740 Q271 717 271 679 Z M506 679 Q506 641 482 618.5 Q458 596 418 596 Q377 596 352.5 618.5 Q328 641 328 679 Q328 717 352.5 740 Q377 763 418 763 Q458 763 482 740 Q506 717 506 679 Z " />
<glyph glyph-name="ograve" unicode="&#xf2;" horiz-adv-x="587" d="M288 -12 Q217 -12 168.5 8 Q120 28 90 64 Q60 100 47 149.5 Q34 199 34 258 Q34 321 50.5 371.5 Q67 422 100 457.5 Q133 493 183.5 512.5 Q234 532 302 532 Q370 532 417.5 512.5 Q465 493 495 458 Q525 423 539 375 Q553 327 553 269 Q553 205 538 153 Q523 101 490.5 64.5 Q458 28 408 8 Q358 -12 288 -12 Z M295 100 Q320 100 338.5 108.5 Q357 117 370 136.5 Q383 156 389.5 187 Q396 218 396 264 Q396 349 372 383.5 Q348 418 298 418 Q247 418 219.5 382.5 Q192 347 192 262 Q192 175 215.5 137.5 Q239 100 295 100 Z M145 743 L307 743 L381 581 L280 572 L145 743 Z " />
<glyph glyph-name="ohungarumlaut" unicode="&#x151;" horiz-adv-x="587" d="M288 -12 Q217 -12 168.5 8 Q120 28 90 64 Q60 100 47 149.5 Q34 199 34 258 Q34 321 50.5 371.5 Q67 422 100 457.5 Q133 493 183.5 512.5 Q234 532 302 532 Q370 532 417.5 512.5 Q465 493 495 458 Q525 423 539 375 Q553 327 553 269 Q553 205 538 153 Q523 101 490.5 64.5 Q458 28 408 8 Q358 -12 288 -12 Z M295 100 Q320 100 338.5 108.5 Q357 117 370 136.5 Q383 156 389.5 187 Q396 218 396 264 Q396 349 372 383.5 Q348 418 298 418 Q247 418 219.5 382.5 Q192 347 192 262 Q192 175 215.5 137.5 Q239 100 295 100 Z M266 572 L170 584 L214 743 L368 743 L266 572 Z M423 572 L322 581 L407 747 L569 747 L423 572 Z " />
<glyph glyph-name="omacron" unicode="&#x14d;" horiz-adv-x="587" d="M288 -12 Q217 -12 168.5 8 Q120 28 90 64 Q60 100 47 149.5 Q34 199 34 258 Q34 321 50.5 371.5 Q67 422 100 457.5 Q133 493 183.5 512.5 Q234 532 302 532 Q370 532 417.5 512.5 Q465 493 495 458 Q525 423 539 375 Q553 327 553 269 Q553 205 538 153 Q523 101 490.5 64.5 Q458 28 408 8 Q358 -12 288 -12 Z M295 100 Q320 100 338.5 108.5 Q357 117 370 136.5 Q383 156 389.5 187 Q396 218 396 264 Q396 349 372 383.5 Q348 418 298 418 Q247 418 219.5 382.5 Q192 347 192 262 Q192 175 215.5 137.5 Q239 100 295 100 Z M144 601 L144 703 L455 703 L455 601 L144 601 Z " />
<glyph glyph-name="oslash" unicode="&#xf8;" horiz-adv-x="587" d="M288 -12 Q270 -12 254 -10.5 Q238 -9 223 -7 L195 -72 L89 -72 L132 27 Q78 62 56 121.5 Q34 181 34 258 Q34 321 50.5 371.5 Q67 422 100 457.5 Q133 493 183.5 512.5 Q234 532 302 532 Q316 532 329 531 Q342 530 354 528 L380 586 L485 586 L446 498 Q503 466 528 406.5 Q553 347 553 269 Q553 205 538 153 Q523 101 490.5 64.5 Q458 28 408 8 Q358 -12 288 -12 Z M295 100 Q320 100 338.5 108.5 Q357 117 370 136.5 Q383 156 389.5 187 Q396 218 396 264 Q396 323 384 358 L271 102 Q277 101 282.5 100.5 Q288 100 295 100 Z M192 262 Q192 210 199 178 L305 418 L298 418 Q247 418 219.5 382.5 Q192 347 192 262 Z " />
<glyph glyph-name="oslashacute" unicode="&#x1ff;" horiz-adv-x="587" d="M322 572 L221 581 L296 743 L457 743 L322 572 Z M288 -12 Q270 -12 254 -10.5 Q238 -9 223 -7 L195 -72 L89 -72 L132 27 Q78 62 56 121.5 Q34 181 34 258 Q34 321 50.5 371.5 Q67 422 100 457.5 Q133 493 183.5 512.5 Q234 532 302 532 Q316 532 329 531 Q342 530 354 528 L380 586 L485 586 L446 498 Q503 466 528 406.5 Q553 347 553 269 Q553 205 538 153 Q523 101 490.5 64.5 Q458 28 408 8 Q358 -12 288 -12 Z M295 100 Q320 100 338.5 108.5 Q357 117 370 136.5 Q383 156 389.5 187 Q396 218 396 264 Q396 323 384 358 L271 102 Q277 101 282.5 100.5 Q288 100 295 100 Z M192 262 Q192 210 199 178 L305 418 L298 418 Q247 418 219.5 382.5 Q192 347 192 262 Z " />
<glyph glyph-name="otilde" unicode="&#xf5;" horiz-adv-x="587" d="M288 -12 Q217 -12 168.5 8 Q120 28 90 64 Q60 100 47 149.5 Q34 199 34 258 Q34 321 50.5 371.5 Q67 422 100 457.5 Q133 493 183.5 512.5 Q234 532 302 532 Q370 532 417.5 512.5 Q465 493 495 458 Q525 423 539 375 Q553 327 553 269 Q553 205 538 153 Q523 101 490.5 64.5 Q458 28 408 8 Q358 -12 288 -12 Z M295 100 Q320 100 338.5 108.5 Q357 117 370 136.5 Q383 156 389.5 187 Q396 218 396 264 Q396 349 372 383.5 Q348 418 298 418 Q247 418 219.5 382.5 Q192 347 192 262 Q192 175 215.5 137.5 Q239 100 295 100 Z M223 732 Q247 732 267 725 Q287 718 304.5 710 Q322 702 338 695 Q354 688 371 688 Q388 688 394.5 697.5 Q401 707 401 732 L477 728 Q484 666 461.5 626.5 Q439 587 386 587 Q360 587 339 594 Q318 601 300 609 Q282 617 266 624 Q250 631 234 631 Q218 631 210 621.5 Q202 612 206 584 L124 587 Q116 653 144 692.5 Q172 732 223 732 Z " />
<glyph glyph-name="racute" unicode="&#x155;" horiz-adv-x="393" d="M387 384 Q336 389 288.5 376 Q241 363 208 337 L208 0 L57 0 L57 521 L186 521 L197 439 Q223 477 262 504.5 Q301 532 361 532 Q367 532 373.5 531.5 Q380 531 387 531 L387 384 Z M243 572 L142 581 L217 743 L378 743 L243 572 Z " />
<glyph glyph-name="rcaron" unicode="&#x159;" horiz-adv-x="393" d="M387 384 Q336 389 288.5 376 Q241 363 208 337 L208 0 L57 0 L57 521 L186 521 L197 439 Q223 477 262 504.5 Q301 532 361 532 Q367 532 373.5 531.5 Q380 531 387 531 L387 384 Z M149 741 L222 648 L298 742 L397 736 L292 572 L148 572 L47 736 L149 741 Z " />
<glyph glyph-name="rcommaaccent" unicode="&#x157;" horiz-adv-x="393" d="M387 384 Q336 389 288.5 376 Q241 363 208 337 L208 0 L57 0 L57 521 L186 521 L197 439 Q223 477 262 504.5 Q301 532 361 532 Q367 532 373.5 531.5 Q380 531 387 531 L387 384 Z M75 -68 L215 -68 L132 -274 L29 -259 L75 -68 Z " />
<glyph glyph-name="sacute" unicode="&#x15b;" horiz-adv-x="501" d="M257 532 Q346 532 396 496 Q446 460 465 394 L341 355 Q331 388 312 407 Q293 426 251 426 Q185 426 185 380 Q185 366 193 356.5 Q201 347 215 341 Q229 335 248.5 331 Q268 327 291 323 Q325 317 358 308.5 Q391 300 416.5 283.5 Q442 267 458 238.5 Q474 210 474 164 Q474 119 456 86 Q438 53 407.5 31.5 Q377 10 335 -1 Q293 -12 245 -12 Q144 -12 90.5 27 Q37 66 23 131 L146 171 Q150 156 157 142 Q164 128 176 116.5 Q188 105 205.5 98.5 Q223 92 250 92 Q325 92 325 141 Q325 170 299.5 179.5 Q274 189 228 197 Q194 203 160.5 212 Q127 221 100 238.5 Q73 256 56.5 285 Q40 314 40 362 Q40 405 57.5 437 Q75 469 105 490 Q135 511 174 521.5 Q213 532 257 532 Z M274 572 L173 581 L248 743 L409 743 L274 572 Z " />
<glyph glyph-name="scaron" unicode="&#x161;" horiz-adv-x="501" d="M257 532 Q346 532 396 496 Q446 460 465 394 L341 355 Q331 388 312 407 Q293 426 251 426 Q185 426 185 380 Q185 366 193 356.5 Q201 347 215 341 Q229 335 248.5 331 Q268 327 291 323 Q325 317 358 308.5 Q391 300 416.5 283.5 Q442 267 458 238.5 Q474 210 474 164 Q474 119 456 86 Q438 53 407.5 31.5 Q377 10 335 -1 Q293 -12 245 -12 Q144 -12 90.5 27 Q37 66 23 131 L146 171 Q150 156 157 142 Q164 128 176 116.5 Q188 105 205.5 98.5 Q223 92 250 92 Q325 92 325 141 Q325 170 299.5 179.5 Q274 189 228 197 Q194 203 160.5 212 Q127 221 100 238.5 Q73 256 56.5 285 Q40 314 40 362 Q40 405 57.5 437 Q75 469 105 490 Q135 511 174 521.5 Q213 532 257 532 Z M180 741 L253 648 L329 742 L428 736 L323 572 L179 572 L78 736 L180 741 Z " />
<glyph glyph-name="scedilla" unicode="&#x15f;" horiz-adv-x="501" d="M164 -162 Q176 -165 187.5 -167 Q199 -169 212 -169 Q235 -169 248.5 -160.5 Q262 -152 262 -132 Q262 -109 245 -102.5 Q228 -96 198 -95 L209 -10 Q125 -3 80 34.5 Q35 72 23 131 L146 171 Q150 156 157 142 Q164 128 176 116.5 Q188 105 205.5 98.5 Q223 92 250 92 Q325 92 325 141 Q325 170 299.5 179.5 Q274 189 228 197 Q194 203 160.5 212 Q127 221 100 238.5 Q73 256 56.5 285 Q40 314 40 362 Q40 405 57.5 437 Q75 469 105 490 Q135 511 174 521.5 Q213 532 257 532 Q346 532 396 496 Q446 460 465 394 L341 355 Q331 388 312 407 Q293 426 251 426 Q185 426 185 380 Q185 366 193 356.5 Q201 347 215 341 Q229 335 248.5 331 Q268 327 291 323 Q325 317 358 308.5 Q391 300 416.5 283.5 Q442 267 458 238.5 Q474 210 474 164 Q474 123 459.5 92.5 Q445 62 419 40.5 Q393 19 357.5 6.5 Q322 -6 281 -10 L277 -45 Q293 -48 308.5 -54 Q324 -60 336 -71 Q348 -82 355 -98 Q362 -114 362 -137 Q362 -192 324.5 -219 Q287 -246 231 -246 Q185 -246 149 -232 L164 -162 Z " />
<glyph glyph-name="scircumflex" unicode="&#x15d;" horiz-adv-x="501" d="M257 532 Q346 532 396 496 Q446 460 465 394 L341 355 Q331 388 312 407 Q293 426 251 426 Q185 426 185 380 Q185 366 193 356.5 Q201 347 215 341 Q229 335 248.5 331 Q268 327 291 323 Q325 317 358 308.5 Q391 300 416.5 283.5 Q442 267 458 238.5 Q474 210 474 164 Q474 119 456 86 Q438 53 407.5 31.5 Q377 10 335 -1 Q293 -12 245 -12 Q144 -12 90.5 27 Q37 66 23 131 L146 171 Q150 156 157 142 Q164 128 176 116.5 Q188 105 205.5 98.5 Q223 92 250 92 Q325 92 325 141 Q325 170 299.5 179.5 Q274 189 228 197 Q194 203 160.5 212 Q127 221 100 238.5 Q73 256 56.5 285 Q40 314 40 362 Q40 405 57.5 437 Q75 469 105 490 Q135 511 174 521.5 Q213 532 257 532 Z M326 576 L253 670 L177 575 L76 581 L181 745 L325 745 L426 581 L326 576 Z " />
<glyph glyph-name="scommaaccent" unicode="&#x219;" horiz-adv-x="501" d="M257 532 Q346 532 396 496 Q446 460 465 394 L341 355 Q331 388 312 407 Q293 426 251 426 Q185 426 185 380 Q185 366 193 356.5 Q201 347 215 341 Q229 335 248.5 331 Q268 327 291 323 Q325 317 358 308.5 Q391 300 416.5 283.5 Q442 267 458 238.5 Q474 210 474 164 Q474 119 456 86 Q438 53 407.5 31.5 Q377 10 335 -1 Q293 -12 245 -12 Q144 -12 90.5 27 Q37 66 23 131 L146 171 Q150 156 157 142 Q164 128 176 116.5 Q188 105 205.5 98.5 Q223 92 250 92 Q325 92 325 141 Q325 170 299.5 179.5 Q274 189 228 197 Q194 203 160.5 212 Q127 221 100 238.5 Q73 256 56.5 285 Q40 314 40 362 Q40 405 57.5 437 Q75 469 105 490 Q135 511 174 521.5 Q213 532 257 532 Z M195 -68 L335 -68 L252 -274 L149 -259 L195 -68 Z " />
<glyph glyph-name="tbar" unicode="&#x167;" horiz-adv-x="412" d="M404 25 Q384 12 342.5 0 Q301 -12 251 -12 Q169 -12 127 27.5 Q85 67 85 157 L85 226 L7 226 L7 332 L85 332 L85 411 L7 411 L7 521 L85 521 L85 675 L236 695 L236 521 L374 521 L374 411 L236 411 L236 332 L374 332 L374 226 L236 226 L236 178 Q236 143 248.5 125.5 Q261 108 297 108 Q320 108 344 115.5 Q368 123 383 132 L404 25 Z " />
<glyph glyph-name="tcaron" unicode="&#x165;" horiz-adv-x="412" d="M404 25 Q384 12 342.5 0 Q301 -12 251 -12 Q169 -12 127 27.5 Q85 67 85 157 L85 411 L7 411 L7 521 L85 521 L85 675 L236 695 L236 521 L374 521 L374 411 L236 411 L236 178 Q236 143 248.5 125.5 Q261 108 297 108 Q320 108 344 115.5 Q368 123 383 132 L404 25 Z M311 774 L449 774 L383 572 L278 581 L311 774 Z " />
<glyph glyph-name="uni0163" unicode="&#x163;" horiz-adv-x="412" d="M153 -162 Q165 -165 176.5 -167 Q188 -169 201 -169 Q224 -169 237.5 -160.5 Q251 -152 251 -132 Q251 -109 234 -102.5 Q217 -96 187 -95 L198 -7 Q141 4 113 43.5 Q85 83 85 157 L85 411 L7 411 L7 521 L85 521 L85 675 L236 695 L236 521 L374 521 L374 411 L236 411 L236 178 Q236 143 248.5 125.5 Q261 108 297 108 Q320 108 344 115.5 Q368 123 383 132 L404 25 Q386 13 350 2 Q314 -9 270 -11 L266 -45 Q282 -48 297.5 -54 Q313 -60 325 -71 Q337 -82 344 -98 Q351 -114 351 -137 Q351 -192 313.5 -219 Q276 -246 220 -246 Q174 -246 138 -232 L153 -162 Z " />
<glyph glyph-name="uni021B" unicode="&#x21b;" horiz-adv-x="412" d="M404 25 Q384 12 342.5 0 Q301 -12 251 -12 Q169 -12 127 27.5 Q85 67 85 157 L85 411 L7 411 L7 521 L85 521 L85 675 L236 695 L236 521 L374 521 L374 411 L236 411 L236 178 Q236 143 248.5 125.5 Q261 108 297 108 Q320 108 344 115.5 Q368 123 383 132 L404 25 Z M173 -68 L313 -68 L230 -274 L127 -259 L173 -68 Z " />
<glyph glyph-name="uacute" unicode="&#xfa;" horiz-adv-x="578" d="M55 521 L206 521 L206 192 Q206 150 221 130.5 Q236 111 272 111 Q301 111 328.5 124.5 Q356 138 371 152 L371 521 L522 521 L522 0 L392 0 L381 56 Q353 24 311 6.5 Q269 -11 215 -11 Q55 -11 55 162 L55 521 Z M310 572 L209 581 L284 743 L445 743 L310 572 Z " />
<glyph glyph-name="ubreve" unicode="&#x16d;" horiz-adv-x="578" d="M55 521 L206 521 L206 192 Q206 150 221 130.5 Q236 111 272 111 Q301 111 328.5 124.5 Q356 138 371 152 L371 521 L522 521 L522 0 L392 0 L381 56 Q353 24 311 6.5 Q269 -11 215 -11 Q55 -11 55 162 L55 521 Z M462 730 Q456 645 408 607 Q360 569 284 569 Q210 569 165 606.5 Q120 644 117 727 L217 738 Q222 696 239 678.5 Q256 661 289 661 Q323 661 341.5 677 Q360 693 366 737 L462 730 Z " />
<glyph glyph-name="ucircumflex" unicode="&#xfb;" horiz-adv-x="578" d="M55 521 L206 521 L206 192 Q206 150 221 130.5 Q236 111 272 111 Q301 111 328.5 124.5 Q356 138 371 152 L371 521 L522 521 L522 0 L392 0 L381 56 Q353 24 311 6.5 Q269 -11 215 -11 Q55 -11 55 162 L55 521 Z M362 576 L289 670 L213 575 L112 581 L217 745 L361 745 L462 581 L362 576 Z " />
<glyph glyph-name="udieresis" unicode="&#xfc;" horiz-adv-x="578" d="M55 521 L206 521 L206 192 Q206 150 221 130.5 Q236 111 272 111 Q301 111 328.5 124.5 Q356 138 371 152 L371 521 L522 521 L522 0 L392 0 L381 56 Q353 24 311 6.5 Q269 -11 215 -11 Q55 -11 55 162 L55 521 Z M259 679 Q259 641 234.5 618.5 Q210 596 171 596 Q130 596 105 618.5 Q80 641 80 679 Q80 717 105 740 Q130 763 171 763 Q210 763 234.5 740 Q259 717 259 679 Z M494 679 Q494 641 470 618.5 Q446 596 406 596 Q365 596 340.5 618.5 Q316 641 316 679 Q316 717 340.5 740 Q365 763 406 763 Q446 763 470 740 Q494 717 494 679 Z " />
<glyph glyph-name="ugrave" unicode="&#xf9;" horiz-adv-x="578" d="M55 521 L206 521 L206 192 Q206 150 221 130.5 Q236 111 272 111 Q301 111 328.5 124.5 Q356 138 371 152 L371 521 L522 521 L522 0 L392 0 L381 56 Q353 24 311 6.5 Q269 -11 215 -11 Q55 -11 55 162 L55 521 Z M133 743 L295 743 L369 581 L268 572 L133 743 Z " />
<glyph glyph-name="uhungarumlaut" unicode="&#x171;" horiz-adv-x="578" d="M55 521 L206 521 L206 192 Q206 150 221 130.5 Q236 111 272 111 Q301 111 328.5 124.5 Q356 138 371 152 L371 521 L522 521 L522 0 L392 0 L381 56 Q353 24 311 6.5 Q269 -11 215 -11 Q55 -11 55 162 L55 521 Z M254 572 L158 584 L202 743 L356 743 L254 572 Z M411 572 L310 581 L395 747 L557 747 L411 572 Z " />
<glyph glyph-name="umacron" unicode="&#x16b;" horiz-adv-x="578" d="M55 521 L206 521 L206 192 Q206 150 221 130.5 Q236 111 272 111 Q301 111 328.5 124.5 Q356 138 371 152 L371 521 L522 521 L522 0 L392 0 L381 56 Q353 24 311 6.5 Q269 -11 215 -11 Q55 -11 55 162 L55 521 Z M131 601 L131 703 L442 703 L442 601 L131 601 Z " />
<glyph glyph-name="uogonek" unicode="&#x173;" horiz-adv-x="578" d="M568 -139 Q551 -188 513.5 -214 Q476 -240 428 -240 Q371 -240 341.5 -214.5 Q312 -189 312 -142 Q312 -97 336 -63 Q360 -29 392 0 L381 56 Q353 24 311 6.5 Q269 -11 215 -11 Q55 -11 55 162 L55 521 L206 521 L206 192 Q206 150 221 130.5 Q236 111 272 111 Q301 111 328.5 124.5 Q356 138 371 152 L371 521 L522 521 L522 0 Q502 -10 484 -24 Q466 -38 452.5 -53.5 Q439 -69 431.5 -85.5 Q424 -102 424 -117 Q424 -150 455 -150 Q469 -150 481 -140.5 Q493 -131 503 -109 L568 -139 Z " />
<glyph glyph-name="uring" unicode="&#x16f;" horiz-adv-x="578" d="M55 521 L206 521 L206 192 Q206 150 221 130.5 Q236 111 272 111 Q301 111 328.5 124.5 Q356 138 371 152 L371 521 L522 521 L522 0 L392 0 L381 56 Q353 24 311 6.5 Q269 -11 215 -11 Q55 -11 55 162 L55 521 Z M401 675 Q401 624 370 597 Q339 570 288 570 Q238 570 207 596 Q176 622 176 671 Q176 725 209.5 752.5 Q243 780 288 780 Q335 780 368 753.5 Q401 727 401 675 Z M288 630 Q308 630 320 641 Q332 652 332 675 Q332 696 320 706.5 Q308 717 288 717 Q269 717 256 706 Q243 695 243 674 Q243 651 255.5 640.5 Q268 630 288 630 Z " />
<glyph glyph-name="utilde" unicode="&#x169;" horiz-adv-x="578" d="M55 521 L206 521 L206 192 Q206 150 221 130.5 Q236 111 272 111 Q301 111 328.5 124.5 Q356 138 371 152 L371 521 L522 521 L522 0 L392 0 L381 56 Q353 24 311 6.5 Q269 -11 215 -11 Q55 -11 55 162 L55 521 Z M211 732 Q235 732 255 725 Q275 718 292.5 710 Q310 702 326 695 Q342 688 359 688 Q376 688 382.5 697.5 Q389 707 389 732 L465 728 Q472 666 449.5 626.5 Q427 587 374 587 Q348 587 327 594 Q306 601 288 609 Q270 617 254 624 Q238 631 222 631 Q206 631 198 621.5 Q190 612 194 584 L112 587 Q104 653 132 692.5 Q160 732 211 732 Z " />
<glyph glyph-name="wacute" unicode="&#x1e83;" horiz-adv-x="813" d="M150 0 L-4 521 L147 521 L242 155 L244 155 L336 521 L484 521 L576 157 L579 157 L670 521 L817 521 L662 0 L492 0 L408 340 L406 340 L329 0 L150 0 Z M432 572 L331 581 L406 743 L567 743 L432 572 Z " />
<glyph glyph-name="wcircumflex" unicode="&#x175;" horiz-adv-x="813" d="M150 0 L-4 521 L147 521 L242 155 L244 155 L336 521 L484 521 L576 157 L579 157 L670 521 L817 521 L662 0 L492 0 L408 340 L406 340 L329 0 L150 0 Z M484 576 L411 670 L335 575 L234 581 L339 745 L483 745 L584 581 L484 576 Z " />
<glyph glyph-name="wdieresis" unicode="&#x1e85;" horiz-adv-x="813" d="M150 0 L-4 521 L147 521 L242 155 L244 155 L336 521 L484 521 L576 157 L579 157 L670 521 L817 521 L662 0 L492 0 L408 340 L406 340 L329 0 L150 0 Z M381 679 Q381 641 356.5 618.5 Q332 596 293 596 Q252 596 227 618.5 Q202 641 202 679 Q202 717 227 740 Q252 763 293 763 Q332 763 356.5 740 Q381 717 381 679 Z M616 679 Q616 641 592 618.5 Q568 596 528 596 Q487 596 462.5 618.5 Q438 641 438 679 Q438 717 462.5 740 Q487 763 528 763 Q568 763 592 740 Q616 717 616 679 Z " />
<glyph glyph-name="wgrave" unicode="&#x1e81;" horiz-adv-x="813" d="M150 0 L-4 521 L147 521 L242 155 L244 155 L336 521 L484 521 L576 157 L579 157 L670 521 L817 521 L662 0 L492 0 L408 340 L406 340 L329 0 L150 0 Z M255 743 L417 743 L491 581 L390 572 L255 743 Z " />
<glyph glyph-name="yacute" unicode="&#xfd;" horiz-adv-x="526" d="M-4 521 L159 521 L268 158 L271 158 L376 521 L531 521 Q479 375 425.5 227.5 Q372 80 324 -51 Q307 -97 289.5 -129.5 Q272 -162 249.5 -183 Q227 -204 197.5 -213.5 Q168 -223 128 -223 Q97 -223 64 -216 Q31 -209 14 -201 L25 -92 Q46 -99 66.5 -103.5 Q87 -108 104 -108 Q130 -108 148 -95 Q166 -82 178 -52 L194 -11 L-4 521 Z M285 572 L184 581 L259 743 L420 743 L285 572 Z " />
<glyph glyph-name="ycircumflex" unicode="&#x177;" horiz-adv-x="526" d="M-4 521 L159 521 L268 158 L271 158 L376 521 L531 521 Q479 375 425.5 227.5 Q372 80 324 -51 Q307 -97 289.5 -129.5 Q272 -162 249.5 -183 Q227 -204 197.5 -213.5 Q168 -223 128 -223 Q97 -223 64 -216 Q31 -209 14 -201 L25 -92 Q46 -99 66.5 -103.5 Q87 -108 104 -108 Q130 -108 148 -95 Q166 -82 178 -52 L194 -11 L-4 521 Z M337 576 L264 670 L188 575 L87 581 L192 745 L336 745 L437 581 L337 576 Z " />
<glyph glyph-name="ydieresis" unicode="&#xff;" horiz-adv-x="526" d="M-4 521 L159 521 L268 158 L271 158 L376 521 L531 521 Q479 375 425.5 227.5 Q372 80 324 -51 Q307 -97 289.5 -129.5 Q272 -162 249.5 -183 Q227 -204 197.5 -213.5 Q168 -223 128 -223 Q97 -223 64 -216 Q31 -209 14 -201 L25 -92 Q46 -99 66.5 -103.5 Q87 -108 104 -108 Q130 -108 148 -95 Q166 -82 178 -52 L194 -11 L-4 521 Z M234 679 Q234 641 209.5 618.5 Q185 596 146 596 Q105 596 80 618.5 Q55 641 55 679 Q55 717 80 740 Q105 763 146 763 Q185 763 209.5 740 Q234 717 234 679 Z M469 679 Q469 641 445 618.5 Q421 596 381 596 Q340 596 315.5 618.5 Q291 641 291 679 Q291 717 315.5 740 Q340 763 381 763 Q421 763 445 740 Q469 717 469 679 Z " />
<glyph glyph-name="ygrave" unicode="&#x1ef3;" horiz-adv-x="526" d="M-4 521 L159 521 L268 158 L271 158 L376 521 L531 521 Q479 375 425.5 227.5 Q372 80 324 -51 Q307 -97 289.5 -129.5 Q272 -162 249.5 -183 Q227 -204 197.5 -213.5 Q168 -223 128 -223 Q97 -223 64 -216 Q31 -209 14 -201 L25 -92 Q46 -99 66.5 -103.5 Q87 -108 104 -108 Q130 -108 148 -95 Q166 -82 178 -52 L194 -11 L-4 521 Z M108 743 L270 743 L344 581 L243 572 L108 743 Z " />
<glyph glyph-name="zacute" unicode="&#x17a;" horiz-adv-x="466" d="M199 121 L445 121 L445 0 L27 0 L27 107 L267 408 L29 408 L29 521 L431 521 L431 414 L199 121 Z M255 572 L154 581 L229 743 L390 743 L255 572 Z " />
<glyph glyph-name="zcaron" unicode="&#x17e;" horiz-adv-x="466" d="M199 121 L445 121 L445 0 L27 0 L27 107 L267 408 L29 408 L29 521 L431 521 L431 414 L199 121 Z M161 741 L234 648 L310 742 L409 736 L304 572 L160 572 L59 736 L161 741 Z " />
<glyph glyph-name="zdotaccent" unicode="&#x17c;" horiz-adv-x="466" d="M199 121 L445 121 L445 0 L27 0 L27 107 L267 408 L29 408 L29 521 L431 521 L431 414 L199 121 Z M324 681 Q324 637 300.5 613 Q277 589 233 589 Q190 589 166.5 613 Q143 637 143 681 Q143 725 166.5 748.5 Q190 772 233 772 Q277 772 300.5 748.5 Q324 725 324 681 Z " />
<glyph glyph-name="ff" unicode="&#xfb00;" horiz-adv-x="699" d="M360 642 Q325 653 295 653 Q263 653 245 636.5 Q227 620 227 573 L227 521 L410 521 L410 581 Q410 629 424 664 Q438 699 463 721.5 Q488 744 523 755 Q558 766 601 766 Q643 766 673 759.5 Q703 753 716 747 L711 640 Q696 645 677.5 649 Q659 653 641 653 Q623 653 608.5 649.5 Q594 646 583.5 637 Q573 628 567 611 Q561 594 561 567 L561 521 L699 521 L699 411 L561 411 L561 0 L410 0 L410 411 L227 411 L227 0 L76 0 L76 411 L6 411 L6 521 L76 521 L76 581 Q76 678 125 722 Q174 766 257 766 Q293 766 323 759.5 Q353 753 366 747 L360 642 Z " />
<glyph glyph-name="fi" unicode="&#xfb01;" horiz-adv-x="619" d="M562 0 L411 0 L411 411 L227 411 L227 0 L76 0 L76 411 L6 411 L6 521 L76 521 L76 581 Q76 678 125 722 Q174 766 257 766 Q286 766 310 761.5 Q334 757 350 752 L345 642 Q332 646 318.5 648.5 Q305 651 290 651 Q261 651 244 635 Q227 619 227 572 L227 521 L562 521 L562 0 Z M578 688 Q578 644 554 620 Q530 596 486 596 Q443 596 419.5 620 Q396 644 396 688 Q396 733 419.5 756 Q443 779 486 779 Q530 779 554 756 Q578 733 578 688 Z " />
<glyph glyph-name="fl" unicode="&#xfb02;" horiz-adv-x="619" d="M360 641 Q325 652 295 652 Q263 652 245 635.5 Q227 619 227 572 L227 521 L351 521 L351 411 L227 411 L227 0 L76 0 L76 411 L6 411 L6 521 L76 521 L76 581 Q76 678 125 722 Q174 766 257 766 Q293 766 323 759.5 Q353 753 366 747 L360 641 Z M562 0 L411 0 L411 755 L562 755 L562 0 Z " />
<glyph glyph-name="ffi" unicode="&#xfb03;" horiz-adv-x="953" d="M897 0 L746 0 L746 411 L562 411 L562 0 L411 0 L411 411 L227 411 L227 0 L76 0 L76 411 L6 411 L6 521 L76 521 L76 581 Q76 678 125 722 Q174 766 257 766 Q293 766 323 759.5 Q353 753 366 747 L360 642 Q325 653 295 653 Q263 653 245 636.5 Q227 620 227 573 L227 521 L411 521 L411 581 Q411 678 460 722 Q509 766 592 766 Q621 766 645 761.5 Q669 757 685 752 L680 642 Q667 646 653.5 648.5 Q640 651 625 651 Q596 651 579 635 Q562 619 562 572 L562 521 L897 521 L897 0 Z M913 688 Q913 644 889 620 Q865 596 821 596 Q778 596 754.5 620 Q731 644 731 688 Q731 733 754.5 756 Q778 779 821 779 Q865 779 889 756 Q913 733 913 688 Z " />
<glyph glyph-name="ffl" unicode="&#xfb04;" horiz-adv-x="953" d="M695 641 Q660 652 630 652 Q598 652 580 635.5 Q562 619 562 572 L562 521 L686 521 L686 411 L562 411 L562 0 L411 0 L411 411 L227 411 L227 0 L76 0 L76 411 L6 411 L6 521 L76 521 L76 581 Q76 678 125 722 Q174 766 257 766 Q293 766 323 759.5 Q353 753 366 747 L360 642 Q325 653 295 653 Q263 653 245 636.5 Q227 620 227 573 L227 521 L411 521 L411 581 Q411 678 460 722 Q509 766 592 766 Q628 766 658 759.5 Q688 753 701 747 L695 641 Z M897 0 L746 0 L746 755 L897 755 L897 0 Z " />
<glyph glyph-name="s_t" unicode="&#xfb06;" horiz-adv-x="875" d="M867 25 Q847 12 805.5 0 Q764 -12 714 -12 Q632 -12 590 27.5 Q548 67 548 157 L548 675 L699 695 L699 521 L837 521 L837 411 L699 411 L699 178 Q699 143 711.5 125.5 Q724 108 760 108 Q783 108 807 115.5 Q831 123 846 132 L867 25 Z M257 532 Q346 532 396 496 Q446 460 465 394 L341 355 Q331 388 312 407 Q293 426 251 426 Q185 426 185 380 Q185 366 193 356.5 Q201 347 215 341 Q229 335 248.5 331 Q268 327 291 323 Q325 317 358 308.5 Q391 300 416.5 283.5 Q442 267 458 238.5 Q474 210 474 164 Q474 119 456 86 Q438 53 407.5 31.5 Q377 10 335 -1 Q293 -12 245 -12 Q144 -12 90.5 27 Q37 66 23 131 L146 171 Q150 156 157 142 Q164 128 176 116.5 Q188 105 205.5 98.5 Q223 92 250 92 Q325 92 325 141 Q325 170 299.5 179.5 Q274 189 228 197 Q194 203 160.5 212 Q127 221 100 238.5 Q73 256 56.5 285 Q40 314 40 362 Q40 405 57.5 437 Q75 469 105 490 Q135 511 174 521.5 Q213 532 257 532 Z " />
<glyph glyph-name="circumflex" unicode="&#x2c6;" horiz-adv-x="500" d="M324 576 L251 670 L175 575 L74 581 L179 745 L323 745 L424 581 L324 576 Z " />
<glyph glyph-name="caron" unicode="&#x2c7;" horiz-adv-x="500" d="M178 741 L251 648 L327 742 L426 736 L321 572 L177 572 L76 736 L178 741 Z " />
<glyph glyph-name="uni02C9" unicode="&#x2c9;" horiz-adv-x="500" d="M94 599 L94 701 L405 701 L405 599 L94 599 Z " />
<glyph glyph-name="breve" unicode="&#x2d8;" horiz-adv-x="500" d="M426 730 Q420 645 372 607 Q324 569 248 569 Q174 569 129 606.5 Q84 644 81 727 L181 738 Q186 696 203 678.5 Q220 661 253 661 Q287 661 305.5 677 Q324 693 330 737 L426 730 Z " />
<glyph glyph-name="dieresis" unicode="&#xa8;" horiz-adv-x="500" d="M221 679 Q221 641 196.5 618.5 Q172 596 133 596 Q92 596 67 618.5 Q42 641 42 679 Q42 717 67 740 Q92 763 133 763 Q172 763 196.5 740 Q221 717 221 679 Z M456 679 Q456 641 432 618.5 Q408 596 368 596 Q327 596 302.5 618.5 Q278 641 278 679 Q278 717 302.5 740 Q327 763 368 763 Q408 763 432 740 Q456 717 456 679 Z " />
<glyph glyph-name="macron" unicode="&#xaf;" horiz-adv-x="500" d="M94 601 L94 703 L405 703 L405 601 L94 601 Z " />
<glyph glyph-name="degree" unicode="&#xb0;" horiz-adv-x="358" d="M181 580 Q202 580 215.5 594.5 Q229 609 229 632 Q229 655 215 669 Q201 683 181 683 Q161 683 146 668.5 Q131 654 131 629 Q131 608 144.5 594 Q158 580 181 580 Z M298 632 Q298 578 265.5 546 Q233 514 181 514 Q127 514 94.5 545.5 Q62 577 62 629 Q62 657 71.5 679 Q81 701 97 716.5 Q113 732 135 740.5 Q157 749 181 749 Q230 749 264 717.5 Q298 686 298 632 Z " />
<glyph glyph-name="acute" unicode="&#xb4;" horiz-adv-x="500" d="M272 572 L171 581 L246 743 L407 743 L272 572 Z " />
<glyph glyph-name="grave" unicode="&#x60;" horiz-adv-x="500" d="M95 743 L257 743 L331 581 L230 572 L95 743 Z " />
<glyph glyph-name="cedilla" unicode="&#xb8;" horiz-adv-x="500" d="M151 -162 Q163 -165 174.5 -167 Q186 -169 199 -169 Q222 -169 235.5 -160.5 Q249 -152 249 -132 Q249 -109 232 -102.5 Q215 -96 185 -95 L201 30 L273 22 L264 -45 Q280 -48 295.5 -54 Q311 -60 323 -71 Q335 -82 342 -98 Q349 -114 349 -137 Q349 -192 311.5 -219 Q274 -246 218 -246 Q172 -246 136 -232 L151 -162 Z " />
<glyph glyph-name="dotaccent" unicode="&#x2d9;" horiz-adv-x="500" d="M341 681 Q341 637 317.5 613 Q294 589 250 589 Q207 589 183.5 613 Q160 637 160 681 Q160 725 183.5 748.5 Q207 772 250 772 Q294 772 317.5 748.5 Q341 725 341 681 Z " />
<glyph glyph-name="ring" unicode="&#x2da;" horiz-adv-x="500" d="M363 675 Q363 624 332 597 Q301 570 250 570 Q200 570 169 596 Q138 622 138 671 Q138 725 171.5 752.5 Q205 780 250 780 Q297 780 330 753.5 Q363 727 363 675 Z M250 630 Q270 630 282 641 Q294 652 294 675 Q294 696 282 706.5 Q270 717 250 717 Q231 717 218 706 Q205 695 205 674 Q205 651 217.5 640.5 Q230 630 250 630 Z " />
<glyph glyph-name="ogonek" unicode="&#x2db;" horiz-adv-x="500" d="M382 -139 Q365 -188 327.5 -214 Q290 -240 242 -240 Q185 -240 155.5 -214.5 Q126 -189 126 -142 Q126 -115 137 -91.5 Q148 -68 166 -47.5 Q184 -27 206.5 -9.5 Q229 8 252 23 L323 6 Q285 -31 261.5 -59 Q238 -87 238 -117 Q238 -150 269 -150 Q283 -150 295 -140.5 Q307 -131 317 -109 L382 -139 Z " />
<glyph glyph-name="tilde" unicode="&#x2dc;" horiz-adv-x="500" d="M173 732 Q197 732 217 725 Q237 718 254.5 710 Q272 702 288 695 Q304 688 321 688 Q338 688 344.5 697.5 Q351 707 351 732 L427 728 Q434 666 411.5 626.5 Q389 587 336 587 Q310 587 289 594 Q268 601 250 609 Q232 617 216 624 Q200 631 184 631 Q168 631 160 621.5 Q152 612 156 584 L74 587 Q66 653 94 692.5 Q122 732 173 732 Z " />
<glyph glyph-name="hungarumlaut" unicode="&#x2dd;" horiz-adv-x="500" d="M216 572 L120 584 L164 743 L318 743 L216 572 Z M373 572 L272 581 L357 747 L519 747 L373 572 Z " />
<glyph glyph-name="apostrophe" unicode="&#x2bc;" horiz-adv-x="500" d="M201 713 L341 713 L258 507 L154 521 L201 713 Z " />
<glyph glyph-name="zerosuperior" unicode="&#x2070;" horiz-adv-x="430" d="M212 342 Q121 342 76 398.5 Q31 455 31 579 Q31 700 81 754.5 Q131 809 219 809 Q315 809 357 754.5 Q399 700 399 581 Q399 455 353.5 398.5 Q308 342 212 342 Z M215 440 Q228 440 236.5 446 Q245 452 250.5 468 Q256 484 258.5 510.5 Q261 537 261 578 Q261 618 259 644 Q257 670 251.5 685 Q246 700 237.5 706 Q229 712 217 712 Q204 712 195 706.5 Q186 701 180.5 686 Q175 671 172.5 645 Q170 619 170 578 Q170 537 172 510.5 Q174 484 179.5 468 Q185 452 193.5 446 Q202 440 215 440 Z " />
<glyph glyph-name="onesuperior" unicode="&#xb9;" horiz-adv-x="328" d="M137 347 L137 661 Q129 657 115 654 Q101 651 86 648.5 Q71 646 57.5 644.5 Q44 643 36 643 L31 747 Q73 750 111 762.5 Q149 775 173 799 L270 799 L270 347 L137 347 Z " />
<glyph glyph-name="twosuperior" unicode="&#xb2;" horiz-adv-x="405" d="M203 809 Q286 809 323.5 775.5 Q361 742 361 689 Q361 662 353 639.5 Q345 617 328.5 594.5 Q312 572 286.5 548 Q261 524 225 494 L193 461 L193 457 L368 457 L368 349 L41 349 L41 457 L138 554 Q163 579 180.5 598 Q198 617 208.5 631 Q219 645 223.5 656.5 Q228 668 228 680 Q228 714 194 714 Q151 714 144 657 L30 672 Q34 708 49 734 Q64 760 87.5 776.5 Q111 793 140.5 801 Q170 809 203 809 Z " />
<glyph glyph-name="threesuperior" unicode="&#xb3;" horiz-adv-x="412" d="M136 487 Q139 459 152 448 Q165 437 188 437 Q209 437 222.5 448.5 Q236 460 236 485 Q236 512 223.5 523.5 Q211 535 179 535 L129 535 L129 621 L160 621 Q196 621 213 637 Q230 653 230 680 Q230 697 221 706.5 Q212 716 192 716 Q171 716 159.5 704 Q148 692 143 669 L33 689 Q39 724 56 747 Q73 770 96 784 Q119 798 147.5 803.5 Q176 809 205 809 Q279 809 319.5 781.5 Q360 754 360 700 Q360 677 352.5 659.5 Q345 642 333 629.5 Q321 617 305.5 607.5 Q290 598 273 592 L273 589 Q371 569 371 482 Q371 448 357.5 422 Q344 396 319.5 378 Q295 360 262 351 Q229 342 190 342 Q161 342 133 347.5 Q105 353 82 367.5 Q59 382 42.5 406 Q26 430 22 466 L136 487 Z " />
<glyph glyph-name="foursuperior" unicode="&#x2074;" horiz-adv-x="432" d="M235 349 L235 441 L27 441 L27 530 L203 801 L362 801 L362 541 L414 541 L414 441 L363 441 L363 349 L235 349 Z M235 541 L235 691 L137 541 L235 541 Z " />
<glyph glyph-name="fivesuperior" unicode="&#x2075;" horiz-adv-x="411" d="M67 801 L337 801 L337 696 L158 696 L146 606 L148 602 Q164 618 187 628 Q210 638 241 638 Q298 638 331.5 604 Q365 570 365 501 Q365 462 351 432.5 Q337 403 313 382.5 Q289 362 256 352 Q223 342 185 342 Q155 342 127 348 Q99 354 76.5 369 Q54 384 38.5 408 Q23 432 19 468 L131 487 Q133 460 147 448 Q161 436 184 436 Q207 436 221.5 451.5 Q236 467 236 494 Q236 526 221.5 537 Q207 548 190 548 Q172 548 159.5 541 Q147 534 137 524 L51 551 L67 801 Z " />
<glyph glyph-name="sixsuperior" unicode="&#x2076;" horiz-adv-x="430" d="M279 670 Q276 696 266 707 Q256 718 237 718 Q208 718 190 687 Q172 656 171 588 Q186 604 211.5 615.5 Q237 627 272 627 Q295 627 317 620.5 Q339 614 356.5 599 Q374 584 384.5 559.5 Q395 535 395 499 Q395 457 381 427 Q367 397 343 378 Q319 359 287.5 350.5 Q256 342 221 342 Q169 342 135.5 360.5 Q102 379 82.5 409.5 Q63 440 55 481 Q47 522 47 567 Q47 608 55.5 651 Q64 694 86.5 729 Q109 764 147 786.5 Q185 809 245 809 Q271 809 295 804 Q319 799 339.5 786 Q360 773 374.5 750.5 Q389 728 395 694 L279 670 Z M177 521 Q178 480 187.5 457.5 Q197 435 225 435 Q245 435 254.5 450.5 Q264 466 264 489 Q264 515 256 529.5 Q248 544 225 544 Q211 544 198 536.5 Q185 529 177 521 Z " />
<glyph glyph-name="sevensuperior" unicode="&#x2077;" horiz-adv-x="379" d="M43 349 L217 696 L31 696 L31 801 L354 801 L354 706 L183 349 L43 349 Z " />
<glyph glyph-name="eightsuperior" unicode="&#x2078;" horiz-adv-x="419" d="M303 604 Q348 586 373 559 Q398 532 398 484 Q398 456 385 430 Q372 404 347 384.5 Q322 365 285.5 353.5 Q249 342 202 342 Q114 342 68.5 375.5 Q23 409 23 462 Q23 507 48 533 Q73 559 115 576 Q78 590 59.5 617.5 Q41 645 41 681 Q41 712 55 736 Q69 760 92.5 776.5 Q116 793 147.5 801 Q179 809 215 809 Q295 809 338 781 Q381 753 381 703 Q381 671 363 646 Q345 621 303 604 Z M180 536 Q144 513 144 481 Q144 459 159.5 446 Q175 433 204 433 Q225 433 240.5 442.5 Q256 452 256 473 Q256 496 235.5 510 Q215 524 180 536 Z M234 639 Q248 648 257.5 661 Q267 674 267 689 Q267 706 253.5 715 Q240 724 220 724 Q199 724 187.5 714.5 Q176 705 176 691 Q176 662 234 639 Z " />
<glyph glyph-name="ninesuperior" unicode="&#x2079;" horiz-adv-x="427" d="M147 488 Q151 465 160.5 449.5 Q170 434 196 434 Q225 434 242.5 464 Q260 494 261 559 Q246 546 220.5 536 Q195 526 164 526 Q139 526 116 532.5 Q93 539 75 554.5 Q57 570 46.5 595 Q36 620 36 656 Q36 697 50.5 726 Q65 755 90 773.5 Q115 792 147 800.5 Q179 809 214 809 Q263 809 296 792.5 Q329 776 348.5 746 Q368 716 376 674.5 Q384 633 384 584 Q384 546 377 503.5 Q370 461 349 425 Q328 389 290 365.5 Q252 342 191 342 Q162 342 136 347 Q110 352 88.5 365.5 Q67 379 52 401 Q37 423 31 458 L147 488 Z M251 623 Q249 666 241 691 Q233 716 206 716 Q185 716 176 700.5 Q167 685 167 664 Q167 639 176 621.5 Q185 604 208 604 Q234 604 251 623 Z " />
<glyph glyph-name="parenleftsuperior" unicode="&#x207d;" horiz-adv-x="292" d="M141 276 Q122 299 104.5 328.5 Q87 358 73 392.5 Q59 427 50.5 465.5 Q42 504 42 546 Q42 630 72 696 Q102 762 150 824 L278 824 Q258 798 239.5 769 Q221 740 207 707 Q193 674 184.5 635 Q176 596 176 549 Q176 505 184.5 466.5 Q193 428 207 394.5 Q221 361 238.5 332 Q256 303 273 277 L141 276 Z " />
<glyph glyph-name="parenrightsuperior" unicode="&#x207e;" horiz-adv-x="309" d="M18 823 Q51 823 84 823.5 Q117 824 150 824 Q169 800 187 770 Q205 740 219.5 705.5 Q234 671 242.5 632 Q251 593 251 551 Q251 509 243 472 Q235 435 221 401.5 Q207 368 187.5 337 Q168 306 145 276 L16 276 Q35 301 53 328.5 Q71 356 85.5 389 Q100 422 108.5 461.5 Q117 501 117 549 Q117 592 108.5 630 Q100 668 86 701.5 Q72 735 54 765.5 Q36 796 18 823 Z " />
<glyph glyph-name="hyphensuperior" unicode="&#xf6e6;" horiz-adv-x="220" d="M20 489 L20 591 L199 591 L199 489 L20 489 Z " />
<glyph glyph-name="commasuperior" unicode="&#xf6e2;" horiz-adv-x="199" d="M36 455 L164 455 L92 269 L-9 277 L36 455 Z " />
<glyph glyph-name="periodsuperior" unicode="&#xf6e8;" horiz-adv-x="214" d="M182 408 Q182 376 164 359 Q146 342 108 342 Q32 342 32 408 Q32 476 108 476 Q182 476 182 408 Z " />
<glyph glyph-name="minussuperior" unicode="&#x207b;" horiz-adv-x="443" d="M92 521 L92 615 L352 615 L352 521 L92 521 Z " />
<glyph glyph-name="plussuperior" unicode="&#x207a;" horiz-adv-x="443" d="M171 433 L171 519 L87 519 L87 614 L171 614 L171 697 L270 697 L270 614 L355 614 L355 519 L270 519 L270 433 L171 433 Z " />
<glyph glyph-name="equalsuperior" unicode="&#x207c;" horiz-adv-x="445" d="M92 430 L92 524 L353 524 L353 430 L92 430 Z M92 564 L92 658 L353 658 L353 564 L92 564 Z " />
<glyph glyph-name="zeroinferior" unicode="&#x2080;" horiz-adv-x="430" d="M212 -152 Q121 -152 76 -95.5 Q31 -39 31 85 Q31 206 81 260.5 Q131 315 219 315 Q315 315 357 260.5 Q399 206 399 87 Q399 -39 353.5 -95.5 Q308 -152 212 -152 Z M215 -54 Q228 -54 236.5 -48 Q245 -42 250.5 -26 Q256 -10 258.5 16.5 Q261 43 261 84 Q261 124 259 150 Q257 176 251.5 191 Q246 206 237.5 212 Q229 218 217 218 Q204 218 195 212.5 Q186 207 180.5 192 Q175 177 172.5 151 Q170 125 170 84 Q170 43 172 16.5 Q174 -10 179.5 -26 Q185 -42 193.5 -48 Q202 -54 215 -54 Z " />
<glyph glyph-name="oneinferior" unicode="&#x2081;" horiz-adv-x="328" d="M137 -147 L137 167 Q129 163 115 160 Q101 157 86 154.5 Q71 152 57.5 150.5 Q44 149 36 149 L31 253 Q73 256 111 268.5 Q149 281 173 305 L270 305 L270 -147 L137 -147 Z " />
<glyph glyph-name="twoinferior" unicode="&#x2082;" horiz-adv-x="405" d="M203 315 Q286 315 323.5 281.5 Q361 248 361 195 Q361 168 353 145.5 Q345 123 328.5 100.5 Q312 78 286.5 54 Q261 30 225 0 L193 -33 L193 -37 L368 -37 L368 -145 L41 -145 L41 -37 L138 60 Q163 85 180.5 104 Q198 123 208.5 137 Q219 151 223.5 162.5 Q228 174 228 186 Q228 220 194 220 Q151 220 144 163 L30 178 Q34 214 49 240 Q64 266 87.5 282.5 Q111 299 140.5 307 Q170 315 203 315 Z " />
<glyph glyph-name="threeinferior" unicode="&#x2083;" horiz-adv-x="412" d="M136 -7 Q139 -35 152 -46 Q165 -57 188 -57 Q209 -57 222.5 -45.5 Q236 -34 236 -9 Q236 18 223.5 29.5 Q211 41 179 41 L129 41 L129 127 L160 127 Q196 127 213 143 Q230 159 230 186 Q230 203 221 212.5 Q212 222 192 222 Q171 222 159.5 210 Q148 198 143 175 L33 195 Q39 230 56 253 Q73 276 96 290 Q119 304 147.5 309.5 Q176 315 205 315 Q279 315 319.5 287.5 Q360 260 360 206 Q360 183 352.5 165.5 Q345 148 333 135.5 Q321 123 305.5 113.5 Q290 104 273 98 L273 95 Q371 75 371 -12 Q371 -46 357.5 -72 Q344 -98 319.5 -116 Q295 -134 262 -143 Q229 -152 190 -152 Q161 -152 133 -146.5 Q105 -141 82 -126.5 Q59 -112 42.5 -88 Q26 -64 22 -28 L136 -7 Z " />
<glyph glyph-name="fourinferior" unicode="&#x2084;" horiz-adv-x="432" d="M235 -145 L235 -53 L27 -53 L27 36 L203 307 L362 307 L362 47 L414 47 L414 -53 L363 -53 L363 -145 L235 -145 Z M235 47 L235 197 L137 47 L235 47 Z " />
<glyph glyph-name="fiveinferior" unicode="&#x2085;" horiz-adv-x="411" d="M67 307 L337 307 L337 202 L158 202 L146 112 L148 108 Q164 124 187 134 Q210 144 241 144 Q298 144 331.5 110 Q365 76 365 7 Q365 -32 351 -61.5 Q337 -91 313 -111.5 Q289 -132 256 -142 Q223 -152 185 -152 Q155 -152 127 -146 Q99 -140 76.5 -125 Q54 -110 38.5 -86 Q23 -62 19 -26 L131 -7 Q133 -34 147 -46 Q161 -58 184 -58 Q207 -58 221.5 -42.5 Q236 -27 236 0 Q236 32 221.5 43 Q207 54 190 54 Q172 54 159.5 47 Q147 40 137 30 L51 57 L67 307 Z " />
<glyph glyph-name="sixinferior" unicode="&#x2086;" horiz-adv-x="430" d="M279 176 Q276 202 266 213 Q256 224 237 224 Q208 224 190 193 Q172 162 171 94 Q186 110 211.5 121.5 Q237 133 272 133 Q295 133 317 126.5 Q339 120 356.5 105 Q374 90 384.5 65.5 Q395 41 395 5 Q395 -37 381 -67 Q367 -97 343 -116 Q319 -135 287.5 -143.5 Q256 -152 221 -152 Q169 -152 135.5 -133.5 Q102 -115 82.5 -84.5 Q63 -54 55 -13 Q47 28 47 73 Q47 114 55.5 157 Q64 200 86.5 235 Q109 270 147 292.5 Q185 315 245 315 Q271 315 295 310 Q319 305 339.5 292 Q360 279 374.5 256.5 Q389 234 395 200 L279 176 Z M177 27 Q178 -14 187.5 -36.5 Q197 -59 225 -59 Q245 -59 254.5 -43.5 Q264 -28 264 -5 Q264 21 256 35.5 Q248 50 225 50 Q211 50 198 42.5 Q185 35 177 27 Z " />
<glyph glyph-name="seveninferior" unicode="&#x2087;" horiz-adv-x="379" d="M43 -145 L217 202 L31 202 L31 307 L354 307 L354 212 L183 -145 L43 -145 Z " />
<glyph glyph-name="eightinferior" unicode="&#x2088;" horiz-adv-x="419" d="M303 110 Q348 92 373 65 Q398 38 398 -10 Q398 -38 385 -64 Q372 -90 347 -109.5 Q322 -129 285.5 -140.5 Q249 -152 202 -152 Q114 -152 68.5 -118.5 Q23 -85 23 -32 Q23 13 48 39 Q73 65 115 82 Q78 96 59.5 123.5 Q41 151 41 187 Q41 218 55 242 Q69 266 92.5 282.5 Q116 299 147.5 307 Q179 315 215 315 Q295 315 338 287 Q381 259 381 209 Q381 177 363 152 Q345 127 303 110 Z M180 42 Q144 19 144 -13 Q144 -35 159.5 -48 Q175 -61 204 -61 Q225 -61 240.5 -51.5 Q256 -42 256 -21 Q256 2 235.5 16 Q215 30 180 42 Z M234 145 Q248 154 257.5 167 Q267 180 267 195 Q267 212 253.5 221 Q240 230 220 230 Q199 230 187.5 220.5 Q176 211 176 197 Q176 168 234 145 Z " />
<glyph glyph-name="nineinferior" unicode="&#x2089;" horiz-adv-x="427" d="M147 -6 Q151 -29 160.5 -44.5 Q170 -60 196 -60 Q225 -60 242.5 -30 Q260 0 261 65 Q246 52 220.5 42 Q195 32 164 32 Q139 32 116 38.5 Q93 45 75 60.5 Q57 76 46.5 101 Q36 126 36 162 Q36 203 50.5 232 Q65 261 90 279.5 Q115 298 147 306.5 Q179 315 214 315 Q263 315 296 298.5 Q329 282 348.5 252 Q368 222 376 180.5 Q384 139 384 90 Q384 52 377 9.5 Q370 -33 349 -69 Q328 -105 290 -128.5 Q252 -152 191 -152 Q162 -152 136 -147 Q110 -142 88.5 -128.5 Q67 -115 52 -93 Q37 -71 31 -36 L147 -6 Z M251 129 Q249 172 241 197 Q233 222 206 222 Q185 222 176 206.5 Q167 191 167 170 Q167 145 176 127.5 Q185 110 208 110 Q234 110 251 129 Z " />
<glyph glyph-name="parenleftinferior" unicode="&#x208d;" horiz-adv-x="292" d="M141 -218 Q122 -195 104.5 -165.5 Q87 -136 73 -101.5 Q59 -67 50.5 -28.5 Q42 10 42 52 Q42 136 72 202 Q102 268 150 330 L278 330 Q258 304 239.5 275 Q221 246 207 213 Q193 180 184.5 141 Q176 102 176 55 Q176 11 184.5 -27.5 Q193 -66 207 -99.5 Q221 -133 238.5 -162 Q256 -191 273 -217 L141 -218 Z " />
<glyph glyph-name="parenrightinferior" unicode="&#x208e;" horiz-adv-x="309" d="M18 329 Q51 329 84 329.5 Q117 330 150 330 Q169 306 187 276 Q205 246 219.5 211.5 Q234 177 242.5 138 Q251 99 251 57 Q251 15 243 -22 Q235 -59 221 -92.5 Q207 -126 187.5 -157 Q168 -188 145 -218 L16 -218 Q35 -193 53 -165.5 Q71 -138 85.5 -105 Q100 -72 108.5 -32.5 Q117 7 117 55 Q117 98 108.5 136 Q100 174 86 207.5 Q72 241 54 271.5 Q36 302 18 329 Z " />
<glyph glyph-name="hypheninferior" unicode="&#xf6e5;" horiz-adv-x="220" d="M20 -5 L20 97 L199 97 L199 -5 L20 -5 Z " />
<glyph glyph-name="commainferior" unicode="&#xf6e1;" horiz-adv-x="199" d="M36 -39 L164 -39 L92 -225 L-9 -217 L36 -39 Z " />
<glyph glyph-name="periodinferior" unicode="&#xf6e7;" horiz-adv-x="214" d="M182 -86 Q182 -118 164 -135 Q146 -152 108 -152 Q32 -152 32 -86 Q32 -18 108 -18 Q182 -18 182 -86 Z " />
<glyph glyph-name="fraction" unicode="&#x2044;" horiz-adv-x="184" d="M-160 -12 L194 724 L332 724 L-21 -12 L-160 -12 Z " />
<glyph glyph-name="onehalf" unicode="&#xbd;" horiz-adv-x="1012" d="M228 -12 L582 724 L720 724 L367 -12 L228 -12 Z M156 281 L156 595 Q148 591 134 588 Q120 585 105 582.5 Q90 580 76.5 578.5 Q63 577 55 577 L50 681 Q92 684 130 696.5 Q168 709 192 733 L289 733 L289 281 L156 281 Z M787 462 Q870 462 907.5 428.5 Q945 395 945 342 Q945 315 937 292.5 Q929 270 912.5 247.5 Q896 225 870.5 201 Q845 177 809 147 L777 114 L777 110 L952 110 L952 2 L625 2 L625 110 L722 207 Q747 232 764.5 251 Q782 270 792.5 284 Q803 298 807.5 309.5 Q812 321 812 333 Q812 367 778 367 Q735 367 728 310 L614 325 Q618 361 633 387 Q648 413 671.5 429.5 Q695 446 724.5 454 Q754 462 787 462 Z " />
<glyph glyph-name="onethird" unicode="&#x2153;" horiz-adv-x="1012" d="M231 -12 L585 724 L723 724 L370 -12 L231 -12 Z M153 281 L153 595 Q145 591 131 588 Q117 585 102 582.5 Q87 580 73.5 578.5 Q60 577 52 577 L47 681 Q89 684 127 696.5 Q165 709 189 733 L286 733 L286 281 L153 281 Z M725 140 Q728 112 741 101 Q754 90 777 90 Q798 90 811.5 101.5 Q825 113 825 138 Q825 165 812.5 176.5 Q800 188 768 188 L718 188 L718 274 L749 274 Q785 274 802 290 Q819 306 819 333 Q819 350 810 359.5 Q801 369 781 369 Q760 369 748.5 357 Q737 345 732 322 L622 342 Q628 377 645 400 Q662 423 685 437 Q708 451 736.5 456.5 Q765 462 794 462 Q868 462 908.5 434.5 Q949 407 949 353 Q949 330 941.5 312.5 Q934 295 922 282.5 Q910 270 894.5 260.5 Q879 251 862 245 L862 242 Q960 222 960 135 Q960 101 946.5 75 Q933 49 908.5 31 Q884 13 851 4 Q818 -5 779 -5 Q750 -5 722 0.5 Q694 6 671 20.5 Q648 35 631.5 59 Q615 83 611 119 L725 140 Z " />
<glyph glyph-name="twothirds" unicode="&#x2154;" horiz-adv-x="1012" d="M269 -12 L623 724 L761 724 L408 -12 L269 -12 Z M203 743 Q286 743 323.5 709.5 Q361 676 361 623 Q361 596 353 573.5 Q345 551 328.5 528.5 Q312 506 286.5 482 Q261 458 225 428 L193 395 L193 391 L368 391 L368 283 L41 283 L41 391 L138 488 Q163 513 180.5 532 Q198 551 208.5 565 Q219 579 223.5 590.5 Q228 602 228 614 Q228 648 194 648 Q151 648 144 591 L30 606 Q34 642 49 668 Q64 694 87.5 710.5 Q111 727 140.5 735 Q170 743 203 743 Z M751 140 Q754 112 767 101 Q780 90 803 90 Q824 90 837.5 101.5 Q851 113 851 138 Q851 165 838.5 176.5 Q826 188 794 188 L744 188 L744 274 L775 274 Q811 274 828 290 Q845 306 845 333 Q845 350 836 359.5 Q827 369 807 369 Q786 369 774.5 357 Q763 345 758 322 L648 342 Q654 377 671 400 Q688 423 711 437 Q734 451 762.5 456.5 Q791 462 820 462 Q894 462 934.5 434.5 Q975 407 975 353 Q975 330 967.5 312.5 Q960 295 948 282.5 Q936 270 920.5 260.5 Q905 251 888 245 L888 242 Q986 222 986 135 Q986 101 972.5 75 Q959 49 934.5 31 Q910 13 877 4 Q844 -5 805 -5 Q776 -5 748 0.5 Q720 6 697 20.5 Q674 35 657.5 59 Q641 83 637 119 L751 140 Z " />
<glyph glyph-name="onequarter" unicode="&#xbc;" horiz-adv-x="1012" d="M233 -12 L587 724 L725 724 L372 -12 L233 -12 Z M153 281 L153 595 Q145 591 131 588 Q117 585 102 582.5 Q87 580 73.5 578.5 Q60 577 52 577 L47 681 Q89 684 127 696.5 Q165 709 189 733 L286 733 L286 281 L153 281 Z M784 2 L784 94 L576 94 L576 183 L752 454 L911 454 L911 194 L963 194 L963 94 L912 94 L912 2 L784 2 Z M784 194 L784 344 L686 194 L784 194 Z " />
<glyph glyph-name="threequarters" unicode="&#xbe;" horiz-adv-x="1012" d="M265 -12 L619 724 L757 724 L404 -12 L265 -12 Z M796 2 L796 94 L588 94 L588 183 L764 454 L923 454 L923 194 L975 194 L975 94 L924 94 L924 2 L796 2 Z M796 194 L796 344 L698 194 L796 194 Z M154 421 Q157 393 170 382 Q183 371 206 371 Q227 371 240.5 382.5 Q254 394 254 419 Q254 446 241.5 457.5 Q229 469 197 469 L147 469 L147 555 L178 555 Q214 555 231 571 Q248 587 248 614 Q248 631 239 640.5 Q230 650 210 650 Q189 650 177.5 638 Q166 626 161 603 L51 623 Q57 658 74 681 Q91 704 114 718 Q137 732 165.5 737.5 Q194 743 223 743 Q297 743 337.5 715.5 Q378 688 378 634 Q378 611 370.5 593.5 Q363 576 351 563.5 Q339 551 323.5 541.5 Q308 532 291 526 L291 523 Q389 503 389 416 Q389 382 375.5 356 Q362 330 337.5 312 Q313 294 280 285 Q247 276 208 276 Q179 276 151 281.5 Q123 287 100 301.5 Q77 316 60.5 340 Q44 364 40 400 L154 421 Z " />
<glyph glyph-name="partialdiff" unicode="&#x2202;" horiz-adv-x="577" d="M382 374 Q386 412 381.5 446 Q377 480 363.5 505.5 Q350 531 326.5 546 Q303 561 270 561 Q231 561 193 545 Q155 529 128 509 L69 601 Q111 633 170 654 Q229 675 295 675 Q365 675 411 649.5 Q457 624 483.5 582 Q510 540 520.5 485 Q531 430 531 372 Q531 301 519 232 Q507 163 477 109 Q447 55 395 21.5 Q343 -12 262 -12 Q156 -12 96 41 Q36 94 36 194 Q36 246 50.5 286.5 Q65 327 92 355 Q119 383 157 398 Q195 413 241 413 Q289 413 324 400.5 Q359 388 382 374 Z M374 277 Q354 289 329.5 299.5 Q305 310 276 310 Q226 310 207.5 280 Q189 250 189 200 Q189 182 192.5 164.5 Q196 147 205 132.5 Q214 118 229 109.5 Q244 101 267 101 Q297 101 317 116 Q337 131 349 156 Q361 181 366.5 212.5 Q372 244 374 277 Z " />
<glyph glyph-name="Omega" unicode="&#x2126;" horiz-adv-x="830" d="M566 130 L750 130 L750 0 L463 0 L463 219 Q487 229 512.5 242.5 Q538 256 559 279.5 Q580 303 594 338.5 Q608 374 608 428 Q608 476 595 511 Q582 546 558 568 Q534 590 500.5 600.5 Q467 611 426 611 Q386 611 352 598.5 Q318 586 293.5 561.5 Q269 537 255.5 501 Q242 465 242 417 Q242 374 251.5 342.5 Q261 311 278 288 Q295 265 319 249 Q343 233 372 220 L372 0 L87 0 L87 130 L268 130 L268 152 Q177 186 130 252 Q83 318 83 415 Q83 486 107 545 Q131 604 175.5 647 Q220 690 284 713.5 Q348 737 428 737 Q514 737 577 715.5 Q640 694 681.5 654 Q723 614 743 557 Q763 500 763 430 Q763 374 746.5 330 Q730 286 703 252 Q676 218 640.5 193 Q605 168 566 152 L566 130 Z " />
<glyph glyph-name="Delta" unicode="&#x2206;" horiz-adv-x="715" d="M9 0 L267 724 L445 724 L706 0 L9 0 Z M191 124 L488 124 L347 565 L340 565 L191 124 Z " />
<glyph glyph-name="product" unicode="&#x220f;" horiz-adv-x="788" d="M684 -162 L530 -162 L530 596 L256 596 L256 -162 L101 -162 L101 724 L684 724 L684 -162 Z " />
<glyph glyph-name="summation" unicode="&#x2211;" horiz-adv-x="627" d="M184 -41 L568 -41 L568 -176 L10 -176 L10 -71 L232 279 L19 633 L19 724 L565 724 L565 603 L207 603 L390 287 L184 -41 Z " />
<glyph glyph-name="uni0394" unicode="&#x394;" horiz-adv-x="715" d="M9 0 L267 724 L445 724 L706 0 L9 0 Z M191 124 L488 124 L347 565 L340 565 L191 124 Z " />
<glyph glyph-name="uni03A9" unicode="&#x3a9;" horiz-adv-x="830" d="M566 130 L750 130 L750 0 L463 0 L463 219 Q487 229 512.5 242.5 Q538 256 559 279.5 Q580 303 594 338.5 Q608 374 608 428 Q608 476 595 511 Q582 546 558 568 Q534 590 500.5 600.5 Q467 611 426 611 Q386 611 352 598.5 Q318 586 293.5 561.5 Q269 537 255.5 501 Q242 465 242 417 Q242 374 251.5 342.5 Q261 311 278 288 Q295 265 319 249 Q343 233 372 220 L372 0 L87 0 L87 130 L268 130 L268 152 Q177 186 130 252 Q83 318 83 415 Q83 486 107 545 Q131 604 175.5 647 Q220 690 284 713.5 Q348 737 428 737 Q514 737 577 715.5 Q640 694 681.5 654 Q723 614 743 557 Q763 500 763 430 Q763 374 746.5 330 Q730 286 703 252 Q676 218 640.5 193 Q605 168 566 152 L566 130 Z " />
<glyph glyph-name="uni03BC" unicode="&#x3bc;" horiz-adv-x="629" d="M81 521 L232 521 L232 191 Q232 148 243.5 128.5 Q255 109 287 109 Q319 109 345.5 123.5 Q372 138 389 152 L389 521 L540 521 L540 0 L415 0 L410 54 L405 54 Q370 20 327.5 4 Q285 -12 228 -1 L227 -2 L237 -176 L81 -176 L81 521 Z " />
<glyph glyph-name="pi" unicode="&#x3c0;" horiz-adv-x="671" d="M562 0 L411 0 L411 410 L259 410 L259 0 L109 0 L109 521 L562 521 L562 0 Z " />
<glyph glyph-name="mu" unicode="&#xb5;" horiz-adv-x="629" d="M81 521 L232 521 L232 191 Q232 148 243.5 128.5 Q255 109 287 109 Q319 109 345.5 123.5 Q372 138 389 152 L389 521 L540 521 L540 0 L415 0 L410 54 L405 54 Q370 20 327.5 4 Q285 -12 228 -1 L227 -2 L237 -176 L81 -176 L81 521 Z " />
<glyph glyph-name="uni2215" unicode="&#x2215;" horiz-adv-x="454" d="M8 -17 L321 631 L450 631 L138 -17 L8 -17 Z " />
<glyph glyph-name="uni2219" unicode="&#x2219;" horiz-adv-x="289" d="M236 308 Q236 266 212.5 244 Q189 222 143 222 Q50 222 50 308 Q50 350 73.5 372.5 Q97 395 143 395 Q189 395 212.5 372.5 Q236 350 236 308 Z " />
<glyph glyph-name="asciicircum" unicode="&#x5e;" horiz-adv-x="683" d="M474 299 L341 535 L211 299 L69 299 L266 664 L419 664 L618 299 L474 299 Z " />
<glyph glyph-name="underscore" unicode="&#x5f;" horiz-adv-x="500" d="M0 -181 L0 -71 L500 -71 L500 -181 L0 -181 Z " />
<glyph glyph-name="asciitilde" unicode="&#x7e;" horiz-adv-x="600" d="M176 450 Q200 450 235 443 Q270 436 305 428 Q340 420 371 413 Q402 406 419 406 Q436 406 442.5 415.5 Q449 425 449 450 L532 446 Q536 415 532 388.5 Q528 362 516 342 Q504 322 483.5 310.5 Q463 299 434 299 Q408 299 372.5 306 Q337 313 301 321 Q265 329 234 336 Q203 343 187 343 Q171 343 163 333.5 Q155 324 159 296 L70 299 Q62 365 89 407.5 Q116 450 176 450 Z " />
<glyph glyph-name="radical" unicode="&#x221a;" horiz-adv-x="570" d="M240 0 L118 211 Q114 218 106 216 L42 199 L3 288 L170 369 L290 144 L450 747 L571 715 L379 0 L240 0 Z " />
<glyph glyph-name="infinity" unicode="&#x221e;" horiz-adv-x="672" d="M335 251 Q312 225 275 202.5 Q238 180 188 180 Q159 180 132.5 188 Q106 196 86 213.5 Q66 231 54.5 257.5 Q43 284 43 322 Q43 356 55 382.5 Q67 409 87.5 427 Q108 445 135.5 454.5 Q163 464 194 464 Q243 464 277.5 442 Q312 420 339 393 Q352 406 367.5 418.5 Q383 431 401 441 Q419 451 440 457.5 Q461 464 486 464 Q516 464 542 455.5 Q568 447 587.5 429.5 Q607 412 618 385 Q629 358 629 320 Q629 287 617.5 260.5 Q606 234 586.5 215.5 Q567 197 540 187.5 Q513 178 483 178 Q458 178 436.5 184.5 Q415 191 396.5 201.5 Q378 212 362.5 225 Q347 238 335 251 Z M285 324 Q263 347 243.5 362 Q224 377 196 377 Q170 377 154 361.5 Q138 346 138 322 Q138 302 152 284 Q166 266 194 266 Q220 266 243.5 285 Q267 304 285 324 Z M393 323 Q412 303 431.5 286 Q451 269 480 269 Q507 269 520.5 286 Q534 303 534 324 Q534 350 521 364 Q508 378 482 378 Q456 378 434 360 Q412 342 393 323 Z " />
<glyph glyph-name="integral" unicode="&#x222b;" horiz-adv-x="427" d="M68 -65 Q86 -74 104.5 -78.5 Q123 -83 137 -83 Q158 -83 169 -70 Q180 -57 177 -14 L124 582 Q120 627 133.5 655 Q147 683 168.5 699 Q190 715 216 721 Q242 727 264 727 Q301 727 329.5 721 Q358 715 390 704 L370 603 Q333 620 300 620 Q280 620 268.5 606.5 Q257 593 261 552 L313 -44 Q317 -89 303.5 -117.5 Q290 -146 268.5 -162 Q247 -178 221 -183.5 Q195 -189 174 -189 Q136 -189 108 -183 Q80 -177 48 -166 L68 -65 Z " />
<glyph glyph-name="approxequal" unicode="&#x2248;" horiz-adv-x="570" d="M168 548 Q192 548 227 541 Q262 534 297 526 Q332 518 363 511 Q394 504 411 504 Q428 504 434.5 513.5 Q441 523 441 548 L524 544 Q528 513 524 486.5 Q520 460 508 440 Q496 420 475.5 408.5 Q455 397 426 397 Q400 397 364.5 404 Q329 411 293 419 Q257 427 226 434 Q195 441 179 441 Q163 441 155 431.5 Q147 422 151 394 L62 397 Q54 463 81 505.5 Q108 548 168 548 Z M168 348 Q192 348 227 341 Q262 334 297 326 Q332 318 363 311 Q394 304 411 304 Q428 304 434.5 313.5 Q441 323 441 348 L524 344 Q528 313 524 286.5 Q520 260 508 240 Q496 220 475.5 208.5 Q455 197 426 197 Q400 197 364.5 204 Q329 211 293 219 Q257 227 226 234 Q195 241 179 241 Q163 241 155 231.5 Q147 222 151 194 L62 197 Q54 263 81 305.5 Q108 348 168 348 Z " />
<glyph glyph-name="notequal" unicode="&#x2260;" horiz-adv-x="570" d="M216 247 L243 316 L92 316 L92 436 L286 436 L320 523 L428 523 L393 436 L478 436 L478 316 L350 316 L323 247 L478 247 L478 127 L280 127 L246 43 L139 43 L173 127 L92 127 L92 247 L216 247 Z " />
<glyph glyph-name="lessequal" unicode="&#x2264;" horiz-adv-x="570" d="M89 265 L89 406 L476 547 L476 427 L212 339 L476 250 L476 128 L89 265 Z M89 0 L89 119 L476 119 L476 0 L89 0 Z " />
<glyph glyph-name="greaterequal" unicode="&#x2265;" horiz-adv-x="570" d="M88 129 L88 250 L353 339 L88 422 L88 547 L476 406 L476 266 L88 129 Z M88 0 L88 119 L475 119 L475 0 L88 0 Z " />
<glyph glyph-name="less" unicode="&#x3c;" horiz-adv-x="570" d="M69 220 L69 362 L460 502 L460 377 L199 292 L460 206 L460 83 L69 220 Z " />
<glyph glyph-name="equal" unicode="&#x3d;" horiz-adv-x="570" d="M92 127 L92 247 L478 247 L478 127 L92 127 Z M92 316 L92 436 L478 436 L478 316 L92 316 Z " />
<glyph glyph-name="greater" unicode="&#x3e;" horiz-adv-x="570" d="M97 85 L97 207 L358 292 L97 377 L97 502 L488 362 L488 222 L97 85 Z " />
<glyph glyph-name="lozenge" unicode="&#x25ca;" horiz-adv-x="570" d="M230 -17 L75 307 L230 631 L340 631 L495 307 L340 -17 L230 -17 Z M382 307 L285 503 L189 307 L285 104 L382 307 Z " />
<glyph glyph-name="plus" unicode="&#x2b;" horiz-adv-x="570" d="M224 121 L224 264 L91 264 L91 383 L224 383 L224 522 L344 522 L344 383 L478 383 L478 264 L344 264 L344 121 L224 121 Z " />
<glyph glyph-name="minus" unicode="&#x2212;" horiz-adv-x="570" d="M92 264 L92 383 L479 383 L479 264 L92 264 Z " />
<glyph glyph-name="plusminus" unicode="&#xb1;" horiz-adv-x="570" d="M91 0 L91 119 L478 119 L478 0 L91 0 Z M224 144 L224 264 L91 264 L91 383 L224 383 L224 522 L344 522 L344 383 L478 383 L478 264 L344 264 L344 144 L224 144 Z " />
<glyph glyph-name="divide" unicode="&#xf7;" horiz-adv-x="570" d="M361 155 Q361 120 341.5 100.5 Q322 81 282 81 Q242 81 222.5 100.5 Q203 120 203 155 Q203 187 222.5 208 Q242 229 282 229 Q322 229 341.5 208 Q361 187 361 155 Z M91 261 L91 381 L478 381 L478 261 L91 261 Z M361 487 Q361 452 341.5 433 Q322 414 282 414 Q203 414 203 487 Q203 519 222.5 540 Q242 561 282 561 Q322 561 341.5 540 Q361 519 361 487 Z " />
<glyph glyph-name="multiply" unicode="&#xd7;" horiz-adv-x="570" d="M285 235 L186 136 L102 223 L201 321 L102 420 L186 507 L285 408 L384 507 L468 420 L369 321 L468 223 L384 136 L285 235 Z " />
<glyph glyph-name="logicalnot" unicode="&#xac;" horiz-adv-x="570" d="M361 170 L361 265 L85 265 L85 384 L472 384 L472 170 L361 170 Z " />
<glyph glyph-name="circle" unicode="&#x25cb;" horiz-adv-x="610" d="M305 119 Q263 119 225.5 135 Q188 151 160 179 Q132 207 116 244.5 Q100 282 100 324 Q100 366 116 403.5 Q132 441 160 469 Q188 497 225.5 513 Q263 529 305 529 Q347 529 384.5 513 Q422 497 450 469 Q478 441 494 403.5 Q510 366 510 324 Q510 282 494 244.5 Q478 207 450 179 Q422 151 384.5 135 Q347 119 305 119 Z " />
<glyph glyph-name="triangle" unicode="&#x25b3;" horiz-adv-x="425" d="M150 203 L150 434 L335 320 L150 203 Z " />
<glyph glyph-name="thinspace" unicode="&#x2009;" horiz-adv-x="125" d="" />
</font>
</svg>
